<?xml version="1.0" encoding="UTF-8" standalone="no"?>
<!-- Created with Inkscape (http://www.inkscape.org/) -->

<svg
   width="210mm"
   height="297mm"
   viewBox="0 0 210 297"
   version="1.1"
   id="svg5"
   xml:space="preserve"
   sodipodi:docname="034_Bitcoin Diplom - Arbeitsbuch.svg"
   inkscape:version="1.2.2 (b0a8486, 2022-12-01)"
   inkscape:export-filename="034_Bitcoin Diplom - Arbeitsbuch.pdf"
   inkscape:export-xdpi="300"
   inkscape:export-ydpi="300"
   xmlns:inkscape="http://www.inkscape.org/namespaces/inkscape"
   xmlns:sodipodi="http://sodipodi.sourceforge.net/DTD/sodipodi-0.dtd"
   xmlns:xlink="http://www.w3.org/1999/xlink"
   xmlns="http://www.w3.org/2000/svg"
   xmlns:svg="http://www.w3.org/2000/svg"><sodipodi:namedview
     id="namedview7"
     pagecolor="#ffffff"
     bordercolor="#000000"
     borderopacity="0.25"
     inkscape:showpageshadow="true"
     inkscape:pageopacity="0.0"
     inkscape:pagecheckerboard="false"
     inkscape:deskcolor="#d1d1d1"
     inkscape:document-units="mm"
     showgrid="false"
     showborder="true"
     borderlayer="true"
     showguides="true"
     inkscape:zoom="0.46947952"
     inkscape:cx="369.55819"
     inkscape:cy="561.25984"
     inkscape:window-width="1280"
     inkscape:window-height="747"
     inkscape:window-x="0"
     inkscape:window-y="25"
     inkscape:window-maximized="1"
     inkscape:current-layer="svg5"><sodipodi:guide
       position="0,279.2"
       orientation="0,1"
       id="guide2065"
       inkscape:locked="false"
       inkscape:label=""
       inkscape:color="rgb(0,134,229)" /><sodipodi:guide
       position="13,297"
       orientation="-1,0"
       id="guide1129"
       inkscape:locked="false"
       inkscape:label=""
       inkscape:color="rgb(0,134,229)" /><sodipodi:guide
       position="0,262"
       orientation="0,1"
       id="guide1131"
       inkscape:locked="false"
       inkscape:label=""
       inkscape:color="rgb(0,134,229)" /><sodipodi:guide
       position="190,297"
       orientation="-1,0"
       id="guide1187"
       inkscape:locked="false"
       inkscape:label=""
       inkscape:color="rgb(0,134,229)" /><sodipodi:guide
       position="0,241"
       orientation="0,1"
       id="guide1189"
       inkscape:locked="false"
       inkscape:label=""
       inkscape:color="rgb(0,134,229)" /><sodipodi:guide
       position="0,235"
       orientation="0,1"
       id="guide1290"
       inkscape:locked="false"
       inkscape:label=""
       inkscape:color="rgb(0,134,229)" /><sodipodi:guide
       position="0,17"
       orientation="0,1"
       id="guide11495"
       inkscape:locked="false"
       inkscape:label=""
       inkscape:color="rgb(0,134,229)" /><sodipodi:guide
       position="23,297"
       orientation="-1,0"
       id="guide12949"
       inkscape:locked="false"
       inkscape:label=""
       inkscape:color="rgb(0,134,229)" /></sodipodi:namedview><defs
     id="defs2"><rect
       x="-411.45407"
       y="234.33071"
       width="661.72615"
       height="33.666661"
       id="rect1350" /><rect
       x="-442.43227"
       y="234.33071"
       width="406.68819"
       height="70.296348"
       id="rect1294" /><linearGradient
       x1="0"
       y1="0"
       x2="1"
       y2="0"
       gradientUnits="userSpaceOnUse"
       gradientTransform="matrix(351.86044,609.44012,609.44012,-351.86044,436.06979,421.06186)"
       spreadMethod="pad"
       id="linearGradient12002"><stop
         style="stop-opacity:1;stop-color:#5e3197"
         offset="0"
         id="stop11996" /><stop
         style="stop-opacity:1;stop-color:#3c2973"
         offset="0.427928"
         id="stop11998" /><stop
         style="stop-opacity:1;stop-color:#171b3a"
         offset="1"
         id="stop12000" /></linearGradient><clipPath
       clipPathUnits="userSpaceOnUse"
       id="clipPath31082"><path
         d="M 531.722,746.093 H 901.126 V 702.989 H 531.722 Z"
         id="path31080" /></clipPath><clipPath
       clipPathUnits="userSpaceOnUse"
       id="clipPath31086"><path
         d="m 531.722,702.989 h 369.404 v 43.104 H 531.722 Z"
         id="path31084" /></clipPath><clipPath
       clipPathUnits="userSpaceOnUse"
       id="clipPath31090"><path
         d="M 600.571,731.948 H 901.126 V 706.17 H 600.571 Z"
         id="path31088" /></clipPath><clipPath
       clipPathUnits="userSpaceOnUse"
       id="clipPath31094"><path
         d="m 600.571,706.17 h 300.555 v 25.778 H 600.571 Z"
         id="path31092" /></clipPath><clipPath
       clipPathUnits="userSpaceOnUse"
       id="clipPath31098"><path
         d="M 612,738.633 H 887.393 V 715.115 H 612 Z"
         id="path31096" /></clipPath><clipPath
       clipPathUnits="userSpaceOnUse"
       id="clipPath31102"><path
         d="m 612,715.115 h 275.393 v 23.518 H 612 Z"
         id="path31100" /></clipPath><clipPath
       clipPathUnits="userSpaceOnUse"
       id="clipPath31106"><path
         d="m 534.808,721.869 h 197.867 v -18.88 H 534.808 Z"
         id="path31104" /></clipPath><clipPath
       clipPathUnits="userSpaceOnUse"
       id="clipPath31110"><path
         d="m 534.808,702.989 h 197.867 v 18.88 H 534.808 Z"
         id="path31108" /></clipPath><clipPath
       clipPathUnits="userSpaceOnUse"
       id="clipPath31114"><path
         d="M 591.406,746.093 H 884.663 V 722.574 H 591.406 Z"
         id="path31112" /></clipPath><clipPath
       clipPathUnits="userSpaceOnUse"
       id="clipPath31118"><path
         d="m 591.406,722.574 h 293.257 v 23.519 H 591.406 Z"
         id="path31116" /></clipPath><clipPath
       clipPathUnits="userSpaceOnUse"
       id="clipPath31216"><path
         d="M -243.45,763.582 H 387.086 V 664.793 H -243.45 Z"
         id="path31214" /></clipPath><clipPath
       clipPathUnits="userSpaceOnUse"
       id="clipPath31220"><path
         d="m -11.736,687.982 h 398.822 v 75.6 H -11.736 Z"
         id="path31218" /></clipPath><clipPath
       clipPathUnits="userSpaceOnUse"
       id="clipPath31224"><path
         d="M -243.45,757.852 H 315.864 V 664.793 H -243.45 Z"
         id="path31222" /></clipPath><clipPath
       clipPathUnits="userSpaceOnUse"
       id="clipPath31228"><path
         d="m -243.45,664.793 h 559.314 v 93.059 H -243.45 Z"
         id="path31226" /></clipPath><clipPath
       clipPathUnits="userSpaceOnUse"
       id="clipPath31232"><path
         d="M -88.7533,685.934 H 93.3112 V 664.793 H -88.7533 Z"
         id="path31230" /></clipPath><clipPath
       clipPathUnits="userSpaceOnUse"
       id="clipPath31236"><path
         d="M -88.753,664.793 H 93.312 v 21.141 H -88.753 Z"
         id="path31234" /></clipPath><clipPath
       clipPathUnits="userSpaceOnUse"
       id="clipPath31240"><path
         d="M -92.1164,692.617 H 103.559 V 671.474 H -92.1164 Z"
         id="path31238" /></clipPath><clipPath
       clipPathUnits="userSpaceOnUse"
       id="clipPath31244"><path
         d="m -92.116,671.474 h 195.675 v 21.143 H -92.116 Z"
         id="path31242" /></clipPath><clipPath
       clipPathUnits="userSpaceOnUse"
       id="clipPath31248"><path
         d="M -94.8465,700.078 H 110.935 V 678.933 H -94.8465 Z"
         id="path31246" /></clipPath><clipPath
       clipPathUnits="userSpaceOnUse"
       id="clipPath31252"><path
         d="m -94.846,678.933 h 205.781 v 21.145 H -94.846 Z"
         id="path31250" /></clipPath><clipPath
       clipPathUnits="userSpaceOnUse"
       id="clipPath31256"><path
         d="M -149.51,757.852 H 234.761 V 734.334 H -149.51 Z"
         id="path31254" /></clipPath><clipPath
       clipPathUnits="userSpaceOnUse"
       id="clipPath31260"><path
         d="m -149.51,734.334 h 384.271 v 23.518 H -149.51 Z"
         id="path31258" /></clipPath><clipPath
       clipPathUnits="userSpaceOnUse"
       id="clipPath31264"><path
         d="m -237.356,735.23 h 553.22 v -40.662 h -553.22 z"
         id="path31262" /></clipPath><clipPath
       clipPathUnits="userSpaceOnUse"
       id="clipPath31268"><path
         d="m -237.356,694.568 h 553.22 v 40.662 h -553.22 z"
         id="path31266" /></clipPath><clipPath
       clipPathUnits="userSpaceOnUse"
       id="clipPath31272"><path
         d="M -240.716,741.917 H 70.0318 v -23.52 H -240.716 Z"
         id="path31270" /></clipPath><clipPath
       clipPathUnits="userSpaceOnUse"
       id="clipPath31276"><path
         d="M -240.716,718.397 H 70.032 v 23.52 h -310.748 z"
         id="path31274" /></clipPath><clipPath
       clipPathUnits="userSpaceOnUse"
       id="clipPath31280"><path
         d="M -243.45,749.376 H 54.1837 V 725.858 H -243.45 Z"
         id="path31278" /></clipPath><clipPath
       clipPathUnits="userSpaceOnUse"
       id="clipPath31284"><path
         d="M -243.45,725.858 H 54.184 v 23.518 H -243.45 Z"
         id="path31282" /></clipPath><clipPath
       clipPathUnits="userSpaceOnUse"
       id="clipPath31424"><path
         d="m 499.874,763.582 h 135.305 v -75.6 H 499.874 Z"
         id="path31422" /></clipPath><clipPath
       clipPathUnits="userSpaceOnUse"
       id="clipPath31428"><path
         d="M 499.874,687.982 H 612 v 75.6 H 499.874 Z"
         id="path31426" /></clipPath><clipPath
       clipPathUnits="userSpaceOnUse"
       id="clipPath31432"><path
         d="m 538.188,711.501 h 96.991 v -23.519 h -96.991 z"
         id="path31430" /></clipPath><clipPath
       clipPathUnits="userSpaceOnUse"
       id="clipPath31436"><path
         d="m 538.188,687.982 h 96.991 v 23.519 h -96.991 z"
         id="path31434" /></clipPath><clipPath
       clipPathUnits="userSpaceOnUse"
       id="clipPath31468"><path
         d="M 72.4204,24.3195 H 569.703 v -1.639 H 72.4204 Z"
         id="path31466" /></clipPath><linearGradient
       inkscape:collect="always"
       xlink:href="#linearGradient12002"
       id="linearGradient4412922"
       gradientUnits="userSpaceOnUse"
       gradientTransform="matrix(351.86044,609.44012,609.44012,-351.86044,436.06979,421.06186)"
       x1="0"
       y1="0"
       x2="1"
       y2="0"
       spreadMethod="pad" /><clipPath
       clipPathUnits="userSpaceOnUse"
       id="clipPath1469"><g
         id="g1479"><g
           id="g1477"><g
             id="g1475"><g
               id="g1473"><path
                 d="M -1.8776819e-5,279.40001 H 215.89997 V 8.24e-6 H -1.8776819e-5 Z"
                 id="path1471"
                 style="stroke-width:0.352778" /></g></g></g></g></clipPath><clipPath
       clipPathUnits="userSpaceOnUse"
       id="clipPath1780"><g
         id="g1790"
         transform="matrix(2.8346458,0,0,-2.8346457,5.3225631e-5,792.00002)"><g
           id="g1788"><g
             id="g1786"><g
               id="g1784"><path
                 d="M -1.8776819e-5,8.24e-6 H 215.89997 V 279.40001 H -1.8776819e-5 Z"
                 id="path1782"
                 style="stroke-width:0.352778" /></g></g></g></g></clipPath><clipPath
       clipPathUnits="userSpaceOnUse"
       id="clipPath1844"><g
         id="g1854"
         transform="matrix(2.8346458,0,0,-2.8346457,5.3225631e-5,792.00002)"><g
           id="g1852"><g
             id="g1850"><g
               id="g1848"><path
                 d="M -1.8776819e-5,8.24e-6 H 215.89997 V 279.40001 H -1.8776819e-5 Z"
                 id="path1846"
                 style="stroke-width:0.352778" /></g></g></g></g></clipPath><clipPath
       clipPathUnits="userSpaceOnUse"
       id="clipPath1867"><g
         id="g1877"><g
           id="g1875"><g
             id="g1873"><g
               id="g1871"><path
                 d="M -1.8776819e-5,8.24e-6 H 215.89997 V 279.40001 H -1.8776819e-5 Z"
                 id="path1869"
                 style="stroke-width:0.352778" /></g></g></g></g></clipPath><clipPath
       clipPathUnits="userSpaceOnUse"
       id="clipPath1893"><g
         id="g1903"
         transform="matrix(2.8346458,0,0,-2.8346457,5.3225631e-5,792.00002)"><g
           id="g1901"><g
             id="g1899"><g
               id="g1897"><path
                 d="M -1.8776819e-5,8.24e-6 H 215.89997 V 279.40001 H -1.8776819e-5 Z"
                 id="path1895"
                 style="stroke-width:0.352778" /></g></g></g></g></clipPath><clipPath
       clipPathUnits="userSpaceOnUse"
       id="clipPath1974"><g
         id="g1984"
         transform="matrix(2.8346458,0,0,-2.8346457,5.3225631e-5,792.00002)"><g
           id="g1982"><g
             id="g1980"><g
               id="g1978"><path
                 d="M -1.8776819e-5,8.24e-6 H 215.89997 V 279.40001 H -1.8776819e-5 Z"
                 id="path1976"
                 style="stroke-width:0.352778" /></g></g></g></g></clipPath><clipPath
       clipPathUnits="userSpaceOnUse"
       id="clipPath1998"><g
         id="g2008"
         transform="matrix(2.8346458,0,0,-2.8346457,5.3225631e-5,792.00002)"><g
           id="g2006"><g
             id="g2004"><g
               id="g2002"><path
                 d="M -1.8776819e-5,8.24e-6 H 215.89997 V 279.40001 H -1.8776819e-5 Z"
                 id="path2000"
                 style="stroke-width:0.352778" /></g></g></g></g></clipPath><rect
       x="-338.07568"
       y="238.11024"
       width="679.24735"
       height="43.222917"
       id="rect1527" /></defs><g
     id="g31056"
     transform="matrix(0.34326659,0,0,-0.35277778,0,287.17476)"
     clip-path="url(#clipPath1998)"><path
       d="m 0,763.582 v 0 -75.6 0 h 612 v 0 75.6 0 z"
       style="fill:url(#linearGradient4412922);stroke:none"
       id="path31066" /></g><g
     id="g31078"
     transform="matrix(0.35277776,0,0,-0.35277778,-1.8776819e-5,279.40001)" /><g
     id="g31212"
     transform="matrix(0.35277776,0,0,-0.35277778,-1.8776819e-5,279.40001)" /><g
     id="g31416"
     transform="matrix(0.35277776,0,0,-0.35277778,0,287.17476)"
     clip-path="url(#clipPath1780)"><g
       clip-path="url(#clipPath31216)"
       opacity="0.699997"
       id="g31414"><g
         id="g31412"><g
           clip-path="url(#clipPath31220)"
           id="g31410"><g
             id="g31408"><g
               id="g31286" /><g
               id="g31406"><g
                 clip-path="url(#clipPath31224)"
                 opacity="0.300003"
                 id="g31404"><g
                   id="g31402"><g
                     clip-path="url(#clipPath31228)"
                     id="g31400"><g
                       id="g31302"><g
                         id="g31288" /><g
                         id="g31300"><g
                           clip-path="url(#clipPath31232)"
                           id="g31298"><g
                             id="g31296"><g
                               clip-path="url(#clipPath31236)"
                               id="g31294"><g
                                 transform="translate(87.2715,667.0532)"
                                 id="g31292"><path
                                   d="m 0,0 c 0.361,-1.301 1.542,-2.261 2.959,-2.261 1.702,0 3.081,1.378 3.081,3.081 0,1.701 -1.379,3.083 -3.081,3.083 C 1.542,3.903 0.361,2.942 0,1.641 H -34.218 V 18.88 H -176.025 V 17.243 H -35.856 V 0 Z"
                                   style="fill:#ffffff;fill-opacity:1;fill-rule:nonzero;stroke:none"
                                   id="path31290" /></g></g></g></g></g></g><g
                       id="g31318"><g
                         id="g31304" /><g
                         id="g31316"><g
                           clip-path="url(#clipPath31240)"
                           id="g31314"><g
                             id="g31312"><g
                               clip-path="url(#clipPath31244)"
                               id="g31310"><g
                                 transform="translate(97.5195,673.7368)"
                                 id="g31308"><path
                                   d="m 0,0 c 0.36,-1.301 1.539,-2.263 2.958,-2.263 1.701,0 3.082,1.382 3.082,3.082 C 6.04,2.52 4.659,3.901 2.958,3.901 1.539,3.901 0.361,2.94 0,1.641 H -37.841 V 18.88 H -189.636 V 17.241 H -39.479 V 0 Z"
                                   style="fill:#ffffff;fill-opacity:1;fill-rule:nonzero;stroke:none"
                                   id="path31306" /></g></g></g></g></g></g><g
                       id="g31334"><g
                         id="g31320" /><g
                         id="g31332"><g
                           clip-path="url(#clipPath31248)"
                           id="g31330"><g
                             id="g31328"><g
                               clip-path="url(#clipPath31252)"
                               id="g31326"><g
                                 transform="translate(104.8945,681.1968)"
                                 id="g31324"><path
                                   d="m 0,0 c 0.363,-1.301 1.544,-2.264 2.959,-2.264 1.702,0 3.081,1.382 3.081,3.084 0,1.702 -1.379,3.079 -3.081,3.079 C 1.542,3.899 0.36,2.938 0,1.637 h -37.501 v 17.245 h -162.24 V 17.239 H -39.14 V 0 Z"
                                   style="fill:#ffffff;fill-opacity:1;fill-rule:nonzero;stroke:none"
                                   id="path31322" /></g></g></g></g></g></g><g
                       id="g31350"><g
                         id="g31336" /><g
                         id="g31348"><g
                           clip-path="url(#clipPath31256)"
                           id="g31346"><g
                             id="g31344"><g
                               clip-path="url(#clipPath31260)"
                               id="g31342"><g
                                 transform="translate(228.7231,755.5898)"
                                 id="g31340"><path
                                   d="m 0,0 h -45.736 l -19.618,-19.617 h -56.55 v 17.242 h -256.329 v -1.641 h 254.688 v -17.239 h 58.871 L -45.058,-1.64 H 0 c 0.36,-1.302 1.541,-2.263 2.957,-2.263 1.703,0 3.081,1.381 3.081,3.082 0,1.705 -1.378,3.083 -3.081,3.083 C 1.541,2.262 0.36,1.302 0,0"
                                   style="fill:#ffffff;fill-opacity:1;fill-rule:nonzero;stroke:none"
                                   id="path31338" /></g></g></g></g></g></g><g
                       id="g31366"><g
                         id="g31352" /><g
                         id="g31364"><g
                           clip-path="url(#clipPath31264)"
                           id="g31362"><g
                             id="g31360"><g
                               clip-path="url(#clipPath31268)"
                               id="g31358"><g
                                 transform="translate(82.0239,732.9722)"
                                 id="g31356"><path
                                   d="m 0,0 h -80.968 l -19.618,-19.618 h -76.984 v 17.24 h -141.81 v -1.638 h 140.171 v -17.241 h 79.301 l 0.094,0.094 H 73.45 v -17.241 h 79.306 l 19.618,19.616 H 227.8 c 0.361,-1.304 1.539,-2.262 2.956,-2.262 1.702,0 3.084,1.379 3.084,3.081 0,1.701 -1.382,3.084 -3.084,3.084 -1.417,0 -2.595,-0.963 -2.956,-2.262 h -56.107 l -19.616,-19.62 H 75.093 v 17.24 H -98.179 l 5.045,5.044 H 80.077 v -17.24 h 69.316 l 19.617,19.62 h 45.059 c 0.36,-1.305 1.54,-2.263 2.956,-2.263 1.702,0 3.084,1.378 3.084,3.08 0,1.7 -1.382,3.081 -3.084,3.081 -1.416,0 -2.596,-0.96 -2.956,-2.262 H 168.333 L 148.712,-30.082 H 81.718 v 17.24 H -91.494 l 5.823,5.819 h 173.46 v -17.24 h 58.871 l 19.619,19.617 h 45.056 c 0.364,-1.302 1.542,-2.263 2.957,-2.263 1.703,0 3.081,1.383 3.081,3.083 0,1.701 -1.378,3.081 -3.081,3.081 -1.416,0 -2.596,-0.96 -2.957,-2.262 H 165.598 L 145.982,-22.625 H 89.432 V -5.384 H -84.032 l 3.741,3.743 H 0 c 0.363,-1.302 1.543,-2.262 2.96,-2.262 1.7,0 3.08,1.381 3.08,3.083 0,1.701 -1.38,3.077 -3.08,3.077 C 1.545,2.257 0.363,1.298 0,0"
                                   style="fill:#ffffff;fill-opacity:1;fill-rule:nonzero;stroke:none"
                                   id="path31354" /></g></g></g></g></g></g><g
                       id="g31382"><g
                         id="g31368" /><g
                         id="g31380"><g
                           clip-path="url(#clipPath31272)"
                           id="g31378"><g
                             id="g31376"><g
                               clip-path="url(#clipPath31276)"
                               id="g31374"><g
                                 transform="translate(66.9478,735.751)"
                                 id="g31372"><path
                                   d="m 0,0 c 1.703,0 3.084,1.382 3.084,3.084 0,1.7 -1.381,3.083 -3.084,3.083 -1.416,0 -2.599,-0.963 -2.959,-2.266 h -66.296 l -19.618,-19.616 h -66.998 V 1.526 h -151.793 v -1.639 h 150.155 v -17.241 h 69.316 L -68.577,2.262 H -2.959 C -2.596,0.963 -1.414,0 0,0"
                                   style="fill:#ffffff;fill-opacity:1;fill-rule:nonzero;stroke:none"
                                   id="path31370" /></g></g></g></g></g></g><g
                       id="g31398"><g
                         id="g31384" /><g
                         id="g31396"><g
                           clip-path="url(#clipPath31280)"
                           id="g31394"><g
                             id="g31392"><g
                               clip-path="url(#clipPath31284)"
                               id="g31390"><g
                                 transform="translate(-23.979,725.8579)"
                                 id="g31388"><path
                                   d="m 0,0 19.618,19.617 h 52.505 c 0.36,-1.302 1.541,-2.263 2.956,-2.263 1.703,0 3.084,1.381 3.084,3.08 0,1.701 -1.381,3.084 -3.084,3.084 -1.415,0 -2.595,-0.963 -2.956,-2.263 H 18.938 L -0.681,1.638 H -57.227 V 18.881 H -219.471 V 17.24 H -58.868 V 0 Z"
                                   style="fill:#ffffff;fill-opacity:1;fill-rule:nonzero;stroke:none"
                                   id="path31386" /></g></g></g></g></g></g></g></g></g></g></g></g></g></g></g><g
     id="g31420"
     transform="matrix(0.35277776,0,0,-0.35277778,-1.8776819e-5,279.40001)" /><g
     id="g31464"
     transform="matrix(0.35277776,0,0,-0.35277778,-1.8776819e-5,279.40001)" /><g
     id="g2063"
     transform="matrix(0.99720563,0,0,1,-5.2966475,7.7747535)"><g
       id="g31200"
       transform="matrix(0.35277776,0,0,-0.35277778,-1.8776819e-5,279.40001)"
       clip-path="url(#clipPath1844)"><g
         clip-path="url(#clipPath31082)"
         opacity="0.300003"
         id="g31198"><g
           id="g31196"><g
             clip-path="url(#clipPath31086)"
             id="g31194"><g
               id="g31134"><g
                 id="g31120" /><g
                 id="g31132"><g
                   clip-path="url(#clipPath31090)"
                   id="g31130"><g
                     id="g31128"><g
                       clip-path="url(#clipPath31094)"
                       id="g31126"><g
                         transform="translate(895.0889,729.6895)"
                         id="g31124"><path
                           d="m 0,0 h -56.105 l -19.619,-19.618 h -21.618 -55.368 v 17.241 h -141.808 v -1.639 h 140.166 v -17.241 h 57.01 22.293 30.546 c 0.359,-1.3 1.54,-2.263 2.957,-2.263 1.7,0 3.081,1.383 3.081,3.082 0,1.701 -1.381,3.082 -3.081,3.082 -1.417,0 -2.596,-0.961 -2.957,-2.262 h -28.906 l 5.044,5.044 h 49.685 c 0.361,-1.304 1.54,-2.262 2.957,-2.262 1.702,0 3.081,1.379 3.081,3.079 0,1.705 -1.379,3.084 -3.081,3.084 -1.415,0 -2.596,-0.962 -2.957,-2.262 h -48.047 l 11.298,11.294 H 0 c 0.357,-1.302 1.537,-2.262 2.953,-2.262 1.705,0 3.084,1.378 3.084,3.081 0,1.703 -1.379,3.081 -3.084,3.081 C 1.541,2.259 0.36,1.301 0,0"
                           style="fill:#ffffff;fill-opacity:1;fill-rule:nonzero;stroke:none"
                           id="path31122" /></g></g></g></g></g></g><g
               id="g31150"><g
                 id="g31136" /><g
                 id="g31148"><g
                   clip-path="url(#clipPath31098)"
                   id="g31146"><g
                     id="g31144"><g
                       clip-path="url(#clipPath31102)"
                       id="g31142"><g
                         transform="translate(881.3545,736.3706)"
                         id="g31140"><path
                           d="m 0,0 h -45.735 l -19.619,-19.616 h -66.997 v 17.24 h -137.003 v -1.639 h 135.366 v -17.24 h 69.314 l 19.616,19.616 H 0 c 0.362,-1.301 1.542,-2.263 2.957,-2.263 1.704,0 3.082,1.381 3.082,3.08 0,1.702 -1.378,3.084 -3.082,3.084 C 1.542,2.262 0.362,1.3 0,0"
                           style="fill:#ffffff;fill-opacity:1;fill-rule:nonzero;stroke:none"
                           id="path31138" /></g></g></g></g></g></g><g
               id="g31166"><g
                 id="g31152" /><g
                 id="g31164"><g
                   clip-path="url(#clipPath31106)"
                   id="g31162"><g
                     id="g31160"><g
                       clip-path="url(#clipPath31110)"
                       id="g31158"><g
                         transform="translate(684.3105,721.8691)"
                         id="g31156"><path
                           d="m 0,0 v -9.786 h 27.569 c 0.361,-1.299 1.541,-2.262 2.957,-2.262 1.703,0 3.083,1.381 3.083,3.081 0,1.7 -1.38,3.084 -3.083,3.084 -1.413,0 -2.595,-0.963 -2.957,-2.264 H 1.64 v 6.508 H 46.724 V -17.241 H -11.062 V 0 H -149.503 V -1.639 H -12.704 V -18.88 H 48.364 V 0 Z"
                           style="fill:#ffffff;fill-opacity:1;fill-rule:nonzero;stroke:none"
                           id="path31154" /></g></g></g></g></g></g><g
               id="g31182"><g
                 id="g31168" /><g
                 id="g31180"><g
                   clip-path="url(#clipPath31114)"
                   id="g31178"><g
                     id="g31176"><g
                       clip-path="url(#clipPath31118)"
                       id="g31174"><g
                         transform="translate(881.5801,746.0928)"
                         id="g31172"><path
                           d="m 0,0 c -1.415,0 -2.599,-0.963 -2.959,-2.264 h -45.737 l -19.617,-19.614 h -56.548 v 17.241 h -159.283 c -0.341,1.323 -1.532,2.304 -2.96,2.304 -1.696,0 -3.07,-1.374 -3.07,-3.069 0,-1.695 1.374,-3.069 3.07,-3.069 1.387,0 2.546,0.928 2.925,2.192 H -126.5 v -17.24 h 58.867 l 19.618,19.618 h 45.056 c 0.363,-1.303 1.544,-2.264 2.959,-2.264 1.702,0 3.083,1.381 3.083,3.081 C 3.083,-1.382 1.702,0 0,0"
                           style="fill:#ffffff;fill-opacity:1;fill-rule:nonzero;stroke:none"
                           id="path31170" /></g></g></g></g></g></g><g
               transform="translate(537.8926,721.1709)"
               id="g31186"><path
                 d="m 0,0 c 0,-1.704 -1.381,-3.085 -3.085,-3.085 -1.704,0 -3.085,1.381 -3.085,3.085 0,1.704 1.381,3.085 3.085,3.085 C -1.381,3.085 0,1.704 0,0"
                 style="fill:#ffffff;fill-opacity:1;fill-rule:nonzero;stroke:none"
                 id="path31184" /></g><g
               transform="translate(555.917,726.874)"
               id="g31190"><path
                 d="M 0,0 C 0,1.704 1.381,3.085 3.085,3.085 4.789,3.085 6.17,1.704 6.17,0 6.17,-1.704 4.789,-3.085 3.085,-3.085 1.381,-3.085 0,-1.704 0,0"
                 style="fill:#ffffff;fill-opacity:1;fill-rule:nonzero;stroke:none"
                 id="path31188" /></g><path
               d="m 560.306,725.782 h 40.266 v 1.531 h -40.266 z"
               style="fill:#ffffff;fill-opacity:1;fill-rule:nonzero;stroke:none"
               id="path31192" /></g></g></g></g><g
       id="g31460"
       transform="matrix(0.35277776,0,0,-0.35277778,-1.8776819e-5,279.40001)"
       clip-path="url(#clipPath1974)"><g
         clip-path="url(#clipPath31424)"
         opacity="0.300003"
         id="g31458"><g
           id="g31456"><g
             clip-path="url(#clipPath31428)"
             id="g31454"><g
               id="g31452"><g
                 id="g31438" /><g
                 id="g31450"><g
                   clip-path="url(#clipPath31432)"
                   opacity="0.699997"
                   id="g31448"><g
                     id="g31446"><g
                       clip-path="url(#clipPath31436)"
                       id="g31444"><g
                         transform="translate(619.9512,689.6191)"
                         id="g31442"><path
                           d="m 0,0 -19.616,19.62 h -56.108 c -0.36,1.299 -1.539,2.262 -2.956,2.262 -1.701,0 -3.084,-1.382 -3.084,-3.084 0,-1.702 1.383,-3.081 3.084,-3.081 1.417,0 2.596,0.958 2.956,2.262 h 55.427 L -0.68,-1.637 H 15.229 V 0 Z"
                           style="fill:#ffffff;fill-opacity:1;fill-rule:nonzero;stroke:none"
                           id="path31440" /></g></g></g></g></g></g></g></g></g></g></g><g
     id="g13681"
     transform="matrix(0.94097605,0,0,1,-1.0403446,0.02860654)"><g
       id="g31474"
       transform="matrix(0.35277776,0,0,-0.35277778,0,287.17476)"
       clip-path="url(#clipPath1893)"><g
         clip-path="url(#clipPath31468)"
         id="g31472"><path
           d="M 72.42,22.681 H 569.701 V 24.32 H 72.42 Z"
           style="fill:#131413;fill-opacity:1;fill-rule:nonzero;stroke:none"
           id="path31470" /></g></g><path
       d="m 203.02358,271.10973 c 0,-0.60008 -0.48683,-1.08691 -1.08691,-1.08691 -0.60043,0 -1.08691,0.48683 -1.08691,1.08691 0,0.60008 0.48648,1.08691 1.08691,1.08691 0.60008,0 1.08691,-0.48683 1.08691,-1.08691"
       style="fill:#131413;fill-opacity:1;fill-rule:nonzero;stroke:none;stroke-width:0.352778"
       id="path31478"
       clip-path="url(#clipPath1867)"
       transform="translate(1.8776819e-5,7.7747535)" /></g><text
     xml:space="preserve"
     style="font-style:normal;font-variant:normal;font-weight:normal;font-stretch:normal;font-size:4.23333px;font-family:Ubuntu;-inkscape-font-specification:'Ubuntu, Normal';font-variant-ligatures:normal;font-variant-caps:normal;font-variant-numeric:normal;font-variant-east-asian:normal;writing-mode:lr-tb;fill:#231f20;fill-opacity:1;fill-rule:nonzero;stroke:none;stroke-width:0.352778"
     id="text31490"
     x="12.762934"
     y="280"><tspan
       x="12.762934 15.243891"
       y="280"
       sodipodi:role="line"
       id="tspan31488"
       style="font-style:normal;font-variant:normal;font-weight:normal;font-stretch:normal;font-size:4.23333px;font-family:Ubuntu;-inkscape-font-specification:'Ubuntu, Normal';font-variant-ligatures:normal;font-variant-caps:normal;font-variant-numeric:normal;font-variant-east-asian:normal;stroke-width:0.352778">28</tspan></text><text
     xml:space="preserve"
     style="font-style:italic;font-variant:normal;font-weight:bold;font-stretch:normal;font-size:4.58611px;font-family:Ubuntu;-inkscape-font-specification:'Ubuntu, Bold Italic';font-variant-ligatures:normal;font-variant-caps:normal;font-variant-numeric:normal;font-variant-east-asian:normal;writing-mode:lr-tb;fill:#000000;fill-opacity:1;fill-rule:nonzero;stroke:none;stroke-width:0.352778"
     id="text31494"
     x="12.747764"
     y="56"><tspan
       sodipodi:role="line"
       id="tspan1078"
       x="12.747764"
       y="56"
       style="fill:#000000">3.1 Übung: Auktion!</tspan></text><path
     d="M 12.824864,64.012242 H 190.49997 v -9.144 H 12.824864 Z"
     style="display:inline;opacity:0.149994;fill:#f68714;fill-opacity:1;fill-rule:nonzero;stroke:none;stroke-width:0.352778"
     id="path31520"
     clip-path="url(#clipPath1469)"
     transform="matrix(0.99620033,0,0,1,0.22386622,7.1317586)" /><text
     xml:space="preserve"
     style="font-style:italic;font-variant:normal;font-weight:bold;font-stretch:normal;font-size:7.05556px;font-family:Ubuntu;-inkscape-font-specification:'Ubuntu, Bold Italic';font-variant-ligatures:normal;font-variant-caps:normal;font-variant-numeric:normal;font-variant-east-asian:normal;writing-mode:lr-tb;fill:#ffffff;fill-opacity:1;fill-rule:nonzero;stroke:none;stroke-width:0.352778"
     id="text31528"
     x="12.470833"
     y="35"><tspan
       sodipodi:role="line"
       id="tspan567"
       x="12.470833"
       y="35">Die Auswirkungen von Fiat-Geld und Zentralisierung</tspan></text><g
     id="g10467"
     transform="matrix(0.99620031,0,0,1,0.22373105,0)"><path
       d="M 12.825,162.61122 H 190.50011"
       style="fill:none;stroke:#000000;stroke-width:0.0881944;stroke-linecap:butt;stroke-linejoin:miter;stroke-miterlimit:4;stroke-dasharray:none;stroke-opacity:1"
       id="path31532" /><path
       d="M 12.825,170.05486 H 190.50011"
       style="fill:none;stroke:#000000;stroke-width:0.0881944;stroke-linecap:butt;stroke-linejoin:miter;stroke-miterlimit:4;stroke-dasharray:none;stroke-opacity:1"
       id="path31536" /><path
       d="M 12.825,214.71657 H 190.50011"
       style="fill:none;stroke:#000000;stroke-width:0.0881944;stroke-linecap:butt;stroke-linejoin:miter;stroke-miterlimit:4;stroke-dasharray:none;stroke-opacity:1"
       id="path31540" /><path
       d="M 12.825,117.86139 H 190.50011"
       style="fill:none;stroke:#000000;stroke-width:0.0881944;stroke-linecap:butt;stroke-linejoin:miter;stroke-miterlimit:4;stroke-dasharray:none;stroke-opacity:1"
       id="path31544" /><path
       d="M 12.825,192.3857 H 190.50011"
       style="fill:none;stroke:#000000;stroke-width:0.0881944;stroke-linecap:butt;stroke-linejoin:miter;stroke-miterlimit:4;stroke-dasharray:none;stroke-opacity:1"
       id="path31548" /><path
       d="M 12.825,95.530562 H 190.50011"
       style="fill:none;stroke:#000000;stroke-width:0.0881944;stroke-linecap:butt;stroke-linejoin:miter;stroke-miterlimit:4;stroke-dasharray:none;stroke-opacity:1"
       id="path31552" /><path
       d="M 12.825,140.28045 H 190.50011"
       style="fill:none;stroke:#000000;stroke-width:0.0881944;stroke-linecap:butt;stroke-linejoin:miter;stroke-miterlimit:4;stroke-dasharray:none;stroke-opacity:1"
       id="path31556" /><path
       d="M 12.825,237.04733 H 190.50011"
       style="fill:none;stroke:#000000;stroke-width:0.0881944;stroke-linecap:butt;stroke-linejoin:miter;stroke-miterlimit:4;stroke-dasharray:none;stroke-opacity:1"
       id="path31560" /><path
       d="M 12.825,177.49851 H 190.50011"
       style="fill:none;stroke:#000000;stroke-width:0.0881944;stroke-linecap:butt;stroke-linejoin:miter;stroke-miterlimit:4;stroke-dasharray:none;stroke-opacity:1"
       id="path31564" /><path
       d="M 12.825,80.64334 H 190.50011"
       style="fill:none;stroke:#000000;stroke-width:0.0881944;stroke-linecap:butt;stroke-linejoin:miter;stroke-miterlimit:4;stroke-dasharray:none;stroke-opacity:1"
       id="path31568" /><path
       d="M 12.825,222.16011 H 190.50011"
       style="fill:none;stroke:#000000;stroke-width:0.0881944;stroke-linecap:butt;stroke-linejoin:miter;stroke-miterlimit:4;stroke-dasharray:none;stroke-opacity:1"
       id="path31572" /><path
       d="M 12.825,125.30497 H 190.50011"
       style="fill:none;stroke:#000000;stroke-width:0.0881944;stroke-linecap:butt;stroke-linejoin:miter;stroke-miterlimit:4;stroke-dasharray:none;stroke-opacity:1"
       id="path31576" /><path
       d="M 12.825,251.79344 H 190.50011"
       style="fill:none;stroke:#000000;stroke-width:0.0881944;stroke-linecap:butt;stroke-linejoin:miter;stroke-miterlimit:4;stroke-dasharray:none;stroke-opacity:1"
       id="path31580" /><path
       d="M 12.825,199.82927 H 190.50011"
       style="fill:none;stroke:#000000;stroke-width:0.0881944;stroke-linecap:butt;stroke-linejoin:miter;stroke-miterlimit:4;stroke-dasharray:none;stroke-opacity:1"
       id="path31584" /><path
       d="M 12.825,102.97421 H 190.50011"
       style="fill:none;stroke:#000000;stroke-width:0.0881944;stroke-linecap:butt;stroke-linejoin:miter;stroke-miterlimit:4;stroke-dasharray:none;stroke-opacity:1"
       id="path31588" /><path
       d="M 12.825,147.72399 H 190.50011"
       style="fill:none;stroke:#000000;stroke-width:0.0881944;stroke-linecap:butt;stroke-linejoin:miter;stroke-miterlimit:4;stroke-dasharray:none;stroke-opacity:1"
       id="path31592" /><path
       d="M 12.825,244.49097 H 190.50011"
       style="fill:none;stroke:#000000;stroke-width:0.0881944;stroke-linecap:butt;stroke-linejoin:miter;stroke-miterlimit:4;stroke-dasharray:none;stroke-opacity:1"
       id="path31596" /><path
       d="M 12.825,184.94205 H 190.50011"
       style="fill:none;stroke:#000000;stroke-width:0.0881944;stroke-linecap:butt;stroke-linejoin:miter;stroke-miterlimit:4;stroke-dasharray:none;stroke-opacity:1"
       id="path31600" /><path
       d="M 12.825,88.086915 H 190.50011"
       style="fill:none;stroke:#000000;stroke-width:0.0881944;stroke-linecap:butt;stroke-linejoin:miter;stroke-miterlimit:4;stroke-dasharray:none;stroke-opacity:1"
       id="path31604" /><path
       d="M 12.825,229.60375 H 190.50011"
       style="fill:none;stroke:#000000;stroke-width:0.0881944;stroke-linecap:butt;stroke-linejoin:miter;stroke-miterlimit:4;stroke-dasharray:none;stroke-opacity:1"
       id="path31608" /><path
       d="M 12.825,132.74861 H 190.50011"
       style="fill:none;stroke:#000000;stroke-width:0.0881944;stroke-linecap:butt;stroke-linejoin:miter;stroke-miterlimit:4;stroke-dasharray:none;stroke-opacity:1"
       id="path31612" /><path
       d="M 12.825,259.23709 H 190.50011"
       style="fill:none;stroke:#000000;stroke-width:0.0881944;stroke-linecap:butt;stroke-linejoin:miter;stroke-miterlimit:4;stroke-dasharray:none;stroke-opacity:1"
       id="path31616" /><path
       d="M 12.825,266.68066 H 190.50011"
       style="fill:none;stroke:#000000;stroke-width:0.0881944;stroke-linecap:butt;stroke-linejoin:miter;stroke-miterlimit:4;stroke-dasharray:none;stroke-opacity:1"
       id="path31620" /><path
       d="M 12.825,207.27292 H 190.50011"
       style="fill:none;stroke:#000000;stroke-width:0.0881944;stroke-linecap:butt;stroke-linejoin:miter;stroke-miterlimit:4;stroke-dasharray:none;stroke-opacity:1"
       id="path31624" /><path
       d="M 12.825,110.41774 H 190.50011"
       style="fill:none;stroke:#000000;stroke-width:0.0881944;stroke-linecap:butt;stroke-linejoin:miter;stroke-miterlimit:4;stroke-dasharray:none;stroke-opacity:1"
       id="path31628" /><path
       d="M 12.825,155.16764 H 190.50011"
       style="fill:none;stroke:#000000;stroke-width:0.0881944;stroke-linecap:butt;stroke-linejoin:miter;stroke-miterlimit:4;stroke-dasharray:none;stroke-opacity:1"
       id="path31632" /></g><text
     xml:space="preserve"
     transform="scale(0.26458333)"
     id="text1292"
     style="font-size:14.6667px;line-height:1.2;font-family:Ubuntu;-inkscape-font-specification:Ubuntu;white-space:pre;shape-inside:url(#rect1294);display:inline;opacity:0.48;fill:#1a1a1a;stroke-width:1.33417" /><text
     xml:space="preserve"
     transform="matrix(0.26458333,0,0,0.26458333,105.00474,1.4464063)"
     id="text1525"
     style="font-style:normal;font-variant:normal;font-weight:500;font-stretch:normal;font-size:14.6667px;line-height:1.2;font-family:Ubuntu;-inkscape-font-specification:'Ubuntu Medium';white-space:pre;shape-inside:url(#rect1527);display:inline;fill:#1a1a1a"><tspan
       x="-338.07617"
       y="251.41929"
       id="tspan15176"><tspan
         style="fill:#f68714"
         id="tspan15172">Gemeinschaftsübung:</tspan><tspan
         style="font-weight:normal;-inkscape-font-specification:Ubuntu"
         id="tspan15174"> Warte auf die Anweisungen der Lehrkraft, um diese Übung durchzuführen! 
</tspan></tspan></text></svg>
