<?xml version="1.0" encoding="UTF-8" standalone="no"?>
<!-- Created with Inkscape (http://www.inkscape.org/) -->

<svg
   width="210mm"
   height="297mm"
   viewBox="0 0 210 297"
   version="1.1"
   id="svg5"
   xml:space="preserve"
   sodipodi:docname="112_Bitcoin Diplom - Arbeitsbuch.svg"
   inkscape:version="1.2.2 (b0a8486, 2022-12-01)"
   inkscape:export-filename="112_Bitcoin Diplom - Arbeitsbuch.pdf"
   inkscape:export-xdpi="300"
   inkscape:export-ydpi="300"
   xmlns:inkscape="http://www.inkscape.org/namespaces/inkscape"
   xmlns:sodipodi="http://sodipodi.sourceforge.net/DTD/sodipodi-0.dtd"
   xmlns:xlink="http://www.w3.org/1999/xlink"
   xmlns="http://www.w3.org/2000/svg"
   xmlns:svg="http://www.w3.org/2000/svg"><sodipodi:namedview
     id="namedview7"
     pagecolor="#ffffff"
     bordercolor="#000000"
     borderopacity="0.25"
     inkscape:showpageshadow="2"
     inkscape:pageopacity="0.0"
     inkscape:pagecheckerboard="0"
     inkscape:deskcolor="#d1d1d1"
     inkscape:document-units="mm"
     showgrid="false"
     showguides="true"
     inkscape:zoom="0.46947952"
     inkscape:cx="-37.275322"
     inkscape:cy="561.25984"
     inkscape:window-width="1280"
     inkscape:window-height="747"
     inkscape:window-x="0"
     inkscape:window-y="25"
     inkscape:window-maximized="1"
     inkscape:current-layer="svg5"><sodipodi:guide
       position="0,279.2"
       orientation="0,1"
       id="guide1944"
       inkscape:locked="false"
       inkscape:label=""
       inkscape:color="rgb(0,134,229)" /><sodipodi:guide
       position="13,297"
       orientation="-1,0"
       id="guide1173"
       inkscape:locked="false"
       inkscape:label=""
       inkscape:color="rgb(0,134,229)" /><sodipodi:guide
       position="190,297"
       orientation="-1,0"
       id="guide1175"
       inkscape:locked="false"
       inkscape:label=""
       inkscape:color="rgb(0,134,229)" /><sodipodi:guide
       position="0,262"
       orientation="0,1"
       id="guide1177"
       inkscape:locked="false"
       inkscape:label=""
       inkscape:color="rgb(0,134,229)" /><sodipodi:guide
       position="0,17"
       orientation="0,1"
       id="guide1237"
       inkscape:locked="false"
       inkscape:label=""
       inkscape:color="rgb(0,134,229)" /><sodipodi:guide
       position="23,297"
       orientation="-1,0"
       id="guide1245"
       inkscape:locked="false"
       inkscape:label=""
       inkscape:color="rgb(0,134,229)" /></sodipodi:namedview><defs
     id="defs2"><linearGradient
       x1="0"
       y1="0"
       x2="1"
       y2="0"
       gradientUnits="userSpaceOnUse"
       gradientTransform="matrix(351.86044,609.44012,609.44012,-351.86044,436.06979,421.06186)"
       spreadMethod="pad"
       id="linearGradient12018"><stop
         style="stop-opacity:1;stop-color:#5e3197"
         offset="0"
         id="stop12012" /><stop
         style="stop-opacity:1;stop-color:#3c2973"
         offset="0.427928"
         id="stop12014" /><stop
         style="stop-opacity:1;stop-color:#171b3a"
         offset="1"
         id="stop12016" /></linearGradient><clipPath
       clipPathUnits="userSpaceOnUse"
       id="clipPath119656"><path
         d="M 531.722,746.093 H 901.126 V 702.989 H 531.722 Z"
         id="path119654" /></clipPath><clipPath
       clipPathUnits="userSpaceOnUse"
       id="clipPath119660"><path
         d="m 531.722,702.989 h 369.404 v 43.104 H 531.722 Z"
         id="path119658" /></clipPath><clipPath
       clipPathUnits="userSpaceOnUse"
       id="clipPath119664"><path
         d="M 600.571,731.948 H 901.126 V 706.17 H 600.571 Z"
         id="path119662" /></clipPath><clipPath
       clipPathUnits="userSpaceOnUse"
       id="clipPath119668"><path
         d="m 600.571,706.17 h 300.555 v 25.778 H 600.571 Z"
         id="path119666" /></clipPath><clipPath
       clipPathUnits="userSpaceOnUse"
       id="clipPath119672"><path
         d="M 612,738.633 H 887.393 V 715.115 H 612 Z"
         id="path119670" /></clipPath><clipPath
       clipPathUnits="userSpaceOnUse"
       id="clipPath119676"><path
         d="m 612,715.115 h 275.393 v 23.518 H 612 Z"
         id="path119674" /></clipPath><clipPath
       clipPathUnits="userSpaceOnUse"
       id="clipPath119680"><path
         d="m 534.808,721.869 h 197.867 v -18.88 H 534.808 Z"
         id="path119678" /></clipPath><clipPath
       clipPathUnits="userSpaceOnUse"
       id="clipPath119684"><path
         d="m 534.808,702.989 h 197.867 v 18.88 H 534.808 Z"
         id="path119682" /></clipPath><clipPath
       clipPathUnits="userSpaceOnUse"
       id="clipPath119688"><path
         d="M 591.406,746.093 H 884.663 V 722.574 H 591.406 Z"
         id="path119686" /></clipPath><clipPath
       clipPathUnits="userSpaceOnUse"
       id="clipPath119692"><path
         d="m 591.406,722.574 h 293.257 v 23.519 H 591.406 Z"
         id="path119690" /></clipPath><clipPath
       clipPathUnits="userSpaceOnUse"
       id="clipPath119790"><path
         d="M -243.45,763.582 H 387.086 V 664.793 H -243.45 Z"
         id="path119788" /></clipPath><clipPath
       clipPathUnits="userSpaceOnUse"
       id="clipPath119794"><path
         d="m -11.736,687.982 h 398.822 v 75.6 H -11.736 Z"
         id="path119792" /></clipPath><clipPath
       clipPathUnits="userSpaceOnUse"
       id="clipPath119798"><path
         d="M -243.45,757.852 H 315.864 V 664.793 H -243.45 Z"
         id="path119796" /></clipPath><clipPath
       clipPathUnits="userSpaceOnUse"
       id="clipPath119802"><path
         d="m -243.45,664.793 h 559.314 v 93.059 H -243.45 Z"
         id="path119800" /></clipPath><clipPath
       clipPathUnits="userSpaceOnUse"
       id="clipPath119806"><path
         d="M -88.7533,685.934 H 93.3112 V 664.793 H -88.7533 Z"
         id="path119804" /></clipPath><clipPath
       clipPathUnits="userSpaceOnUse"
       id="clipPath119810"><path
         d="M -88.753,664.793 H 93.312 v 21.141 H -88.753 Z"
         id="path119808" /></clipPath><clipPath
       clipPathUnits="userSpaceOnUse"
       id="clipPath119814"><path
         d="M -92.1164,692.617 H 103.559 V 671.474 H -92.1164 Z"
         id="path119812" /></clipPath><clipPath
       clipPathUnits="userSpaceOnUse"
       id="clipPath119818"><path
         d="m -92.116,671.474 h 195.675 v 21.143 H -92.116 Z"
         id="path119816" /></clipPath><clipPath
       clipPathUnits="userSpaceOnUse"
       id="clipPath119822"><path
         d="M -94.8465,700.078 H 110.935 V 678.933 H -94.8465 Z"
         id="path119820" /></clipPath><clipPath
       clipPathUnits="userSpaceOnUse"
       id="clipPath119826"><path
         d="m -94.846,678.933 h 205.781 v 21.145 H -94.846 Z"
         id="path119824" /></clipPath><clipPath
       clipPathUnits="userSpaceOnUse"
       id="clipPath119830"><path
         d="M -149.51,757.852 H 234.761 V 734.334 H -149.51 Z"
         id="path119828" /></clipPath><clipPath
       clipPathUnits="userSpaceOnUse"
       id="clipPath119834"><path
         d="m -149.51,734.334 h 384.271 v 23.518 H -149.51 Z"
         id="path119832" /></clipPath><clipPath
       clipPathUnits="userSpaceOnUse"
       id="clipPath119838"><path
         d="m -237.356,735.23 h 553.22 v -40.662 h -553.22 z"
         id="path119836" /></clipPath><clipPath
       clipPathUnits="userSpaceOnUse"
       id="clipPath119842"><path
         d="m -237.356,694.568 h 553.22 v 40.662 h -553.22 z"
         id="path119840" /></clipPath><clipPath
       clipPathUnits="userSpaceOnUse"
       id="clipPath119846"><path
         d="M -240.716,741.917 H 70.0318 v -23.52 H -240.716 Z"
         id="path119844" /></clipPath><clipPath
       clipPathUnits="userSpaceOnUse"
       id="clipPath119850"><path
         d="M -240.716,718.397 H 70.032 v 23.52 h -310.748 z"
         id="path119848" /></clipPath><clipPath
       clipPathUnits="userSpaceOnUse"
       id="clipPath119854"><path
         d="M -243.45,749.376 H 54.1837 V 725.858 H -243.45 Z"
         id="path119852" /></clipPath><clipPath
       clipPathUnits="userSpaceOnUse"
       id="clipPath119858"><path
         d="M -243.45,725.858 H 54.184 v 23.518 H -243.45 Z"
         id="path119856" /></clipPath><clipPath
       clipPathUnits="userSpaceOnUse"
       id="clipPath119998"><path
         d="m 499.874,763.582 h 135.305 v -75.6 H 499.874 Z"
         id="path119996" /></clipPath><clipPath
       clipPathUnits="userSpaceOnUse"
       id="clipPath120002"><path
         d="M 499.874,687.982 H 612 v 75.6 H 499.874 Z"
         id="path120000" /></clipPath><clipPath
       clipPathUnits="userSpaceOnUse"
       id="clipPath120006"><path
         d="m 538.188,711.501 h 96.991 v -23.519 h -96.991 z"
         id="path120004" /></clipPath><clipPath
       clipPathUnits="userSpaceOnUse"
       id="clipPath120010"><path
         d="m 538.188,687.982 h 96.991 v 23.519 h -96.991 z"
         id="path120008" /></clipPath><clipPath
       clipPathUnits="userSpaceOnUse"
       id="clipPath120042"><path
         d="M 72.4204,24.3195 H 569.703 v -1.639 H 72.4204 Z"
         id="path120040" /></clipPath><linearGradient
       inkscape:collect="always"
       xlink:href="#linearGradient12018"
       id="linearGradient2305204"
       gradientUnits="userSpaceOnUse"
       gradientTransform="matrix(351.86044,609.44012,609.44012,-351.86044,436.06979,421.06186)"
       x1="0"
       y1="0"
       x2="1"
       y2="0"
       spreadMethod="pad" /><clipPath
       clipPathUnits="userSpaceOnUse"
       id="clipPath1634"><g
         id="g1644"
         transform="matrix(2.8346458,0,0,-2.8346457,-0.00180491,792.00002)"><g
           id="g1642"><g
             id="g1640"><g
               id="g1638"><path
                 d="M 6.3673184e-4,8.24e-6 H 215.90063 V 279.40001 H 6.3673184e-4 Z"
                 id="path1636"
                 style="stroke-width:0.352778" /></g></g></g></g></clipPath><clipPath
       clipPathUnits="userSpaceOnUse"
       id="clipPath1657"><g
         id="g1667"><g
           id="g1665"><g
             id="g1663"><g
               id="g1661"><path
                 d="M 6.3673184e-4,8.24e-6 H 215.90063 V 279.40001 H 6.3673184e-4 Z"
                 id="path1659"
                 style="stroke-width:0.352778" /></g></g></g></g></clipPath><clipPath
       clipPathUnits="userSpaceOnUse"
       id="clipPath1683"><g
         id="g1693"
         transform="matrix(2.8346458,0,0,-2.8346457,-0.00180491,792.00002)"><g
           id="g1691"><g
             id="g1689"><g
               id="g1687"><path
                 d="M 6.3673184e-4,8.24e-6 H 215.90063 V 279.40001 H 6.3673184e-4 Z"
                 id="path1685"
                 style="stroke-width:0.352778" /></g></g></g></g></clipPath><clipPath
       clipPathUnits="userSpaceOnUse"
       id="clipPath1718"><g
         id="g1728"
         transform="matrix(2.8346458,0,0,-2.8346457,-0.00180491,792.00002)"><g
           id="g1726"><g
             id="g1724"><g
               id="g1722"><path
                 d="M 6.3673184e-4,8.24e-6 H 215.90063 V 279.40001 H 6.3673184e-4 Z"
                 id="path1720"
                 style="stroke-width:0.352778" /></g></g></g></g></clipPath><clipPath
       clipPathUnits="userSpaceOnUse"
       id="clipPath1853"><g
         id="g1863"
         transform="matrix(2.8346458,0,0,-2.8346457,-0.00180491,792.00002)"><g
           id="g1861"><g
             id="g1859"><g
               id="g1857"><path
                 d="M 6.3673184e-4,8.24e-6 H 215.90063 V 279.40001 H 6.3673184e-4 Z"
                 id="path1855"
                 style="stroke-width:0.352778" /></g></g></g></g></clipPath><clipPath
       clipPathUnits="userSpaceOnUse"
       id="clipPath1877"><g
         id="g1887"
         transform="matrix(2.8346458,0,0,-2.8346457,-0.00180491,792.00002)"><g
           id="g1885"><g
             id="g1883"><g
               id="g1881"><path
                 d="M 6.3673184e-4,8.24e-6 H 215.90063 V 279.40001 H 6.3673184e-4 Z"
                 id="path1879"
                 style="stroke-width:0.352778" /></g></g></g></g></clipPath></defs><g
     id="g119630"
     transform="matrix(0.34313621,0,0,-0.35277778,0,287.17476)"
     clip-path="url(#clipPath1877)"><path
       d="m 0,763.582 v 0 -75.6 0 h 612 v 0 75.6 0 z"
       style="fill:url(#linearGradient2305204);stroke:none"
       id="path119640" /></g><g
     id="g119652"
     transform="matrix(0.35277776,0,0,-0.35277778,6.3673184e-4,279.40001)" /><g
     id="g119786"
     transform="matrix(0.35277776,0,0,-0.35277778,6.3673184e-4,279.40001)" /><g
     id="g119990"
     transform="matrix(0.35277776,0,0,-0.35277778,0,287.17476)"
     clip-path="url(#clipPath1853)"><g
       clip-path="url(#clipPath119790)"
       opacity="0.699997"
       id="g119988"><g
         id="g119986"><g
           clip-path="url(#clipPath119794)"
           id="g119984"><g
             id="g119982"><g
               id="g119860" /><g
               id="g119980"><g
                 clip-path="url(#clipPath119798)"
                 opacity="0.300003"
                 id="g119978"><g
                   id="g119976"><g
                     clip-path="url(#clipPath119802)"
                     id="g119974"><g
                       id="g119876"><g
                         id="g119862" /><g
                         id="g119874"><g
                           clip-path="url(#clipPath119806)"
                           id="g119872"><g
                             id="g119870"><g
                               clip-path="url(#clipPath119810)"
                               id="g119868"><g
                                 transform="translate(87.2715,667.0532)"
                                 id="g119866"><path
                                   d="m 0,0 c 0.361,-1.301 1.542,-2.261 2.959,-2.261 1.702,0 3.081,1.378 3.081,3.081 0,1.701 -1.379,3.083 -3.081,3.083 C 1.542,3.903 0.361,2.942 0,1.641 H -34.218 V 18.88 H -176.025 V 17.243 H -35.856 V 0 Z"
                                   style="fill:#ffffff;fill-opacity:1;fill-rule:nonzero;stroke:none"
                                   id="path119864" /></g></g></g></g></g></g><g
                       id="g119892"><g
                         id="g119878" /><g
                         id="g119890"><g
                           clip-path="url(#clipPath119814)"
                           id="g119888"><g
                             id="g119886"><g
                               clip-path="url(#clipPath119818)"
                               id="g119884"><g
                                 transform="translate(97.5195,673.7368)"
                                 id="g119882"><path
                                   d="m 0,0 c 0.36,-1.301 1.539,-2.263 2.958,-2.263 1.701,0 3.082,1.382 3.082,3.082 C 6.04,2.52 4.659,3.901 2.958,3.901 1.539,3.901 0.361,2.94 0,1.641 H -37.841 V 18.88 H -189.636 V 17.241 H -39.479 V 0 Z"
                                   style="fill:#ffffff;fill-opacity:1;fill-rule:nonzero;stroke:none"
                                   id="path119880" /></g></g></g></g></g></g><g
                       id="g119908"><g
                         id="g119894" /><g
                         id="g119906"><g
                           clip-path="url(#clipPath119822)"
                           id="g119904"><g
                             id="g119902"><g
                               clip-path="url(#clipPath119826)"
                               id="g119900"><g
                                 transform="translate(104.8945,681.1968)"
                                 id="g119898"><path
                                   d="m 0,0 c 0.363,-1.301 1.544,-2.264 2.959,-2.264 1.702,0 3.081,1.382 3.081,3.084 0,1.702 -1.379,3.079 -3.081,3.079 C 1.542,3.899 0.36,2.938 0,1.637 h -37.501 v 17.245 h -162.24 V 17.239 H -39.14 V 0 Z"
                                   style="fill:#ffffff;fill-opacity:1;fill-rule:nonzero;stroke:none"
                                   id="path119896" /></g></g></g></g></g></g><g
                       id="g119924"><g
                         id="g119910" /><g
                         id="g119922"><g
                           clip-path="url(#clipPath119830)"
                           id="g119920"><g
                             id="g119918"><g
                               clip-path="url(#clipPath119834)"
                               id="g119916"><g
                                 transform="translate(228.7231,755.5898)"
                                 id="g119914"><path
                                   d="m 0,0 h -45.736 l -19.618,-19.617 h -56.55 v 17.242 h -256.329 v -1.641 h 254.688 v -17.239 h 58.871 L -45.058,-1.64 H 0 c 0.36,-1.302 1.541,-2.263 2.957,-2.263 1.703,0 3.081,1.381 3.081,3.082 0,1.705 -1.378,3.083 -3.081,3.083 C 1.541,2.262 0.36,1.302 0,0"
                                   style="fill:#ffffff;fill-opacity:1;fill-rule:nonzero;stroke:none"
                                   id="path119912" /></g></g></g></g></g></g><g
                       id="g119940"><g
                         id="g119926" /><g
                         id="g119938"><g
                           clip-path="url(#clipPath119838)"
                           id="g119936"><g
                             id="g119934"><g
                               clip-path="url(#clipPath119842)"
                               id="g119932"><g
                                 transform="translate(82.0239,732.9722)"
                                 id="g119930"><path
                                   d="m 0,0 h -80.968 l -19.618,-19.618 h -76.984 v 17.24 h -141.81 v -1.638 h 140.171 v -17.241 h 79.301 l 0.094,0.094 H 73.45 v -17.241 h 79.306 l 19.618,19.616 H 227.8 c 0.361,-1.304 1.539,-2.262 2.956,-2.262 1.702,0 3.084,1.379 3.084,3.081 0,1.701 -1.382,3.084 -3.084,3.084 -1.417,0 -2.595,-0.963 -2.956,-2.262 h -56.107 l -19.616,-19.62 H 75.093 v 17.24 H -98.179 l 5.045,5.044 H 80.077 v -17.24 h 69.316 l 19.617,19.62 h 45.059 c 0.36,-1.305 1.54,-2.263 2.956,-2.263 1.702,0 3.084,1.378 3.084,3.08 0,1.7 -1.382,3.081 -3.084,3.081 -1.416,0 -2.596,-0.96 -2.956,-2.262 H 168.333 L 148.712,-30.082 H 81.718 v 17.24 H -91.494 l 5.823,5.819 h 173.46 v -17.24 h 58.871 l 19.619,19.617 h 45.056 c 0.364,-1.302 1.542,-2.263 2.957,-2.263 1.703,0 3.081,1.383 3.081,3.083 0,1.701 -1.378,3.081 -3.081,3.081 -1.416,0 -2.596,-0.96 -2.957,-2.262 H 165.598 L 145.982,-22.625 H 89.432 V -5.384 H -84.032 l 3.741,3.743 H 0 c 0.363,-1.302 1.543,-2.262 2.96,-2.262 1.7,0 3.08,1.381 3.08,3.083 0,1.701 -1.38,3.077 -3.08,3.077 C 1.545,2.257 0.363,1.298 0,0"
                                   style="fill:#ffffff;fill-opacity:1;fill-rule:nonzero;stroke:none"
                                   id="path119928" /></g></g></g></g></g></g><g
                       id="g119956"><g
                         id="g119942" /><g
                         id="g119954"><g
                           clip-path="url(#clipPath119846)"
                           id="g119952"><g
                             id="g119950"><g
                               clip-path="url(#clipPath119850)"
                               id="g119948"><g
                                 transform="translate(66.9478,735.751)"
                                 id="g119946"><path
                                   d="m 0,0 c 1.703,0 3.084,1.382 3.084,3.084 0,1.7 -1.381,3.083 -3.084,3.083 -1.416,0 -2.599,-0.963 -2.959,-2.266 h -66.296 l -19.618,-19.616 h -66.998 V 1.526 h -151.793 v -1.639 h 150.155 v -17.241 h 69.316 L -68.577,2.262 H -2.959 C -2.596,0.963 -1.414,0 0,0"
                                   style="fill:#ffffff;fill-opacity:1;fill-rule:nonzero;stroke:none"
                                   id="path119944" /></g></g></g></g></g></g><g
                       id="g119972"><g
                         id="g119958" /><g
                         id="g119970"><g
                           clip-path="url(#clipPath119854)"
                           id="g119968"><g
                             id="g119966"><g
                               clip-path="url(#clipPath119858)"
                               id="g119964"><g
                                 transform="translate(-23.979,725.8579)"
                                 id="g119962"><path
                                   d="m 0,0 19.618,19.617 h 52.505 c 0.36,-1.302 1.541,-2.263 2.956,-2.263 1.703,0 3.084,1.381 3.084,3.08 0,1.701 -1.381,3.084 -3.084,3.084 -1.415,0 -2.595,-0.963 -2.956,-2.263 H 18.938 L -0.681,1.638 H -57.227 V 18.881 H -219.471 V 17.24 H -58.868 V 0 Z"
                                   style="fill:#ffffff;fill-opacity:1;fill-rule:nonzero;stroke:none"
                                   id="path119960" /></g></g></g></g></g></g></g></g></g></g></g></g></g></g></g><g
     id="g119994"
     transform="matrix(0.35277776,0,0,-0.35277778,6.3673184e-4,279.40001)" /><g
     id="g120038"
     transform="matrix(0.35277776,0,0,-0.35277778,6.3673184e-4,279.40001)" /><g
     id="g1942"
     transform="translate(-5.8214703,7.7747535)"><g
       id="g119774"
       transform="matrix(0.35277776,0,0,-0.35277778,6.3673184e-4,279.40001)"
       clip-path="url(#clipPath1634)"><g
         clip-path="url(#clipPath119656)"
         opacity="0.300003"
         id="g119772"><g
           id="g119770"><g
             clip-path="url(#clipPath119660)"
             id="g119768"><g
               id="g119708"><g
                 id="g119694" /><g
                 id="g119706"><g
                   clip-path="url(#clipPath119664)"
                   id="g119704"><g
                     id="g119702"><g
                       clip-path="url(#clipPath119668)"
                       id="g119700"><g
                         transform="translate(895.0889,729.6895)"
                         id="g119698"><path
                           d="m 0,0 h -56.105 l -19.619,-19.618 h -21.618 -55.368 v 17.241 h -141.808 v -1.639 h 140.166 v -17.241 h 57.01 22.293 30.546 c 0.359,-1.3 1.54,-2.263 2.957,-2.263 1.7,0 3.081,1.383 3.081,3.082 0,1.701 -1.381,3.082 -3.081,3.082 -1.417,0 -2.596,-0.961 -2.957,-2.262 h -28.906 l 5.044,5.044 h 49.685 c 0.361,-1.304 1.54,-2.262 2.957,-2.262 1.702,0 3.081,1.379 3.081,3.079 0,1.705 -1.379,3.084 -3.081,3.084 -1.415,0 -2.596,-0.962 -2.957,-2.262 h -48.047 l 11.298,11.294 H 0 c 0.357,-1.302 1.537,-2.262 2.953,-2.262 1.705,0 3.084,1.378 3.084,3.081 0,1.703 -1.379,3.081 -3.084,3.081 C 1.541,2.259 0.36,1.301 0,0"
                           style="fill:#ffffff;fill-opacity:1;fill-rule:nonzero;stroke:none"
                           id="path119696" /></g></g></g></g></g></g><g
               id="g119724"><g
                 id="g119710" /><g
                 id="g119722"><g
                   clip-path="url(#clipPath119672)"
                   id="g119720"><g
                     id="g119718"><g
                       clip-path="url(#clipPath119676)"
                       id="g119716"><g
                         transform="translate(881.3545,736.3706)"
                         id="g119714"><path
                           d="m 0,0 h -45.735 l -19.619,-19.616 h -66.997 v 17.24 h -137.003 v -1.639 h 135.366 v -17.24 h 69.314 l 19.616,19.616 H 0 c 0.362,-1.301 1.542,-2.263 2.957,-2.263 1.704,0 3.082,1.381 3.082,3.08 0,1.702 -1.378,3.084 -3.082,3.084 C 1.542,2.262 0.362,1.3 0,0"
                           style="fill:#ffffff;fill-opacity:1;fill-rule:nonzero;stroke:none"
                           id="path119712" /></g></g></g></g></g></g><g
               id="g119740"><g
                 id="g119726" /><g
                 id="g119738"><g
                   clip-path="url(#clipPath119680)"
                   id="g119736"><g
                     id="g119734"><g
                       clip-path="url(#clipPath119684)"
                       id="g119732"><g
                         transform="translate(684.3105,721.8691)"
                         id="g119730"><path
                           d="m 0,0 v -9.786 h 27.569 c 0.361,-1.299 1.541,-2.262 2.957,-2.262 1.703,0 3.083,1.381 3.083,3.081 0,1.7 -1.38,3.084 -3.083,3.084 -1.413,0 -2.595,-0.963 -2.957,-2.264 H 1.64 v 6.508 H 46.724 V -17.241 H -11.062 V 0 H -149.503 V -1.639 H -12.704 V -18.88 H 48.364 V 0 Z"
                           style="fill:#ffffff;fill-opacity:1;fill-rule:nonzero;stroke:none"
                           id="path119728" /></g></g></g></g></g></g><g
               id="g119756"><g
                 id="g119742" /><g
                 id="g119754"><g
                   clip-path="url(#clipPath119688)"
                   id="g119752"><g
                     id="g119750"><g
                       clip-path="url(#clipPath119692)"
                       id="g119748"><g
                         transform="translate(881.5801,746.0928)"
                         id="g119746"><path
                           d="m 0,0 c -1.415,0 -2.599,-0.963 -2.959,-2.264 h -45.737 l -19.617,-19.614 h -56.548 v 17.241 h -159.283 c -0.341,1.323 -1.532,2.304 -2.96,2.304 -1.696,0 -3.07,-1.374 -3.07,-3.069 0,-1.695 1.374,-3.069 3.07,-3.069 1.387,0 2.546,0.928 2.925,2.192 H -126.5 v -17.24 h 58.867 l 19.618,19.618 h 45.056 c 0.363,-1.303 1.544,-2.264 2.959,-2.264 1.702,0 3.083,1.381 3.083,3.081 C 3.083,-1.382 1.702,0 0,0"
                           style="fill:#ffffff;fill-opacity:1;fill-rule:nonzero;stroke:none"
                           id="path119744" /></g></g></g></g></g></g><g
               transform="translate(537.8926,721.1709)"
               id="g119760"><path
                 d="m 0,0 c 0,-1.704 -1.381,-3.085 -3.085,-3.085 -1.704,0 -3.085,1.381 -3.085,3.085 0,1.704 1.381,3.085 3.085,3.085 C -1.381,3.085 0,1.704 0,0"
                 style="fill:#ffffff;fill-opacity:1;fill-rule:nonzero;stroke:none"
                 id="path119758" /></g><g
               transform="translate(555.917,726.874)"
               id="g119764"><path
                 d="M 0,0 C 0,1.704 1.381,3.085 3.085,3.085 4.789,3.085 6.17,1.704 6.17,0 6.17,-1.704 4.789,-3.085 3.085,-3.085 1.381,-3.085 0,-1.704 0,0"
                 style="fill:#ffffff;fill-opacity:1;fill-rule:nonzero;stroke:none"
                 id="path119762" /></g><path
               d="m 560.306,725.782 h 40.266 v 1.531 h -40.266 z"
               style="fill:#ffffff;fill-opacity:1;fill-rule:nonzero;stroke:none"
               id="path119766" /></g></g></g></g><g
       id="g120034"
       transform="matrix(0.35277776,0,0,-0.35277778,6.3673184e-4,279.40001)"
       clip-path="url(#clipPath1718)"><g
         clip-path="url(#clipPath119998)"
         opacity="0.300003"
         id="g120032"><g
           id="g120030"><g
             clip-path="url(#clipPath120002)"
             id="g120028"><g
               id="g120026"><g
                 id="g120012" /><g
                 id="g120024"><g
                   clip-path="url(#clipPath120006)"
                   opacity="0.699997"
                   id="g120022"><g
                     id="g120020"><g
                       clip-path="url(#clipPath120010)"
                       id="g120018"><g
                         transform="translate(619.9512,689.6191)"
                         id="g120016"><path
                           d="m 0,0 -19.616,19.62 h -56.108 c -0.36,1.299 -1.539,2.262 -2.956,2.262 -1.701,0 -3.084,-1.382 -3.084,-3.084 0,-1.702 1.383,-3.081 3.084,-3.081 1.417,0 2.596,0.958 2.956,2.262 h 55.427 L -0.68,-1.637 H 15.229 V 0 Z"
                           style="fill:#ffffff;fill-opacity:1;fill-rule:nonzero;stroke:none"
                           id="path120014" /></g></g></g></g></g></g></g></g></g></g></g><g
     id="g1243"
     transform="matrix(0.94097603,0,0,1,-1.040344,0.02860654)"><g
       id="g120048"
       transform="matrix(0.35277776,0,0,-0.35277778,0,287.17476)"
       clip-path="url(#clipPath1683)"><g
         clip-path="url(#clipPath120042)"
         id="g120046"><path
           d="M 72.42,22.681 H 569.701 V 24.32 H 72.42 Z"
           style="fill:#131413;fill-opacity:1;fill-rule:nonzero;stroke:none"
           id="path120044" /></g></g><path
       d="m 203.02424,271.10973 c 0,-0.60008 -0.48683,-1.08691 -1.08691,-1.08691 -0.60043,0 -1.08691,0.48683 -1.08691,1.08691 0,0.60008 0.48648,1.08691 1.08691,1.08691 0.60008,0 1.08691,-0.48683 1.08691,-1.08691"
       style="fill:#131413;fill-opacity:1;fill-rule:nonzero;stroke:none;stroke-width:0.352778"
       id="path120052"
       clip-path="url(#clipPath1657)"
       transform="translate(-6.3673184e-4,7.7747535)" /></g><text
     xml:space="preserve"
     style="font-variant:normal;font-weight:normal;font-stretch:normal;font-size:4.23333px;font-family:'Franklin Gothic Demi';-inkscape-font-specification:FranklinGothic-Demi;writing-mode:lr-tb;fill:#231f20;fill-opacity:1;fill-rule:nonzero;stroke:none;stroke-width:0.352778"
     id="text120064"
     x="12.6063"
     y="280"><tspan
       x="12.6063 14.905128 17.235207"
       y="280"
       sodipodi:role="line"
       id="tspan120062"
       style="font-style:normal;font-variant:normal;font-weight:normal;font-stretch:normal;font-size:4.23333px;font-family:Ubuntu;-inkscape-font-specification:'Ubuntu, Normal';font-variant-ligatures:normal;font-variant-caps:normal;font-variant-numeric:normal;font-variant-east-asian:normal;stroke-width:0.352778">106</tspan></text><g
     id="g1235"
     transform="matrix(0.99550061,0,0,1,0.35714221,0)"><g
       id="g120066"
       transform="matrix(0.35277776,0,0,-0.35277778,12.7,237.35375)"><path
         d="M 0,0 H 504"
         style="fill:none;stroke:#000000;stroke-width:0.25;stroke-linecap:butt;stroke-linejoin:miter;stroke-miterlimit:4;stroke-dasharray:none;stroke-opacity:1"
         id="path120068" /></g><g
       id="g120070"
       transform="matrix(0.35277776,0,0,-0.35277778,12.7,96.119136)"><path
         d="M 0,0 H 504"
         style="fill:none;stroke:#000000;stroke-width:0.25;stroke-linecap:butt;stroke-linejoin:miter;stroke-miterlimit:4;stroke-dasharray:none;stroke-opacity:1"
         id="path120072" /></g><g
       id="g120074"
       transform="matrix(0.35277776,0,0,-0.35277778,12.7,163.05872)"><path
         d="M 0,0 H 504"
         style="fill:none;stroke:#000000;stroke-width:0.25;stroke-linecap:butt;stroke-linejoin:miter;stroke-miterlimit:4;stroke-dasharray:none;stroke-opacity:1"
         id="path120076" /></g><g
       id="g120078"
       transform="matrix(0.35277776,0,0,-0.35277778,12.7,215.02292)"><path
         d="M 0,0 H 504"
         style="fill:none;stroke:#000000;stroke-width:0.25;stroke-linecap:butt;stroke-linejoin:miter;stroke-miterlimit:4;stroke-dasharray:none;stroke-opacity:1"
         id="path120080" /></g><g
       id="g120082"
       transform="matrix(0.35277776,0,0,-0.35277778,12.7,73.788303)"><path
         d="M 0,0 H 504"
         style="fill:none;stroke:#000000;stroke-width:0.25;stroke-linecap:butt;stroke-linejoin:miter;stroke-miterlimit:4;stroke-dasharray:none;stroke-opacity:1"
         id="path120084" /></g><g
       id="g120086"
       transform="matrix(0.35277776,0,0,-0.35277778,12.7,140.72788)"><path
         d="M 0,0 H 504"
         style="fill:none;stroke:#000000;stroke-width:0.25;stroke-linecap:butt;stroke-linejoin:miter;stroke-miterlimit:4;stroke-dasharray:none;stroke-opacity:1"
         id="path120088" /></g><g
       id="g120090"
       transform="matrix(0.35277776,0,0,-0.35277778,12.7,259.68462)"><path
         d="M 0,0 H 504"
         style="fill:none;stroke:#000000;stroke-width:0.25;stroke-linecap:butt;stroke-linejoin:miter;stroke-miterlimit:4;stroke-dasharray:none;stroke-opacity:1"
         id="path120092" /></g><g
       id="g120094"
       transform="matrix(0.35277776,0,0,-0.35277778,12.7,118.45)"><path
         d="M 0,0 H 504"
         style="fill:none;stroke:#000000;stroke-width:0.25;stroke-linecap:butt;stroke-linejoin:miter;stroke-miterlimit:4;stroke-dasharray:none;stroke-opacity:1"
         id="path120096" /></g><g
       id="g120098"
       transform="matrix(0.35277776,0,0,-0.35277778,12.7,185.38958)"><path
         d="M 0,0 H 504"
         style="fill:none;stroke:#000000;stroke-width:0.25;stroke-linecap:butt;stroke-linejoin:miter;stroke-miterlimit:4;stroke-dasharray:none;stroke-opacity:1"
         id="path120100" /></g><g
       id="g120102"
       transform="matrix(0.35277776,0,0,-0.35277778,12.7,200.1357)"><path
         d="M 0,0 H 504"
         style="fill:none;stroke:#000000;stroke-width:0.25;stroke-linecap:butt;stroke-linejoin:miter;stroke-miterlimit:4;stroke-dasharray:none;stroke-opacity:1"
         id="path120104" /></g><g
       id="g120106"
       transform="matrix(0.35277776,0,0,-0.35277778,12.7,244.79733)"><path
         d="M 0,0 H 504"
         style="fill:none;stroke:#000000;stroke-width:0.25;stroke-linecap:butt;stroke-linejoin:miter;stroke-miterlimit:4;stroke-dasharray:none;stroke-opacity:1"
         id="path120108" /></g><g
       id="g120110"
       transform="matrix(0.35277776,0,0,-0.35277778,12.7,103.56278)"><path
         d="M 0,0 H 504"
         style="fill:none;stroke:#000000;stroke-width:0.25;stroke-linecap:butt;stroke-linejoin:miter;stroke-miterlimit:4;stroke-dasharray:none;stroke-opacity:1"
         id="path120112" /></g><g
       id="g120114"
       transform="matrix(0.35277776,0,0,-0.35277778,12.7,170.50236)"><path
         d="M 0,0 H 504"
         style="fill:none;stroke:#000000;stroke-width:0.25;stroke-linecap:butt;stroke-linejoin:miter;stroke-miterlimit:4;stroke-dasharray:none;stroke-opacity:1"
         id="path120116" /></g><g
       id="g120118"
       transform="matrix(0.35277776,0,0,-0.35277778,12.7,133.19611)"><path
         d="M 0,0 H 504"
         style="fill:none;stroke:#000000;stroke-width:0.25;stroke-linecap:butt;stroke-linejoin:miter;stroke-miterlimit:4;stroke-dasharray:none;stroke-opacity:1"
         id="path120120" /></g><g
       id="g120122"
       transform="matrix(0.35277776,0,0,-0.35277778,12.7,222.46656)"><path
         d="M 0,0 H 504"
         style="fill:none;stroke:#000000;stroke-width:0.25;stroke-linecap:butt;stroke-linejoin:miter;stroke-miterlimit:4;stroke-dasharray:none;stroke-opacity:1"
         id="path120124" /></g><g
       id="g120126"
       transform="matrix(0.35277776,0,0,-0.35277778,12.7,81.231949)"><path
         d="M 0,0 H 504"
         style="fill:none;stroke:#000000;stroke-width:0.25;stroke-linecap:butt;stroke-linejoin:miter;stroke-miterlimit:4;stroke-dasharray:none;stroke-opacity:1"
         id="path120128" /></g><g
       id="g120130"
       transform="matrix(0.35277776,0,0,-0.35277778,12.7,148.17153)"><path
         d="M 0,0 H 504"
         style="fill:none;stroke:#000000;stroke-width:0.25;stroke-linecap:butt;stroke-linejoin:miter;stroke-miterlimit:4;stroke-dasharray:none;stroke-opacity:1"
         id="path120132" /></g><g
       id="g120134"
       transform="matrix(0.35277776,0,0,-0.35277778,12.7,267.12816)"><path
         d="M 0,0 H 504"
         style="fill:none;stroke:#000000;stroke-width:0.25;stroke-linecap:butt;stroke-linejoin:miter;stroke-miterlimit:4;stroke-dasharray:none;stroke-opacity:1"
         id="path120136" /></g><g
       id="g120138"
       transform="matrix(0.35277776,0,0,-0.35277778,12.7,125.89365)"><path
         d="M 0,0 H 504"
         style="fill:none;stroke:#000000;stroke-width:0.25;stroke-linecap:butt;stroke-linejoin:miter;stroke-miterlimit:4;stroke-dasharray:none;stroke-opacity:1"
         id="path120140" /></g><g
       id="g120142"
       transform="matrix(0.35277776,0,0,-0.35277778,12.7,192.83323)"><path
         d="M 0,0 H 504"
         style="fill:none;stroke:#000000;stroke-width:0.25;stroke-linecap:butt;stroke-linejoin:miter;stroke-miterlimit:4;stroke-dasharray:none;stroke-opacity:1"
         id="path120144" /></g><g
       id="g120146"
       transform="matrix(0.35277776,0,0,-0.35277778,12.7,207.57927)"><path
         d="M 0,0 H 504"
         style="fill:none;stroke:#000000;stroke-width:0.25;stroke-linecap:butt;stroke-linejoin:miter;stroke-miterlimit:4;stroke-dasharray:none;stroke-opacity:1"
         id="path120148" /></g><g
       id="g120150"
       transform="matrix(0.35277776,0,0,-0.35277778,12.7,66.344727)"><path
         d="M 0,0 H 504"
         style="fill:none;stroke:#000000;stroke-width:0.25;stroke-linecap:butt;stroke-linejoin:miter;stroke-miterlimit:4;stroke-dasharray:none;stroke-opacity:1"
         id="path120152" /></g><g
       id="g120154"
       transform="matrix(0.35277776,0,0,-0.35277778,12.7,252.24097)"><path
         d="M 0,0 H 504"
         style="fill:none;stroke:#000000;stroke-width:0.25;stroke-linecap:butt;stroke-linejoin:miter;stroke-miterlimit:4;stroke-dasharray:none;stroke-opacity:1"
         id="path120156" /></g><g
       id="g120158"
       transform="matrix(0.35277776,0,0,-0.35277778,12.7,111.00635)"><path
         d="M 0,0 H 504"
         style="fill:none;stroke:#000000;stroke-width:0.25;stroke-linecap:butt;stroke-linejoin:miter;stroke-miterlimit:4;stroke-dasharray:none;stroke-opacity:1"
         id="path120160" /></g><g
       id="g120162"
       transform="matrix(0.35277776,0,0,-0.35277778,12.7,177.94594)"><path
         d="M 0,0 H 504"
         style="fill:none;stroke:#000000;stroke-width:0.25;stroke-linecap:butt;stroke-linejoin:miter;stroke-miterlimit:4;stroke-dasharray:none;stroke-opacity:1"
         id="path120164" /></g><g
       id="g120166"
       transform="matrix(0.35277776,0,0,-0.35277778,12.7,229.9101)"><path
         d="M 0,0 H 504"
         style="fill:none;stroke:#000000;stroke-width:0.25;stroke-linecap:butt;stroke-linejoin:miter;stroke-miterlimit:4;stroke-dasharray:none;stroke-opacity:1"
         id="path120168" /></g><g
       id="g120170"
       transform="matrix(0.35277776,0,0,-0.35277778,12.7,88.675596)"><path
         d="M 0,0 H 504"
         style="fill:none;stroke:#000000;stroke-width:0.25;stroke-linecap:butt;stroke-linejoin:miter;stroke-miterlimit:4;stroke-dasharray:none;stroke-opacity:1"
         id="path120172" /></g><g
       id="g120174"
       transform="matrix(0.35277776,0,0,-0.35277778,12.7,155.61518)"><path
         d="M 0,0 H 504"
         style="fill:none;stroke:#000000;stroke-width:0.25;stroke-linecap:butt;stroke-linejoin:miter;stroke-miterlimit:4;stroke-dasharray:none;stroke-opacity:1"
         id="path120176" /></g></g><text
     xml:space="preserve"
     style="font-style:italic;font-variant:normal;font-weight:bold;font-stretch:normal;font-size:7.05556px;font-family:'URVBJF +Ubuntu-BoldItalic';-inkscape-font-specification:Ubuntu-BoldItalic;writing-mode:lr-tb;fill:#ffffff;fill-opacity:1;fill-rule:nonzero;stroke:none;stroke-width:0.352778"
     id="text120180"
     x="12.470833"
     y="35"><tspan
       x="12.470833 17.113413 19.11146 21.939585 25.150522 29.19935 31.197397 35.197392"
       y="35"
       sodipodi:role="line"
       id="tspan120178"
       style="font-style:italic;font-variant:normal;font-weight:bold;font-stretch:normal;font-size:7.05556px;font-family:Ubuntu;-inkscape-font-specification:'Ubuntu, Bold Italic';font-variant-ligatures:normal;font-variant-caps:normal;font-variant-numeric:normal;font-variant-east-asian:normal;stroke-width:0.352778">Bitcoin – heute und in der Zukunft</tspan></text></svg>
