<?xml version="1.0" encoding="UTF-8" standalone="no"?>
<!-- Created with Inkscape (http://www.inkscape.org/) -->

<svg
   width="210mm"
   height="297mm"
   viewBox="0 0 210 297"
   version="1.1"
   id="svg5"
   xml:space="preserve"
   sodipodi:docname="116_Bitcoin Diplom - Arbeitsbuch.svg"
   inkscape:version="1.2.2 (b0a8486, 2022-12-01)"
   inkscape:export-filename="116_Bitcoin Diplom - Arbeitsbuch.pdf"
   inkscape:export-xdpi="300"
   inkscape:export-ydpi="300"
   xmlns:inkscape="http://www.inkscape.org/namespaces/inkscape"
   xmlns:sodipodi="http://sodipodi.sourceforge.net/DTD/sodipodi-0.dtd"
   xmlns="http://www.w3.org/2000/svg"
   xmlns:svg="http://www.w3.org/2000/svg"><sodipodi:namedview
     id="namedview7"
     pagecolor="#ffffff"
     bordercolor="#000000"
     borderopacity="0.25"
     inkscape:showpageshadow="2"
     inkscape:pageopacity="0.0"
     inkscape:pagecheckerboard="0"
     inkscape:deskcolor="#d1d1d1"
     inkscape:document-units="mm"
     showgrid="false"
     showguides="true"
     inkscape:zoom="0.52507026"
     inkscape:cx="462.79521"
     inkscape:cy="515.16915"
     inkscape:window-width="1280"
     inkscape:window-height="747"
     inkscape:window-x="0"
     inkscape:window-y="25"
     inkscape:window-maximized="0"
     inkscape:current-layer="svg5"><sodipodi:guide
       position="0,279.2"
       orientation="0,1"
       id="guide1990"
       inkscape:locked="false"
       inkscape:label=""
       inkscape:color="rgb(0,134,229)" /><sodipodi:guide
       position="13,297"
       orientation="-1,0"
       id="guide1265"
       inkscape:locked="false"
       inkscape:label=""
       inkscape:color="rgb(0,134,229)" /><sodipodi:guide
       position="190,297"
       orientation="-1,0"
       id="guide1267"
       inkscape:locked="false"
       inkscape:label=""
       inkscape:color="rgb(0,134,229)" /><sodipodi:guide
       position="0,262"
       orientation="0,1"
       id="guide1269"
       inkscape:locked="false"
       inkscape:label=""
       inkscape:color="rgb(0,134,229)" /><sodipodi:guide
       position="0,244"
       orientation="0,1"
       id="guide1317"
       inkscape:locked="false"
       inkscape:label=""
       inkscape:color="rgb(0,134,229)" /><sodipodi:guide
       position="23,297"
       orientation="-1,0"
       id="guide1319"
       inkscape:locked="false"
       inkscape:label=""
       inkscape:color="rgb(0,134,229)" /><sodipodi:guide
       position="0,233"
       orientation="0,1"
       id="guide1321"
       inkscape:locked="false"
       inkscape:label=""
       inkscape:color="rgb(0,134,229)" /><sodipodi:guide
       position="33,297"
       orientation="-1,0"
       id="guide3628"
       inkscape:locked="false"
       inkscape:label=""
       inkscape:color="rgb(0,134,229)" /><sodipodi:guide
       position="0,222"
       orientation="0,1"
       id="guide4356"
       inkscape:locked="false"
       inkscape:label=""
       inkscape:color="rgb(0,134,229)" /><sodipodi:guide
       position="0,17"
       orientation="0,1"
       id="guide5810"
       inkscape:locked="false"
       inkscape:label=""
       inkscape:color="rgb(0,134,229)" /></sodipodi:namedview><defs
     id="defs2"><rect
       x="-353.86636"
       y="249.87732"
       width="596.45919"
       height="116.51576"
       id="rect1433" /><linearGradient
       x1="0"
       y1="0"
       x2="1"
       y2="0"
       gradientUnits="userSpaceOnUse"
       gradientTransform="matrix(351.86044,609.44012,609.44012,-351.86044,436.06979,421.06186)"
       spreadMethod="pad"
       id="linearGradient3315"><stop
         style="stop-opacity:1;stop-color:#5e3197"
         offset="0"
         id="stop3309" /><stop
         style="stop-opacity:1;stop-color:#3c2973"
         offset="0.427928"
         id="stop3311" /><stop
         style="stop-opacity:1;stop-color:#171b3a"
         offset="1"
         id="stop3313" /></linearGradient><clipPath
       clipPathUnits="userSpaceOnUse"
       id="clipPath3333"><path
         d="M 531.722,746.093 H 901.126 V 702.989 H 531.722 Z"
         id="path3331" /></clipPath><clipPath
       clipPathUnits="userSpaceOnUse"
       id="clipPath3337"><path
         d="m 531.722,702.989 h 369.404 v 43.104 H 531.722 Z"
         id="path3335" /></clipPath><clipPath
       clipPathUnits="userSpaceOnUse"
       id="clipPath3341"><path
         d="M 600.571,731.948 H 901.126 V 706.17 H 600.571 Z"
         id="path3339" /></clipPath><clipPath
       clipPathUnits="userSpaceOnUse"
       id="clipPath3345"><path
         d="m 600.571,706.17 h 300.555 v 25.778 H 600.571 Z"
         id="path3343" /></clipPath><clipPath
       clipPathUnits="userSpaceOnUse"
       id="clipPath3349"><path
         d="M 612,738.633 H 887.393 V 715.115 H 612 Z"
         id="path3347" /></clipPath><clipPath
       clipPathUnits="userSpaceOnUse"
       id="clipPath3353"><path
         d="m 612,715.115 h 275.393 v 23.518 H 612 Z"
         id="path3351" /></clipPath><clipPath
       clipPathUnits="userSpaceOnUse"
       id="clipPath3357"><path
         d="m 534.808,721.869 h 197.867 v -18.88 H 534.808 Z"
         id="path3355" /></clipPath><clipPath
       clipPathUnits="userSpaceOnUse"
       id="clipPath3361"><path
         d="m 534.808,702.989 h 197.867 v 18.88 H 534.808 Z"
         id="path3359" /></clipPath><clipPath
       clipPathUnits="userSpaceOnUse"
       id="clipPath3365"><path
         d="M 591.406,746.093 H 884.663 V 722.574 H 591.406 Z"
         id="path3363" /></clipPath><clipPath
       clipPathUnits="userSpaceOnUse"
       id="clipPath3369"><path
         d="m 591.406,722.574 h 293.257 v 23.519 H 591.406 Z"
         id="path3367" /></clipPath><clipPath
       clipPathUnits="userSpaceOnUse"
       id="clipPath3467"><path
         d="M -243.45,763.582 H 387.086 V 664.793 H -243.45 Z"
         id="path3465" /></clipPath><clipPath
       clipPathUnits="userSpaceOnUse"
       id="clipPath3471"><path
         d="m -11.736,687.982 h 398.822 v 75.6 H -11.736 Z"
         id="path3469" /></clipPath><clipPath
       clipPathUnits="userSpaceOnUse"
       id="clipPath3475"><path
         d="M -243.45,757.852 H 315.864 V 664.793 H -243.45 Z"
         id="path3473" /></clipPath><clipPath
       clipPathUnits="userSpaceOnUse"
       id="clipPath3479"><path
         d="m -243.45,664.793 h 559.314 v 93.059 H -243.45 Z"
         id="path3477" /></clipPath><clipPath
       clipPathUnits="userSpaceOnUse"
       id="clipPath3483"><path
         d="M -88.7533,685.934 H 93.3112 V 664.793 H -88.7533 Z"
         id="path3481" /></clipPath><clipPath
       clipPathUnits="userSpaceOnUse"
       id="clipPath3487"><path
         d="M -88.753,664.793 H 93.312 v 21.141 H -88.753 Z"
         id="path3485" /></clipPath><clipPath
       clipPathUnits="userSpaceOnUse"
       id="clipPath3491"><path
         d="M -92.1164,692.617 H 103.559 V 671.474 H -92.1164 Z"
         id="path3489" /></clipPath><clipPath
       clipPathUnits="userSpaceOnUse"
       id="clipPath3495"><path
         d="m -92.116,671.474 h 195.675 v 21.143 H -92.116 Z"
         id="path3493" /></clipPath><clipPath
       clipPathUnits="userSpaceOnUse"
       id="clipPath3499"><path
         d="M -94.8465,700.078 H 110.935 V 678.933 H -94.8465 Z"
         id="path3497" /></clipPath><clipPath
       clipPathUnits="userSpaceOnUse"
       id="clipPath3503"><path
         d="m -94.846,678.933 h 205.781 v 21.145 H -94.846 Z"
         id="path3501" /></clipPath><clipPath
       clipPathUnits="userSpaceOnUse"
       id="clipPath3507"><path
         d="M -149.51,757.852 H 234.761 V 734.334 H -149.51 Z"
         id="path3505" /></clipPath><clipPath
       clipPathUnits="userSpaceOnUse"
       id="clipPath3511"><path
         d="m -149.51,734.334 h 384.271 v 23.518 H -149.51 Z"
         id="path3509" /></clipPath><clipPath
       clipPathUnits="userSpaceOnUse"
       id="clipPath3515"><path
         d="m -237.356,735.23 h 553.22 v -40.662 h -553.22 z"
         id="path3513" /></clipPath><clipPath
       clipPathUnits="userSpaceOnUse"
       id="clipPath3519"><path
         d="m -237.356,694.568 h 553.22 v 40.662 h -553.22 z"
         id="path3517" /></clipPath><clipPath
       clipPathUnits="userSpaceOnUse"
       id="clipPath3523"><path
         d="M -240.716,741.917 H 70.0318 v -23.52 H -240.716 Z"
         id="path3521" /></clipPath><clipPath
       clipPathUnits="userSpaceOnUse"
       id="clipPath3527"><path
         d="M -240.716,718.397 H 70.032 v 23.52 h -310.748 z"
         id="path3525" /></clipPath><clipPath
       clipPathUnits="userSpaceOnUse"
       id="clipPath3531"><path
         d="M -243.45,749.376 H 54.1837 V 725.858 H -243.45 Z"
         id="path3529" /></clipPath><clipPath
       clipPathUnits="userSpaceOnUse"
       id="clipPath3535"><path
         d="M -243.45,725.858 H 54.184 v 23.518 H -243.45 Z"
         id="path3533" /></clipPath><clipPath
       clipPathUnits="userSpaceOnUse"
       id="clipPath3675"><path
         d="m 499.874,763.582 h 135.305 v -75.6 H 499.874 Z"
         id="path3673" /></clipPath><clipPath
       clipPathUnits="userSpaceOnUse"
       id="clipPath3679"><path
         d="M 499.874,687.982 H 612 v 75.6 H 499.874 Z"
         id="path3677" /></clipPath><clipPath
       clipPathUnits="userSpaceOnUse"
       id="clipPath3683"><path
         d="m 538.188,711.501 h 96.991 v -23.519 h -96.991 z"
         id="path3681" /></clipPath><clipPath
       clipPathUnits="userSpaceOnUse"
       id="clipPath3687"><path
         d="m 538.188,687.982 h 96.991 v 23.519 h -96.991 z"
         id="path3685" /></clipPath><clipPath
       clipPathUnits="userSpaceOnUse"
       id="clipPath3719"><path
         d="M 72.4204,24.3195 H 569.703 v -1.639 H 72.4204 Z"
         id="path3717" /></clipPath><clipPath
       clipPathUnits="userSpaceOnUse"
       id="clipPath3749"><path
         d="M 0,0 H 612 V 792 H 0 Z"
         id="path3747" /></clipPath><clipPath
       clipPathUnits="userSpaceOnUse"
       id="clipPath3757"><path
         d="M 35,645.37 H 577 V 534.68 H 35 Z"
         id="path3755" /></clipPath><clipPath
       clipPathUnits="userSpaceOnUse"
       id="clipPath3783"><path
         d="M 0,0 H 612 V 792 H 0 Z"
         id="path3781" /></clipPath><clipPath
       clipPathUnits="userSpaceOnUse"
       id="clipPath3807"><path
         d="M 0,0 H 612 V 792 H 0 Z"
         id="path3805" /></clipPath><clipPath
       clipPathUnits="userSpaceOnUse"
       id="clipPath3831"><path
         d="M 0,0 H 612 V 792 H 0 Z"
         id="path3829" /></clipPath><clipPath
       clipPathUnits="userSpaceOnUse"
       id="clipPath1705"><g
         id="g1715"
         transform="matrix(2.8346458,0,0,-2.8346457,4.0128165e-5,792.00002)"><g
           id="g1713"><g
             id="g1711"><g
               id="g1709"><path
                 d="M -1.4156324e-5,8.24e-6 H 215.89997 V 279.40001 H -1.4156324e-5 Z"
                 id="path1707"
                 style="stroke-width:0.352778" /></g></g></g></g></clipPath><clipPath
       clipPathUnits="userSpaceOnUse"
       id="clipPath1740"><g
         id="g1750"
         transform="matrix(2.8346458,0,0,-2.8346457,4.0128165e-5,792.00002)"><g
           id="g1748"><g
             id="g1746"><g
               id="g1744"><path
                 d="M -1.4156324e-5,8.24e-6 H 215.89997 V 279.40001 H -1.4156324e-5 Z"
                 id="path1742"
                 style="stroke-width:0.352778" /></g></g></g></g></clipPath><clipPath
       clipPathUnits="userSpaceOnUse"
       id="clipPath1804"><g
         id="g1814"
         transform="matrix(2.8346458,0,0,-2.8346457,4.0128165e-5,792.00002)"><g
           id="g1812"><g
             id="g1810"><g
               id="g1808"><path
                 d="M -1.4156324e-5,8.24e-6 H 215.89997 V 279.40001 H -1.4156324e-5 Z"
                 id="path1806"
                 style="stroke-width:0.352778" /></g></g></g></g></clipPath><clipPath
       clipPathUnits="userSpaceOnUse"
       id="clipPath1828"><g
         id="g1838"
         transform="matrix(2.8346458,0,0,-2.8346457,4.0128165e-5,792.00002)"><g
           id="g1836"><g
             id="g1834"><g
               id="g1832"><path
                 d="M -1.4156324e-5,8.24e-6 H 215.89997 V 279.40001 H -1.4156324e-5 Z"
                 id="path1830"
                 style="stroke-width:0.352778" /></g></g></g></g></clipPath><clipPath
       clipPathUnits="userSpaceOnUse"
       id="clipPath1851"><g
         id="g1861"><g
           id="g1859"><g
             id="g1857"><g
               id="g1855"><path
                 d="M -1.4156324e-5,8.24e-6 H 215.89997 V 279.40001 H -1.4156324e-5 Z"
                 id="path1853"
                 style="stroke-width:0.352778" /></g></g></g></g></clipPath><clipPath
       clipPathUnits="userSpaceOnUse"
       id="clipPath1923"><g
         id="g1933"
         transform="matrix(2.8346458,0,0,-2.8346457,4.0128165e-5,792.00002)"><g
           id="g1931"><g
             id="g1929"><g
               id="g1927"><path
                 d="M -1.4156324e-5,8.24e-6 H 215.89997 V 279.40001 H -1.4156324e-5 Z"
                 id="path1925"
                 style="stroke-width:0.352778" /></g></g></g></g></clipPath><rect
       x="-353.86636"
       y="249.87732"
       width="501.77902"
       height="168.24094"
       id="rect1433-5" /></defs><g
     id="g3307"
     transform="matrix(0.34313728,0,0,-0.35277778,0,287.17476)"
     clip-path="url(#clipPath1828)"><path
       d="m 0,763.582 v 0 -75.6 0 h 612 v 0 75.6 0 z"
       style="fill:url(#linearGradient3315);stroke:none"
       id="path3317" /></g><g
     id="g3329"
     transform="matrix(0.35277776,0,0,-0.35277778,-1.4156324e-5,279.40001)" /><g
     id="g3463"
     transform="matrix(0.35277776,0,0,-0.35277778,-1.4156324e-5,279.40001)" /><g
     id="g3667"
     transform="matrix(0.35277776,0,0,-0.35277778,0,287.17476)"
     clip-path="url(#clipPath1705)"><g
       clip-path="url(#clipPath3467)"
       opacity="0.699997"
       id="g3665"><g
         id="g3663"><g
           clip-path="url(#clipPath3471)"
           id="g3661"><g
             id="g3659"><g
               id="g3537" /><g
               id="g3657"><g
                 clip-path="url(#clipPath3475)"
                 opacity="0.300003"
                 id="g3655"><g
                   id="g3653"><g
                     clip-path="url(#clipPath3479)"
                     id="g3651"><g
                       id="g3553"><g
                         id="g3539" /><g
                         id="g3551"><g
                           clip-path="url(#clipPath3483)"
                           id="g3549"><g
                             id="g3547"><g
                               clip-path="url(#clipPath3487)"
                               id="g3545"><g
                                 transform="translate(87.2715,667.0532)"
                                 id="g3543"><path
                                   d="m 0,0 c 0.361,-1.301 1.542,-2.261 2.959,-2.261 1.702,0 3.081,1.378 3.081,3.081 0,1.701 -1.379,3.083 -3.081,3.083 C 1.542,3.903 0.361,2.942 0,1.641 H -34.218 V 18.88 H -176.025 V 17.243 H -35.856 V 0 Z"
                                   style="fill:#ffffff;fill-opacity:1;fill-rule:nonzero;stroke:none"
                                   id="path3541" /></g></g></g></g></g></g><g
                       id="g3569"><g
                         id="g3555" /><g
                         id="g3567"><g
                           clip-path="url(#clipPath3491)"
                           id="g3565"><g
                             id="g3563"><g
                               clip-path="url(#clipPath3495)"
                               id="g3561"><g
                                 transform="translate(97.5195,673.7368)"
                                 id="g3559"><path
                                   d="m 0,0 c 0.36,-1.301 1.539,-2.263 2.958,-2.263 1.701,0 3.082,1.382 3.082,3.082 C 6.04,2.52 4.659,3.901 2.958,3.901 1.539,3.901 0.361,2.94 0,1.641 H -37.841 V 18.88 H -189.636 V 17.241 H -39.479 V 0 Z"
                                   style="fill:#ffffff;fill-opacity:1;fill-rule:nonzero;stroke:none"
                                   id="path3557" /></g></g></g></g></g></g><g
                       id="g3585"><g
                         id="g3571" /><g
                         id="g3583"><g
                           clip-path="url(#clipPath3499)"
                           id="g3581"><g
                             id="g3579"><g
                               clip-path="url(#clipPath3503)"
                               id="g3577"><g
                                 transform="translate(104.8945,681.1968)"
                                 id="g3575"><path
                                   d="m 0,0 c 0.363,-1.301 1.544,-2.264 2.959,-2.264 1.702,0 3.081,1.382 3.081,3.084 0,1.702 -1.379,3.079 -3.081,3.079 C 1.542,3.899 0.36,2.938 0,1.637 h -37.501 v 17.245 h -162.24 V 17.239 H -39.14 V 0 Z"
                                   style="fill:#ffffff;fill-opacity:1;fill-rule:nonzero;stroke:none"
                                   id="path3573" /></g></g></g></g></g></g><g
                       id="g3601"><g
                         id="g3587" /><g
                         id="g3599"><g
                           clip-path="url(#clipPath3507)"
                           id="g3597"><g
                             id="g3595"><g
                               clip-path="url(#clipPath3511)"
                               id="g3593"><g
                                 transform="translate(228.7231,755.5898)"
                                 id="g3591"><path
                                   d="m 0,0 h -45.736 l -19.618,-19.617 h -56.55 v 17.242 h -256.329 v -1.641 h 254.688 v -17.239 h 58.871 L -45.058,-1.64 H 0 c 0.36,-1.302 1.541,-2.263 2.957,-2.263 1.703,0 3.081,1.381 3.081,3.082 0,1.705 -1.378,3.083 -3.081,3.083 C 1.541,2.262 0.36,1.302 0,0"
                                   style="fill:#ffffff;fill-opacity:1;fill-rule:nonzero;stroke:none"
                                   id="path3589" /></g></g></g></g></g></g><g
                       id="g3617"><g
                         id="g3603" /><g
                         id="g3615"><g
                           clip-path="url(#clipPath3515)"
                           id="g3613"><g
                             id="g3611"><g
                               clip-path="url(#clipPath3519)"
                               id="g3609"><g
                                 transform="translate(82.0239,732.9722)"
                                 id="g3607"><path
                                   d="m 0,0 h -80.968 l -19.618,-19.618 h -76.984 v 17.24 h -141.81 v -1.638 h 140.171 v -17.241 h 79.301 l 0.094,0.094 H 73.45 v -17.241 h 79.306 l 19.618,19.616 H 227.8 c 0.361,-1.304 1.539,-2.262 2.956,-2.262 1.702,0 3.084,1.379 3.084,3.081 0,1.701 -1.382,3.084 -3.084,3.084 -1.417,0 -2.595,-0.963 -2.956,-2.262 h -56.107 l -19.616,-19.62 H 75.093 v 17.24 H -98.179 l 5.045,5.044 H 80.077 v -17.24 h 69.316 l 19.617,19.62 h 45.059 c 0.36,-1.305 1.54,-2.263 2.956,-2.263 1.702,0 3.084,1.378 3.084,3.08 0,1.7 -1.382,3.081 -3.084,3.081 -1.416,0 -2.596,-0.96 -2.956,-2.262 H 168.333 L 148.712,-30.082 H 81.718 v 17.24 H -91.494 l 5.823,5.819 h 173.46 v -17.24 h 58.871 l 19.619,19.617 h 45.056 c 0.364,-1.302 1.542,-2.263 2.957,-2.263 1.703,0 3.081,1.383 3.081,3.083 0,1.701 -1.378,3.081 -3.081,3.081 -1.416,0 -2.596,-0.96 -2.957,-2.262 H 165.598 L 145.982,-22.625 H 89.432 V -5.384 H -84.032 l 3.741,3.743 H 0 c 0.363,-1.302 1.543,-2.262 2.96,-2.262 1.7,0 3.08,1.381 3.08,3.083 0,1.701 -1.38,3.077 -3.08,3.077 C 1.545,2.257 0.363,1.298 0,0"
                                   style="fill:#ffffff;fill-opacity:1;fill-rule:nonzero;stroke:none"
                                   id="path3605" /></g></g></g></g></g></g><g
                       id="g3633"><g
                         id="g3619" /><g
                         id="g3631"><g
                           clip-path="url(#clipPath3523)"
                           id="g3629"><g
                             id="g3627"><g
                               clip-path="url(#clipPath3527)"
                               id="g3625"><g
                                 transform="translate(66.9478,735.751)"
                                 id="g3623"><path
                                   d="m 0,0 c 1.703,0 3.084,1.382 3.084,3.084 0,1.7 -1.381,3.083 -3.084,3.083 -1.416,0 -2.599,-0.963 -2.959,-2.266 h -66.296 l -19.618,-19.616 h -66.998 V 1.526 h -151.793 v -1.639 h 150.155 v -17.241 h 69.316 L -68.577,2.262 H -2.959 C -2.596,0.963 -1.414,0 0,0"
                                   style="fill:#ffffff;fill-opacity:1;fill-rule:nonzero;stroke:none"
                                   id="path3621" /></g></g></g></g></g></g><g
                       id="g3649"><g
                         id="g3635" /><g
                         id="g3647"><g
                           clip-path="url(#clipPath3531)"
                           id="g3645"><g
                             id="g3643"><g
                               clip-path="url(#clipPath3535)"
                               id="g3641"><g
                                 transform="translate(-23.979,725.8579)"
                                 id="g3639"><path
                                   d="m 0,0 19.618,19.617 h 52.505 c 0.36,-1.302 1.541,-2.263 2.956,-2.263 1.703,0 3.084,1.381 3.084,3.08 0,1.701 -1.381,3.084 -3.084,3.084 -1.415,0 -2.595,-0.963 -2.956,-2.263 H 18.938 L -0.681,1.638 H -57.227 V 18.881 H -219.471 V 17.24 H -58.868 V 0 Z"
                                   style="fill:#ffffff;fill-opacity:1;fill-rule:nonzero;stroke:none"
                                   id="path3637" /></g></g></g></g></g></g></g></g></g></g></g></g></g></g></g><g
     id="g3671"
     transform="matrix(0.35277776,0,0,-0.35277778,-1.4156324e-5,279.40001)" /><g
     id="g1988"
     transform="translate(-5.8208194,7.7747562)"><g
       id="g3451"
       transform="matrix(0.35277776,0,0,-0.35277778,-1.4156324e-5,279.40001)"
       clip-path="url(#clipPath1804)"><g
         clip-path="url(#clipPath3333)"
         opacity="0.300003"
         id="g3449"><g
           id="g3447"><g
             clip-path="url(#clipPath3337)"
             id="g3445"><g
               id="g3385"><g
                 id="g3371" /><g
                 id="g3383"><g
                   clip-path="url(#clipPath3341)"
                   id="g3381"><g
                     id="g3379"><g
                       clip-path="url(#clipPath3345)"
                       id="g3377"><g
                         transform="translate(895.0889,729.6895)"
                         id="g3375"><path
                           d="m 0,0 h -56.105 l -19.619,-19.618 h -21.618 -55.368 v 17.241 h -141.808 v -1.639 h 140.166 v -17.241 h 57.01 22.293 30.546 c 0.359,-1.3 1.54,-2.263 2.957,-2.263 1.7,0 3.081,1.383 3.081,3.082 0,1.701 -1.381,3.082 -3.081,3.082 -1.417,0 -2.596,-0.961 -2.957,-2.262 h -28.906 l 5.044,5.044 h 49.685 c 0.361,-1.304 1.54,-2.262 2.957,-2.262 1.702,0 3.081,1.379 3.081,3.079 0,1.705 -1.379,3.084 -3.081,3.084 -1.415,0 -2.596,-0.962 -2.957,-2.262 h -48.047 l 11.298,11.294 H 0 c 0.357,-1.302 1.537,-2.262 2.953,-2.262 1.705,0 3.084,1.378 3.084,3.081 0,1.703 -1.379,3.081 -3.084,3.081 C 1.541,2.259 0.36,1.301 0,0"
                           style="fill:#ffffff;fill-opacity:1;fill-rule:nonzero;stroke:none"
                           id="path3373" /></g></g></g></g></g></g><g
               id="g3401"><g
                 id="g3387" /><g
                 id="g3399"><g
                   clip-path="url(#clipPath3349)"
                   id="g3397"><g
                     id="g3395"><g
                       clip-path="url(#clipPath3353)"
                       id="g3393"><g
                         transform="translate(881.3545,736.3706)"
                         id="g3391"><path
                           d="m 0,0 h -45.735 l -19.619,-19.616 h -66.997 v 17.24 h -137.003 v -1.639 h 135.366 v -17.24 h 69.314 l 19.616,19.616 H 0 c 0.362,-1.301 1.542,-2.263 2.957,-2.263 1.704,0 3.082,1.381 3.082,3.08 0,1.702 -1.378,3.084 -3.082,3.084 C 1.542,2.262 0.362,1.3 0,0"
                           style="fill:#ffffff;fill-opacity:1;fill-rule:nonzero;stroke:none"
                           id="path3389" /></g></g></g></g></g></g><g
               id="g3417"><g
                 id="g3403" /><g
                 id="g3415"><g
                   clip-path="url(#clipPath3357)"
                   id="g3413"><g
                     id="g3411"><g
                       clip-path="url(#clipPath3361)"
                       id="g3409"><g
                         transform="translate(684.3105,721.8691)"
                         id="g3407"><path
                           d="m 0,0 v -9.786 h 27.569 c 0.361,-1.299 1.541,-2.262 2.957,-2.262 1.703,0 3.083,1.381 3.083,3.081 0,1.7 -1.38,3.084 -3.083,3.084 -1.413,0 -2.595,-0.963 -2.957,-2.264 H 1.64 v 6.508 H 46.724 V -17.241 H -11.062 V 0 H -149.503 V -1.639 H -12.704 V -18.88 H 48.364 V 0 Z"
                           style="fill:#ffffff;fill-opacity:1;fill-rule:nonzero;stroke:none"
                           id="path3405" /></g></g></g></g></g></g><g
               id="g3433"><g
                 id="g3419" /><g
                 id="g3431"><g
                   clip-path="url(#clipPath3365)"
                   id="g3429"><g
                     id="g3427"><g
                       clip-path="url(#clipPath3369)"
                       id="g3425"><g
                         transform="translate(881.5801,746.0928)"
                         id="g3423"><path
                           d="m 0,0 c -1.415,0 -2.599,-0.963 -2.959,-2.264 h -45.737 l -19.617,-19.614 h -56.548 v 17.241 h -159.283 c -0.341,1.323 -1.532,2.304 -2.96,2.304 -1.696,0 -3.07,-1.374 -3.07,-3.069 0,-1.695 1.374,-3.069 3.07,-3.069 1.387,0 2.546,0.928 2.925,2.192 H -126.5 v -17.24 h 58.867 l 19.618,19.618 h 45.056 c 0.363,-1.303 1.544,-2.264 2.959,-2.264 1.702,0 3.083,1.381 3.083,3.081 C 3.083,-1.382 1.702,0 0,0"
                           style="fill:#ffffff;fill-opacity:1;fill-rule:nonzero;stroke:none"
                           id="path3421" /></g></g></g></g></g></g><g
               transform="translate(537.8926,721.1709)"
               id="g3437"><path
                 d="m 0,0 c 0,-1.704 -1.381,-3.085 -3.085,-3.085 -1.704,0 -3.085,1.381 -3.085,3.085 0,1.704 1.381,3.085 3.085,3.085 C -1.381,3.085 0,1.704 0,0"
                 style="fill:#ffffff;fill-opacity:1;fill-rule:nonzero;stroke:none"
                 id="path3435" /></g><g
               transform="translate(555.917,726.874)"
               id="g3441"><path
                 d="M 0,0 C 0,1.704 1.381,3.085 3.085,3.085 4.789,3.085 6.17,1.704 6.17,0 6.17,-1.704 4.789,-3.085 3.085,-3.085 1.381,-3.085 0,-1.704 0,0"
                 style="fill:#ffffff;fill-opacity:1;fill-rule:nonzero;stroke:none"
                 id="path3439" /></g><path
               d="m 560.306,725.782 h 40.266 v 1.531 h -40.266 z"
               style="fill:#ffffff;fill-opacity:1;fill-rule:nonzero;stroke:none"
               id="path3443" /></g></g></g></g><g
       id="g3711"
       transform="matrix(0.35277776,0,0,-0.35277778,-1.4156324e-5,279.40001)"
       clip-path="url(#clipPath1740)"><g
         clip-path="url(#clipPath3675)"
         opacity="0.300003"
         id="g3709"><g
           id="g3707"><g
             clip-path="url(#clipPath3679)"
             id="g3705"><g
               id="g3703"><g
                 id="g3689" /><g
                 id="g3701"><g
                   clip-path="url(#clipPath3683)"
                   opacity="0.699997"
                   id="g3699"><g
                     id="g3697"><g
                       clip-path="url(#clipPath3687)"
                       id="g3695"><g
                         transform="translate(619.9512,689.6191)"
                         id="g3693"><path
                           d="m 0,0 -19.616,19.62 h -56.108 c -0.36,1.299 -1.539,2.262 -2.956,2.262 -1.701,0 -3.084,-1.382 -3.084,-3.084 0,-1.702 1.383,-3.081 3.084,-3.081 1.417,0 2.596,0.958 2.956,2.262 h 55.427 L -0.68,-1.637 H 15.229 V 0 Z"
                           style="fill:#ffffff;fill-opacity:1;fill-rule:nonzero;stroke:none"
                           id="path3691" /></g></g></g></g></g></g></g></g></g></g></g><g
     id="g3715"
     transform="matrix(0.35277776,0,0,-0.35277778,-1.4156324e-5,279.40001)" /><g
     id="g6542"
     transform="matrix(0.94097602,0,0,1,-1.0403438,0.02860384)"><g
       id="g3725"
       transform="matrix(0.35277776,0,0,-0.35277778,0,287.17476)"
       clip-path="url(#clipPath1923)"><g
         clip-path="url(#clipPath3719)"
         id="g3723"><path
           d="M 72.42,22.681 H 569.701 V 24.32 H 72.42 Z"
           style="fill:#131413;fill-opacity:1;fill-rule:nonzero;stroke:none"
           id="path3721" /></g></g><path
       d="m 203.02359,271.10973 c 0,-0.60008 -0.48683,-1.08691 -1.08691,-1.08691 -0.60043,0 -1.08691,0.48683 -1.08691,1.08691 0,0.60008 0.48648,1.08691 1.08691,1.08691 0.60008,0 1.08691,-0.48683 1.08691,-1.08691"
       style="fill:#131413;fill-opacity:1;fill-rule:nonzero;stroke:none;stroke-width:0.352778"
       id="path3729"
       clip-path="url(#clipPath1851)"
       transform="translate(1.4156324e-5,7.7747562)" /></g><text
     xml:space="preserve"
     style="font-variant:normal;font-weight:normal;font-stretch:normal;font-size:4.23333px;font-family:'Franklin Gothic Demi';-inkscape-font-specification:FranklinGothic-Demi;writing-mode:lr-tb;fill:#231f20;fill-opacity:1;fill-rule:nonzero;stroke:none;stroke-width:0.352778"
     id="text3741"
     x="12.6063"
     y="280"><tspan
       x="12.6063 14.959175 17.235847"
       y="280"
       sodipodi:role="line"
       id="tspan3739"
       style="font-style:normal;font-variant:normal;font-weight:normal;font-stretch:normal;font-size:4.23333px;font-family:Ubuntu;-inkscape-font-specification:'Ubuntu, Normal';font-variant-ligatures:normal;font-variant-caps:normal;font-variant-numeric:normal;font-variant-east-asian:normal;stroke-width:0.352778">110</tspan></text><g
     id="g3743"
     transform="matrix(0.32777778,0,0,-0.35277778,1.1999999,287.17476)"><g
       id="g3745"
       clip-path="url(#clipPath3749)"><g
         id="g3751"><g
           id="g3753" /><g
           id="g3763"><g
             clip-path="url(#clipPath3757)"
             opacity="0.149994"
             id="g3761"><path
               d="M 36,535.68 H 576 V 644.37 H 36 Z"
               style="fill:#f68714;fill-opacity:1;fill-rule:nonzero;stroke:none"
               id="path3759" /></g></g></g></g></g><text
     xml:space="preserve"
     transform="matrix(0.26458333,0,0,0.26458333,126.62736,8.2794462)"
     id="text1431-3"
     style="font-size:14.6667px;line-height:normal;font-family:Ubuntu;-inkscape-font-specification:Ubuntu;text-decoration-color:#000000;white-space:pre;shape-inside:url(#rect1433-5);fill:#1a1a1a;stroke-width:1.33417;stop-color:#000000"><tspan
       x="-353.86719"
       y="263.55354"
       id="tspan1077">    Erkläre, was <tspan
   style="font-style:italic;font-weight:500;-inkscape-font-specification:'Ubuntu Medium Italic';fill:#5f3196"
   id="tspan1075">Bitcoin</tspan> ist!
</tspan><tspan
       x="-353.86719"
       y="281.88691"
       id="tspan1081">    Erkläre, wie <tspan
   style="font-style:italic;font-weight:500;-inkscape-font-specification:'Ubuntu Medium Italic';fill:#5f3196"
   id="tspan1079">Bitcoin</tspan> funktioniert!
</tspan><tspan
       x="-353.86719"
       y="300.22028"
       id="tspan1085">    Nenne mindestens zwei Aspekte, wie <tspan
   style="font-style:italic;font-weight:500;-inkscape-font-specification:'Ubuntu Medium Italic';fill:#5f3196"
   id="tspan1083">Bitcoin</tspan> deiner Meinung nach die </tspan><tspan
       x="-353.86719"
       y="318.55366"
       id="tspan1087">Funktionsweise der heutigen Welt verändert! Begründe deine Antwort!</tspan></text><g
     id="g3777"
     transform="matrix(0.35277776,0,0,-0.35277778,-0.01695041,287.17476)"><g
       id="g3779"
       clip-path="url(#clipPath3783)"><g
         id="g3785"
         transform="translate(97.7813,593.6377)"><path
           d="M 0,0 C 1.757,0 3.181,1.385 3.181,3.094 3.181,4.802 1.757,6.187 0,6.187 -1.757,6.187 -3.181,4.802 -3.181,3.094 -3.181,1.385 -1.757,0 0,0 Z"
           style="fill:none;stroke:#f68714;stroke-width:2;stroke-linecap:butt;stroke-linejoin:miter;stroke-miterlimit:10;stroke-dasharray:none;stroke-opacity:1"
           id="path3787" /></g></g></g><g
     id="g3801"
     transform="matrix(0.35277776,0,0,-0.35277778,-0.01695041,286.72396)"><g
       id="g3803"
       clip-path="url(#clipPath3807)"><g
         id="g3809"
         transform="translate(97.7813,578.6377)"><path
           d="M 0,0 C 1.757,0 3.181,1.385 3.181,3.094 3.181,4.802 1.757,6.187 0,6.187 -1.757,6.187 -3.181,4.802 -3.181,3.094 -3.181,1.385 -1.757,0 0,0 Z"
           style="fill:none;stroke:#f68714;stroke-width:2;stroke-linecap:butt;stroke-linejoin:miter;stroke-miterlimit:10;stroke-dasharray:none;stroke-opacity:1"
           id="path3811" /></g></g></g><g
     id="g3825"
     transform="matrix(0.35277776,0,0,-0.35277778,-0.01695041,286.25061)"><g
       id="g3827"
       clip-path="url(#clipPath3831)"><g
         id="g3833"
         transform="translate(97.7813,563.6377)"><path
           d="M 0,0 C 1.757,0 3.181,1.385 3.181,3.094 3.181,4.802 1.757,6.187 0,6.187 -1.757,6.187 -3.181,4.802 -3.181,3.094 -3.181,1.385 -1.757,0 0,0 Z"
           style="fill:none;stroke:#f68714;stroke-width:2;stroke-linecap:butt;stroke-linejoin:miter;stroke-miterlimit:10;stroke-dasharray:none;stroke-opacity:1"
           id="path3835" /></g></g></g><text
     xml:space="preserve"
     style="font-style:italic;font-variant:normal;font-weight:bold;font-stretch:normal;font-size:4.23333px;font-family:'URVBJF +Ubuntu-BoldItalic';-inkscape-font-specification:Ubuntu-BoldItalic;writing-mode:lr-tb;fill:#231f20;fill-opacity:1;fill-rule:nonzero;stroke:none;stroke-width:0.352778"
     id="text3855"
     x="12.322667"
     y="56.242733"><tspan
       sodipodi:role="line"
       id="tspan3853"
       style="font-style:italic;font-variant:normal;font-weight:bold;font-stretch:normal;font-size:4.23333px;font-family:Ubuntu;-inkscape-font-specification:'Ubuntu, Bold Italic';font-variant-ligatures:normal;font-variant-caps:normal;font-variant-numeric:normal;font-variant-east-asian:normal;stroke-width:0.352778"
       x="12.322667"
       y="56.242733">Warum Bitcoin?</tspan></text><text
     xml:space="preserve"
     style="font-style:italic;font-variant:normal;font-weight:bold;font-stretch:normal;font-size:7.05556px;font-family:'URVBJF +Ubuntu-BoldItalic';-inkscape-font-specification:Ubuntu-BoldItalic;writing-mode:lr-tb;fill:#ffffff;fill-opacity:1;fill-rule:nonzero;stroke:none;stroke-width:0.352778"
     id="text3859"
     x="12.894167"
     y="35"><tspan
       sodipodi:role="line"
       id="tspan3857"
       style="font-style:italic;font-variant:normal;font-weight:bold;font-stretch:normal;font-size:7.05556px;font-family:Ubuntu;-inkscape-font-specification:'Ubuntu, Bold Italic';font-variant-ligatures:normal;font-variant-caps:normal;font-variant-numeric:normal;font-variant-east-asian:normal;stroke-width:0.352778"
       x="12.894167"
       y="35">Abschlussarbeit</tspan></text><g
     id="g1315"
     transform="matrix(0.9291339,0,0,1,1.1999994,0)"><g
       id="g3861"
       transform="matrix(0.35277776,0,0,-0.35277778,12.7,192.55097)"><path
         d="M 0,0 H 540"
         style="fill:none;stroke:#000000;stroke-width:0.25;stroke-linecap:butt;stroke-linejoin:miter;stroke-miterlimit:4;stroke-dasharray:none;stroke-opacity:1"
         id="path3863" /></g><g
       id="g3865"
       transform="matrix(0.35277776,0,0,-0.35277778,12.7,199.99455)"><path
         d="M 0,0 H 540"
         style="fill:none;stroke:#000000;stroke-width:0.25;stroke-linecap:butt;stroke-linejoin:miter;stroke-miterlimit:4;stroke-dasharray:none;stroke-opacity:1"
         id="path3867" /></g><g
       id="g3869"
       transform="matrix(0.35277776,0,0,-0.35277778,12.7,147.88927)"><path
         d="M 0,0 H 540"
         style="fill:none;stroke:#000000;stroke-width:0.25;stroke-linecap:butt;stroke-linejoin:miter;stroke-miterlimit:4;stroke-dasharray:none;stroke-opacity:1"
         id="path3871" /></g><g
       id="g3873"
       transform="matrix(0.35277776,0,0,-0.35277778,12.7,244.65625)"><path
         d="M 0,0 H 540"
         style="fill:none;stroke:#000000;stroke-width:0.25;stroke-linecap:butt;stroke-linejoin:miter;stroke-miterlimit:4;stroke-dasharray:none;stroke-opacity:1"
         id="path3875" /></g><g
       id="g3877"
       transform="matrix(0.35277776,0,0,-0.35277778,12.7,125.55844)"><path
         d="M 0,0 H 540"
         style="fill:none;stroke:#000000;stroke-width:0.25;stroke-linecap:butt;stroke-linejoin:miter;stroke-miterlimit:4;stroke-dasharray:none;stroke-opacity:1"
         id="path3879" /></g><g
       id="g3881"
       transform="matrix(0.35277776,0,0,-0.35277778,12.7,222.32538)"><path
         d="M 0,0 H 540"
         style="fill:none;stroke:#000000;stroke-width:0.25;stroke-linecap:butt;stroke-linejoin:miter;stroke-miterlimit:4;stroke-dasharray:none;stroke-opacity:1"
         id="path3883" /></g><g
       id="g3885"
       transform="matrix(0.35277776,0,0,-0.35277778,12.7,170.22014)"><path
         d="M 0,0 H 540"
         style="fill:none;stroke:#000000;stroke-width:0.25;stroke-linecap:butt;stroke-linejoin:miter;stroke-miterlimit:4;stroke-dasharray:none;stroke-opacity:1"
         id="path3887" /></g><g
       id="g3889"
       transform="matrix(0.35277776,0,0,-0.35277778,12.7,266.98708)"><path
         d="M 0,0 H 540"
         style="fill:none;stroke:#000000;stroke-width:0.25;stroke-linecap:butt;stroke-linejoin:miter;stroke-miterlimit:4;stroke-dasharray:none;stroke-opacity:1"
         id="path3891" /></g><g
       id="g3893"
       transform="matrix(0.35277776,0,0,-0.35277778,12.7,110.67122)"><path
         d="M 0,0 H 540"
         style="fill:none;stroke:#000000;stroke-width:0.25;stroke-linecap:butt;stroke-linejoin:miter;stroke-miterlimit:4;stroke-dasharray:none;stroke-opacity:1"
         id="path3895" /></g><g
       id="g3897"
       transform="matrix(0.35277776,0,0,-0.35277778,12.7,207.4382)"><path
         d="M 0,0 H 540"
         style="fill:none;stroke:#000000;stroke-width:0.25;stroke-linecap:butt;stroke-linejoin:miter;stroke-miterlimit:4;stroke-dasharray:none;stroke-opacity:1"
         id="path3899" /></g><g
       id="g3901"
       transform="matrix(0.35277776,0,0,-0.35277778,12.7,155.33292)"><path
         d="M 0,0 H 540"
         style="fill:none;stroke:#000000;stroke-width:0.25;stroke-linecap:butt;stroke-linejoin:miter;stroke-miterlimit:4;stroke-dasharray:none;stroke-opacity:1"
         id="path3903" /></g><g
       id="g3905"
       transform="matrix(0.35277776,0,0,-0.35277778,12.7,252.0999)"><path
         d="M 0,0 H 540"
         style="fill:none;stroke:#000000;stroke-width:0.25;stroke-linecap:butt;stroke-linejoin:miter;stroke-miterlimit:4;stroke-dasharray:none;stroke-opacity:1"
         id="path3907" /></g><g
       id="g3909"
       transform="matrix(0.35277776,0,0,-0.35277778,12.7,133.00208)"><path
         d="M 0,0 H 540"
         style="fill:none;stroke:#000000;stroke-width:0.25;stroke-linecap:butt;stroke-linejoin:miter;stroke-miterlimit:4;stroke-dasharray:none;stroke-opacity:1"
         id="path3911" /></g><g
       id="g3913"
       transform="matrix(0.35277776,0,0,-0.35277778,12.7,229.76903)"><path
         d="M 0,0 H 540"
         style="fill:none;stroke:#000000;stroke-width:0.25;stroke-linecap:butt;stroke-linejoin:miter;stroke-miterlimit:4;stroke-dasharray:none;stroke-opacity:1"
         id="path3915" /></g><g
       id="g3917"
       transform="matrix(0.35277776,0,0,-0.35277778,12.7,177.66379)"><path
         d="M 0,0 H 540"
         style="fill:none;stroke:#000000;stroke-width:0.25;stroke-linecap:butt;stroke-linejoin:miter;stroke-miterlimit:4;stroke-dasharray:none;stroke-opacity:1"
         id="path3919" /></g><g
       id="g3921"
       transform="matrix(0.35277776,0,0,-0.35277778,12.7,118.11486)"><path
         d="M 0,0 H 540"
         style="fill:none;stroke:#000000;stroke-width:0.25;stroke-linecap:butt;stroke-linejoin:miter;stroke-miterlimit:4;stroke-dasharray:none;stroke-opacity:1"
         id="path3923" /></g><g
       id="g3925"
       transform="matrix(0.35277776,0,0,-0.35277778,12.7,214.88184)"><path
         d="M 0,0 H 540"
         style="fill:none;stroke:#000000;stroke-width:0.25;stroke-linecap:butt;stroke-linejoin:miter;stroke-miterlimit:4;stroke-dasharray:none;stroke-opacity:1"
         id="path3927" /></g><g
       id="g3929"
       transform="matrix(0.35277776,0,0,-0.35277778,12.7,162.77649)"><path
         d="M 0,0 H 540"
         style="fill:none;stroke:#000000;stroke-width:0.25;stroke-linecap:butt;stroke-linejoin:miter;stroke-miterlimit:4;stroke-dasharray:none;stroke-opacity:1"
         id="path3931" /></g><g
       id="g3933"
       transform="matrix(0.35277776,0,0,-0.35277778,12.7,259.54344)"><path
         d="M 0,0 H 540"
         style="fill:none;stroke:#000000;stroke-width:0.25;stroke-linecap:butt;stroke-linejoin:miter;stroke-miterlimit:4;stroke-dasharray:none;stroke-opacity:1"
         id="path3935" /></g><g
       id="g3937"
       transform="matrix(0.35277776,0,0,-0.35277778,12.7,140.44573)"><path
         d="M 0,0 H 540"
         style="fill:none;stroke:#000000;stroke-width:0.25;stroke-linecap:butt;stroke-linejoin:miter;stroke-miterlimit:4;stroke-dasharray:none;stroke-opacity:1"
         id="path3939" /></g><g
       id="g3941"
       transform="matrix(0.35277776,0,0,-0.35277778,12.7,237.2126)"><path
         d="M 0,0 H 540"
         style="fill:none;stroke:#000000;stroke-width:0.25;stroke-linecap:butt;stroke-linejoin:miter;stroke-miterlimit:4;stroke-dasharray:none;stroke-opacity:1"
         id="path3943" /></g><g
       id="g3945"
       transform="matrix(0.35277776,0,0,-0.35277778,12.7,185.10733)"><path
         d="M 0,0 H 540"
         style="fill:none;stroke:#000000;stroke-width:0.25;stroke-linecap:butt;stroke-linejoin:miter;stroke-miterlimit:4;stroke-dasharray:none;stroke-opacity:1"
         id="path3947" /></g></g><text
     xml:space="preserve"
     transform="matrix(0.26458333,0,0,0.26458333,116.59631,-2.2316027)"
     id="text1431"
     style="font-size:14.6667px;line-height:normal;font-family:Ubuntu;-inkscape-font-specification:Ubuntu;text-decoration-color:#000000;white-space:pre;shape-inside:url(#rect1433);fill:#1a1a1a;stroke-width:1.33417;stop-color:#000000"><tspan
       x="-353.86719"
       y="263.55354"
       id="tspan1091"><tspan
   style="font-weight:500;-inkscape-font-specification:'Ubuntu Medium';fill:#f68714"
   id="tspan1089">Praktische Übung:</tspan> Schreibe einen ein- bis zweiseitigen argumentativen Aufsatz und achte </tspan><tspan
       x="-353.86719"
       y="281.88691"
       id="tspan1093">darauf, alle folgenden Punkte zu berücksichtigen:</tspan></text><circle
     id="path1486"
     style="fill:#1a1a1a;stroke:#000000;stroke-width:0.264583"
     cx="-140.65546"
     cy="-107.73132"
     r="0.039802488"
     transform="scale(1,-1)" /></svg>
