<?xml version="1.0" encoding="UTF-8" standalone="no"?>
<!-- Created with Inkscape (http://www.inkscape.org/) -->

<svg
   width="210mm"
   height="297mm"
   viewBox="0 0 210 297"
   version="1.1"
   id="svg5"
   xml:space="preserve"
   sodipodi:docname="118_Bitcoin Diplom - Arbeitsbuch.svg"
   inkscape:version="1.2.2 (b0a8486, 2022-12-01)"
   inkscape:export-filename="118_Bitcoin Diplom - Arbeitsbuch.pdf"
   inkscape:export-xdpi="300"
   inkscape:export-ydpi="300"
   xmlns:inkscape="http://www.inkscape.org/namespaces/inkscape"
   xmlns:sodipodi="http://sodipodi.sourceforge.net/DTD/sodipodi-0.dtd"
   xmlns:xlink="http://www.w3.org/1999/xlink"
   xmlns="http://www.w3.org/2000/svg"
   xmlns:svg="http://www.w3.org/2000/svg"><sodipodi:namedview
     id="namedview7"
     pagecolor="#ffffff"
     bordercolor="#000000"
     borderopacity="0.25"
     inkscape:showpageshadow="2"
     inkscape:pageopacity="0.0"
     inkscape:pagecheckerboard="0"
     inkscape:deskcolor="#d1d1d1"
     inkscape:document-units="mm"
     showgrid="false"
     showguides="true"
     inkscape:zoom="0.46947952"
     inkscape:cx="-37.275322"
     inkscape:cy="561.25984"
     inkscape:window-width="1280"
     inkscape:window-height="747"
     inkscape:window-x="0"
     inkscape:window-y="25"
     inkscape:window-maximized="0"
     inkscape:current-layer="svg5"><sodipodi:guide
       position="0,279.2"
       orientation="0,1"
       id="guide1645"
       inkscape:locked="false"
       inkscape:label=""
       inkscape:color="rgb(0,134,229)" /><sodipodi:guide
       position="13,297"
       orientation="-1,0"
       id="guide428"
       inkscape:locked="false"
       inkscape:label=""
       inkscape:color="rgb(0,134,229)" /><sodipodi:guide
       position="190,297"
       orientation="-1,0"
       id="guide480"
       inkscape:locked="false"
       inkscape:label=""
       inkscape:color="rgb(0,134,229)" /><sodipodi:guide
       position="0,262"
       orientation="0,1"
       id="guide536"
       inkscape:locked="false"
       inkscape:label=""
       inkscape:color="rgb(0,134,229)" /><sodipodi:guide
       position="0,17"
       orientation="0,1"
       id="guide652"
       inkscape:locked="false"
       inkscape:label=""
       inkscape:color="rgb(0,134,229)" /><sodipodi:guide
       position="13,297"
       orientation="-1,0"
       id="guide663"
       inkscape:locked="false"
       inkscape:label=""
       inkscape:color="rgb(0,134,229)" /><sodipodi:guide
       position="23,297"
       orientation="-1,0"
       id="guide665"
       inkscape:locked="false"
       inkscape:label=""
       inkscape:color="rgb(0,134,229)" /></sodipodi:namedview><defs
     id="defs2"><linearGradient
       x1="0"
       y1="0"
       x2="1"
       y2="0"
       gradientUnits="userSpaceOnUse"
       gradientTransform="matrix(351.86044,609.44012,609.44012,-351.86044,436.06979,421.06186)"
       spreadMethod="pad"
       id="linearGradient3315"><stop
         style="stop-opacity:1;stop-color:#5e3197"
         offset="0"
         id="stop3309" /><stop
         style="stop-opacity:1;stop-color:#3c2973"
         offset="0.427928"
         id="stop3311" /><stop
         style="stop-opacity:1;stop-color:#171b3a"
         offset="1"
         id="stop3313" /></linearGradient><clipPath
       clipPathUnits="userSpaceOnUse"
       id="clipPath9463"><path
         d="M 531.722,746.093 H 901.126 V 702.989 H 531.722 Z"
         id="path9461" /></clipPath><clipPath
       clipPathUnits="userSpaceOnUse"
       id="clipPath9467"><path
         d="m 531.722,702.989 h 369.404 v 43.104 H 531.722 Z"
         id="path9465" /></clipPath><clipPath
       clipPathUnits="userSpaceOnUse"
       id="clipPath9471"><path
         d="M 600.571,731.948 H 901.126 V 706.17 H 600.571 Z"
         id="path9469" /></clipPath><clipPath
       clipPathUnits="userSpaceOnUse"
       id="clipPath9475"><path
         d="m 600.571,706.17 h 300.555 v 25.778 H 600.571 Z"
         id="path9473" /></clipPath><clipPath
       clipPathUnits="userSpaceOnUse"
       id="clipPath9479"><path
         d="M 612,738.633 H 887.393 V 715.115 H 612 Z"
         id="path9477" /></clipPath><clipPath
       clipPathUnits="userSpaceOnUse"
       id="clipPath9483"><path
         d="m 612,715.115 h 275.393 v 23.518 H 612 Z"
         id="path9481" /></clipPath><clipPath
       clipPathUnits="userSpaceOnUse"
       id="clipPath9487"><path
         d="m 534.808,721.869 h 197.867 v -18.88 H 534.808 Z"
         id="path9485" /></clipPath><clipPath
       clipPathUnits="userSpaceOnUse"
       id="clipPath9491"><path
         d="m 534.808,702.989 h 197.867 v 18.88 H 534.808 Z"
         id="path9489" /></clipPath><clipPath
       clipPathUnits="userSpaceOnUse"
       id="clipPath9495"><path
         d="M 591.406,746.093 H 884.663 V 722.574 H 591.406 Z"
         id="path9493" /></clipPath><clipPath
       clipPathUnits="userSpaceOnUse"
       id="clipPath9499"><path
         d="m 591.406,722.574 h 293.257 v 23.519 H 591.406 Z"
         id="path9497" /></clipPath><clipPath
       clipPathUnits="userSpaceOnUse"
       id="clipPath9597"><path
         d="M -243.45,763.582 H 387.086 V 664.793 H -243.45 Z"
         id="path9595" /></clipPath><clipPath
       clipPathUnits="userSpaceOnUse"
       id="clipPath9601"><path
         d="m -11.736,687.982 h 398.822 v 75.6 H -11.736 Z"
         id="path9599" /></clipPath><clipPath
       clipPathUnits="userSpaceOnUse"
       id="clipPath9605"><path
         d="M -243.45,757.852 H 315.864 V 664.793 H -243.45 Z"
         id="path9603" /></clipPath><clipPath
       clipPathUnits="userSpaceOnUse"
       id="clipPath9609"><path
         d="m -243.45,664.793 h 559.314 v 93.059 H -243.45 Z"
         id="path9607" /></clipPath><clipPath
       clipPathUnits="userSpaceOnUse"
       id="clipPath9613"><path
         d="M -88.7533,685.934 H 93.3112 V 664.793 H -88.7533 Z"
         id="path9611" /></clipPath><clipPath
       clipPathUnits="userSpaceOnUse"
       id="clipPath9617"><path
         d="M -88.753,664.793 H 93.312 v 21.141 H -88.753 Z"
         id="path9615" /></clipPath><clipPath
       clipPathUnits="userSpaceOnUse"
       id="clipPath9621"><path
         d="M -92.1164,692.617 H 103.559 V 671.474 H -92.1164 Z"
         id="path9619" /></clipPath><clipPath
       clipPathUnits="userSpaceOnUse"
       id="clipPath9625"><path
         d="m -92.116,671.474 h 195.675 v 21.143 H -92.116 Z"
         id="path9623" /></clipPath><clipPath
       clipPathUnits="userSpaceOnUse"
       id="clipPath9629"><path
         d="M -94.8465,700.078 H 110.935 V 678.933 H -94.8465 Z"
         id="path9627" /></clipPath><clipPath
       clipPathUnits="userSpaceOnUse"
       id="clipPath9633"><path
         d="m -94.846,678.933 h 205.781 v 21.145 H -94.846 Z"
         id="path9631" /></clipPath><clipPath
       clipPathUnits="userSpaceOnUse"
       id="clipPath9637"><path
         d="M -149.51,757.852 H 234.761 V 734.334 H -149.51 Z"
         id="path9635" /></clipPath><clipPath
       clipPathUnits="userSpaceOnUse"
       id="clipPath9641"><path
         d="m -149.51,734.334 h 384.271 v 23.518 H -149.51 Z"
         id="path9639" /></clipPath><clipPath
       clipPathUnits="userSpaceOnUse"
       id="clipPath9645"><path
         d="m -237.356,735.23 h 553.22 v -40.662 h -553.22 z"
         id="path9643" /></clipPath><clipPath
       clipPathUnits="userSpaceOnUse"
       id="clipPath9649"><path
         d="m -237.356,694.568 h 553.22 v 40.662 h -553.22 z"
         id="path9647" /></clipPath><clipPath
       clipPathUnits="userSpaceOnUse"
       id="clipPath9653"><path
         d="M -240.716,741.917 H 70.0318 v -23.52 H -240.716 Z"
         id="path9651" /></clipPath><clipPath
       clipPathUnits="userSpaceOnUse"
       id="clipPath9657"><path
         d="M -240.716,718.397 H 70.032 v 23.52 h -310.748 z"
         id="path9655" /></clipPath><clipPath
       clipPathUnits="userSpaceOnUse"
       id="clipPath9661"><path
         d="M -243.45,749.376 H 54.1837 V 725.858 H -243.45 Z"
         id="path9659" /></clipPath><clipPath
       clipPathUnits="userSpaceOnUse"
       id="clipPath9665"><path
         d="M -243.45,725.858 H 54.184 v 23.518 H -243.45 Z"
         id="path9663" /></clipPath><clipPath
       clipPathUnits="userSpaceOnUse"
       id="clipPath9805"><path
         d="m 499.874,763.582 h 135.305 v -75.6 H 499.874 Z"
         id="path9803" /></clipPath><clipPath
       clipPathUnits="userSpaceOnUse"
       id="clipPath9809"><path
         d="M 499.874,687.982 H 612 v 75.6 H 499.874 Z"
         id="path9807" /></clipPath><clipPath
       clipPathUnits="userSpaceOnUse"
       id="clipPath9813"><path
         d="m 538.188,711.501 h 96.991 v -23.519 h -96.991 z"
         id="path9811" /></clipPath><clipPath
       clipPathUnits="userSpaceOnUse"
       id="clipPath9817"><path
         d="m 538.188,687.982 h 96.991 v 23.519 h -96.991 z"
         id="path9815" /></clipPath><clipPath
       clipPathUnits="userSpaceOnUse"
       id="clipPath9849"><path
         d="M 72.4204,24.3195 H 569.703 v -1.639 H 72.4204 Z"
         id="path9847" /></clipPath><linearGradient
       inkscape:collect="always"
       xlink:href="#linearGradient3315"
       id="linearGradient16037"
       gradientUnits="userSpaceOnUse"
       gradientTransform="matrix(351.86044,609.44012,609.44012,-351.86044,436.06979,421.06186)"
       x1="0"
       y1="0"
       x2="1"
       y2="0"
       spreadMethod="pad" /><clipPath
       clipPathUnits="userSpaceOnUse"
       id="clipPath1464"><g
         id="g1472"
         transform="matrix(2.8346458,0,0,-2.8346457,-575.49994,768.50002)"><g
           id="g1470"><g
             id="g1468"><path
               d="M -2.1827309e-5,8.24e-6 H 215.89997 V 279.40001 H -2.1827309e-5 Z"
               id="path1466"
               style="stroke-width:0.352778" /></g></g></g></clipPath><clipPath
       clipPathUnits="userSpaceOnUse"
       id="clipPath1474"><g
         id="g1482"
         transform="matrix(2.8346458,0,0,-2.8346457,6.187269e-5,792.00002)"><g
           id="g1480"><g
             id="g1478"><path
               d="M -2.1827309e-5,8.24e-6 H 215.89997 V 279.40001 H -2.1827309e-5 Z"
               id="path1476"
               style="stroke-width:0.352778" /></g></g></g></clipPath><clipPath
       clipPathUnits="userSpaceOnUse"
       id="clipPath1484"><g
         id="g1492"
         transform="matrix(2.8346458,0,0,-2.8346457,6.187269e-5,792.00002)"><g
           id="g1490"><g
             id="g1488"><path
               d="M -2.1827309e-5,8.24e-6 H 215.89997 V 279.40001 H -2.1827309e-5 Z"
               id="path1486"
               style="stroke-width:0.352778" /></g></g></g></clipPath><clipPath
       clipPathUnits="userSpaceOnUse"
       id="clipPath1494"><g
         id="g1502"
         transform="matrix(2.8346458,0,0,-2.8346457,6.187269e-5,792.00002)"><g
           id="g1500"><g
             id="g1498"><path
               d="M -2.1827309e-5,8.24e-6 H 215.89997 V 279.40001 H -2.1827309e-5 Z"
               id="path1496"
               style="stroke-width:0.352778" /></g></g></g></clipPath><clipPath
       clipPathUnits="userSpaceOnUse"
       id="clipPath1515"><g
         id="g1523"
         transform="matrix(2.8346458,0,0,-2.8346457,6.187269e-5,792.00002)"><g
           id="g1521"><g
             id="g1519"><path
               d="M -2.1827309e-5,8.24e-6 H 215.89997 V 279.40001 H -2.1827309e-5 Z"
               id="path1517"
               style="stroke-width:0.352778" /></g></g></g></clipPath><clipPath
       clipPathUnits="userSpaceOnUse"
       id="clipPath1576"><g
         id="g1584"
         transform="matrix(2.8346458,0,0,-2.8346457,6.187269e-5,792.00002)"><g
           id="g1582"><g
             id="g1580"><path
               d="M -2.1827309e-5,8.24e-6 H 215.89997 V 279.40001 H -2.1827309e-5 Z"
               id="path1578"
               style="stroke-width:0.352778" /></g></g></g></clipPath></defs><g
     id="g9435"
     transform="matrix(0.3432666,0,0,-0.35277778,0,287.17476)"
     clip-path="url(#clipPath1515)"><g
       id="g9437"><path
         d="m 0,763.582 v 0 -75.6 0 h 612 v 0 75.6 0 z"
         style="fill:url(#linearGradient16037);stroke:none"
         id="path9447" /></g></g><g
     id="g9591"
     transform="matrix(0.35277776,0,0,-0.35277778,0,287.17476)"
     clip-path="url(#clipPath1494)"><g
       id="g9593" /><g
       id="g9797"><g
         clip-path="url(#clipPath9597)"
         opacity="0.699997"
         id="g9795"><g
           id="g9793"><g
             clip-path="url(#clipPath9601)"
             id="g9791"><g
               id="g9789"><g
                 id="g9667" /><g
                 id="g9787"><g
                   clip-path="url(#clipPath9605)"
                   opacity="0.300003"
                   id="g9785"><g
                     id="g9783"><g
                       clip-path="url(#clipPath9609)"
                       id="g9781"><g
                         id="g9683"><g
                           id="g9669" /><g
                           id="g9681"><g
                             clip-path="url(#clipPath9613)"
                             id="g9679"><g
                               id="g9677"><g
                                 clip-path="url(#clipPath9617)"
                                 id="g9675"><g
                                   transform="translate(87.2715,667.0532)"
                                   id="g9673"><path
                                   d="m 0,0 c 0.361,-1.301 1.542,-2.261 2.959,-2.261 1.702,0 3.081,1.378 3.081,3.081 0,1.701 -1.379,3.083 -3.081,3.083 C 1.542,3.903 0.361,2.942 0,1.641 H -34.218 V 18.88 H -176.025 V 17.243 H -35.856 V 0 Z"
                                   style="fill:#ffffff;fill-opacity:1;fill-rule:nonzero;stroke:none"
                                   id="path9671" /></g></g></g></g></g></g><g
                         id="g9699"><g
                           id="g9685" /><g
                           id="g9697"><g
                             clip-path="url(#clipPath9621)"
                             id="g9695"><g
                               id="g9693"><g
                                 clip-path="url(#clipPath9625)"
                                 id="g9691"><g
                                   transform="translate(97.5195,673.7368)"
                                   id="g9689"><path
                                   d="m 0,0 c 0.36,-1.301 1.539,-2.263 2.958,-2.263 1.701,0 3.082,1.382 3.082,3.082 C 6.04,2.52 4.659,3.901 2.958,3.901 1.539,3.901 0.361,2.94 0,1.641 H -37.841 V 18.88 H -189.636 V 17.241 H -39.479 V 0 Z"
                                   style="fill:#ffffff;fill-opacity:1;fill-rule:nonzero;stroke:none"
                                   id="path9687" /></g></g></g></g></g></g><g
                         id="g9715"><g
                           id="g9701" /><g
                           id="g9713"><g
                             clip-path="url(#clipPath9629)"
                             id="g9711"><g
                               id="g9709"><g
                                 clip-path="url(#clipPath9633)"
                                 id="g9707"><g
                                   transform="translate(104.8945,681.1968)"
                                   id="g9705"><path
                                   d="m 0,0 c 0.363,-1.301 1.544,-2.264 2.959,-2.264 1.702,0 3.081,1.382 3.081,3.084 0,1.702 -1.379,3.079 -3.081,3.079 C 1.542,3.899 0.36,2.938 0,1.637 h -37.501 v 17.245 h -162.24 V 17.239 H -39.14 V 0 Z"
                                   style="fill:#ffffff;fill-opacity:1;fill-rule:nonzero;stroke:none"
                                   id="path9703" /></g></g></g></g></g></g><g
                         id="g9731"><g
                           id="g9717" /><g
                           id="g9729"><g
                             clip-path="url(#clipPath9637)"
                             id="g9727"><g
                               id="g9725"><g
                                 clip-path="url(#clipPath9641)"
                                 id="g9723"><g
                                   transform="translate(228.7231,755.5898)"
                                   id="g9721"><path
                                   d="m 0,0 h -45.736 l -19.618,-19.617 h -56.55 v 17.242 h -256.329 v -1.641 h 254.688 v -17.239 h 58.871 L -45.058,-1.64 H 0 c 0.36,-1.302 1.541,-2.263 2.957,-2.263 1.703,0 3.081,1.381 3.081,3.082 0,1.705 -1.378,3.083 -3.081,3.083 C 1.541,2.262 0.36,1.302 0,0"
                                   style="fill:#ffffff;fill-opacity:1;fill-rule:nonzero;stroke:none"
                                   id="path9719" /></g></g></g></g></g></g><g
                         id="g9747"><g
                           id="g9733" /><g
                           id="g9745"><g
                             clip-path="url(#clipPath9645)"
                             id="g9743"><g
                               id="g9741"><g
                                 clip-path="url(#clipPath9649)"
                                 id="g9739"><g
                                   transform="translate(82.0239,732.9722)"
                                   id="g9737"><path
                                   d="m 0,0 h -80.968 l -19.618,-19.618 h -76.984 v 17.24 h -141.81 v -1.638 h 140.171 v -17.241 h 79.301 l 0.094,0.094 H 73.45 v -17.241 h 79.306 l 19.618,19.616 H 227.8 c 0.361,-1.304 1.539,-2.262 2.956,-2.262 1.702,0 3.084,1.379 3.084,3.081 0,1.701 -1.382,3.084 -3.084,3.084 -1.417,0 -2.595,-0.963 -2.956,-2.262 h -56.107 l -19.616,-19.62 H 75.093 v 17.24 H -98.179 l 5.045,5.044 H 80.077 v -17.24 h 69.316 l 19.617,19.62 h 45.059 c 0.36,-1.305 1.54,-2.263 2.956,-2.263 1.702,0 3.084,1.378 3.084,3.08 0,1.7 -1.382,3.081 -3.084,3.081 -1.416,0 -2.596,-0.96 -2.956,-2.262 H 168.333 L 148.712,-30.082 H 81.718 v 17.24 H -91.494 l 5.823,5.819 h 173.46 v -17.24 h 58.871 l 19.619,19.617 h 45.056 c 0.364,-1.302 1.542,-2.263 2.957,-2.263 1.703,0 3.081,1.383 3.081,3.083 0,1.701 -1.378,3.081 -3.081,3.081 -1.416,0 -2.596,-0.96 -2.957,-2.262 H 165.598 L 145.982,-22.625 H 89.432 V -5.384 H -84.032 l 3.741,3.743 H 0 c 0.363,-1.302 1.543,-2.262 2.96,-2.262 1.7,0 3.08,1.381 3.08,3.083 0,1.701 -1.38,3.077 -3.08,3.077 C 1.545,2.257 0.363,1.298 0,0"
                                   style="fill:#ffffff;fill-opacity:1;fill-rule:nonzero;stroke:none"
                                   id="path9735" /></g></g></g></g></g></g><g
                         id="g9763"><g
                           id="g9749" /><g
                           id="g9761"><g
                             clip-path="url(#clipPath9653)"
                             id="g9759"><g
                               id="g9757"><g
                                 clip-path="url(#clipPath9657)"
                                 id="g9755"><g
                                   transform="translate(66.9478,735.751)"
                                   id="g9753"><path
                                   d="m 0,0 c 1.703,0 3.084,1.382 3.084,3.084 0,1.7 -1.381,3.083 -3.084,3.083 -1.416,0 -2.599,-0.963 -2.959,-2.266 h -66.296 l -19.618,-19.616 h -66.998 V 1.526 h -151.793 v -1.639 h 150.155 v -17.241 h 69.316 L -68.577,2.262 H -2.959 C -2.596,0.963 -1.414,0 0,0"
                                   style="fill:#ffffff;fill-opacity:1;fill-rule:nonzero;stroke:none"
                                   id="path9751" /></g></g></g></g></g></g><g
                         id="g9779"><g
                           id="g9765" /><g
                           id="g9777"><g
                             clip-path="url(#clipPath9661)"
                             id="g9775"><g
                               id="g9773"><g
                                 clip-path="url(#clipPath9665)"
                                 id="g9771"><g
                                   transform="translate(-23.979,725.8579)"
                                   id="g9769"><path
                                   d="m 0,0 19.618,19.617 h 52.505 c 0.36,-1.302 1.541,-2.263 2.956,-2.263 1.703,0 3.084,1.381 3.084,3.08 0,1.701 -1.381,3.084 -3.084,3.084 -1.415,0 -2.595,-0.963 -2.956,-2.263 H 18.938 L -0.681,1.638 H -57.227 V 18.881 H -219.471 V 17.24 H -58.868 V 0 Z"
                                   style="fill:#ffffff;fill-opacity:1;fill-rule:nonzero;stroke:none"
                                   id="path9767" /></g></g></g></g></g></g></g></g></g></g></g></g></g></g></g></g><g
     id="g1643"
     transform="translate(-5.8208118,7.7747535)"><g
       id="g9457"
       transform="matrix(0.35277776,0,0,-0.35277778,-2.1827309e-5,279.40001)"
       clip-path="url(#clipPath1576)"><g
         id="g9459" /><g
         id="g9581"><g
           clip-path="url(#clipPath9463)"
           opacity="0.300003"
           id="g9579"><g
             id="g9577"><g
               clip-path="url(#clipPath9467)"
               id="g9575"><g
                 id="g9515"><g
                   id="g9501" /><g
                   id="g9513"><g
                     clip-path="url(#clipPath9471)"
                     id="g9511"><g
                       id="g9509"><g
                         clip-path="url(#clipPath9475)"
                         id="g9507"><g
                           transform="translate(895.0889,729.6895)"
                           id="g9505"><path
                             d="m 0,0 h -56.105 l -19.619,-19.618 h -21.618 -55.368 v 17.241 h -141.808 v -1.639 h 140.166 v -17.241 h 57.01 22.293 30.546 c 0.359,-1.3 1.54,-2.263 2.957,-2.263 1.7,0 3.081,1.383 3.081,3.082 0,1.701 -1.381,3.082 -3.081,3.082 -1.417,0 -2.596,-0.961 -2.957,-2.262 h -28.906 l 5.044,5.044 h 49.685 c 0.361,-1.304 1.54,-2.262 2.957,-2.262 1.702,0 3.081,1.379 3.081,3.079 0,1.705 -1.379,3.084 -3.081,3.084 -1.415,0 -2.596,-0.962 -2.957,-2.262 h -48.047 l 11.298,11.294 H 0 c 0.357,-1.302 1.537,-2.262 2.953,-2.262 1.705,0 3.084,1.378 3.084,3.081 0,1.703 -1.379,3.081 -3.084,3.081 C 1.541,2.259 0.36,1.301 0,0"
                             style="fill:#ffffff;fill-opacity:1;fill-rule:nonzero;stroke:none"
                             id="path9503" /></g></g></g></g></g></g><g
                 id="g9531"><g
                   id="g9517" /><g
                   id="g9529"><g
                     clip-path="url(#clipPath9479)"
                     id="g9527"><g
                       id="g9525"><g
                         clip-path="url(#clipPath9483)"
                         id="g9523"><g
                           transform="translate(881.3545,736.3706)"
                           id="g9521"><path
                             d="m 0,0 h -45.735 l -19.619,-19.616 h -66.997 v 17.24 h -137.003 v -1.639 h 135.366 v -17.24 h 69.314 l 19.616,19.616 H 0 c 0.362,-1.301 1.542,-2.263 2.957,-2.263 1.704,0 3.082,1.381 3.082,3.08 0,1.702 -1.378,3.084 -3.082,3.084 C 1.542,2.262 0.362,1.3 0,0"
                             style="fill:#ffffff;fill-opacity:1;fill-rule:nonzero;stroke:none"
                             id="path9519" /></g></g></g></g></g></g><g
                 id="g9547"><g
                   id="g9533" /><g
                   id="g9545"><g
                     clip-path="url(#clipPath9487)"
                     id="g9543"><g
                       id="g9541"><g
                         clip-path="url(#clipPath9491)"
                         id="g9539"><g
                           transform="translate(684.3105,721.8691)"
                           id="g9537"><path
                             d="m 0,0 v -9.786 h 27.569 c 0.361,-1.299 1.541,-2.262 2.957,-2.262 1.703,0 3.083,1.381 3.083,3.081 0,1.7 -1.38,3.084 -3.083,3.084 -1.413,0 -2.595,-0.963 -2.957,-2.264 H 1.64 v 6.508 H 46.724 V -17.241 H -11.062 V 0 H -149.503 V -1.639 H -12.704 V -18.88 H 48.364 V 0 Z"
                             style="fill:#ffffff;fill-opacity:1;fill-rule:nonzero;stroke:none"
                             id="path9535" /></g></g></g></g></g></g><g
                 id="g9563"><g
                   id="g9549" /><g
                   id="g9561"><g
                     clip-path="url(#clipPath9495)"
                     id="g9559"><g
                       id="g9557"><g
                         clip-path="url(#clipPath9499)"
                         id="g9555"><g
                           transform="translate(881.5801,746.0928)"
                           id="g9553"><path
                             d="m 0,0 c -1.415,0 -2.599,-0.963 -2.959,-2.264 h -45.737 l -19.617,-19.614 h -56.548 v 17.241 h -159.283 c -0.341,1.323 -1.532,2.304 -2.96,2.304 -1.696,0 -3.07,-1.374 -3.07,-3.069 0,-1.695 1.374,-3.069 3.07,-3.069 1.387,0 2.546,0.928 2.925,2.192 H -126.5 v -17.24 h 58.867 l 19.618,19.618 h 45.056 c 0.363,-1.303 1.544,-2.264 2.959,-2.264 1.702,0 3.083,1.381 3.083,3.081 C 3.083,-1.382 1.702,0 0,0"
                             style="fill:#ffffff;fill-opacity:1;fill-rule:nonzero;stroke:none"
                             id="path9551" /></g></g></g></g></g></g><g
                 transform="translate(537.8926,721.1709)"
                 id="g9567"><path
                   d="m 0,0 c 0,-1.704 -1.381,-3.085 -3.085,-3.085 -1.704,0 -3.085,1.381 -3.085,3.085 0,1.704 1.381,3.085 3.085,3.085 C -1.381,3.085 0,1.704 0,0"
                   style="fill:#ffffff;fill-opacity:1;fill-rule:nonzero;stroke:none"
                   id="path9565" /></g><g
                 transform="translate(555.917,726.874)"
                 id="g9571"><path
                   d="M 0,0 C 0,1.704 1.381,3.085 3.085,3.085 4.789,3.085 6.17,1.704 6.17,0 6.17,-1.704 4.789,-3.085 3.085,-3.085 1.381,-3.085 0,-1.704 0,0"
                   style="fill:#ffffff;fill-opacity:1;fill-rule:nonzero;stroke:none"
                   id="path9569" /></g><path
                 d="m 560.306,725.782 h 40.266 v 1.531 h -40.266 z"
                 style="fill:#ffffff;fill-opacity:1;fill-rule:nonzero;stroke:none"
                 id="path9573" /></g></g></g></g></g><g
       id="g9799"
       transform="matrix(0.35277776,0,0,-0.35277778,-2.1827309e-5,279.40001)"
       clip-path="url(#clipPath1484)"><g
         id="g9801" /><g
         id="g9841"><g
           clip-path="url(#clipPath9805)"
           opacity="0.300003"
           id="g9839"><g
             id="g9837"><g
               clip-path="url(#clipPath9809)"
               id="g9835"><g
                 id="g9833"><g
                   id="g9819" /><g
                   id="g9831"><g
                     clip-path="url(#clipPath9813)"
                     opacity="0.699997"
                     id="g9829"><g
                       id="g9827"><g
                         clip-path="url(#clipPath9817)"
                         id="g9825"><g
                           transform="translate(619.9512,689.6191)"
                           id="g9823"><path
                             d="m 0,0 -19.616,19.62 h -56.108 c -0.36,1.299 -1.539,2.262 -2.956,2.262 -1.701,0 -3.084,-1.382 -3.084,-3.084 0,-1.702 1.383,-3.081 3.084,-3.081 1.417,0 2.596,0.958 2.956,2.262 h 55.427 L -0.68,-1.637 H 15.229 V 0 Z"
                             style="fill:#ffffff;fill-opacity:1;fill-rule:nonzero;stroke:none"
                             id="path9821" /></g></g></g></g></g></g></g></g></g></g></g></g><g
     id="g661"
     transform="matrix(0.94097605,0,0,1,-1.0403445,0.0286117)"><g
       id="g9843"
       transform="matrix(0.35277776,0,0,-0.35277778,0,287.17476)"
       clip-path="url(#clipPath1474)"><g
         id="g9845" /><g
         id="g9855"><g
           clip-path="url(#clipPath9849)"
           id="g9853"><path
             d="M 72.42,22.681 H 569.701 V 24.32 H 72.42 Z"
             style="fill:#131413;fill-opacity:1;fill-rule:nonzero;stroke:none"
             id="path9851" /></g></g></g><g
       id="g9857"
       transform="matrix(0.35277776,0,0,-0.35277778,203.0236,278.88448)"
       clip-path="url(#clipPath1464)"><path
         d="m 0,0 c 0,1.701 -1.38,3.081 -3.081,3.081 -1.702,0 -3.081,-1.38 -3.081,-3.081 0,-1.701 1.379,-3.081 3.081,-3.081 C -1.38,-3.081 0,-1.701 0,0"
         style="fill:#131413;fill-opacity:1;fill-rule:nonzero;stroke:none"
         id="path9859" /></g></g><text
     xml:space="preserve"
     style="font-variant:normal;font-weight:normal;font-stretch:normal;font-size:4.23333px;font-family:'Franklin Gothic Demi';-inkscape-font-specification:FranklinGothic-Demi;writing-mode:lr-tb;fill:#231f20;fill-opacity:1;fill-rule:nonzero;stroke:none;stroke-width:0.352778"
     id="text9871"
     x="12.6063"
     y="280"><tspan
       x="12.6063 14.908791 17.235876"
       y="280"
       sodipodi:role="line"
       id="tspan9869"
       style="font-style:normal;font-variant:normal;font-weight:normal;font-stretch:normal;font-size:4.23333px;font-family:Ubuntu;-inkscape-font-specification:'Ubuntu, Normal';font-variant-ligatures:normal;font-variant-caps:normal;font-variant-numeric:normal;font-variant-east-asian:normal;stroke-width:0.352778">112</tspan></text><g
     id="g650"
     transform="matrix(0.99550061,0,0,1,0.35714221,0)"><g
       id="g9873"
       transform="matrix(0.35277776,0,0,-0.35277778,12.7,192.55097)"><path
         d="M 0,0 H 504"
         style="fill:none;stroke:#000000;stroke-width:0.25;stroke-linecap:butt;stroke-linejoin:miter;stroke-miterlimit:4;stroke-dasharray:none;stroke-opacity:1"
         id="path9875" /></g><g
       id="g9877"
       transform="matrix(0.35277776,0,0,-0.35277778,12.7,103.13948)"><path
         d="M 0,0 H 504"
         style="fill:none;stroke:#000000;stroke-width:0.25;stroke-linecap:butt;stroke-linejoin:miter;stroke-miterlimit:4;stroke-dasharray:none;stroke-opacity:1"
         id="path9879" /></g><g
       id="g9881"
       transform="matrix(0.35277776,0,0,-0.35277778,12.7,199.99455)"><path
         d="M 0,0 H 504"
         style="fill:none;stroke:#000000;stroke-width:0.25;stroke-linecap:butt;stroke-linejoin:miter;stroke-miterlimit:4;stroke-dasharray:none;stroke-opacity:1"
         id="path9883" /></g><g
       id="g9885"
       transform="matrix(0.35277776,0,0,-0.35277778,12.7,147.88927)"><path
         d="M 0,0 H 504"
         style="fill:none;stroke:#000000;stroke-width:0.25;stroke-linecap:butt;stroke-linejoin:miter;stroke-miterlimit:4;stroke-dasharray:none;stroke-opacity:1"
         id="path9887" /></g><g
       id="g9889"
       transform="matrix(0.35277776,0,0,-0.35277778,12.7,58.477783)"><path
         d="M 0,0 H 504"
         style="fill:none;stroke:#000000;stroke-width:0.25;stroke-linecap:butt;stroke-linejoin:miter;stroke-miterlimit:4;stroke-dasharray:none;stroke-opacity:1"
         id="path9891" /></g><g
       id="g9893"
       transform="matrix(0.35277776,0,0,-0.35277778,12.7,244.65625)"><path
         d="M 0,0 H 504"
         style="fill:none;stroke:#000000;stroke-width:0.25;stroke-linecap:butt;stroke-linejoin:miter;stroke-miterlimit:4;stroke-dasharray:none;stroke-opacity:1"
         id="path9895" /></g><g
       id="g9897"
       transform="matrix(0.35277776,0,0,-0.35277778,12.7,125.55844)"><path
         d="M 0,0 H 504"
         style="fill:none;stroke:#000000;stroke-width:0.25;stroke-linecap:butt;stroke-linejoin:miter;stroke-miterlimit:4;stroke-dasharray:none;stroke-opacity:1"
         id="path9899" /></g><g
       id="g9901"
       transform="matrix(0.35277776,0,0,-0.35277778,12.7,222.32538)"><path
         d="M 0,0 H 504"
         style="fill:none;stroke:#000000;stroke-width:0.25;stroke-linecap:butt;stroke-linejoin:miter;stroke-miterlimit:4;stroke-dasharray:none;stroke-opacity:1"
         id="path9903" /></g><g
       id="g9905"
       transform="matrix(0.35277776,0,0,-0.35277778,12.7,170.22014)"><path
         d="M 0,0 H 504"
         style="fill:none;stroke:#000000;stroke-width:0.25;stroke-linecap:butt;stroke-linejoin:miter;stroke-miterlimit:4;stroke-dasharray:none;stroke-opacity:1"
         id="path9907" /></g><g
       id="g9909"
       transform="matrix(0.35277776,0,0,-0.35277778,12.7,80.808616)"><path
         d="M 0,0 H 504"
         style="fill:none;stroke:#000000;stroke-width:0.25;stroke-linecap:butt;stroke-linejoin:miter;stroke-miterlimit:4;stroke-dasharray:none;stroke-opacity:1"
         id="path9911" /></g><g
       id="g9913"
       transform="matrix(0.35277776,0,0,-0.35277778,12.7,266.98708)"><path
         d="M 0,0 H 504"
         style="fill:none;stroke:#000000;stroke-width:0.25;stroke-linecap:butt;stroke-linejoin:miter;stroke-miterlimit:4;stroke-dasharray:none;stroke-opacity:1"
         id="path9915" /></g><g
       id="g9917"
       transform="matrix(0.35277776,0,0,-0.35277778,12.7,110.67122)"><path
         d="M 0,0 H 504"
         style="fill:none;stroke:#000000;stroke-width:0.25;stroke-linecap:butt;stroke-linejoin:miter;stroke-miterlimit:4;stroke-dasharray:none;stroke-opacity:1"
         id="path9919" /></g><g
       id="g9921"
       transform="matrix(0.35277776,0,0,-0.35277778,12.7,207.4382)"><path
         d="M 0,0 H 504"
         style="fill:none;stroke:#000000;stroke-width:0.25;stroke-linecap:butt;stroke-linejoin:miter;stroke-miterlimit:4;stroke-dasharray:none;stroke-opacity:1"
         id="path9923" /></g><g
       id="g9925"
       transform="matrix(0.35277776,0,0,-0.35277778,12.7,155.33292)"><path
         d="M 0,0 H 504"
         style="fill:none;stroke:#000000;stroke-width:0.25;stroke-linecap:butt;stroke-linejoin:miter;stroke-miterlimit:4;stroke-dasharray:none;stroke-opacity:1"
         id="path9927" /></g><g
       id="g9929"
       transform="matrix(0.35277776,0,0,-0.35277778,12.7,65.921429)"><path
         d="M 0,0 H 504"
         style="fill:none;stroke:#000000;stroke-width:0.25;stroke-linecap:butt;stroke-linejoin:miter;stroke-miterlimit:4;stroke-dasharray:none;stroke-opacity:1"
         id="path9931" /></g><g
       id="g9933"
       transform="matrix(0.35277776,0,0,-0.35277778,12.7,252.0999)"><path
         d="M 0,0 H 504"
         style="fill:none;stroke:#000000;stroke-width:0.25;stroke-linecap:butt;stroke-linejoin:miter;stroke-miterlimit:4;stroke-dasharray:none;stroke-opacity:1"
         id="path9935" /></g><g
       id="g9937"
       transform="matrix(0.35277776,0,0,-0.35277778,12.7,133.00208)"><path
         d="M 0,0 H 504"
         style="fill:none;stroke:#000000;stroke-width:0.25;stroke-linecap:butt;stroke-linejoin:miter;stroke-miterlimit:4;stroke-dasharray:none;stroke-opacity:1"
         id="path9939" /></g><g
       id="g9941"
       transform="matrix(0.35277776,0,0,-0.35277778,12.7,229.76903)"><path
         d="M 0,0 H 504"
         style="fill:none;stroke:#000000;stroke-width:0.25;stroke-linecap:butt;stroke-linejoin:miter;stroke-miterlimit:4;stroke-dasharray:none;stroke-opacity:1"
         id="path9943" /></g><g
       id="g9945"
       transform="matrix(0.35277776,0,0,-0.35277778,12.7,177.66379)"><path
         d="M 0,0 H 504"
         style="fill:none;stroke:#000000;stroke-width:0.25;stroke-linecap:butt;stroke-linejoin:miter;stroke-miterlimit:4;stroke-dasharray:none;stroke-opacity:1"
         id="path9947" /></g><g
       id="g9949"
       transform="matrix(0.35277776,0,0,-0.35277778,12.7,88.252192)"><path
         d="M 0,0 H 504"
         style="fill:none;stroke:#000000;stroke-width:0.25;stroke-linecap:butt;stroke-linejoin:miter;stroke-miterlimit:4;stroke-dasharray:none;stroke-opacity:1"
         id="path9951" /></g><g
       id="g9953"
       transform="matrix(0.35277776,0,0,-0.35277778,12.7,118.11486)"><path
         d="M 0,0 H 504"
         style="fill:none;stroke:#000000;stroke-width:0.25;stroke-linecap:butt;stroke-linejoin:miter;stroke-miterlimit:4;stroke-dasharray:none;stroke-opacity:1"
         id="path9955" /></g><g
       id="g9957"
       transform="matrix(0.35277776,0,0,-0.35277778,12.7,214.88184)"><path
         d="M 0,0 H 504"
         style="fill:none;stroke:#000000;stroke-width:0.25;stroke-linecap:butt;stroke-linejoin:miter;stroke-miterlimit:4;stroke-dasharray:none;stroke-opacity:1"
         id="path9959" /></g><g
       id="g9961"
       transform="matrix(0.35277776,0,0,-0.35277778,12.7,162.77649)"><path
         d="M 0,0 H 504"
         style="fill:none;stroke:#000000;stroke-width:0.25;stroke-linecap:butt;stroke-linejoin:miter;stroke-miterlimit:4;stroke-dasharray:none;stroke-opacity:1"
         id="path9963" /></g><g
       id="g9965"
       transform="matrix(0.35277776,0,0,-0.35277778,12.7,73.36497)"><path
         d="M 0,0 H 504"
         style="fill:none;stroke:#000000;stroke-width:0.25;stroke-linecap:butt;stroke-linejoin:miter;stroke-miterlimit:4;stroke-dasharray:none;stroke-opacity:1"
         id="path9967" /></g><g
       id="g9969"
       transform="matrix(0.35277776,0,0,-0.35277778,12.7,259.54344)"><path
         d="M 0,0 H 504"
         style="fill:none;stroke:#000000;stroke-width:0.25;stroke-linecap:butt;stroke-linejoin:miter;stroke-miterlimit:4;stroke-dasharray:none;stroke-opacity:1"
         id="path9971" /></g><g
       id="g9973"
       transform="matrix(0.35277776,0,0,-0.35277778,12.7,140.44573)"><path
         d="M 0,0 H 504"
         style="fill:none;stroke:#000000;stroke-width:0.25;stroke-linecap:butt;stroke-linejoin:miter;stroke-miterlimit:4;stroke-dasharray:none;stroke-opacity:1"
         id="path9975" /></g><g
       id="g9977"
       transform="matrix(0.35277776,0,0,-0.35277778,12.7,237.2126)"><path
         d="M 0,0 H 504"
         style="fill:none;stroke:#000000;stroke-width:0.25;stroke-linecap:butt;stroke-linejoin:miter;stroke-miterlimit:4;stroke-dasharray:none;stroke-opacity:1"
         id="path9979" /></g><g
       id="g9981"
       transform="matrix(0.35277776,0,0,-0.35277778,12.7,185.10733)"><path
         d="M 0,0 H 504"
         style="fill:none;stroke:#000000;stroke-width:0.25;stroke-linecap:butt;stroke-linejoin:miter;stroke-miterlimit:4;stroke-dasharray:none;stroke-opacity:1"
         id="path9983" /></g><g
       id="g9985"
       transform="matrix(0.35277776,0,0,-0.35277778,12.7,95.695838)"><path
         d="M 0,0 H 504"
         style="fill:none;stroke:#000000;stroke-width:0.25;stroke-linecap:butt;stroke-linejoin:miter;stroke-miterlimit:4;stroke-dasharray:none;stroke-opacity:1"
         id="path9987" /></g></g><text
     xml:space="preserve"
     style="font-style:italic;font-variant:normal;font-weight:bold;font-stretch:normal;font-size:7.05556px;font-family:'URVBJF +Ubuntu-BoldItalic';-inkscape-font-specification:Ubuntu-BoldItalic;writing-mode:lr-tb;fill:#ffffff;fill-opacity:1;fill-rule:nonzero;stroke:none;stroke-width:0.352778"
     id="text9991"
     x="12.894167"
     y="35"><tspan
       sodipodi:role="line"
       id="tspan9989"
       style="font-style:italic;font-variant:normal;font-weight:bold;font-stretch:normal;font-size:7.05556px;font-family:Ubuntu;-inkscape-font-specification:'Ubuntu, Bold Italic';font-variant-ligatures:normal;font-variant-caps:normal;font-variant-numeric:normal;font-variant-east-asian:normal;stroke-width:0.352778"
       x="12.894167"
       y="35">Abschlussarbeit</tspan></text></svg>
