<?xml version="1.0" encoding="UTF-8" standalone="no"?>
<!-- Created with Inkscape (http://www.inkscape.org/) -->

<svg
   width="210mm"
   height="297mm"
   viewBox="0 0 210 297"
   version="1.1"
   id="svg5"
   xml:space="preserve"
   sodipodi:docname="119_Bitcoin Diplom - Arbeitsbuch.svg"
   inkscape:version="1.2.2 (b0a8486, 2022-12-01)"
   inkscape:export-filename="119_Bitcoin Diplom - Arbeitsbuch.pdf"
   inkscape:export-xdpi="300"
   inkscape:export-ydpi="300"
   xmlns:inkscape="http://www.inkscape.org/namespaces/inkscape"
   xmlns:sodipodi="http://sodipodi.sourceforge.net/DTD/sodipodi-0.dtd"
   xmlns:xlink="http://www.w3.org/1999/xlink"
   xmlns="http://www.w3.org/2000/svg"
   xmlns:svg="http://www.w3.org/2000/svg"><sodipodi:namedview
     id="namedview7"
     pagecolor="#ffffff"
     bordercolor="#000000"
     borderopacity="0.25"
     inkscape:showpageshadow="2"
     inkscape:pageopacity="0.0"
     inkscape:pagecheckerboard="0"
     inkscape:deskcolor="#d1d1d1"
     inkscape:document-units="mm"
     showgrid="false"
     showguides="true"
     inkscape:zoom="0.46947952"
     inkscape:cx="-37.275322"
     inkscape:cy="561.25984"
     inkscape:window-width="1280"
     inkscape:window-height="747"
     inkscape:window-x="0"
     inkscape:window-y="25"
     inkscape:window-maximized="0"
     inkscape:current-layer="svg5"><sodipodi:guide
       position="0,279.2"
       orientation="0,1"
       id="guide1982"
       inkscape:locked="false"
       inkscape:label=""
       inkscape:color="rgb(0,134,229)" /><sodipodi:guide
       position="20,297"
       orientation="-1,0"
       id="guide505"
       inkscape:locked="false"
       inkscape:label=""
       inkscape:color="rgb(0,134,229)" /><sodipodi:guide
       position="197,297"
       orientation="-1,0"
       id="guide507"
       inkscape:locked="false"
       inkscape:label=""
       inkscape:color="rgb(0,134,229)" /><sodipodi:guide
       position="113,297"
       orientation="-1,0"
       id="guide1048"
       inkscape:locked="false"
       inkscape:label=""
       inkscape:color="rgb(0,134,229)" /><sodipodi:guide
       position="0,262"
       orientation="0,1"
       id="guide1050"
       inkscape:locked="false"
       inkscape:label=""
       inkscape:color="rgb(0,134,229)" /><sodipodi:guide
       position="21.027847,257.82418"
       orientation="0,-1"
       id="guide1106"
       inkscape:locked="false" /><sodipodi:guide
       position="0,17"
       orientation="0,1"
       id="guide1168"
       inkscape:locked="false"
       inkscape:label=""
       inkscape:color="rgb(0,134,229)" /><sodipodi:guide
       position="197,297"
       orientation="-1,0"
       id="guide1277"
       inkscape:locked="false"
       inkscape:label=""
       inkscape:color="rgb(0,134,229)" /><sodipodi:guide
       position="187,297"
       orientation="-1,0"
       id="guide1279"
       inkscape:locked="false"
       inkscape:label=""
       inkscape:color="rgb(0,134,229)" /></sodipodi:namedview><defs
     id="defs2"><linearGradient
       x1="0"
       y1="0"
       x2="1"
       y2="0"
       gradientUnits="userSpaceOnUse"
       gradientTransform="matrix(351.86044,609.44012,609.44012,-351.86044,-175.93022,421.06186)"
       spreadMethod="pad"
       id="linearGradient6513"><stop
         style="stop-opacity:1;stop-color:#5e3197"
         offset="0"
         id="stop6507" /><stop
         style="stop-opacity:1;stop-color:#3c2973"
         offset="0.427928"
         id="stop6509" /><stop
         style="stop-opacity:1;stop-color:#171b3a"
         offset="1"
         id="stop6511" /></linearGradient><clipPath
       clipPathUnits="userSpaceOnUse"
       id="clipPath16407"><path
         d="m -80.278,702.989 h 369.404 v 43.104 H -80.278 Z"
         id="path16405" /></clipPath><clipPath
       clipPathUnits="userSpaceOnUse"
       id="clipPath16411"><path
         d="M -11.4287,731.948 H 289.126 V 706.17 H -11.4287 Z"
         id="path16409" /></clipPath><clipPath
       clipPathUnits="userSpaceOnUse"
       id="clipPath16415"><path
         d="m -11.429,706.17 h 300.555 v 25.778 H -11.429 Z"
         id="path16413" /></clipPath><clipPath
       clipPathUnits="userSpaceOnUse"
       id="clipPath16419"><path
         d="M 0,738.633 H 275.393 V 715.115 H 0 Z"
         id="path16417" /></clipPath><clipPath
       clipPathUnits="userSpaceOnUse"
       id="clipPath16423"><path
         d="m 0,715.115 h 275.393 v 23.518 H 0 Z"
         id="path16421" /></clipPath><clipPath
       clipPathUnits="userSpaceOnUse"
       id="clipPath16427"><path
         d="M -77.1923,721.869 H 120.675 v -18.88 H -77.1923 Z"
         id="path16425" /></clipPath><clipPath
       clipPathUnits="userSpaceOnUse"
       id="clipPath16431"><path
         d="m -77.192,702.989 h 197.867 v 18.88 H -77.192 Z"
         id="path16429" /></clipPath><clipPath
       clipPathUnits="userSpaceOnUse"
       id="clipPath16435"><path
         d="M -20.5936,746.093 H 272.663 V 722.574 H -20.5936 Z"
         id="path16433" /></clipPath><clipPath
       clipPathUnits="userSpaceOnUse"
       id="clipPath16439"><path
         d="m -20.594,722.574 h 293.257 v 23.519 H -20.594 Z"
         id="path16437" /></clipPath><clipPath
       clipPathUnits="userSpaceOnUse"
       id="clipPath16531"><path
         d="M -112.126,687.982 H 0 v 75.6 h -112.126 z"
         id="path16529" /></clipPath><clipPath
       clipPathUnits="userSpaceOnUse"
       id="clipPath16535"><path
         d="M -73.8123,711.501 H 23.1794 V 687.982 H -73.8123 Z"
         id="path16533" /></clipPath><clipPath
       clipPathUnits="userSpaceOnUse"
       id="clipPath16539"><path
         d="M -73.812,687.982 H 23.18 v 23.519 h -96.992 z"
         id="path16537" /></clipPath><clipPath
       clipPathUnits="userSpaceOnUse"
       id="clipPath16783"><path
         d="M 0,0 H 612 V 792 H 0 Z"
         id="path16781" /></clipPath><clipPath
       clipPathUnits="userSpaceOnUse"
       id="clipPath16791"><path
         d="M 316.6,760.64 H 577 v -76.2 H 316.6 Z"
         id="path16789" /></clipPath><linearGradient
       inkscape:collect="always"
       xlink:href="#linearGradient6513"
       id="linearGradient20233"
       gradientUnits="userSpaceOnUse"
       gradientTransform="matrix(124.12854,-214.99693,214.99692,124.12854,-62.06427,130.85874)"
       x1="0"
       y1="0"
       x2="1"
       y2="0"
       spreadMethod="pad" /><clipPath
       clipPathUnits="userSpaceOnUse"
       id="clipPath1080"><g
         id="g1086"><g
           id="g1084"><path
             d="M -1.4391696e-6,8.24e-6 H 215.89999 V 279.40001 H -1.4391696e-6 Z"
             id="path1082"
             style="stroke-width:0.352778" /></g></g></clipPath><clipPath
       clipPathUnits="userSpaceOnUse"
       id="clipPath1205"><g
         id="g1211"><g
           id="g1209"><path
             d="M -1.4391696e-6,8.24e-6 H 215.89999 V 279.40001 H -1.4391696e-6 Z"
             id="path1207"
             style="stroke-width:0.352778" /></g></g></clipPath><clipPath
       clipPathUnits="userSpaceOnUse"
       id="clipPath1220"><g
         id="g1226"><g
           id="g1224"><path
             d="M -1.4391696e-6,8.24e-6 H 215.89999 V 279.40001 H -1.4391696e-6 Z"
             id="path1222"
             style="stroke-width:0.352778" /></g></g></clipPath><clipPath
       clipPathUnits="userSpaceOnUse"
       id="clipPath1235"><g
         id="g1241"><g
           id="g1239"><path
             d="M -1.4391696e-6,8.24e-6 H 215.89999 V 279.40001 H -1.4391696e-6 Z"
             id="path1237"
             style="stroke-width:0.352778" /></g></g></clipPath><clipPath
       clipPathUnits="userSpaceOnUse"
       id="clipPath1250"><g
         id="g1256"><g
           id="g1254"><path
             d="M -1.4391696e-6,8.24e-6 H 215.89999 V 279.40001 H -1.4391696e-6 Z"
             id="path1252"
             style="stroke-width:0.352778" /></g></g></clipPath><clipPath
       clipPathUnits="userSpaceOnUse"
       id="clipPath1265"><g
         id="g1271"><g
           id="g1269"><path
             d="M -1.4391696e-6,8.24e-6 H 215.89999 V 279.40001 H -1.4391696e-6 Z"
             id="path1267"
             style="stroke-width:0.352778" /></g></g></clipPath><clipPath
       clipPathUnits="userSpaceOnUse"
       id="clipPath1280"><g
         id="g1286"><g
           id="g1284"><path
             d="M -1.4391696e-6,8.24e-6 H 215.89999 V 279.40001 H -1.4391696e-6 Z"
             id="path1282"
             style="stroke-width:0.352778" /></g></g></clipPath><clipPath
       clipPathUnits="userSpaceOnUse"
       id="clipPath1295"><g
         id="g1301"><g
           id="g1299"><path
             d="M -1.4391696e-6,8.24e-6 H 215.89999 V 279.40001 H -1.4391696e-6 Z"
             id="path1297"
             style="stroke-width:0.352778" /></g></g></clipPath><clipPath
       clipPathUnits="userSpaceOnUse"
       id="clipPath1310"><g
         id="g1316"><g
           id="g1314"><path
             d="M -1.4391696e-6,8.24e-6 H 215.89999 V 279.40001 H -1.4391696e-6 Z"
             id="path1312"
             style="stroke-width:0.352778" /></g></g></clipPath><clipPath
       clipPathUnits="userSpaceOnUse"
       id="clipPath1325"><g
         id="g1331"><g
           id="g1329"><path
             d="M -1.4391696e-6,8.24e-6 H 215.89999 V 279.40001 H -1.4391696e-6 Z"
             id="path1327"
             style="stroke-width:0.352778" /></g></g></clipPath><clipPath
       clipPathUnits="userSpaceOnUse"
       id="clipPath1340"><g
         id="g1346"><g
           id="g1344"><path
             d="M -1.4391696e-6,8.24e-6 H 215.89999 V 279.40001 H -1.4391696e-6 Z"
             id="path1342"
             style="stroke-width:0.352778" /></g></g></clipPath><clipPath
       clipPathUnits="userSpaceOnUse"
       id="clipPath1355"><g
         id="g1361"><g
           id="g1359"><path
             d="M -1.4391696e-6,8.24e-6 H 215.89999 V 279.40001 H -1.4391696e-6 Z"
             id="path1357"
             style="stroke-width:0.352778" /></g></g></clipPath><clipPath
       clipPathUnits="userSpaceOnUse"
       id="clipPath1370"><g
         id="g1376"><g
           id="g1374"><path
             d="M -1.4391696e-6,8.24e-6 H 215.89999 V 279.40001 H -1.4391696e-6 Z"
             id="path1372"
             style="stroke-width:0.352778" /></g></g></clipPath><clipPath
       clipPathUnits="userSpaceOnUse"
       id="clipPath1385"><g
         id="g1391"><g
           id="g1389"><path
             d="M -1.4391696e-6,8.24e-6 H 215.89999 V 279.40001 H -1.4391696e-6 Z"
             id="path1387"
             style="stroke-width:0.352778" /></g></g></clipPath><clipPath
       clipPathUnits="userSpaceOnUse"
       id="clipPath1400"><g
         id="g1406"><g
           id="g1404"><path
             d="M -1.4391696e-6,8.24e-6 H 215.89999 V 279.40001 H -1.4391696e-6 Z"
             id="path1402"
             style="stroke-width:0.352778" /></g></g></clipPath><clipPath
       clipPathUnits="userSpaceOnUse"
       id="clipPath1415"><g
         id="g1421"><g
           id="g1419"><path
             d="M -1.4391696e-6,8.24e-6 H 215.89999 V 279.40001 H -1.4391696e-6 Z"
             id="path1417"
             style="stroke-width:0.352778" /></g></g></clipPath><clipPath
       clipPathUnits="userSpaceOnUse"
       id="clipPath1430"><g
         id="g1436"><g
           id="g1434"><path
             d="M -1.4391696e-6,8.24e-6 H 215.89999 V 279.40001 H -1.4391696e-6 Z"
             id="path1432"
             style="stroke-width:0.352778" /></g></g></clipPath><clipPath
       clipPathUnits="userSpaceOnUse"
       id="clipPath1752"><g
         id="g1762"><g
           id="g1760"><g
             id="g1758"><g
               id="g1756"><path
                 d="M -1.4391696e-6,8.24e-6 H 215.89999 V 279.40001 H -1.4391696e-6 Z"
                 id="path1754"
                 style="stroke-width:0.352778" /></g></g></g></g></clipPath><clipPath
       clipPathUnits="userSpaceOnUse"
       id="clipPath1834"><g
         id="g1846"
         transform="matrix(2.8346458,0,0,-2.8346457,4.0795361e-6,792.00002)"><g
           id="g1844"><g
             id="g1842"><g
               id="g1840"><g
                 id="g1838"><path
                   d="M -1.4391696e-6,8.24e-6 H 215.89999 V 279.40001 H -1.4391696e-6 Z"
                   id="path1836"
                   style="stroke-width:0.352778" /></g></g></g></g></g></clipPath><clipPath
       clipPathUnits="userSpaceOnUse"
       id="clipPath1871"><g
         id="g1883"
         transform="matrix(2.8346458,0,0,-2.8346457,4.0795361e-6,792.00002)"><g
           id="g1881"><g
             id="g1879"><g
               id="g1877"><g
                 id="g1875"><path
                   d="M -1.4391696e-6,8.24e-6 H 215.89999 V 279.40001 H -1.4391696e-6 Z"
                   id="path1873"
                   style="stroke-width:0.352778" /></g></g></g></g></g></clipPath><clipPath
       clipPathUnits="userSpaceOnUse"
       id="clipPath1898"><g
         id="g1910"><g
           id="g1908"><g
             id="g1906"><g
               id="g1904"><g
                 id="g1902"><path
                   d="M -1.4391696e-6,8.24e-6 H 215.89999 V 279.40001 H -1.4391696e-6 Z"
                   id="path1900"
                   style="stroke-width:0.352778" /></g></g></g></g></g></clipPath><clipPath
       clipPathUnits="userSpaceOnUse"
       id="clipPath1926"><g
         id="g1938"
         transform="matrix(2.8346458,0,0,-2.8346457,4.0795361e-6,792.00002)"><g
           id="g1936"><g
             id="g1934"><g
               id="g1932"><g
                 id="g1930"><path
                   d="M -1.4391696e-6,8.24e-6 H 215.89999 V 279.40001 H -1.4391696e-6 Z"
                   id="path1928"
                   style="stroke-width:0.352778" /></g></g></g></g></g></clipPath></defs><path
     d="m -1.4391696e-6,10.025247 v 0 26.67 0 H 215.89999 v 0 -26.67 0 z"
     style="fill:url(#linearGradient20233);stroke:none;stroke-width:0.352778"
     id="path16387"
     clip-path="url(#clipPath1898)"
     transform="matrix(0.97267258,0,0,1,1.3998408e-6,7.7747537)" /><g
     clip-path="url(#clipPath1834)"
     opacity="0.300003"
     id="g16509"
     transform="matrix(0.35277776,0,0,-0.35277778,-3.9328792e-8,287.17476)"><g
       id="g16507"><g
         clip-path="url(#clipPath16407)"
         id="g16505"><g
           id="g16455"><g
             id="g16441" /><g
             id="g16453"><g
               clip-path="url(#clipPath16411)"
               id="g16451"><g
                 id="g16449"><g
                   clip-path="url(#clipPath16415)"
                   id="g16447"><g
                     transform="translate(283.0889,729.6895)"
                     id="g16445"><path
                       d="m 0,0 h -56.105 l -19.619,-19.618 h -21.618 -55.368 v 17.241 h -141.808 v -1.639 h 140.166 v -17.241 h 57.01 22.293 30.546 c 0.359,-1.3 1.54,-2.263 2.957,-2.263 1.7,0 3.081,1.383 3.081,3.082 0,1.701 -1.381,3.082 -3.081,3.082 -1.417,0 -2.596,-0.961 -2.957,-2.262 h -28.906 l 5.044,5.044 h 49.685 c 0.361,-1.304 1.54,-2.262 2.957,-2.262 1.702,0 3.081,1.379 3.081,3.079 0,1.705 -1.379,3.084 -3.081,3.084 -1.415,0 -2.596,-0.962 -2.957,-2.262 h -48.047 l 11.298,11.294 H 0 c 0.357,-1.302 1.537,-2.262 2.953,-2.262 1.705,0 3.084,1.378 3.084,3.081 0,1.703 -1.379,3.081 -3.084,3.081 C 1.541,2.259 0.36,1.301 0,0"
                       style="fill:#ffffff;fill-opacity:1;fill-rule:nonzero;stroke:none"
                       id="path16443" /></g></g></g></g></g></g><g
           id="g16471"><g
             id="g16457" /><g
             id="g16469"><g
               clip-path="url(#clipPath16419)"
               id="g16467"><g
                 id="g16465"><g
                   clip-path="url(#clipPath16423)"
                   id="g16463"><g
                     transform="translate(269.3545,736.3706)"
                     id="g16461"><path
                       d="m 0,0 h -45.735 l -19.619,-19.616 h -66.997 v 17.24 h -137.003 v -1.639 h 135.366 v -17.24 h 69.314 l 19.616,19.616 H 0 c 0.362,-1.301 1.542,-2.263 2.957,-2.263 1.704,0 3.082,1.381 3.082,3.08 0,1.702 -1.378,3.084 -3.082,3.084 C 1.542,2.262 0.362,1.3 0,0"
                       style="fill:#ffffff;fill-opacity:1;fill-rule:nonzero;stroke:none"
                       id="path16459" /></g></g></g></g></g></g><g
           id="g16487"><g
             id="g16473" /><g
             id="g16485"><g
               clip-path="url(#clipPath16427)"
               id="g16483"><g
                 id="g16481"><g
                   clip-path="url(#clipPath16431)"
                   id="g16479"><g
                     transform="translate(72.3105,721.8691)"
                     id="g16477"><path
                       d="m 0,0 v -9.786 h 27.569 c 0.361,-1.299 1.541,-2.262 2.957,-2.262 1.703,0 3.083,1.381 3.083,3.081 0,1.7 -1.38,3.084 -3.083,3.084 -1.413,0 -2.595,-0.963 -2.957,-2.264 H 1.64 v 6.508 H 46.724 V -17.241 H -11.062 V 0 H -149.503 V -1.639 H -12.704 V -18.88 H 48.364 V 0 Z"
                       style="fill:#ffffff;fill-opacity:1;fill-rule:nonzero;stroke:none"
                       id="path16475" /></g></g></g></g></g></g><g
           id="g16503"><g
             id="g16489" /><g
             id="g16501"><g
               clip-path="url(#clipPath16435)"
               id="g16499"><g
                 id="g16497"><g
                   clip-path="url(#clipPath16439)"
                   id="g16495"><g
                     transform="translate(269.5801,746.0928)"
                     id="g16493"><path
                       d="m 0,0 c -1.415,0 -2.599,-0.963 -2.959,-2.264 h -45.737 l -19.617,-19.614 h -56.548 v 17.241 h -159.283 c -0.341,1.323 -1.532,2.304 -2.96,2.304 -1.696,0 -3.07,-1.374 -3.07,-3.069 0,-1.695 1.374,-3.069 3.07,-3.069 1.387,0 2.546,0.928 2.925,2.192 H -126.5 v -17.24 h 58.867 l 19.618,19.618 h 45.056 c 0.363,-1.303 1.544,-2.264 2.959,-2.264 1.702,0 3.083,1.381 3.083,3.081 C 3.083,-1.382 1.702,0 0,0"
                       style="fill:#ffffff;fill-opacity:1;fill-rule:nonzero;stroke:none"
                       id="path16491" /></g></g></g></g></g></g></g></g></g><g
     clip-path="url(#clipPath1871)"
     opacity="0.300003"
     id="g16561"
     transform="matrix(0.35277776,0,0,-0.35277778,-1.4391696e-6,279.40001)"><g
       id="g16559"><g
         clip-path="url(#clipPath16531)"
         id="g16557"><g
           id="g16555"><g
             id="g16541" /><g
             id="g16553"><g
               clip-path="url(#clipPath16535)"
               opacity="0.699997"
               id="g16551"><g
                 id="g16549"><g
                   clip-path="url(#clipPath16539)"
                   id="g16547"><g
                     transform="translate(7.9512,689.6191)"
                     id="g16545"><path
                       d="m 0,0 -19.616,19.62 h -56.108 c -0.36,1.299 -1.539,2.262 -2.956,2.262 -1.701,0 -3.084,-1.382 -3.084,-3.084 0,-1.702 1.383,-3.081 3.084,-3.081 1.417,0 2.596,0.958 2.956,2.262 h 55.427 L -0.68,-1.637 H 15.229 V 0 Z"
                       style="fill:#ffffff;fill-opacity:1;fill-rule:nonzero;stroke:none"
                       id="path16543" /></g></g></g></g></g></g></g></g></g><g
     id="g1275"
     transform="matrix(0.9409751,0,0,1,8.1180332,0.02860634)"><g
       clip-path="url(#clipPath1926)"
       id="g16575"
       transform="matrix(0.35277776,0,0,-0.35277778,-3.9328792e-8,287.17476)"><path
         d="m 41.592,22.681 h 497.282 v 1.638 H 41.592 Z"
         style="fill:#131413;fill-opacity:1;fill-rule:nonzero;stroke:none"
         id="path16573" /></g><path
       d="m 12.62729,271.10973 c 0,0.60008 0.486833,1.08691 1.086908,1.08691 0.600428,0 1.086909,-0.48683 1.086909,-1.08691 0,-0.60008 -0.486481,-1.08691 -1.086909,-1.08691 -0.600075,0 -1.086908,0.48683 -1.086908,1.08691"
       style="fill:#131413;fill-opacity:1;fill-rule:nonzero;stroke:none;stroke-width:0.352778"
       id="path16581"
       clip-path="url(#clipPath1752)"
       transform="translate(1.3998408e-6,7.7747537)" /></g><text
     xml:space="preserve"
     style="font-variant:normal;font-weight:normal;font-stretch:normal;font-size:4.23333px;font-family:'Franklin Gothic Demi';-inkscape-font-specification:FranklinGothic-Demi;writing-mode:lr-tb;fill:#231f20;fill-opacity:1;fill-rule:nonzero;stroke:none;stroke-width:0.352778"
     id="text16659"
     x="190.30161"
     y="280"><tspan
       x="190.30161 192.60873 194.9299"
       y="280"
       sodipodi:role="line"
       id="tspan16657"
       style="font-style:normal;font-variant:normal;font-weight:normal;font-stretch:normal;font-size:4.23333px;font-family:Ubuntu;-inkscape-font-specification:'Ubuntu, Normal';font-variant-ligatures:normal;font-variant-caps:normal;font-variant-numeric:normal;font-variant-east-asian:normal;stroke-width:0.352778">113</tspan></text><g
     id="g1957"
     transform="translate(-6.1999905,9.6764947)"><path
       d="m 190.73907,16.26451 c 0.0215,0.09631 0.049,0.232128 0.0825,0.408164 0.0339,0.176389 0.0699,0.370417 0.10689,0.58173 0.0374,0.211667 0.0755,0.428978 0.11465,0.651228 0.0395,0.22225 0.0748,0.425803 0.1069,0.611011 0.121,-0.185208 0.25258,-0.384175 0.39475,-0.597605 0.14253,-0.213431 0.28293,-0.423334 0.42157,-0.629709 0.139,-0.206375 0.27058,-0.399344 0.39511,-0.579261 0.12418,-0.179564 0.23107,-0.328083 0.32033,-0.445558 h 0.73624 c -0.025,0.245533 -0.0579,0.521053 -0.0984,0.827264 -0.0413,0.305858 -0.0878,0.622653 -0.139,0.95003 -0.0519,0.327025 -0.10583,0.656167 -0.16298,0.987073 -0.0568,0.330905 -0.11359,0.642408 -0.17039,0.933802 h -0.81139 c 0.0748,-0.362655 0.15381,-0.754944 0.23777,-1.176513 0.0833,-0.42157 0.16087,-0.847725 0.23178,-1.278114 -0.0924,0.14605 -0.19579,0.30868 -0.30939,0.488244 -0.11395,0.179917 -0.22789,0.361245 -0.34149,0.544336 -0.11394,0.183445 -0.22436,0.358422 -0.3309,0.525639 -0.10689,0.167217 -0.19932,0.309386 -0.27764,0.426861 h -0.60819 c -0.018,-0.106539 -0.0392,-0.242005 -0.0642,-0.405694 -0.025,-0.163336 -0.0526,-0.336903 -0.0825,-0.520347 -0.0303,-0.183092 -0.0614,-0.367948 -0.0935,-0.55492 -0.0321,-0.186619 -0.0624,-0.354894 -0.091,-0.504119 -0.13828,0.430389 -0.26387,0.856544 -0.37606,1.278114 -0.11183,0.421569 -0.2159,0.813858 -0.3122,1.176513 h -0.80575 c 0.0819,-0.291394 0.17145,-0.602897 0.26952,-0.933802 0.0977,-0.330906 0.19897,-0.660753 0.3041,-0.989895 0.10513,-0.329141 0.20919,-0.646641 0.31221,-0.9525 0.10336,-0.306211 0.20108,-0.579966 0.29351,-0.821972 z"
       style="fill:#ffffff;fill-opacity:1;fill-rule:nonzero;stroke:none;stroke-width:0.352778"
       id="path16591"
       clip-path="url(#clipPath1205)" /><path
       d="m 194.04773,19.962821 h -0.78987 l 0.6671,-2.807053 h 0.79516 z m 0.38417,-3.148542 c -0.11041,0 -0.2099,-0.03281 -0.2988,-0.09878 -0.0889,-0.06597 -0.13335,-0.166159 -0.13335,-0.301625 0,-0.07444 0.0148,-0.144992 0.0452,-0.210609 0.0303,-0.06597 0.0702,-0.122766 0.12029,-0.170744 0.0497,-0.04798 0.1076,-0.08643 0.17322,-0.115006 0.066,-0.02822 0.13617,-0.04233 0.21096,-0.04233 0.11007,0 0.2099,0.03281 0.2988,0.09843 0.0889,0.06597 0.13335,0.166511 0.13335,0.301625 0,0.07479 -0.0152,0.144992 -0.0451,0.210608 -0.0303,0.06597 -0.0706,0.122767 -0.11995,0.170745 -0.0501,0.04833 -0.10795,0.08643 -0.17392,0.115005 -0.0656,0.02858 -0.13582,0.04269 -0.21061,0.04269"
       style="fill:#ffffff;fill-opacity:1;fill-rule:nonzero;stroke:none;stroke-width:0.352778"
       id="path16595"
       clip-path="url(#clipPath1220)" /><path
       d="m 189.52227,20.933948 c 0.22401,0 0.4258,0.02399 0.60572,0.07232 0.17956,0.04763 0.33161,0.117123 0.45614,0.208139 0.12453,0.09066 0.22084,0.201789 0.28822,0.333375 0.0674,0.131586 0.10125,0.2794 0.10125,0.443089 0,0.2667 -0.0515,0.492478 -0.15452,0.677686 -0.10336,0.184856 -0.24589,0.334434 -0.42686,0.448028 -0.18168,0.113947 -0.39476,0.195792 -0.64064,0.245533 -0.24554,0.04974 -0.51224,0.07479 -0.80046,0.07479 h -0.20814 l -0.2988,1.23825 h -0.82691 l 0.8696,-3.6449 c 0.19191,-0.03563 0.37429,-0.06068 0.54716,-0.07479 0.17215,-0.01411 0.33513,-0.02152 0.48824,-0.02152 m -0.0691,0.699206 c -0.0607,0 -0.11254,0.0018 -0.15523,0.0053 -0.0427,0.0035 -0.0854,0.0071 -0.1277,0.01058 l -0.25647,1.088672 h 0.20814 c 0.14958,0 0.28575,-0.01129 0.40816,-0.03457 0.12277,-0.02328 0.2279,-0.06138 0.31503,-0.114653 0.0871,-0.05327 0.15487,-0.122061 0.20285,-0.205317 0.048,-0.08361 0.072,-0.185914 0.072,-0.307269 0,-0.159809 -0.0579,-0.273756 -0.17357,-0.341136 -0.11536,-0.06773 -0.28011,-0.1016 -0.49318,-0.1016"
       style="fill:#ffffff;fill-opacity:1;fill-rule:nonzero;stroke:none;stroke-width:0.352778"
       id="path16599"
       clip-path="url(#clipPath1080)" /><path
       d="m 192.77234,22.551116 c -0.0709,-0.01799 -0.14111,-0.03493 -0.21061,-0.0508 -0.0695,-0.01588 -0.1718,-0.02399 -0.30691,-0.02399 -0.0497,0 -0.10513,0.0046 -0.16546,0.01341 -0.0603,0.0088 -0.11006,0.0187 -0.14922,0.02928 l -0.51788,2.156178 h -0.79516 l 0.64029,-2.657828 c 0.15311,-0.04974 0.32456,-0.09701 0.51506,-0.141464 0.19014,-0.04445 0.40498,-0.06668 0.64346,-0.06668 0.0889,0 0.18733,0.0081 0.29563,0.02399 0.10866,0.01623 0.20391,0.04198 0.28575,0.07761 z"
       style="fill:#ffffff;fill-opacity:1;fill-rule:nonzero;stroke:none;stroke-width:0.352778"
       id="path16603"
       clip-path="url(#clipPath1235)" /><path
       d="m 193.50336,24.675015 h -0.78987 l 0.6671,-2.807053 h 0.79516 z m 0.38417,-3.148542 c -0.11041,0 -0.2099,-0.03281 -0.2988,-0.09878 -0.0889,-0.06597 -0.13335,-0.166159 -0.13335,-0.301625 0,-0.07479 0.0148,-0.144992 0.0452,-0.210609 0.0303,-0.06597 0.0702,-0.122766 0.12029,-0.170744 0.0497,-0.04798 0.1076,-0.08643 0.17322,-0.115006 0.066,-0.02822 0.13617,-0.04233 0.21096,-0.04233 0.11007,0 0.2099,0.03281 0.2988,0.09843 0.0893,0.06597 0.13371,0.166511 0.13371,0.301625 0,0.07479 -0.0155,0.144992 -0.0455,0.210961 -0.0303,0.06562 -0.0706,0.122414 -0.11995,0.170392 -0.0501,0.04833 -0.10795,0.08643 -0.17356,0.115005 -0.066,0.02858 -0.13618,0.04269 -0.21097,0.04269"
       style="fill:#ffffff;fill-opacity:1;fill-rule:nonzero;stroke:none;stroke-width:0.352778"
       id="path16607"
       clip-path="url(#clipPath1250)" /><path
       d="m 194.65613,21.996126 c 0.0603,-0.01799 0.12524,-0.0381 0.19473,-0.06138 0.0691,-0.02328 0.14746,-0.04445 0.23495,-0.06421 0.0871,-0.0194 0.18486,-0.03563 0.29351,-0.04798 0.10831,-0.01235 0.2339,-0.0187 0.37607,-0.0187 0.17074,0 0.3122,0.02152 0.42403,0.06421 0.11254,0.04269 0.21449,0.106539 0.30692,0.191911 0.13159,-0.07444 0.26247,-0.136172 0.39229,-0.183797 0.12982,-0.04833 0.28222,-0.07232 0.45649,-0.07232 0.16687,0 0.31045,0.02223 0.42933,0.06668 0.11924,0.0448 0.21802,0.108656 0.29634,0.192264 0.0783,0.08361 0.13511,0.183092 0.17074,0.298803 0.0353,0.115711 0.0533,0.242711 0.0533,0.381705 0,0.06385 -0.005,0.131586 -0.0134,0.202495 -0.008,0.07126 -0.0219,0.142522 -0.0399,0.21343 l -0.36265,1.515886 h -0.79516 l 0.35207,-1.483783 c 0.0106,-0.04974 0.0222,-0.105833 0.0346,-0.167922 0.0123,-0.06244 0.0187,-0.123825 0.0187,-0.18415 0,-0.09948 -0.0233,-0.185914 -0.0692,-0.258939 -0.0466,-0.07267 -0.13723,-0.109361 -0.27234,-0.109361 -0.0748,0 -0.14605,0.0134 -0.21343,0.03986 -0.0677,0.02681 -0.12841,0.05433 -0.18168,0.0829 0.007,0.02858 0.0106,0.05539 0.0106,0.08008 v 0.0695 c 0,0.06385 -0.004,0.131586 -0.013,0.202495 -0.009,0.07126 -0.0222,0.142522 -0.0399,0.21343 l -0.363,1.515886 h -0.79517 l 0.35208,-1.483783 c 0.0106,-0.04974 0.0222,-0.105833 0.0346,-0.167922 0.0127,-0.06244 0.0187,-0.123825 0.0187,-0.18415 0,-0.09948 -0.0229,-0.185914 -0.0692,-0.258939 -0.0462,-0.07267 -0.13723,-0.109361 -0.27234,-0.109361 -0.0568,0 -0.10478,0.0028 -0.14394,0.0081 -0.0392,0.0053 -0.0854,0.01341 -0.13864,0.02399 l -0.51788,2.172052 h -0.79516 z"
       style="fill:#ffffff;fill-opacity:1;fill-rule:nonzero;stroke:none;stroke-width:0.352778"
       id="path16611"
       clip-path="url(#clipPath1265)" /><path
       d="m 198.47157,23.575689 c 0,-0.227894 0.0399,-0.448381 0.1203,-0.661811 0.0797,-0.213431 0.19297,-0.402872 0.33866,-0.568325 0.14605,-0.165453 0.3228,-0.298803 0.53129,-0.400403 0.20778,-0.101247 0.43815,-0.152047 0.69109,-0.152047 0.12418,0 0.23989,0.01799 0.34643,0.05362 0.10689,0.03563 0.20002,0.08714 0.28045,0.15487 0.0801,0.06738 0.14217,0.14993 0.18662,0.248002 0.0445,0.09772 0.0667,0.208845 0.0667,0.333375 0,0.19932 -0.0444,0.3683 -0.13335,0.507295 -0.0889,0.138641 -0.21273,0.25153 -0.37077,0.338666 -0.1584,0.08714 -0.34608,0.150284 -0.56339,0.189442 -0.21695,0.03916 -0.45332,0.05891 -0.70943,0.05891 0.0247,0.149225 0.079,0.255058 0.16298,0.317147 0.0833,0.06244 0.2159,0.09349 0.39758,0.09349 0.1136,0 0.22931,-0.0099 0.34678,-0.02928 0.11712,-0.0194 0.22719,-0.04868 0.33055,-0.08784 l 0.0589,0.624064 c -0.0998,0.03916 -0.22684,0.07479 -0.38171,0.106892 -0.15451,0.0321 -0.32279,0.04798 -0.50412,0.04798 -0.22084,0 -0.40675,-0.03104 -0.55774,-0.09313 -0.15134,-0.06244 -0.27411,-0.146755 -0.3683,-0.253647 -0.0942,-0.106892 -0.16263,-0.23107 -0.20531,-0.373592 -0.0427,-0.142522 -0.0642,-0.293511 -0.0642,-0.453672 m 1.55293,-1.152878 c -0.18133,0 -0.34043,0.06526 -0.47766,0.195086 -0.13688,0.129823 -0.22684,0.301273 -0.26953,0.515056 0.22049,-0.0074 0.39864,-0.02611 0.53376,-0.05609 0.13511,-0.03034 0.24024,-0.06703 0.31503,-0.109714 0.0744,-0.04269 0.12418,-0.0889 0.14922,-0.138641 0.025,-0.04974 0.0374,-0.09948 0.0374,-0.149578 0,-0.170392 -0.0963,-0.256117 -0.28822,-0.256117"
       style="fill:#ffffff;fill-opacity:1;fill-rule:nonzero;stroke:none;stroke-width:0.352778"
       id="path16615"
       clip-path="url(#clipPath1280)" /><path
       d="m 202.96504,22.551116 c -0.0709,-0.01799 -0.14111,-0.03493 -0.21061,-0.0508 -0.0695,-0.01588 -0.1718,-0.02399 -0.30691,-0.02399 -0.0497,0 -0.10513,0.0046 -0.16546,0.01341 -0.0607,0.0088 -0.11006,0.0187 -0.14922,0.02928 l -0.51788,2.156178 h -0.79516 l 0.64029,-2.657828 c 0.15311,-0.04974 0.32456,-0.09701 0.51506,-0.141464 0.19014,-0.04445 0.40498,-0.06668 0.64311,-0.06668 0.0889,0 0.18768,0.0081 0.29598,0.02399 0.10866,0.01623 0.20355,0.04198 0.28575,0.07761 z"
       style="fill:#ffffff;fill-opacity:1;fill-rule:nonzero;stroke:none;stroke-width:0.352778"
       id="path16619"
       clip-path="url(#clipPath1295)" /><path
       d="m 187.60644,29.47244 c -0.21343,0 -0.43251,-0.0088 -0.65617,-0.02681 -0.22436,-0.01764 -0.42721,-0.04586 -0.60854,-0.08537 l 0.85372,-3.575403 c 0.20285,-0.03916 0.41558,-0.06597 0.63783,-0.08008 0.22225,-0.01411 0.42615,-0.02152 0.61101,-0.02152 0.21343,0 0.39758,0.02258 0.55209,0.06703 0.15523,0.04445 0.28117,0.104069 0.37924,0.178858 0.0977,0.07444 0.17074,0.162631 0.21872,0.263878 0.048,0.1016 0.072,0.209197 0.072,0.322791 0,0.07832 -0.008,0.160162 -0.024,0.245887 -0.0159,0.08502 -0.048,0.169686 -0.096,0.253294 -0.0483,0.08361 -0.11394,0.162631 -0.19755,0.237419 -0.0836,0.07479 -0.19297,0.14217 -0.32808,0.202848 0.16016,0.07091 0.27728,0.167922 0.35207,0.291041 0.0748,0.122414 0.11218,0.258586 0.11218,0.408164 0,0.170745 -0.0342,0.335139 -0.1016,0.493536 -0.0674,0.158398 -0.17603,0.298803 -0.32561,0.42157 -0.14923,0.122766 -0.3429,0.220486 -0.58138,0.293511 -0.23848,0.07267 -0.52846,0.109361 -0.86995,0.109361 m -0.0748,-1.665111 -0.2293,0.960614 c 0.0568,0.01058 0.12876,0.0187 0.2159,0.02399 0.0871,0.0056 0.16827,0.0081 0.24271,0.0081 0.10689,0 0.21272,-0.0081 0.31785,-0.02399 0.10477,-0.01588 0.19897,-0.04551 0.28293,-0.0882 0.0832,-0.04269 0.15169,-0.101247 0.20531,-0.176036 0.0533,-0.07444 0.0801,-0.170744 0.0801,-0.288219 0,-0.04974 -0.01,-0.09948 -0.0296,-0.149225 -0.0194,-0.04974 -0.0505,-0.09419 -0.0931,-0.133703 -0.043,-0.03916 -0.0988,-0.07091 -0.16828,-0.09596 -0.0691,-0.02469 -0.15204,-0.03739 -0.248,-0.03739 z m 0.15487,-0.624417 h 0.52282 c 0.21343,0 0.37288,-0.04621 0.47766,-0.138641 0.10477,-0.09243 0.15769,-0.202848 0.15769,-0.330906 0,-0.06738 -0.0152,-0.125236 -0.0455,-0.173567 -0.0303,-0.04798 -0.0702,-0.08608 -0.11994,-0.114652 -0.0501,-0.02822 -0.10689,-0.04868 -0.17075,-0.06138 -0.0642,-0.01235 -0.13017,-0.0187 -0.19755,-0.0187 -0.0748,0 -0.15452,0.0028 -0.24024,0.0081 -0.0854,0.0053 -0.14923,0.01164 -0.19227,0.0187 z"
       style="fill:#ffffff;fill-opacity:1;fill-rule:nonzero;stroke:none;stroke-width:0.352778"
       id="path16623"
       clip-path="url(#clipPath1310)" /><path
       d="m 190.4028,29.424427 h -0.78987 l 0.6671,-2.807053 h 0.79516 z m 0.38417,-3.148542 c -0.11041,0 -0.2099,-0.03281 -0.2988,-0.09878 -0.0889,-0.06597 -0.13335,-0.166159 -0.13335,-0.301625 0,-0.07479 0.0148,-0.144992 0.0452,-0.210609 0.0303,-0.06597 0.0702,-0.122766 0.12029,-0.170744 0.0497,-0.04798 0.1076,-0.08643 0.17322,-0.115006 0.066,-0.02822 0.13617,-0.04233 0.21096,-0.04233 0.11007,0 0.2099,0.03281 0.29845,0.09842 0.0896,0.06597 0.1337,0.166511 0.1337,0.301625 0,0.07479 -0.0152,0.144992 -0.0455,0.210608 -0.03,0.06597 -0.0702,0.122767 -0.11959,0.170745 -0.0501,0.04833 -0.10795,0.08643 -0.17356,0.115005 -0.066,0.02858 -0.13618,0.04269 -0.21097,0.04269"
       style="fill:#ffffff;fill-opacity:1;fill-rule:nonzero;stroke:none;stroke-width:0.352778"
       id="path16627"
       clip-path="url(#clipPath1325)" /><path
       d="m 191.77948,25.91831 0.82726,-0.128058 -0.20249,0.827264 h 0.88547 l -0.15981,0.650875 h -0.88053 l -0.23495,0.98178 c -0.0215,0.0822 -0.0349,0.158397 -0.0399,0.229658 -0.006,0.07126 0.003,0.132645 0.0265,0.18415 0.0229,0.05151 0.0635,0.09172 0.1203,0.119945 0.0568,0.02858 0.13512,0.04269 0.2346,0.04269 0.0854,0 0.16792,-0.0078 0.24835,-0.02399 0.0797,-0.01587 0.16087,-0.0381 0.24272,-0.06668 l 0.0586,0.608542 c -0.10654,0.03916 -0.22261,0.07303 -0.34678,0.101247 -0.12489,0.02858 -0.27235,0.04269 -0.44309,0.04269 -0.24518,0 -0.43568,-0.03634 -0.5708,-0.109361 -0.13546,-0.07267 -0.23142,-0.172508 -0.28822,-0.298803 -0.0568,-0.126294 -0.0818,-0.271286 -0.0744,-0.434975 0.007,-0.163689 0.0314,-0.336197 0.0744,-0.517525 z"
       style="fill:#ffffff;fill-opacity:1;fill-rule:nonzero;stroke:none;stroke-width:0.352778"
       id="path16631"
       clip-path="url(#clipPath1340)" /><path
       d="m 193.2095,28.303758 c 0,-0.242006 0.0392,-0.469547 0.11747,-0.683331 0.0783,-0.21343 0.19015,-0.40005 0.3362,-0.560211 0.1457,-0.160161 0.32279,-0.286455 0.53093,-0.378883 0.20814,-0.09243 0.44027,-0.138642 0.69674,-0.138642 0.15981,0 0.30303,0.01517 0.42933,0.04551 0.12629,0.02999 0.24095,0.0702 0.34431,0.119944 l -0.27234,0.618772 c -0.0713,-0.02822 -0.145,-0.05398 -0.2212,-0.07726 -0.0765,-0.02293 -0.17003,-0.03457 -0.2801,-0.03457 -0.26705,0 -0.47696,0.08996 -0.62971,0.269522 -0.15311,0.179917 -0.22966,0.424039 -0.22966,0.733778 0,0.181328 0.0392,0.328083 0.11712,0.440266 0.0783,0.112184 0.22261,0.167923 0.43251,0.167923 0.10301,0 0.20285,-0.01058 0.2988,-0.03175 0.096,-0.02152 0.18133,-0.04833 0.25612,-0.08008 l 0.0586,0.635 c -0.0995,0.03916 -0.20884,0.07373 -0.32808,0.10407 -0.11924,0.03034 -0.26423,0.04551 -0.43498,0.04551 -0.22048,0 -0.4071,-0.0321 -0.56021,-0.09631 -0.1531,-0.06421 -0.2794,-0.150284 -0.37888,-0.258587 -0.0995,-0.108655 -0.17145,-0.235655 -0.2159,-0.381705 -0.0452,-0.145697 -0.067,-0.298803 -0.067,-0.458964"
       style="fill:#ffffff;fill-opacity:1;fill-rule:nonzero;stroke:none;stroke-width:0.352778"
       id="path16635"
       clip-path="url(#clipPath1355)" /><path
       d="m 196.64153,29.499145 c -0.18838,0 -0.35207,-0.02858 -0.49107,-0.08537 -0.13864,-0.0568 -0.25329,-0.136878 -0.34395,-0.240242 -0.091,-0.103011 -0.15911,-0.224719 -0.20567,-0.365478 -0.0462,-0.140405 -0.0692,-0.296333 -0.0692,-0.467077 0,-0.213431 0.0346,-0.426862 0.10372,-0.640292 0.0695,-0.213431 0.1718,-0.405342 0.30727,-0.576439 0.13476,-0.170744 0.30021,-0.310444 0.496,-0.418747 0.19544,-0.108656 0.41981,-0.162984 0.6724,-0.162984 0.18521,0 0.34784,0.02858 0.48859,0.08537 0.14006,0.05715 0.25612,0.13723 0.34643,0.240241 0.091,0.103364 0.15946,0.225073 0.20567,0.365478 0.0462,0.140758 0.0695,0.296333 0.0695,0.467078 0,0.21343 -0.0339,0.426861 -0.1016,0.640292 -0.0674,0.21343 -0.16722,0.405694 -0.2988,0.576438 -0.13159,0.170745 -0.29598,0.310445 -0.49354,0.4191 -0.19756,0.108303 -0.42616,0.162631 -0.6858,0.162631 m 0.39476,-2.284236 c -0.11712,0 -0.22049,0.03387 -0.30939,0.1016 -0.0889,0.06738 -0.16369,0.153105 -0.22401,0.256117 -0.0603,0.103363 -0.10583,0.2159 -0.13617,0.339019 -0.0303,0.122414 -0.0452,0.239183 -0.0452,0.34925 0,0.181681 0.0282,0.321028 0.085,0.4191 0.0572,0.09772 0.16016,0.146756 0.30974,0.146756 0.11747,0 0.22048,-0.03387 0.30938,-0.101248 0.0889,-0.06773 0.16369,-0.153105 0.22437,-0.256469 0.0603,-0.103011 0.10583,-0.2159 0.13582,-0.338667 0.0303,-0.122766 0.0455,-0.239536 0.0455,-0.349603 0,-0.181327 -0.0286,-0.321027 -0.0854,-0.4191 -0.0572,-0.09772 -0.16016,-0.146755 -0.30974,-0.146755"
       style="fill:#ffffff;fill-opacity:1;fill-rule:nonzero;stroke:none;stroke-width:0.352778"
       id="path16639"
       clip-path="url(#clipPath1370)" /><path
       d="m 199.11754,29.424427 h -0.78987 l 0.6671,-2.807053 h 0.79516 z m 0.38417,-3.148542 c -0.11041,0 -0.2099,-0.03281 -0.2988,-0.09878 -0.0889,-0.06597 -0.13335,-0.166159 -0.13335,-0.301625 0,-0.07479 0.0148,-0.144992 0.0452,-0.210609 0.0303,-0.06597 0.0702,-0.122766 0.12029,-0.170744 0.0498,-0.04798 0.1076,-0.08643 0.17322,-0.115006 0.066,-0.02822 0.13617,-0.04233 0.21096,-0.04233 0.11007,0 0.2099,0.03281 0.2988,0.09842 0.0889,0.06597 0.13371,0.166511 0.13371,0.301625 0,0.07479 -0.0155,0.144992 -0.0455,0.210608 -0.0303,0.06597 -0.0706,0.122767 -0.11995,0.170745 -0.0501,0.04833 -0.10795,0.08643 -0.17356,0.115005 -0.066,0.02858 -0.13618,0.04269 -0.21097,0.04269"
       style="fill:#ffffff;fill-opacity:1;fill-rule:nonzero;stroke:none;stroke-width:0.352778"
       id="path16643"
       clip-path="url(#clipPath1385)" /><path
       d="m 200.37706,26.745538 c 0.0603,-0.01799 0.127,-0.0381 0.20002,-0.06138 0.0727,-0.02328 0.15487,-0.04445 0.24554,-0.06385 0.0903,-0.01976 0.19226,-0.03598 0.30409,-0.04833 0.11183,-0.01235 0.23919,-0.0187 0.38171,-0.0187 0.41945,0 0.70802,0.121003 0.8643,0.363008 0.15664,0.242006 0.18345,0.572912 0.0801,0.992364 l -0.363,1.515886 h -0.79481 l 0.35207,-1.483783 c 0.0212,-0.09243 0.0381,-0.182033 0.0508,-0.269169 0.0123,-0.08749 0.0113,-0.163689 -0.003,-0.229659 -0.0145,-0.06562 -0.0469,-0.119239 -0.0988,-0.160161 -0.0515,-0.04092 -0.13053,-0.06138 -0.23742,-0.06138 -0.10336,0 -0.20814,0.01058 -0.31468,0.0321 l -0.51788,2.172052 h -0.79516 z"
       style="fill:#ffffff;fill-opacity:1;fill-rule:nonzero;stroke:none;stroke-width:0.352778"
       id="path16647"
       clip-path="url(#clipPath1400)" /><path
       d="m 181.35017,16.264616 -3.65125,13.164961 h 7.45172 l 3.65125,-13.164961 z"
       style="fill:#f68714;fill-opacity:1;fill-rule:nonzero;stroke:none;stroke-width:0.352778"
       id="path16651"
       clip-path="url(#clipPath1415)" /><path
       d="m 185.70517,20.596269 c -0.078,-0.165806 -0.1972,-0.309033 -0.35666,-0.431094 -0.16016,-0.121709 -0.36618,-0.219428 -0.61877,-0.2921 -0.0106,-0.0032 -0.024,-0.0039 -0.0346,-0.0067 l 0.31856,-1.148292 h -0.69251 l -0.29316,1.057628 c -0.0674,-0.0032 -0.12805,-0.01164 -0.19967,-0.01164 -0.11465,0 -0.23848,0.0035 -0.3623,0.0067 l 0.2921,-1.052689 h -0.6925 l -0.30128,1.087614 c -0.33831,0.02399 -0.66322,0.06421 -0.97331,0.124531 l -1.39312,5.834591 c 0.20849,0.04516 0.44097,0.07832 0.68439,0.105834 l -0.31503,1.135238 h 0.69215 l 0.30127,-1.086908 c 0.18733,0.0099 0.375,0.02046 0.55739,0.02293 l -0.29527,1.063977 h 0.69215 l 0.30056,-1.08338 c 0.32244,-0.02716 0.61313,-0.0762 0.86537,-0.153811 0.38911,-0.118181 0.7052,-0.278342 0.94897,-0.478367 0.24447,-0.200025 0.42122,-0.430036 0.53163,-0.687917 0.11042,-0.258938 0.16475,-0.527755 0.16475,-0.806097 0,-0.243416 -0.061,-0.466019 -0.18274,-0.666044 -0.12171,-0.200025 -0.31291,-0.358422 -0.57467,-0.474486 0.22119,-0.09878 0.40005,-0.209198 0.53587,-0.330906 0.13652,-0.121708 0.24377,-0.251178 0.32244,-0.387703 0.078,-0.136172 0.13052,-0.274108 0.15663,-0.413102 0.0261,-0.1397 0.0392,-0.27305 0.0392,-0.401109 0,-0.185561 -0.0392,-0.361244 -0.11783,-0.526697 m -1.67605,3.784247 c -0.0871,0.121709 -0.19932,0.217664 -0.33549,0.287161 -0.13652,0.0695 -0.29033,0.117475 -0.46108,0.143581 -0.1718,0.02646 -0.34431,0.03916 -0.51894,0.03916 -0.12206,0 -0.25364,-0.0046 -0.39581,-0.0127 -0.14182,-0.0095 -0.25965,-0.02187 -0.35243,-0.03986 l 0.3743,-1.567391 h 0.94051 c 0.15663,0 0.29174,0.02046 0.40498,0.06138 0.11289,0.04022 0.20426,0.09278 0.27447,0.156281 0.0695,0.06385 0.12065,0.136525 0.1524,0.217663 0.0317,0.08185 0.0473,0.162631 0.0473,0.244123 0,0.191205 -0.043,0.348191 -0.13018,0.470605 m 0.19544,-2.395361 c -0.17074,0.150636 -0.43074,0.226131 -0.77858,0.226131 h -0.85443 l 0.31398,-1.32327 c 0.0695,-0.01164 0.17427,-0.02187 0.31362,-0.03034 0.1397,-0.0088 0.26987,-0.0134 0.39193,-0.0134 0.11077,0 0.21731,0.0099 0.32244,0.03069 0.10407,0.02011 0.19685,0.05362 0.27834,0.09984 0.0819,0.04657 0.14676,0.109008 0.19544,0.187677 0.0501,0.07832 0.0744,0.172509 0.0744,0.282575 0,0.209198 -0.0854,0.389467 -0.25718,0.540103"
       style="fill:#ffffff;fill-opacity:1;fill-rule:nonzero;stroke:none;stroke-width:0.352778"
       id="path16655"
       clip-path="url(#clipPath1430)" /></g><g
     id="g1166"
     transform="matrix(0.99550061,0,0,1,-5.2857157,0)"><g
       id="g16661"
       transform="matrix(0.35277776,0,0,-0.35277778,25.4,192.55097)"><path
         d="M 0,0 H 504"
         style="fill:none;stroke:#000000;stroke-width:0.25;stroke-linecap:butt;stroke-linejoin:miter;stroke-miterlimit:4;stroke-dasharray:none;stroke-opacity:1"
         id="path16663" /></g><g
       id="g16665"
       transform="matrix(0.35277776,0,0,-0.35277778,25.4,103.13948)"><path
         d="M 0,0 H 504"
         style="fill:none;stroke:#000000;stroke-width:0.25;stroke-linecap:butt;stroke-linejoin:miter;stroke-miterlimit:4;stroke-dasharray:none;stroke-opacity:1"
         id="path16667" /></g><g
       id="g16669"
       transform="matrix(0.35277776,0,0,-0.35277778,25.4,199.99455)"><path
         d="M 0,0 H 504"
         style="fill:none;stroke:#000000;stroke-width:0.25;stroke-linecap:butt;stroke-linejoin:miter;stroke-miterlimit:4;stroke-dasharray:none;stroke-opacity:1"
         id="path16671" /></g><g
       id="g16673"
       transform="matrix(0.35277776,0,0,-0.35277778,25.4,147.88927)"><path
         d="M 0,0 H 504"
         style="fill:none;stroke:#000000;stroke-width:0.25;stroke-linecap:butt;stroke-linejoin:miter;stroke-miterlimit:4;stroke-dasharray:none;stroke-opacity:1"
         id="path16675" /></g><g
       id="g16677"
       transform="matrix(0.35277776,0,0,-0.35277778,25.4,58.477783)"><path
         d="M 0,0 H 504"
         style="fill:none;stroke:#000000;stroke-width:0.25;stroke-linecap:butt;stroke-linejoin:miter;stroke-miterlimit:4;stroke-dasharray:none;stroke-opacity:1"
         id="path16679" /></g><g
       id="g16681"
       transform="matrix(0.35277776,0,0,-0.35277778,25.4,244.65625)"><path
         d="M 0,0 H 504"
         style="fill:none;stroke:#000000;stroke-width:0.25;stroke-linecap:butt;stroke-linejoin:miter;stroke-miterlimit:4;stroke-dasharray:none;stroke-opacity:1"
         id="path16683" /></g><g
       id="g16685"
       transform="matrix(0.35277776,0,0,-0.35277778,25.4,125.55844)"><path
         d="M 0,0 H 504"
         style="fill:none;stroke:#000000;stroke-width:0.25;stroke-linecap:butt;stroke-linejoin:miter;stroke-miterlimit:4;stroke-dasharray:none;stroke-opacity:1"
         id="path16687" /></g><g
       id="g16689"
       transform="matrix(0.35277776,0,0,-0.35277778,25.4,222.32538)"><path
         d="M 0,0 H 504"
         style="fill:none;stroke:#000000;stroke-width:0.25;stroke-linecap:butt;stroke-linejoin:miter;stroke-miterlimit:4;stroke-dasharray:none;stroke-opacity:1"
         id="path16691" /></g><g
       id="g16693"
       transform="matrix(0.35277776,0,0,-0.35277778,25.4,170.22014)"><path
         d="M 0,0 H 504"
         style="fill:none;stroke:#000000;stroke-width:0.25;stroke-linecap:butt;stroke-linejoin:miter;stroke-miterlimit:4;stroke-dasharray:none;stroke-opacity:1"
         id="path16695" /></g><g
       id="g16697"
       transform="matrix(0.35277776,0,0,-0.35277778,25.4,80.808616)"><path
         d="M 0,0 H 504"
         style="fill:none;stroke:#000000;stroke-width:0.25;stroke-linecap:butt;stroke-linejoin:miter;stroke-miterlimit:4;stroke-dasharray:none;stroke-opacity:1"
         id="path16699" /></g><g
       id="g16701"
       transform="matrix(0.35277776,0,0,-0.35277778,25.4,266.98708)"><path
         d="M 0,0 H 504"
         style="fill:none;stroke:#000000;stroke-width:0.25;stroke-linecap:butt;stroke-linejoin:miter;stroke-miterlimit:4;stroke-dasharray:none;stroke-opacity:1"
         id="path16703" /></g><g
       id="g16705"
       transform="matrix(0.35277776,0,0,-0.35277778,25.4,110.67122)"><path
         d="M 0,0 H 504"
         style="fill:none;stroke:#000000;stroke-width:0.25;stroke-linecap:butt;stroke-linejoin:miter;stroke-miterlimit:4;stroke-dasharray:none;stroke-opacity:1"
         id="path16707" /></g><g
       id="g16709"
       transform="matrix(0.35277776,0,0,-0.35277778,25.4,207.4382)"><path
         d="M 0,0 H 504"
         style="fill:none;stroke:#000000;stroke-width:0.25;stroke-linecap:butt;stroke-linejoin:miter;stroke-miterlimit:4;stroke-dasharray:none;stroke-opacity:1"
         id="path16711" /></g><g
       id="g16713"
       transform="matrix(0.35277776,0,0,-0.35277778,25.4,155.33292)"><path
         d="M 0,0 H 504"
         style="fill:none;stroke:#000000;stroke-width:0.25;stroke-linecap:butt;stroke-linejoin:miter;stroke-miterlimit:4;stroke-dasharray:none;stroke-opacity:1"
         id="path16715" /></g><g
       id="g16717"
       transform="matrix(0.35277776,0,0,-0.35277778,25.4,65.921429)"><path
         d="M 0,0 H 504"
         style="fill:none;stroke:#000000;stroke-width:0.25;stroke-linecap:butt;stroke-linejoin:miter;stroke-miterlimit:4;stroke-dasharray:none;stroke-opacity:1"
         id="path16719" /></g><g
       id="g16721"
       transform="matrix(0.35277776,0,0,-0.35277778,25.4,252.0999)"><path
         d="M 0,0 H 504"
         style="fill:none;stroke:#000000;stroke-width:0.25;stroke-linecap:butt;stroke-linejoin:miter;stroke-miterlimit:4;stroke-dasharray:none;stroke-opacity:1"
         id="path16723" /></g><g
       id="g16725"
       transform="matrix(0.35277776,0,0,-0.35277778,25.4,133.00208)"><path
         d="M 0,0 H 504"
         style="fill:none;stroke:#000000;stroke-width:0.25;stroke-linecap:butt;stroke-linejoin:miter;stroke-miterlimit:4;stroke-dasharray:none;stroke-opacity:1"
         id="path16727" /></g><g
       id="g16729"
       transform="matrix(0.35277776,0,0,-0.35277778,25.4,229.76903)"><path
         d="M 0,0 H 504"
         style="fill:none;stroke:#000000;stroke-width:0.25;stroke-linecap:butt;stroke-linejoin:miter;stroke-miterlimit:4;stroke-dasharray:none;stroke-opacity:1"
         id="path16731" /></g><g
       id="g16733"
       transform="matrix(0.35277776,0,0,-0.35277778,25.4,177.66379)"><path
         d="M 0,0 H 504"
         style="fill:none;stroke:#000000;stroke-width:0.25;stroke-linecap:butt;stroke-linejoin:miter;stroke-miterlimit:4;stroke-dasharray:none;stroke-opacity:1"
         id="path16735" /></g><g
       id="g16737"
       transform="matrix(0.35277776,0,0,-0.35277778,25.4,88.252192)"><path
         d="M 0,0 H 504"
         style="fill:none;stroke:#000000;stroke-width:0.25;stroke-linecap:butt;stroke-linejoin:miter;stroke-miterlimit:4;stroke-dasharray:none;stroke-opacity:1"
         id="path16739" /></g><g
       id="g16741"
       transform="matrix(0.35277776,0,0,-0.35277778,25.4,118.11486)"><path
         d="M 0,0 H 504"
         style="fill:none;stroke:#000000;stroke-width:0.25;stroke-linecap:butt;stroke-linejoin:miter;stroke-miterlimit:4;stroke-dasharray:none;stroke-opacity:1"
         id="path16743" /></g><g
       id="g16745"
       transform="matrix(0.35277776,0,0,-0.35277778,25.4,214.88184)"><path
         d="M 0,0 H 504"
         style="fill:none;stroke:#000000;stroke-width:0.25;stroke-linecap:butt;stroke-linejoin:miter;stroke-miterlimit:4;stroke-dasharray:none;stroke-opacity:1"
         id="path16747" /></g><g
       id="g16749"
       transform="matrix(0.35277776,0,0,-0.35277778,25.4,162.77649)"><path
         d="M 0,0 H 504"
         style="fill:none;stroke:#000000;stroke-width:0.25;stroke-linecap:butt;stroke-linejoin:miter;stroke-miterlimit:4;stroke-dasharray:none;stroke-opacity:1"
         id="path16751" /></g><g
       id="g16753"
       transform="matrix(0.35277776,0,0,-0.35277778,25.4,73.36497)"><path
         d="M 0,0 H 504"
         style="fill:none;stroke:#000000;stroke-width:0.25;stroke-linecap:butt;stroke-linejoin:miter;stroke-miterlimit:4;stroke-dasharray:none;stroke-opacity:1"
         id="path16755" /></g><g
       id="g16757"
       transform="matrix(0.35277776,0,0,-0.35277778,25.4,259.54344)"><path
         d="M 0,0 H 504"
         style="fill:none;stroke:#000000;stroke-width:0.25;stroke-linecap:butt;stroke-linejoin:miter;stroke-miterlimit:4;stroke-dasharray:none;stroke-opacity:1"
         id="path16759" /></g><g
       id="g16761"
       transform="matrix(0.35277776,0,0,-0.35277778,25.4,140.44573)"><path
         d="M 0,0 H 504"
         style="fill:none;stroke:#000000;stroke-width:0.25;stroke-linecap:butt;stroke-linejoin:miter;stroke-miterlimit:4;stroke-dasharray:none;stroke-opacity:1"
         id="path16763" /></g><g
       id="g16765"
       transform="matrix(0.35277776,0,0,-0.35277778,25.4,237.2126)"><path
         d="M 0,0 H 504"
         style="fill:none;stroke:#000000;stroke-width:0.25;stroke-linecap:butt;stroke-linejoin:miter;stroke-miterlimit:4;stroke-dasharray:none;stroke-opacity:1"
         id="path16767" /></g><g
       id="g16769"
       transform="matrix(0.35277776,0,0,-0.35277778,25.4,185.10733)"><path
         d="M 0,0 H 504"
         style="fill:none;stroke:#000000;stroke-width:0.25;stroke-linecap:butt;stroke-linejoin:miter;stroke-miterlimit:4;stroke-dasharray:none;stroke-opacity:1"
         id="path16771" /></g><g
       id="g16773"
       transform="matrix(0.35277776,0,0,-0.35277778,25.4,95.695838)"><path
         d="M 0,0 H 504"
         style="fill:none;stroke:#000000;stroke-width:0.25;stroke-linecap:butt;stroke-linejoin:miter;stroke-miterlimit:4;stroke-dasharray:none;stroke-opacity:1"
         id="path16775" /></g></g><g
     id="g16777"
     transform="matrix(0.35277776,0,0,-0.35277778,-5.6735991,288.96319)"><g
       id="g16779"
       clip-path="url(#clipPath16783)"><g
         id="g16785"><g
           id="g16787" /><g
           id="g16799"><g
             clip-path="url(#clipPath16791)"
             opacity="0.5"
             id="g16797"><text
               xml:space="preserve"
               transform="matrix(1,0,0,-1,334.77762,738.84549)"
               style="font-style:italic;font-variant:normal;font-weight:300;font-stretch:normal;font-size:20px;font-family:'Ubuntu Light';-inkscape-font-specification:Ubuntu-LightItalic;writing-mode:lr-tb;white-space:pre;inline-size:130.021;display:inline;fill:#ffffff;fill-opacity:1;fill-rule:nonzero;stroke:none"
               id="text16795"><tspan
                 x="0"
                 y="18.649843"
                 id="tspan2699"><tspan
                   style="font-weight:normal;font-family:Ubuntu;-inkscape-font-specification:'Ubuntu, Italic'"
                   id="tspan2697">Lektion 10</tspan></tspan></text></g></g></g></g></g></svg>
