<?xml version="1.0" encoding="UTF-8" standalone="no"?>
<!-- Created with Inkscape (http://www.inkscape.org/) -->

<svg
   width="210mm"
   height="297mm"
   viewBox="0 0 210 297"
   version="1.1"
   id="svg5"
   xml:space="preserve"
   sodipodi:docname="001_Bitcoin Diplom - Arbeitsbuch.svg"
   inkscape:version="1.2.2 (b0a8486, 2022-12-01)"
   inkscape:export-filename="001_Bitcoin Diplom - Arbeitsbuch.pdf"
   inkscape:export-xdpi="300"
   inkscape:export-ydpi="300"
   xmlns:inkscape="http://www.inkscape.org/namespaces/inkscape"
   xmlns:sodipodi="http://sodipodi.sourceforge.net/DTD/sodipodi-0.dtd"
   xmlns="http://www.w3.org/2000/svg"
   xmlns:svg="http://www.w3.org/2000/svg"><sodipodi:namedview
     id="namedview7"
     pagecolor="#ffffff"
     bordercolor="#000000"
     borderopacity="0.25"
     inkscape:showpageshadow="2"
     inkscape:pageopacity="0.0"
     inkscape:pagecheckerboard="0"
     inkscape:deskcolor="#d1d1d1"
     inkscape:document-units="mm"
     showgrid="false"
     inkscape:zoom="1.979605"
     inkscape:cx="300.565"
     inkscape:cy="996.41088"
     inkscape:window-width="1280"
     inkscape:window-height="747"
     inkscape:window-x="0"
     inkscape:window-y="25"
     inkscape:window-maximized="0"
     inkscape:current-layer="layer4"
     showguides="true"><sodipodi:guide
       position="20,297"
       orientation="-1,0"
       id="guide2689"
       inkscape:locked="false"
       inkscape:label=""
       inkscape:color="rgb(0,134,229)" /><sodipodi:guide
       position="0,87"
       orientation="0,1"
       id="guide8427"
       inkscape:locked="false"
       inkscape:label=""
       inkscape:color="rgb(0,134,229)" /><sodipodi:guide
       position="0,197"
       orientation="0,1"
       id="guide8431"
       inkscape:locked="false"
       inkscape:label=""
       inkscape:color="rgb(0,134,229)" /><sodipodi:guide
       position="0,177"
       orientation="0,1"
       id="guide8433"
       inkscape:locked="false"
       inkscape:label=""
       inkscape:color="rgb(0,134,229)" /><sodipodi:guide
       position="0,37"
       orientation="0,1"
       id="guide8439"
       inkscape:locked="false"
       inkscape:label=""
       inkscape:color="rgb(0,134,229)" /><sodipodi:guide
       position="0,267"
       orientation="0,1"
       id="guide2705"
       inkscape:locked="false"
       inkscape:label=""
       inkscape:color="rgb(0,134,229)" /><sodipodi:guide
       position="146.16209,197.00001"
       orientation="1,0"
       id="guide33568"
       inkscape:locked="false" /><sodipodi:guide
       position="90.719542,86.999999"
       orientation="1,0"
       id="guide33570"
       inkscape:locked="false" /><sodipodi:guide
       position="0,230"
       orientation="0,1"
       id="guide25821"
       inkscape:locked="false"
       inkscape:label=""
       inkscape:color="rgb(0,134,229)" /></sodipodi:namedview><defs
     id="defs2"><rect
       x="75.617217"
       y="914.93625"
       width="293.73984"
       height="37.144577"
       id="rect2000" /><rect
       x="75.590547"
       y="835.68905"
       width="267.47242"
       height="161.65615"
       id="rect1878" /><clipPath
       clipPathUnits="userSpaceOnUse"
       id="clipPath164"><path
         d="M 0,792 V 792 0 h 612 v 792 h -10e-4 z"
         id="path162" /></clipPath><linearGradient
       x1="0"
       y1="0"
       x2="1"
       y2="0"
       gradientUnits="userSpaceOnUse"
       gradientTransform="matrix(533.51898,924.08197,924.08197,-533.51898,39.240521,-66.040977)"
       spreadMethod="pad"
       id="linearGradient176"><stop
         style="stop-opacity:1;stop-color:#5e3197"
         offset="0"
         id="stop170" /><stop
         style="stop-opacity:1;stop-color:#3c2973"
         offset="0.175676"
         id="stop172" /><stop
         style="stop-opacity:1;stop-color:#171b3a"
         offset="1"
         id="stop174" /></linearGradient><clipPath
       clipPathUnits="userSpaceOnUse"
       id="clipPath382"><path
         d="M 6.16476,4.36115 H 188.229 V -16.7801 H 6.16476 Z"
         id="path380" /></clipPath><clipPath
       clipPathUnits="userSpaceOnUse"
       id="clipPath386"><path
         d="M 6.165,-16.78 H 188.229 V 4.361 H 6.165 Z"
         id="path384" /></clipPath><clipPath
       clipPathUnits="userSpaceOnUse"
       id="clipPath390"><path
         d="M 2.80174,11.0445 H 198.477 V -10.0983 H 2.80174 Z"
         id="path388" /></clipPath><clipPath
       clipPathUnits="userSpaceOnUse"
       id="clipPath394"><path
         d="M 2.802,-10.098 H 198.477 V 11.045 H 2.802 Z"
         id="path392" /></clipPath><clipPath
       clipPathUnits="userSpaceOnUse"
       id="clipPath398"><path
         d="M 0.07164,18.5058 H 205.853 V -2.63998 H 0.07164 Z"
         id="path396" /></clipPath><clipPath
       clipPathUnits="userSpaceOnUse"
       id="clipPath402"><path
         d="M 0.072,-2.64 H 205.853 V 18.506 H 0.072 Z"
         id="path400" /></clipPath><clipPath
       clipPathUnits="userSpaceOnUse"
       id="clipPath406"><path
         d="M 44.4642,26.4322 H 242.332 V 7.55006 H 44.4642 Z"
         id="path404" /></clipPath><clipPath
       clipPathUnits="userSpaceOnUse"
       id="clipPath410"><path
         d="M 44.464,7.55 H 242.332 V 26.432 H 44.464 Z"
         id="path408" /></clipPath><clipPath
       clipPathUnits="userSpaceOnUse"
       id="clipPath414"><path
         d="M -157.694,299.603 H 239.995 V 227.356 H -157.694 Z"
         id="path412" /></clipPath><clipPath
       clipPathUnits="userSpaceOnUse"
       id="clipPath418"><path
         d="m -157.694,227.356 h 397.689 v 72.247 h -397.689 z"
         id="path416" /></clipPath><clipPath
       clipPathUnits="userSpaceOnUse"
       id="clipPath422"><path
         d="M -157.694,306.283 H 226.265 V 234.036 H -157.694 Z"
         id="path420" /></clipPath><clipPath
       clipPathUnits="userSpaceOnUse"
       id="clipPath426"><path
         d="m -157.694,234.036 h 383.959 v 72.247 h -383.959 z"
         id="path424" /></clipPath><clipPath
       clipPathUnits="userSpaceOnUse"
       id="clipPath430"><path
         d="M -127.908,316.042 H 172.647 V 292.525 H -127.908 Z"
         id="path428" /></clipPath><clipPath
       clipPathUnits="userSpaceOnUse"
       id="clipPath434"><path
         d="m -127.908,292.525 h 300.555 v 23.517 h -300.555 z"
         id="path432" /></clipPath><clipPath
       clipPathUnits="userSpaceOnUse"
       id="clipPath438"><path
         d="M -131.269,322.724 H 158.915 V 299.207 H -131.269 Z"
         id="path436" /></clipPath><clipPath
       clipPathUnits="userSpaceOnUse"
       id="clipPath442"><path
         d="m -131.269,299.207 h 290.184 v 23.517 h -290.184 z"
         id="path440" /></clipPath><clipPath
       clipPathUnits="userSpaceOnUse"
       id="clipPath446"><path
         d="M -134.003,330.184 H 156.182 V 306.667 H -134.003 Z"
         id="path444" /></clipPath><clipPath
       clipPathUnits="userSpaceOnUse"
       id="clipPath450"><path
         d="m -134.003,306.667 h 290.185 v 23.517 h -290.185 z"
         id="path448" /></clipPath><clipPath
       clipPathUnits="userSpaceOnUse"
       id="clipPath454"><path
         d="M -254.922,262.318 H 14.1715 V 239.999 H -254.922 Z"
         id="path452" /></clipPath><clipPath
       clipPathUnits="userSpaceOnUse"
       id="clipPath458"><path
         d="M -254.922,239.999 H 14.172 v 22.319 h -269.094 z"
         id="path456" /></clipPath><clipPath
       clipPathUnits="userSpaceOnUse"
       id="clipPath462"><path
         d="M -258.283,269.001 H 23.6712 V 247.743 H -258.283 Z"
         id="path460" /></clipPath><clipPath
       clipPathUnits="userSpaceOnUse"
       id="clipPath466"><path
         d="M -258.283,247.743 H 23.671 v 21.258 h -281.954 z"
         id="path464" /></clipPath><clipPath
       clipPathUnits="userSpaceOnUse"
       id="clipPath470"><path
         d="M -261.017,278.723 H 35.5676 V 255.206 H -261.017 Z"
         id="path468" /></clipPath><clipPath
       clipPathUnits="userSpaceOnUse"
       id="clipPath474"><path
         d="M -261.017,255.206 H 35.568 v 23.517 h -296.585 z"
         id="path472" /></clipPath><clipPath
       clipPathUnits="userSpaceOnUse"
       id="clipPath478"><path
         d="M -193.67,305.962 H 4.19577 V 287.08 H -193.67 Z"
         id="path476" /></clipPath><clipPath
       clipPathUnits="userSpaceOnUse"
       id="clipPath482"><path
         d="M -193.67,287.08 H 4.196 v 18.882 H -193.67 Z"
         id="path480" /></clipPath><clipPath
       clipPathUnits="userSpaceOnUse"
       id="clipPath486"><path
         d="M -57.5514,76.257 H 346.056 V 54.092 H -57.5514 Z"
         id="path484" /></clipPath><clipPath
       clipPathUnits="userSpaceOnUse"
       id="clipPath490"><path
         d="M -57.551,54.092 H 346.056 V 76.257 H -57.551 Z"
         id="path488" /></clipPath><clipPath
       clipPathUnits="userSpaceOnUse"
       id="clipPath494"><path
         d="M -84.5835,82.9388 H 335.524 V 61.6834 H -84.5835 Z"
         id="path492" /></clipPath><clipPath
       clipPathUnits="userSpaceOnUse"
       id="clipPath498"><path
         d="M -84.583,61.683 H 335.524 V 82.938 H -84.583 Z"
         id="path496" /></clipPath><clipPath
       clipPathUnits="userSpaceOnUse"
       id="clipPath502"><path
         d="M -54.5924,91.7528 H 329.679 V 68.2354 H -54.5924 Z"
         id="path500" /></clipPath><clipPath
       clipPathUnits="userSpaceOnUse"
       id="clipPath506"><path
         d="M -54.592,68.235 H 329.679 V 91.752 H -54.592 Z"
         id="path504" /></clipPath><clipPath
       clipPathUnits="userSpaceOnUse"
       id="clipPath510"><path
         d="m -142.438,53.657 h 553.22 V 12.9952 h -553.22 z"
         id="path508" /></clipPath><clipPath
       clipPathUnits="userSpaceOnUse"
       id="clipPath514"><path
         d="m -142.438,12.995 h 553.22 v 40.662 h -553.22 z"
         id="path512" /></clipPath><clipPath
       clipPathUnits="userSpaceOnUse"
       id="clipPath518"><path
         d="M -145.798,60.3448 H 164.95 V 36.8242 h -310.748 z"
         id="path516" /></clipPath><clipPath
       clipPathUnits="userSpaceOnUse"
       id="clipPath522"><path
         d="M -145.798,36.824 H 164.95 v 23.521 h -310.748 z"
         id="path520" /></clipPath><clipPath
       clipPathUnits="userSpaceOnUse"
       id="clipPath526"><path
         d="M -148.531,67.8032 H 149.102 V 44.2855 h -297.633 z"
         id="path524" /></clipPath><clipPath
       clipPathUnits="userSpaceOnUse"
       id="clipPath530"><path
         d="M -148.531,44.286 H 149.102 V 67.804 H -148.531 Z"
         id="path528" /></clipPath><clipPath
       clipPathUnits="userSpaceOnUse"
       id="clipPath534"><path
         d="M -13.2085,628.688 H 287.346 V 602.909 H -13.2085 Z"
         id="path532" /></clipPath><clipPath
       clipPathUnits="userSpaceOnUse"
       id="clipPath538"><path
         d="m -13.208,602.909 h 300.555 v 25.779 H -13.208 Z"
         id="path536" /></clipPath><clipPath
       clipPathUnits="userSpaceOnUse"
       id="clipPath542"><path
         d="M -16.5695,635.372 H 273.613 V 611.855 H -16.5695 Z"
         id="path540" /></clipPath><clipPath
       clipPathUnits="userSpaceOnUse"
       id="clipPath546"><path
         d="m -16.57,611.855 h 290.182 v 23.517 H -16.57 Z"
         id="path544" /></clipPath><clipPath
       clipPathUnits="userSpaceOnUse"
       id="clipPath550"><path
         d="M -19.3045,642.832 H 270.883 V 619.313 H -19.3045 Z"
         id="path548" /></clipPath><clipPath
       clipPathUnits="userSpaceOnUse"
       id="clipPath554"><path
         d="m -19.305,619.313 h 290.187 v 23.519 H -19.305 Z"
         id="path552" /></clipPath><clipPath
       clipPathUnits="userSpaceOnUse"
       id="clipPath558"><path
         d="M -206.54,352.504 H 62.5529 v -37.42 H -206.54 Z"
         id="path556" /></clipPath><clipPath
       clipPathUnits="userSpaceOnUse"
       id="clipPath562"><path
         d="M -206.54,315.084 H 62.553 v 37.42 H -206.54 Z"
         id="path560" /></clipPath><clipPath
       clipPathUnits="userSpaceOnUse"
       id="clipPath566"><path
         d="M -209.901,359.187 H 72.0526 V 327.105 H -209.901 Z"
         id="path564" /></clipPath><clipPath
       clipPathUnits="userSpaceOnUse"
       id="clipPath570"><path
         d="M -209.901,327.105 H 72.053 v 32.082 h -281.954 z"
         id="path568" /></clipPath><clipPath
       clipPathUnits="userSpaceOnUse"
       id="clipPath574"><path
         d="M -212.635,368.908 H 104.187 V 345.392 H -212.635 Z"
         id="path572" /></clipPath><clipPath
       clipPathUnits="userSpaceOnUse"
       id="clipPath578"><path
         d="m -212.635,345.392 h 316.822 v 23.516 h -316.822 z"
         id="path576" /></clipPath><clipPath
       clipPathUnits="userSpaceOnUse"
       id="clipPath582"><path
         d="M -186.949,380.761 H 8.72185 V 359.618 H -186.949 Z"
         id="path580" /></clipPath><clipPath
       clipPathUnits="userSpaceOnUse"
       id="clipPath586"><path
         d="M -186.949,359.618 H 8.722 v 21.143 h -195.671 z"
         id="path584" /></clipPath><clipPath
       clipPathUnits="userSpaceOnUse"
       id="clipPath590"><path
         d="M -189.683,388.222 H 16.0971 V 367.079 H -189.683 Z"
         id="path588" /></clipPath><clipPath
       clipPathUnits="userSpaceOnUse"
       id="clipPath594"><path
         d="m -189.683,367.079 h 205.78 v 21.143 h -205.78 z"
         id="path592" /></clipPath><clipPath
       clipPathUnits="userSpaceOnUse"
       id="clipPath598"><path
         d="M -78.9721,618.609 H 118.895 V 599.728 H -78.9721 Z"
         id="path596" /></clipPath><clipPath
       clipPathUnits="userSpaceOnUse"
       id="clipPath602"><path
         d="m -78.972,599.728 h 197.867 v 18.881 H -78.972 Z"
         id="path600" /></clipPath><clipPath
       clipPathUnits="userSpaceOnUse"
       id="clipPath1288"><g
         id="g1294"><g
           id="g1292"><path
             d="M -3.65986e-4,8.24e-6 H 215.89962 V 279.40001 H -3.65986e-4 Z"
             id="path1290"
             style="stroke-width:0.352778" /></g></g></clipPath><clipPath
       clipPathUnits="userSpaceOnUse"
       id="clipPath1348"><g
         id="g1354"><g
           id="g1352"><path
             d="M -3.65986e-4,8.24e-6 H 215.89962 V 279.40001 H -3.65986e-4 Z"
             id="path1350"
             style="stroke-width:0.352778" /></g></g></clipPath><clipPath
       clipPathUnits="userSpaceOnUse"
       id="clipPath1318"><g
         id="g1324"><g
           id="g1322"><path
             d="M -3.65986e-4,8.24e-6 H 215.89962 V 279.40001 H -3.65986e-4 Z"
             id="path1320"
             style="stroke-width:0.352778" /></g></g></clipPath><clipPath
       clipPathUnits="userSpaceOnUse"
       id="clipPath1258"><g
         id="g1264"><g
           id="g1262"><path
             d="M -3.65986e-4,8.24e-6 H 215.89962 V 279.40001 H -3.65986e-4 Z"
             id="path1260"
             style="stroke-width:0.352778" /></g></g></clipPath><clipPath
       clipPathUnits="userSpaceOnUse"
       id="clipPath1213"><g
         id="g1219"><g
           id="g1217"><path
             d="M -3.65986e-4,8.24e-6 H 215.89962 V 279.40001 H -3.65986e-4 Z"
             id="path1215"
             style="stroke-width:0.352778" /></g></g></clipPath><clipPath
       clipPathUnits="userSpaceOnUse"
       id="clipPath1303"><g
         id="g1309"><g
           id="g1307"><path
             d="M -3.65986e-4,8.24e-6 H 215.89962 V 279.40001 H -3.65986e-4 Z"
             id="path1305"
             style="stroke-width:0.352778" /></g></g></clipPath><clipPath
       clipPathUnits="userSpaceOnUse"
       id="clipPath1333"><g
         id="g1339"><g
           id="g1337"><path
             d="M -3.65986e-4,8.24e-6 H 215.89962 V 279.40001 H -3.65986e-4 Z"
             id="path1335"
             style="stroke-width:0.352778" /></g></g></clipPath><clipPath
       clipPathUnits="userSpaceOnUse"
       id="clipPath1228"><g
         id="g1234"><g
           id="g1232"><path
             d="M -3.65986e-4,8.24e-6 H 215.89962 V 279.40001 H -3.65986e-4 Z"
             id="path1230"
             style="stroke-width:0.352778" /></g></g></clipPath><clipPath
       clipPathUnits="userSpaceOnUse"
       id="clipPath1243"><g
         id="g1249"><g
           id="g1247"><path
             d="M -3.65986e-4,8.24e-6 H 215.89962 V 279.40001 H -3.65986e-4 Z"
             id="path1245"
             style="stroke-width:0.352778" /></g></g></clipPath><clipPath
       clipPathUnits="userSpaceOnUse"
       id="clipPath1183"><g
         id="g1189"><g
           id="g1187"><path
             d="M -3.65986e-4,8.24e-6 H 215.89962 V 279.40001 H -3.65986e-4 Z"
             id="path1185"
             style="stroke-width:0.352778" /></g></g></clipPath><clipPath
       clipPathUnits="userSpaceOnUse"
       id="clipPath1198"><g
         id="g1204"><g
           id="g1202"><path
             d="M -3.65986e-4,8.24e-6 H 215.89962 V 279.40001 H -3.65986e-4 Z"
             id="path1200"
             style="stroke-width:0.352778" /></g></g></clipPath><clipPath
       clipPathUnits="userSpaceOnUse"
       id="clipPath1168"><g
         id="g1174"><g
           id="g1172"><path
             d="M -3.65986e-4,8.24e-6 H 215.89962 V 279.40001 H -3.65986e-4 Z"
             id="path1170"
             style="stroke-width:0.352778" /></g></g></clipPath><clipPath
       clipPathUnits="userSpaceOnUse"
       id="clipPath1108"><g
         id="g1114"><g
           id="g1112"><path
             d="M -3.65986e-4,8.24e-6 H 215.89962 V 279.40001 H -3.65986e-4 Z"
             id="path1110"
             style="stroke-width:0.352778" /></g></g></clipPath><clipPath
       clipPathUnits="userSpaceOnUse"
       id="clipPath1123"><g
         id="g1129"><g
           id="g1127"><path
             d="M -3.65986e-4,8.24e-6 H 215.89962 V 279.40001 H -3.65986e-4 Z"
             id="path1125"
             style="stroke-width:0.352778" /></g></g></clipPath><clipPath
       clipPathUnits="userSpaceOnUse"
       id="clipPath1138"><g
         id="g1144"><g
           id="g1142"><path
             d="M -3.65986e-4,8.24e-6 H 215.89962 V 279.40001 H -3.65986e-4 Z"
             id="path1140"
             style="stroke-width:0.352778" /></g></g></clipPath><clipPath
       clipPathUnits="userSpaceOnUse"
       id="clipPath1153"><g
         id="g1159"><g
           id="g1157"><path
             d="M -3.65986e-4,8.24e-6 H 215.89962 V 279.40001 H -3.65986e-4 Z"
             id="path1155"
             style="stroke-width:0.352778" /></g></g></clipPath><clipPath
       clipPathUnits="userSpaceOnUse"
       id="clipPath1273"><g
         id="g1279"><g
           id="g1277"><path
             d="M -3.65986e-4,8.24e-6 H 215.89962 V 279.40001 H -3.65986e-4 Z"
             id="path1275"
             style="stroke-width:0.352778" /></g></g></clipPath><clipPath
       clipPathUnits="userSpaceOnUse"
       id="clipPath28245"><g
         id="g28259"
         transform="matrix(2.8900097,0,0,-2.8346456,0.67054904,840.8135)"><g
           id="g28257"><g
             id="g28255"><g
               id="g28253"><g
                 id="g28251"><g
                   id="g28249"><path
                     d="M -0.23202311,296.62033 H 211.53197 V 17.22032 H -0.23202311 Z"
                     id="path28247"
                     style="stroke-width:0.349382" /></g></g></g></g></g></g></clipPath><clipPath
       clipPathUnits="userSpaceOnUse"
       id="clipPath28261"><g
         id="g28275"
         transform="matrix(2.8900097,0,0,-2.8346456,0.67054904,840.8135)"><g
           id="g28273"><g
             id="g28271"><g
               id="g28269"><g
                 id="g28267"><g
                   id="g28265"><path
                     d="M -0.23202311,296.62033 H 211.53197 V 17.22032 H -0.23202311 Z"
                     id="path28263"
                     style="stroke-width:0.349382" /></g></g></g></g></g></g></clipPath><clipPath
       clipPathUnits="userSpaceOnUse"
       id="clipPath28277"><g
         id="g28291"
         transform="matrix(2.8900097,0,0,-2.8346456,0.67054904,840.8135)"><g
           id="g28289"><g
             id="g28287"><g
               id="g28285"><g
                 id="g28283"><g
                   id="g28281"><path
                     d="M -0.23202311,296.62033 H 211.53197 V 17.22032 H -0.23202311 Z"
                     id="path28279"
                     style="stroke-width:0.349382" /></g></g></g></g></g></g></clipPath><clipPath
       clipPathUnits="userSpaceOnUse"
       id="clipPath28293"><g
         id="g28307"
         transform="matrix(2.8900097,0,0,-2.8346456,0.67054904,840.8135)"><g
           id="g28305"><g
             id="g28303"><g
               id="g28301"><g
                 id="g28299"><g
                   id="g28297"><path
                     d="M -0.23202311,296.62033 H 211.53197 V 17.22032 H -0.23202311 Z"
                     id="path28295"
                     style="stroke-width:0.349382" /></g></g></g></g></g></g></clipPath><clipPath
       clipPathUnits="userSpaceOnUse"
       id="clipPath28309"><g
         id="g28323"
         transform="matrix(2.8900097,0,0,-2.8346456,0.67054904,840.8135)"><g
           id="g28321"><g
             id="g28319"><g
               id="g28317"><g
                 id="g28315"><g
                   id="g28313"><path
                     d="M -0.23202311,296.62033 H 211.53197 V 17.22032 H -0.23202311 Z"
                     id="path28311"
                     style="stroke-width:0.349382" /></g></g></g></g></g></g></clipPath><clipPath
       clipPathUnits="userSpaceOnUse"
       id="clipPath28325"><g
         id="g28339"
         transform="matrix(2.8900097,0,0,-2.8346456,0.67054904,840.8135)"><g
           id="g28337"><g
             id="g28335"><g
               id="g28333"><g
                 id="g28331"><g
                   id="g28329"><path
                     d="M -0.23202311,296.62033 H 211.53197 V 17.22032 H -0.23202311 Z"
                     id="path28327"
                     style="stroke-width:0.349382" /></g></g></g></g></g></g></clipPath><clipPath
       clipPathUnits="userSpaceOnUse"
       id="clipPath28341"><g
         id="g28355"
         transform="matrix(2.8900097,0,0,-2.8346456,0.67054904,840.8135)"><g
           id="g28353"><g
             id="g28351"><g
               id="g28349"><g
                 id="g28347"><g
                   id="g28345"><path
                     d="M -0.23202311,296.62033 H 211.53197 V 17.22032 H -0.23202311 Z"
                     id="path28343"
                     style="stroke-width:0.349382" /></g></g></g></g></g></g></clipPath><clipPath
       clipPathUnits="userSpaceOnUse"
       id="clipPath28357"><g
         id="g28371"
         transform="matrix(2.8900097,0,0,-2.8346456,0.67054904,840.8135)"><g
           id="g28369"><g
             id="g28367"><g
               id="g28365"><g
                 id="g28363"><g
                   id="g28361"><path
                     d="M -0.23202311,296.62033 H 211.53197 V 17.22032 H -0.23202311 Z"
                     id="path28359"
                     style="stroke-width:0.349382" /></g></g></g></g></g></g></clipPath><clipPath
       clipPathUnits="userSpaceOnUse"
       id="clipPath28373"><g
         id="g28387"
         transform="matrix(2.8900097,0,0,-2.8346456,0.67054904,840.8135)"><g
           id="g28385"><g
             id="g28383"><g
               id="g28381"><g
                 id="g28379"><g
                   id="g28377"><path
                     d="M -0.23202311,296.62033 H 211.53197 V 17.22032 H -0.23202311 Z"
                     id="path28375"
                     style="stroke-width:0.349382" /></g></g></g></g></g></g></clipPath><clipPath
       clipPathUnits="userSpaceOnUse"
       id="clipPath28389"><g
         id="g28403"
         transform="matrix(2.8900097,0,0,-2.8346456,0.67054904,840.8135)"><g
           id="g28401"><g
             id="g28399"><g
               id="g28397"><g
                 id="g28395"><g
                   id="g28393"><path
                     d="M -0.23202311,296.62033 H 211.53197 V 17.22032 H -0.23202311 Z"
                     id="path28391"
                     style="stroke-width:0.349382" /></g></g></g></g></g></g></clipPath><clipPath
       clipPathUnits="userSpaceOnUse"
       id="clipPath28405"><g
         id="g28419"
         transform="matrix(2.8900097,0,0,-2.8346456,0.67054904,840.8135)"><g
           id="g28417"><g
             id="g28415"><g
               id="g28413"><g
                 id="g28411"><g
                   id="g28409"><path
                     d="M -0.23202311,296.62033 H 211.53197 V 17.22032 H -0.23202311 Z"
                     id="path28407"
                     style="stroke-width:0.349382" /></g></g></g></g></g></g></clipPath><clipPath
       clipPathUnits="userSpaceOnUse"
       id="clipPath28421"><g
         id="g28435"
         transform="matrix(2.8900097,0,0,-2.8346456,0.67054904,840.8135)"><g
           id="g28433"><g
             id="g28431"><g
               id="g28429"><g
                 id="g28427"><g
                   id="g28425"><path
                     d="M -0.23202311,296.62033 H 211.53197 V 17.22032 H -0.23202311 Z"
                     id="path28423"
                     style="stroke-width:0.349382" /></g></g></g></g></g></g></clipPath><clipPath
       clipPathUnits="userSpaceOnUse"
       id="clipPath28437"><g
         id="g28451"
         transform="matrix(2.8900097,0,0,-2.8346456,0.67054904,840.8135)"><g
           id="g28449"><g
             id="g28447"><g
               id="g28445"><g
                 id="g28443"><g
                   id="g28441"><path
                     d="M -0.23202311,296.62033 H 211.53197 V 17.22032 H -0.23202311 Z"
                     id="path28439"
                     style="stroke-width:0.349382" /></g></g></g></g></g></g></clipPath><clipPath
       clipPathUnits="userSpaceOnUse"
       id="clipPath28453"><g
         id="g28467"
         transform="matrix(2.8900097,0,0,-2.8346456,0.67054904,840.8135)"><g
           id="g28465"><g
             id="g28463"><g
               id="g28461"><g
                 id="g28459"><g
                   id="g28457"><path
                     d="M -0.23202311,296.62033 H 211.53197 V 17.22032 H -0.23202311 Z"
                     id="path28455"
                     style="stroke-width:0.349382" /></g></g></g></g></g></g></clipPath><clipPath
       clipPathUnits="userSpaceOnUse"
       id="clipPath28469"><g
         id="g28483"
         transform="matrix(2.8900097,0,0,-2.8346456,0.67054904,840.8135)"><g
           id="g28481"><g
             id="g28479"><g
               id="g28477"><g
                 id="g28475"><g
                   id="g28473"><path
                     d="M -0.23202311,296.62033 H 211.53197 V 17.22032 H -0.23202311 Z"
                     id="path28471"
                     style="stroke-width:0.349382" /></g></g></g></g></g></g></clipPath><clipPath
       clipPathUnits="userSpaceOnUse"
       id="clipPath28485"><g
         id="g28499"
         transform="matrix(2.8900097,0,0,-2.8346456,0.67054904,840.8135)"><g
           id="g28497"><g
             id="g28495"><g
               id="g28493"><g
                 id="g28491"><g
                   id="g28489"><path
                     d="M -0.23202311,296.62033 H 211.53197 V 17.22032 H -0.23202311 Z"
                     id="path28487"
                     style="stroke-width:0.349382" /></g></g></g></g></g></g></clipPath><clipPath
       clipPathUnits="userSpaceOnUse"
       id="clipPath28501"><g
         id="g28515"
         transform="matrix(2.8900097,0,0,-2.8346456,0.67054904,840.8135)"><g
           id="g28513"><g
             id="g28511"><g
               id="g28509"><g
                 id="g28507"><g
                   id="g28505"><path
                     d="M -0.23202311,296.62033 H 211.53197 V 17.22032 H -0.23202311 Z"
                     id="path28503"
                     style="stroke-width:0.349382" /></g></g></g></g></g></g></clipPath><clipPath
       clipPathUnits="userSpaceOnUse"
       id="clipPath28517"><g
         id="g28531"
         transform="matrix(2.8900097,0,0,-2.8346456,0.67054904,840.8135)"><g
           id="g28529"><g
             id="g28527"><g
               id="g28525"><g
                 id="g28523"><g
                   id="g28521"><path
                     d="M -0.23202311,296.62033 H 211.53197 V 17.22032 H -0.23202311 Z"
                     id="path28519"
                     style="stroke-width:0.349382" /></g></g></g></g></g></g></clipPath><clipPath
       clipPathUnits="userSpaceOnUse"
       id="clipPath28533"><g
         id="g28547"
         transform="matrix(2.8900097,0,0,-2.8346456,0.67054904,840.8135)"><g
           id="g28545"><g
             id="g28543"><g
               id="g28541"><g
                 id="g28539"><g
                   id="g28537"><path
                     d="M -0.23202311,296.62033 H 211.53197 V 17.22032 H -0.23202311 Z"
                     id="path28535"
                     style="stroke-width:0.349382" /></g></g></g></g></g></g></clipPath><clipPath
       clipPathUnits="userSpaceOnUse"
       id="clipPath28549"><g
         id="g28563"
         transform="matrix(2.8900097,0,0,-2.8346456,0.67054904,840.8135)"><g
           id="g28561"><g
             id="g28559"><g
               id="g28557"><g
                 id="g28555"><g
                   id="g28553"><path
                     d="M -0.23202311,296.62033 H 211.53197 V 17.22032 H -0.23202311 Z"
                     id="path28551"
                     style="stroke-width:0.349382" /></g></g></g></g></g></g></clipPath><clipPath
       clipPathUnits="userSpaceOnUse"
       id="clipPath28565"><g
         id="g28579"
         transform="matrix(2.8900097,0,0,-2.8346456,0.67054904,840.8135)"><g
           id="g28577"><g
             id="g28575"><g
               id="g28573"><g
                 id="g28571"><g
                   id="g28569"><path
                     d="M -0.23202311,296.62033 H 211.53197 V 17.22032 H -0.23202311 Z"
                     id="path28567"
                     style="stroke-width:0.349382" /></g></g></g></g></g></g></clipPath><clipPath
       clipPathUnits="userSpaceOnUse"
       id="clipPath28581"><g
         id="g28595"
         transform="matrix(2.8900097,0,0,-2.8346456,0.67054904,840.8135)"><g
           id="g28593"><g
             id="g28591"><g
               id="g28589"><g
                 id="g28587"><g
                   id="g28585"><path
                     d="M -0.23202311,296.62033 H 211.53197 V 17.22032 H -0.23202311 Z"
                     id="path28583"
                     style="stroke-width:0.349382" /></g></g></g></g></g></g></clipPath><clipPath
       clipPathUnits="userSpaceOnUse"
       id="clipPath28597"><g
         id="g28611"
         transform="matrix(2.8900097,0,0,-2.8346456,0.67054904,840.8135)"><g
           id="g28609"><g
             id="g28607"><g
               id="g28605"><g
                 id="g28603"><g
                   id="g28601"><path
                     d="M -0.23202311,296.62033 H 211.53197 V 17.22032 H -0.23202311 Z"
                     id="path28599"
                     style="stroke-width:0.349382" /></g></g></g></g></g></g></clipPath><clipPath
       clipPathUnits="userSpaceOnUse"
       id="clipPath28613"><g
         id="g28627"
         transform="matrix(2.8900097,0,0,-2.8346456,0.67054904,840.8135)"><g
           id="g28625"><g
             id="g28623"><g
               id="g28621"><g
                 id="g28619"><g
                   id="g28617"><path
                     d="M -0.23202311,296.62033 H 211.53197 V 17.22032 H -0.23202311 Z"
                     id="path28615"
                     style="stroke-width:0.349382" /></g></g></g></g></g></g></clipPath><clipPath
       clipPathUnits="userSpaceOnUse"
       id="clipPath28629"><g
         id="g28643"
         transform="matrix(2.8900097,0,0,-2.8346456,0.67054904,840.8135)"><g
           id="g28641"><g
             id="g28639"><g
               id="g28637"><g
                 id="g28635"><g
                   id="g28633"><path
                     d="M -0.23202311,296.62033 H 211.53197 V 17.22032 H -0.23202311 Z"
                     id="path28631"
                     style="stroke-width:0.349382" /></g></g></g></g></g></g></clipPath><clipPath
       clipPathUnits="userSpaceOnUse"
       id="clipPath28645"><g
         id="g28659"
         transform="matrix(2.8900097,0,0,-2.8346456,0.67054904,840.8135)"><g
           id="g28657"><g
             id="g28655"><g
               id="g28653"><g
                 id="g28651"><g
                   id="g28649"><path
                     d="M -0.23202311,296.62033 H 211.53197 V 17.22032 H -0.23202311 Z"
                     id="path28647"
                     style="stroke-width:0.349382" /></g></g></g></g></g></g></clipPath><clipPath
       clipPathUnits="userSpaceOnUse"
       id="clipPath28661"><g
         id="g28675"
         transform="matrix(2.8900097,0,0,-2.8346456,0.67054904,840.8135)"><g
           id="g28673"><g
             id="g28671"><g
               id="g28669"><g
                 id="g28667"><g
                   id="g28665"><path
                     d="M -0.23202311,296.62033 H 211.53197 V 17.22032 H -0.23202311 Z"
                     id="path28663"
                     style="stroke-width:0.349382" /></g></g></g></g></g></g></clipPath><clipPath
       clipPathUnits="userSpaceOnUse"
       id="clipPath28677"><g
         id="g28691"
         transform="matrix(2.8900097,0,0,-2.8346456,0.67054904,840.8135)"><g
           id="g28689"><g
             id="g28687"><g
               id="g28685"><g
                 id="g28683"><g
                   id="g28681"><path
                     d="M -0.23202311,296.62033 H 211.53197 V 17.22032 H -0.23202311 Z"
                     id="path28679"
                     style="stroke-width:0.349382" /></g></g></g></g></g></g></clipPath></defs><g
     inkscape:groupmode="layer"
     id="layer1"
     inkscape:label="Background"
     sodipodi:insensitive="true"><g
       id="g158"
       transform="matrix(0.34313725,0,0,-0.375,2.0113946e-5,297)"><g
         id="g160"
         clip-path="url(#clipPath164)"
         transform="translate(-5.8617787e-5)"><g
           id="g166"><g
             id="g168"><path
               d="M 0,792 V 792 0 h 612 v 792 h -10e-4 z"
               style="fill:url(#linearGradient176);stroke:none"
               id="path178" /></g></g></g></g></g><g
     inkscape:groupmode="layer"
     id="layer3"
     inkscape:label="Box Bitcoin Logo &amp; Text"
     style="display:inline"
     sodipodi:insensitive="true"><g
       id="g292"
       transform="matrix(0.35277777,0,0,-0.35277777,48.064626,29.534775)" /><g
       id="g1465"
       transform="translate(-157.69855,0.5006747)"><path
         d="m 190.7387,16.26451 c 0.0215,0.09631 0.049,0.232128 0.0825,0.408164 0.0339,0.176389 0.0699,0.370417 0.10689,0.58173 0.0374,0.211667 0.0755,0.428978 0.11465,0.651228 0.0395,0.22225 0.0748,0.425803 0.1069,0.611011 0.121,-0.185208 0.25258,-0.384175 0.39475,-0.597605 0.14253,-0.213431 0.28293,-0.423334 0.42157,-0.629709 0.139,-0.206375 0.27058,-0.399344 0.39511,-0.579261 0.12418,-0.179564 0.23107,-0.328083 0.32033,-0.445558 h 0.73624 c -0.025,0.245533 -0.0579,0.521053 -0.0984,0.827264 -0.0413,0.305858 -0.0878,0.622653 -0.139,0.95003 -0.0519,0.327025 -0.10583,0.656167 -0.16298,0.987073 -0.0568,0.330905 -0.11359,0.642408 -0.17039,0.933802 h -0.81139 c 0.0748,-0.362655 0.15381,-0.754944 0.23777,-1.176513 0.0833,-0.42157 0.16087,-0.847725 0.23178,-1.278114 -0.0924,0.14605 -0.19579,0.30868 -0.30939,0.488244 -0.11395,0.179917 -0.22789,0.361245 -0.34149,0.544336 -0.11394,0.183445 -0.22436,0.358422 -0.3309,0.525639 -0.10689,0.167217 -0.19932,0.309386 -0.27764,0.426861 h -0.60819 c -0.018,-0.106539 -0.0392,-0.242005 -0.0642,-0.405694 -0.025,-0.163336 -0.0526,-0.336903 -0.0825,-0.520347 -0.0303,-0.183092 -0.0614,-0.367948 -0.0935,-0.55492 -0.0321,-0.186619 -0.0624,-0.354894 -0.091,-0.504119 -0.13828,0.430389 -0.26387,0.856544 -0.37606,1.278114 -0.11183,0.421569 -0.2159,0.813858 -0.3122,1.176513 h -0.80575 c 0.0818,-0.291394 0.17145,-0.602897 0.26952,-0.933802 0.0977,-0.330906 0.19897,-0.660753 0.3041,-0.989895 0.10513,-0.329141 0.20919,-0.646641 0.31221,-0.9525 0.10336,-0.306211 0.20108,-0.579966 0.29351,-0.821972 z"
         style="fill:#ffffff;fill-opacity:1;fill-rule:nonzero;stroke:none;stroke-width:0.352778"
         id="path22932"
         clip-path="url(#clipPath1288)" /><path
         d="m 194.04737,19.962821 h -0.78987 l 0.6671,-2.807053 h 0.79516 z m 0.38417,-3.148542 c -0.11041,0 -0.2099,-0.03281 -0.2988,-0.09878 -0.0889,-0.06597 -0.13335,-0.166159 -0.13335,-0.301625 0,-0.07444 0.0148,-0.144992 0.0452,-0.210609 0.0303,-0.06597 0.0702,-0.122766 0.12029,-0.170744 0.0497,-0.04798 0.1076,-0.08643 0.17322,-0.115006 0.066,-0.02822 0.13617,-0.04233 0.21096,-0.04233 0.11007,0 0.2099,0.03281 0.2988,0.09843 0.0889,0.06597 0.13335,0.166511 0.13335,0.301625 0,0.07479 -0.0152,0.144992 -0.0451,0.210608 -0.0303,0.06597 -0.0706,0.122767 -0.11995,0.170745 -0.0501,0.04833 -0.10795,0.08643 -0.17392,0.115005 -0.0656,0.02858 -0.13582,0.04269 -0.21061,0.04269"
         style="fill:#ffffff;fill-opacity:1;fill-rule:nonzero;stroke:none;stroke-width:0.352778"
         id="path22936"
         clip-path="url(#clipPath1348)" /><path
         d="m 189.5219,20.933948 c 0.22401,0 0.4258,0.02399 0.60572,0.07232 0.17956,0.04763 0.33161,0.117123 0.45614,0.208139 0.12453,0.09066 0.22084,0.201789 0.28822,0.333375 0.0674,0.131586 0.10125,0.2794 0.10125,0.443089 0,0.2667 -0.0515,0.492478 -0.15452,0.677686 -0.10336,0.184856 -0.24589,0.334434 -0.42686,0.448028 -0.18168,0.113947 -0.39476,0.195792 -0.64064,0.245533 -0.24554,0.04974 -0.51224,0.07479 -0.80046,0.07479 h -0.20814 l -0.2988,1.23825 h -0.82691 l 0.8696,-3.6449 c 0.19191,-0.03563 0.37429,-0.06068 0.54716,-0.07479 0.17215,-0.01411 0.33513,-0.02152 0.48824,-0.02152 m -0.0691,0.699206 c -0.0607,0 -0.11254,0.0018 -0.15523,0.0053 -0.0427,0.0035 -0.0854,0.0071 -0.1277,0.01058 l -0.25647,1.088672 h 0.20814 c 0.14958,0 0.28575,-0.01129 0.40816,-0.03457 0.12277,-0.02328 0.2279,-0.06138 0.31503,-0.114653 0.0871,-0.05327 0.15487,-0.122061 0.20285,-0.205317 0.048,-0.08361 0.072,-0.185914 0.072,-0.307269 0,-0.159809 -0.0579,-0.273756 -0.17357,-0.341136 -0.11536,-0.06773 -0.28011,-0.1016 -0.49318,-0.1016"
         style="fill:#ffffff;fill-opacity:1;fill-rule:nonzero;stroke:none;stroke-width:0.352778"
         id="path22940"
         clip-path="url(#clipPath1318)" /><path
         d="m 192.77197,22.551116 c -0.0709,-0.01799 -0.14111,-0.03493 -0.21061,-0.0508 -0.0695,-0.01588 -0.1718,-0.02399 -0.30691,-0.02399 -0.0497,0 -0.10513,0.0046 -0.16546,0.01341 -0.0603,0.0088 -0.11006,0.0187 -0.14922,0.02928 l -0.51788,2.156178 h -0.79516 l 0.64029,-2.657828 c 0.15311,-0.04974 0.32456,-0.09701 0.51506,-0.141464 0.19014,-0.04445 0.40498,-0.06668 0.64346,-0.06668 0.0889,0 0.18733,0.0081 0.29563,0.02399 0.10866,0.01623 0.20391,0.04198 0.28575,0.07761 z"
         style="fill:#ffffff;fill-opacity:1;fill-rule:nonzero;stroke:none;stroke-width:0.352778"
         id="path22944"
         clip-path="url(#clipPath1258)" /><path
         d="m 193.503,24.675015 h -0.78987 l 0.6671,-2.807053 h 0.79516 z m 0.38417,-3.148542 c -0.11041,0 -0.2099,-0.03281 -0.2988,-0.09878 -0.0889,-0.06597 -0.13335,-0.166159 -0.13335,-0.301625 0,-0.07479 0.0148,-0.144992 0.0452,-0.210609 0.0303,-0.06597 0.0702,-0.122766 0.12029,-0.170744 0.0497,-0.04798 0.1076,-0.08643 0.17322,-0.115006 0.066,-0.02822 0.13617,-0.04233 0.21096,-0.04233 0.11007,0 0.2099,0.03281 0.2988,0.09843 0.0893,0.06597 0.13371,0.166511 0.13371,0.301625 0,0.07479 -0.0155,0.144992 -0.0455,0.210961 -0.0303,0.06562 -0.0706,0.122414 -0.11995,0.170392 -0.0501,0.04833 -0.10795,0.08643 -0.17356,0.115005 -0.066,0.02858 -0.13618,0.04269 -0.21097,0.04269"
         style="fill:#ffffff;fill-opacity:1;fill-rule:nonzero;stroke:none;stroke-width:0.352778"
         id="path22948"
         clip-path="url(#clipPath1213)" /><path
         d="m 194.65577,21.996126 c 0.0603,-0.01799 0.12524,-0.0381 0.19473,-0.06138 0.0691,-0.02328 0.14746,-0.04445 0.23495,-0.06421 0.0871,-0.0194 0.18486,-0.03563 0.29351,-0.04798 0.10831,-0.01235 0.2339,-0.0187 0.37607,-0.0187 0.17074,0 0.3122,0.02152 0.42403,0.06421 0.11254,0.04269 0.21449,0.106539 0.30692,0.191911 0.13159,-0.07444 0.26247,-0.136172 0.39229,-0.183797 0.12982,-0.04833 0.28222,-0.07232 0.45649,-0.07232 0.16687,0 0.31045,0.02223 0.42933,0.06668 0.11924,0.0448 0.21802,0.108656 0.29634,0.192264 0.0783,0.08361 0.13511,0.183092 0.17074,0.298803 0.0353,0.115711 0.0533,0.242711 0.0533,0.381705 0,0.06385 -0.005,0.131586 -0.0134,0.202495 -0.008,0.07126 -0.0219,0.142522 -0.0399,0.21343 l -0.36265,1.515886 h -0.79516 l 0.35207,-1.483783 c 0.0106,-0.04974 0.0222,-0.105833 0.0346,-0.167922 0.0123,-0.06244 0.0187,-0.123825 0.0187,-0.18415 0,-0.09948 -0.0233,-0.185914 -0.0692,-0.258939 -0.0466,-0.07267 -0.13723,-0.109361 -0.27234,-0.109361 -0.0748,0 -0.14605,0.0134 -0.21343,0.03986 -0.0677,0.02681 -0.12841,0.05433 -0.18168,0.0829 0.007,0.02858 0.0106,0.05539 0.0106,0.08008 v 0.0695 c 0,0.06385 -0.004,0.131586 -0.013,0.202495 -0.009,0.07126 -0.0222,0.142522 -0.0399,0.21343 l -0.363,1.515886 h -0.79517 l 0.35208,-1.483783 c 0.0106,-0.04974 0.0222,-0.105833 0.0346,-0.167922 0.0127,-0.06244 0.0187,-0.123825 0.0187,-0.18415 0,-0.09948 -0.0229,-0.185914 -0.0692,-0.258939 -0.0462,-0.07267 -0.13723,-0.109361 -0.27234,-0.109361 -0.0568,0 -0.10478,0.0028 -0.14394,0.0081 -0.0392,0.0053 -0.0854,0.01341 -0.13864,0.02399 l -0.51788,2.172052 h -0.79516 z"
         style="fill:#ffffff;fill-opacity:1;fill-rule:nonzero;stroke:none;stroke-width:0.352778"
         id="path22952"
         clip-path="url(#clipPath1303)" /><path
         d="m 198.4712,23.575689 c 0,-0.227894 0.0399,-0.448381 0.1203,-0.661811 0.0797,-0.213431 0.19297,-0.402872 0.33866,-0.568325 0.14605,-0.165453 0.3228,-0.298803 0.53129,-0.400403 0.20778,-0.101247 0.43815,-0.152047 0.69109,-0.152047 0.12418,0 0.23989,0.01799 0.34643,0.05362 0.10689,0.03563 0.20002,0.08714 0.28045,0.15487 0.0801,0.06738 0.14217,0.14993 0.18662,0.248002 0.0445,0.09772 0.0667,0.208845 0.0667,0.333375 0,0.19932 -0.0445,0.3683 -0.13335,0.507295 -0.0889,0.138641 -0.21273,0.25153 -0.37077,0.338666 -0.1584,0.08714 -0.34608,0.150284 -0.56339,0.189442 -0.21695,0.03916 -0.45332,0.05891 -0.70943,0.05891 0.0247,0.149225 0.079,0.255058 0.16298,0.317147 0.0833,0.06244 0.2159,0.09349 0.39758,0.09349 0.1136,0 0.22931,-0.0099 0.34678,-0.02928 0.11712,-0.0194 0.22719,-0.04868 0.33055,-0.08784 l 0.0589,0.624064 c -0.0998,0.03916 -0.22684,0.07479 -0.38171,0.106892 -0.15451,0.0321 -0.32279,0.04798 -0.50412,0.04798 -0.22084,0 -0.40675,-0.03104 -0.55774,-0.09313 -0.15134,-0.06244 -0.27411,-0.146755 -0.3683,-0.253647 -0.0942,-0.106892 -0.16263,-0.23107 -0.20531,-0.373592 -0.0427,-0.142522 -0.0642,-0.293511 -0.0642,-0.453672 m 1.55293,-1.152878 c -0.18133,0 -0.34043,0.06526 -0.47766,0.195086 -0.13688,0.129823 -0.22684,0.301273 -0.26953,0.515056 0.22049,-0.0074 0.39864,-0.02611 0.53376,-0.05609 0.13511,-0.03034 0.24024,-0.06703 0.31503,-0.109714 0.0744,-0.04269 0.12418,-0.0889 0.14922,-0.138641 0.0251,-0.04974 0.0374,-0.09948 0.0374,-0.149578 0,-0.170392 -0.0963,-0.256117 -0.28822,-0.256117"
         style="fill:#ffffff;fill-opacity:1;fill-rule:nonzero;stroke:none;stroke-width:0.352778"
         id="path22956"
         clip-path="url(#clipPath1333)" /><path
         d="m 202.96467,22.551116 c -0.0709,-0.01799 -0.14111,-0.03493 -0.21061,-0.0508 -0.0695,-0.01588 -0.1718,-0.02399 -0.30691,-0.02399 -0.0497,0 -0.10513,0.0046 -0.16546,0.01341 -0.0607,0.0088 -0.11006,0.0187 -0.14922,0.02928 l -0.51788,2.156178 h -0.79516 l 0.64029,-2.657828 c 0.15311,-0.04974 0.32456,-0.09701 0.51506,-0.141464 0.19014,-0.04445 0.40498,-0.06668 0.64311,-0.06668 0.0889,0 0.18768,0.0081 0.29598,0.02399 0.10866,0.01623 0.20355,0.04198 0.28575,0.07761 z"
         style="fill:#ffffff;fill-opacity:1;fill-rule:nonzero;stroke:none;stroke-width:0.352778"
         id="path22960"
         clip-path="url(#clipPath1228)" /><path
         d="m 187.60607,29.47244 c -0.21343,0 -0.43251,-0.0088 -0.65617,-0.02681 -0.22436,-0.01764 -0.42721,-0.04586 -0.60854,-0.08537 l 0.85372,-3.575403 c 0.20285,-0.03916 0.41558,-0.06597 0.63783,-0.08008 0.22225,-0.01411 0.42615,-0.02152 0.61101,-0.02152 0.21343,0 0.39758,0.02258 0.55209,0.06703 0.15523,0.04445 0.28117,0.104069 0.37924,0.178858 0.0977,0.07444 0.17074,0.162631 0.21872,0.263878 0.048,0.1016 0.072,0.209197 0.072,0.322791 0,0.07832 -0.008,0.160162 -0.024,0.245887 -0.0159,0.08502 -0.048,0.169686 -0.096,0.253294 -0.0483,0.08361 -0.11394,0.162631 -0.19755,0.237419 -0.0836,0.07479 -0.19297,0.14217 -0.32808,0.202848 0.16016,0.07091 0.27728,0.167922 0.35207,0.291041 0.0748,0.122414 0.11218,0.258586 0.11218,0.408164 0,0.170745 -0.0342,0.335139 -0.1016,0.493536 -0.0674,0.158398 -0.17603,0.298803 -0.32561,0.42157 -0.14923,0.122766 -0.3429,0.220486 -0.58138,0.293511 -0.23848,0.07267 -0.52846,0.109361 -0.86995,0.109361 m -0.0748,-1.665111 -0.2293,0.960614 c 0.0568,0.01058 0.12876,0.0187 0.2159,0.02399 0.0871,0.0056 0.16827,0.0081 0.24271,0.0081 0.10689,0 0.21272,-0.0081 0.31785,-0.02399 0.10477,-0.01588 0.19897,-0.04551 0.28293,-0.0882 0.0832,-0.04269 0.15169,-0.101247 0.20531,-0.176036 0.0533,-0.07444 0.0801,-0.170744 0.0801,-0.288219 0,-0.04974 -0.01,-0.09948 -0.0296,-0.149225 -0.0194,-0.04974 -0.0505,-0.09419 -0.0931,-0.133703 -0.043,-0.03916 -0.0988,-0.07091 -0.16828,-0.09596 -0.0691,-0.02469 -0.15204,-0.03739 -0.248,-0.03739 z m 0.15487,-0.624417 h 0.52282 c 0.21343,0 0.37288,-0.04621 0.47766,-0.138641 0.10477,-0.09243 0.15769,-0.202848 0.15769,-0.330906 0,-0.06738 -0.0152,-0.125236 -0.0455,-0.173567 -0.0303,-0.04798 -0.0702,-0.08608 -0.11994,-0.114652 -0.0501,-0.02822 -0.10689,-0.04868 -0.17075,-0.06138 -0.0642,-0.01235 -0.13017,-0.0187 -0.19755,-0.0187 -0.0748,0 -0.15452,0.0028 -0.24024,0.0081 -0.0854,0.0053 -0.14923,0.01164 -0.19227,0.0187 z"
         style="fill:#ffffff;fill-opacity:1;fill-rule:nonzero;stroke:none;stroke-width:0.352778"
         id="path22964"
         clip-path="url(#clipPath1243)" /><path
         d="m 190.40243,29.424427 h -0.78987 l 0.6671,-2.807053 h 0.79516 z m 0.38417,-3.148542 c -0.11041,0 -0.2099,-0.03281 -0.2988,-0.09878 -0.0889,-0.06597 -0.13335,-0.166159 -0.13335,-0.301625 0,-0.07479 0.0148,-0.144992 0.0452,-0.210609 0.0303,-0.06597 0.0702,-0.122766 0.12029,-0.170744 0.0497,-0.04798 0.1076,-0.08643 0.17322,-0.115006 0.066,-0.02822 0.13617,-0.04233 0.21096,-0.04233 0.11007,0 0.2099,0.03281 0.29845,0.09842 0.0896,0.06597 0.1337,0.166511 0.1337,0.301625 0,0.07479 -0.0152,0.144992 -0.0455,0.210608 -0.03,0.06597 -0.0702,0.122767 -0.11959,0.170745 -0.0501,0.04833 -0.10795,0.08643 -0.17356,0.115005 -0.066,0.02858 -0.13618,0.04269 -0.21097,0.04269"
         style="fill:#ffffff;fill-opacity:1;fill-rule:nonzero;stroke:none;stroke-width:0.352778"
         id="path22968"
         clip-path="url(#clipPath1183)" /><path
         d="m 191.77911,25.91831 0.82726,-0.128058 -0.20249,0.827264 h 0.88547 l -0.15981,0.650875 h -0.88053 l -0.23495,0.98178 c -0.0215,0.0822 -0.0349,0.158397 -0.0399,0.229658 -0.006,0.07126 0.003,0.132645 0.0265,0.18415 0.0229,0.05151 0.0635,0.09172 0.1203,0.119945 0.0568,0.02858 0.13512,0.04269 0.2346,0.04269 0.0854,0 0.16792,-0.0078 0.24835,-0.02399 0.0797,-0.01587 0.16087,-0.0381 0.24272,-0.06668 l 0.0586,0.608542 c -0.10654,0.03916 -0.22261,0.07303 -0.34678,0.101247 -0.12489,0.02858 -0.27235,0.04269 -0.44309,0.04269 -0.24518,0 -0.43568,-0.03634 -0.5708,-0.109361 -0.13546,-0.07267 -0.23142,-0.172508 -0.28822,-0.298803 -0.0568,-0.126294 -0.0818,-0.271286 -0.0744,-0.434975 0.007,-0.163689 0.0314,-0.336197 0.0744,-0.517525 z"
         style="fill:#ffffff;fill-opacity:1;fill-rule:nonzero;stroke:none;stroke-width:0.352778"
         id="path22972"
         clip-path="url(#clipPath1198)" /><path
         d="m 193.20913,28.303758 c 0,-0.242006 0.0392,-0.469547 0.11747,-0.683331 0.0783,-0.21343 0.19015,-0.40005 0.3362,-0.560211 0.1457,-0.160161 0.32279,-0.286455 0.53093,-0.378883 0.20814,-0.09243 0.44027,-0.138642 0.69674,-0.138642 0.15981,0 0.30303,0.01517 0.42933,0.04551 0.12629,0.02999 0.24095,0.0702 0.34431,0.119944 l -0.27234,0.618772 c -0.0713,-0.02822 -0.145,-0.05398 -0.2212,-0.07726 -0.0765,-0.02293 -0.17003,-0.03457 -0.2801,-0.03457 -0.26705,0 -0.47696,0.08996 -0.62971,0.269522 -0.15311,0.179917 -0.22966,0.424039 -0.22966,0.733778 0,0.181328 0.0392,0.328083 0.11712,0.440266 0.0783,0.112184 0.22261,0.167923 0.43251,0.167923 0.10301,0 0.20285,-0.01058 0.2988,-0.03175 0.096,-0.02152 0.18133,-0.04833 0.25612,-0.08008 l 0.0586,0.635 c -0.0995,0.03916 -0.20884,0.07373 -0.32808,0.10407 -0.11924,0.03034 -0.26423,0.04551 -0.43498,0.04551 -0.22048,0 -0.4071,-0.0321 -0.56021,-0.09631 -0.1531,-0.06421 -0.2794,-0.150284 -0.37888,-0.258587 -0.0995,-0.108655 -0.17145,-0.235655 -0.2159,-0.381705 -0.0452,-0.145697 -0.067,-0.298803 -0.067,-0.458964"
         style="fill:#ffffff;fill-opacity:1;fill-rule:nonzero;stroke:none;stroke-width:0.352778"
         id="path22976"
         clip-path="url(#clipPath1168)" /><path
         d="m 196.64117,29.499145 c -0.18838,0 -0.35207,-0.02858 -0.49107,-0.08537 -0.13864,-0.0568 -0.25329,-0.136878 -0.34395,-0.240242 -0.091,-0.103011 -0.15911,-0.224719 -0.20567,-0.365478 -0.0462,-0.140405 -0.0692,-0.296333 -0.0692,-0.467077 0,-0.213431 0.0346,-0.426862 0.10372,-0.640292 0.0695,-0.213431 0.1718,-0.405342 0.30727,-0.576439 0.13476,-0.170744 0.30021,-0.310444 0.496,-0.418747 0.19544,-0.108656 0.41981,-0.162984 0.6724,-0.162984 0.18521,0 0.34784,0.02858 0.48859,0.08537 0.14006,0.05715 0.25612,0.13723 0.34643,0.240241 0.091,0.103364 0.15946,0.225073 0.20567,0.365478 0.0462,0.140758 0.0695,0.296333 0.0695,0.467078 0,0.21343 -0.0339,0.426861 -0.1016,0.640292 -0.0674,0.21343 -0.16722,0.405694 -0.2988,0.576438 -0.13159,0.170745 -0.29598,0.310445 -0.49354,0.4191 -0.19756,0.108303 -0.42616,0.162631 -0.6858,0.162631 m 0.39476,-2.284236 c -0.11712,0 -0.22049,0.03387 -0.30939,0.1016 -0.0889,0.06738 -0.16369,0.153105 -0.22401,0.256117 -0.0603,0.103363 -0.10583,0.2159 -0.13617,0.339019 -0.0303,0.122414 -0.0452,0.239183 -0.0452,0.34925 0,0.181681 0.0282,0.321028 0.085,0.4191 0.0572,0.09772 0.16016,0.146756 0.30974,0.146756 0.11747,0 0.22048,-0.03387 0.30938,-0.101248 0.0889,-0.06773 0.16369,-0.153105 0.22437,-0.256469 0.0603,-0.103011 0.10583,-0.2159 0.13582,-0.338667 0.0303,-0.122766 0.0455,-0.239536 0.0455,-0.349603 0,-0.181327 -0.0286,-0.321027 -0.0854,-0.4191 -0.0572,-0.09772 -0.16016,-0.146755 -0.30974,-0.146755"
         style="fill:#ffffff;fill-opacity:1;fill-rule:nonzero;stroke:none;stroke-width:0.352778"
         id="path22980"
         clip-path="url(#clipPath1108)" /><path
         d="m 199.11717,29.424427 h -0.78987 l 0.6671,-2.807053 h 0.79516 z m 0.38417,-3.148542 c -0.11041,0 -0.2099,-0.03281 -0.2988,-0.09878 -0.0889,-0.06597 -0.13335,-0.166159 -0.13335,-0.301625 0,-0.07479 0.0148,-0.144992 0.0452,-0.210609 0.0303,-0.06597 0.0702,-0.122766 0.12029,-0.170744 0.0497,-0.04798 0.1076,-0.08643 0.17322,-0.115006 0.066,-0.02822 0.13617,-0.04233 0.21096,-0.04233 0.11007,0 0.2099,0.03281 0.2988,0.09842 0.0889,0.06597 0.13371,0.166511 0.13371,0.301625 0,0.07479 -0.0155,0.144992 -0.0455,0.210608 -0.0303,0.06597 -0.0706,0.122767 -0.11995,0.170745 -0.0501,0.04833 -0.10795,0.08643 -0.17356,0.115005 -0.066,0.02858 -0.13618,0.04269 -0.21097,0.04269"
         style="fill:#ffffff;fill-opacity:1;fill-rule:nonzero;stroke:none;stroke-width:0.352778"
         id="path22984"
         clip-path="url(#clipPath1123)" /><path
         d="m 200.3767,26.745538 c 0.0603,-0.01799 0.127,-0.0381 0.20002,-0.06138 0.0727,-0.02328 0.15487,-0.04445 0.24554,-0.06385 0.0903,-0.01976 0.19226,-0.03598 0.30409,-0.04833 0.11183,-0.01235 0.23919,-0.0187 0.38171,-0.0187 0.41945,0 0.70802,0.121003 0.8643,0.363008 0.15664,0.242006 0.18345,0.572912 0.0801,0.992364 l -0.363,1.515886 h -0.79481 l 0.35207,-1.483783 c 0.0212,-0.09243 0.0381,-0.182033 0.0508,-0.269169 0.0123,-0.08749 0.0113,-0.163689 -0.003,-0.229659 -0.0145,-0.06562 -0.0469,-0.119239 -0.0988,-0.160161 -0.0515,-0.04092 -0.13053,-0.06138 -0.23742,-0.06138 -0.10336,0 -0.20814,0.01058 -0.31468,0.0321 l -0.51788,2.172052 h -0.79516 z"
         style="fill:#ffffff;fill-opacity:1;fill-rule:nonzero;stroke:none;stroke-width:0.352778"
         id="path22988"
         clip-path="url(#clipPath1138)" /><path
         d="m 181.3498,16.264616 -3.65125,13.164961 h 7.45172 l 3.65125,-13.164961 z"
         style="fill:#f68714;fill-opacity:1;fill-rule:nonzero;stroke:none;stroke-width:0.352778"
         id="path22992"
         clip-path="url(#clipPath1153)" /><path
         d="m 185.70481,20.596269 c -0.078,-0.165806 -0.1972,-0.309033 -0.35666,-0.431094 -0.16016,-0.121709 -0.36618,-0.219428 -0.61877,-0.2921 -0.0106,-0.0032 -0.024,-0.0039 -0.0346,-0.0067 l 0.31856,-1.148292 h -0.69251 l -0.29316,1.057628 c -0.0674,-0.0032 -0.12805,-0.01164 -0.19967,-0.01164 -0.11465,0 -0.23848,0.0035 -0.3623,0.0067 l 0.2921,-1.052689 h -0.6925 l -0.30128,1.087614 c -0.33831,0.02399 -0.66322,0.06421 -0.97331,0.124531 l -1.39312,5.834591 c 0.20849,0.04516 0.44097,0.07832 0.68439,0.105834 l -0.31503,1.135238 h 0.69215 l 0.30127,-1.086908 c 0.18733,0.0099 0.375,0.02046 0.55739,0.02293 l -0.29527,1.063977 h 0.69215 l 0.30056,-1.08338 c 0.32244,-0.02716 0.61313,-0.0762 0.86537,-0.153811 0.38911,-0.118181 0.7052,-0.278342 0.94897,-0.478367 0.24447,-0.200025 0.42122,-0.430036 0.53163,-0.687917 0.11042,-0.258938 0.16475,-0.527755 0.16475,-0.806097 0,-0.243416 -0.061,-0.466019 -0.18274,-0.666044 -0.12171,-0.200025 -0.31291,-0.358422 -0.57467,-0.474486 0.22119,-0.09878 0.40005,-0.209198 0.53587,-0.330906 0.13652,-0.121708 0.24377,-0.251178 0.32244,-0.387703 0.078,-0.136172 0.13052,-0.274108 0.15663,-0.413102 0.0261,-0.1397 0.0392,-0.27305 0.0392,-0.401109 0,-0.185561 -0.0392,-0.361244 -0.11783,-0.526697 m -1.67605,3.784247 c -0.0871,0.121709 -0.19932,0.217664 -0.33549,0.287161 -0.13652,0.0695 -0.29033,0.117475 -0.46108,0.143581 -0.1718,0.02646 -0.34431,0.03916 -0.51894,0.03916 -0.12206,0 -0.25364,-0.0046 -0.39581,-0.0127 -0.14182,-0.0095 -0.25965,-0.02187 -0.35243,-0.03986 l 0.3743,-1.567391 h 0.94051 c 0.15663,0 0.29174,0.02046 0.40498,0.06138 0.11289,0.04022 0.20426,0.09278 0.27447,0.156281 0.0695,0.06385 0.12065,0.136525 0.1524,0.217663 0.0317,0.08185 0.0473,0.162631 0.0473,0.244123 0,0.191205 -0.043,0.348191 -0.13018,0.470605 m 0.19544,-2.395361 c -0.17074,0.150636 -0.43074,0.226131 -0.77858,0.226131 h -0.85443 l 0.31398,-1.32327 c 0.0695,-0.01164 0.17427,-0.02187 0.31362,-0.03034 0.1397,-0.0088 0.26987,-0.0134 0.39193,-0.0134 0.11077,0 0.21731,0.0099 0.32244,0.03069 0.10407,0.02011 0.19685,0.05362 0.27834,0.09984 0.0819,0.04657 0.14676,0.109008 0.19544,0.187677 0.0501,0.07832 0.0744,0.172509 0.0744,0.282575 0,0.209198 -0.0854,0.389467 -0.25718,0.540103"
         style="fill:#ffffff;fill-opacity:1;fill-rule:nonzero;stroke:none;stroke-width:0.352778"
         id="path22996"
         clip-path="url(#clipPath1273)" /></g></g><g
     id="g190"
     transform="matrix(0.35277776,0,0,-0.27362638,1.0196747e-5,267.21412)" /><g
     id="g28921"
     transform="translate(0,0.3126497)"><g
       id="g618"
       transform="matrix(0.3460196,0,0,-0.35277779,-0.23202311,296.62033)"
       style="opacity:0.399994"
       clip-path="url(#clipPath28677)"><g
         id="g604" /><g
         id="g616"><g
           clip-path="url(#clipPath382)"
           opacity="0.350006"
           id="g614"><g
             id="g612"><g
               clip-path="url(#clipPath386)"
               id="g610"><g
                 transform="translate(182.1895,-14.5195)"
                 id="g608"><path
                   d="m 0,0 c 0.362,-1.301 1.542,-2.261 2.959,-2.261 1.702,0 3.081,1.378 3.081,3.081 0,1.701 -1.379,3.083 -3.081,3.083 C 1.542,3.903 0.362,2.941 0,1.641 h -34.218 v 17.24 h -141.807 v -1.638 h 140.17 V 0 Z"
                   style="fill:#ffffff;fill-opacity:1;fill-rule:nonzero;stroke:none"
                   id="path606" /></g></g></g></g></g></g><g
       id="g634"
       transform="matrix(0.3460196,0,0,-0.35277779,-0.23202311,296.62033)"
       style="opacity:0.399994"
       clip-path="url(#clipPath28661)"><g
         id="g620" /><g
         id="g632"><g
           clip-path="url(#clipPath390)"
           opacity="0.350006"
           id="g630"><g
             id="g628"><g
               clip-path="url(#clipPath394)"
               id="g626"><g
                 transform="translate(192.4375,-7.8359)"
                 id="g624"><path
                   d="m 0,0 c 0.36,-1.301 1.539,-2.263 2.958,-2.263 1.701,0 3.082,1.381 3.082,3.081 0,1.703 -1.381,3.083 -3.082,3.083 C 1.539,3.901 0.362,2.94 0,1.641 h -37.84 v 17.24 h -151.796 v -1.64 H -39.479 V 0 Z"
                   style="fill:#ffffff;fill-opacity:1;fill-rule:nonzero;stroke:none"
                   id="path622" /></g></g></g></g></g></g><g
       id="g650"
       transform="matrix(0.3460196,0,0,-0.35277779,-0.23202311,296.62033)"
       style="opacity:0.399994"
       clip-path="url(#clipPath28645)"><g
         id="g636" /><g
         id="g648"><g
           clip-path="url(#clipPath398)"
           opacity="0.350006"
           id="g646"><g
             id="g644"><g
               clip-path="url(#clipPath402)"
               id="g642"><g
                 transform="translate(199.813,-0.376)"
                 id="g640"><path
                   d="m 0,0 c 0.363,-1.301 1.543,-2.264 2.959,-2.264 1.702,0 3.081,1.382 3.081,3.084 0,1.701 -1.379,3.079 -3.081,3.079 C 1.542,3.899 0.36,2.938 0,1.638 h -37.501 v 17.244 h -162.24 V 17.239 H -39.14 V 0 Z"
                   style="fill:#ffffff;fill-opacity:1;fill-rule:nonzero;stroke:none"
                   id="path638" /></g></g></g></g></g></g><g
       id="g666"
       transform="matrix(0.3460196,0,0,-0.35277779,-0.23202311,296.62033)"
       style="opacity:0.399994"
       clip-path="url(#clipPath28629)"><g
         id="g652" /><g
         id="g664"><g
           clip-path="url(#clipPath406)"
           opacity="0.350006"
           id="g662"><g
             id="g660"><g
               clip-path="url(#clipPath410)"
               id="g658"><g
                 transform="translate(242.3315,7.5498)"
                 id="g656"><path
                   d="M 0,0 V 18.883 H -48.364 V 9.098 h 27.569 c 0.357,-1.304 1.539,-2.264 2.959,-2.264 1.7,0 3.078,1.378 3.078,3.081 0,1.703 -1.378,3.081 -3.078,3.081 -1.418,0 -2.599,-0.96 -2.959,-2.259 H -46.724 V 17.24 H -1.641 V 1.643 h -57.79 v 17.24 H -197.867 V 17.24 H -61.07 V 0 Z"
                   style="fill:#ffffff;fill-opacity:1;fill-rule:nonzero;stroke:none"
                   id="path654" /></g></g></g></g></g></g><g
       id="g826"
       transform="matrix(0.3460196,0,0,-0.35277779,-0.23202311,296.62033)"
       style="opacity:0.399994"
       clip-path="url(#clipPath28469)"><g
         id="g812" /><g
         id="g824"><g
           clip-path="url(#clipPath486)"
           opacity="0.350006"
           id="g822"><g
             id="g820"><g
               clip-path="url(#clipPath490)"
               id="g818"><g
                 transform="translate(189.5396,56.6406)"
                 id="g816"><path
                   d="m 0,0 v 14.972 h -106.518 l -14.756,-15.881 h -45.489 v 17.397 h -74.288 c -0.362,1.303 -1.544,2.263 -2.962,2.263 -1.7,0 -3.078,-1.38 -3.078,-3.081 0,-1.702 1.378,-3.081 3.078,-3.081 1.417,0 2.6,0.959 2.962,2.261 H -168.4 V -2.549 h 47.841 l 14.752,15.882 H -1.641 V -1.639 h 77.074 l 19.616,19.615 h 61.468 v 1.64 H 94.37 L 74.753,0 Z"
                   style="fill:#ffffff;fill-opacity:1;fill-rule:nonzero;stroke:none"
                   id="path814" /></g></g></g></g></g></g><g
       id="g842"
       transform="matrix(0.3460196,0,0,-0.35277779,-0.23202311,296.62033)"
       style="opacity:0.399994"
       clip-path="url(#clipPath28453)"><g
         id="g828" /><g
         id="g840"><g
           clip-path="url(#clipPath494)"
           opacity="0.350006"
           id="g838"><g
             id="g836"><g
               clip-path="url(#clipPath498)"
               id="g834"><g
                 transform="translate(197.1343,63.3223)"
                 id="g832"><path
                   d="M 0,0 V 17.24 H -118.319 L -135.734,0 h -30.608 v 17.269 h -109.336 c -0.362,1.3 -1.542,2.263 -2.956,2.263 -1.703,0 -3.084,-1.383 -3.084,-3.084 0,-1.703 1.381,-3.081 3.084,-3.081 1.416,0 2.596,0.961 2.956,2.262 h 107.695 V -1.639 h 32.919 l 17.42,17.241 H -1.641 V -1.639 h 69.316 l 19.618,19.618 h 51.096 v 1.637 H 86.612 L 66.996,0 Z"
                   style="fill:#ffffff;fill-opacity:1;fill-rule:nonzero;stroke:none"
                   id="path830" /></g></g></g></g></g></g><g
       id="g858"
       transform="matrix(0.3460196,0,0,-0.35277779,-0.23202311,296.62033)"
       style="opacity:0.399994"
       clip-path="url(#clipPath28437)"><g
         id="g844" /><g
         id="g856"><g
           clip-path="url(#clipPath502)"
           opacity="0.350006"
           id="g854"><g
             id="g852"><g
               clip-path="url(#clipPath506)"
               id="g850"><g
                 transform="translate(323.6406,89.4912)"
                 id="g848"><path
                   d="m 0,0 h -45.735 l -19.618,-19.617 h -56.551 v 17.241 h -256.329 v -1.641 h 254.689 v -17.239 h 58.87 L -45.058,-1.64 H 0 c 0.36,-1.302 1.541,-2.263 2.958,-2.263 1.703,0 3.081,1.381 3.081,3.082 0,1.705 -1.378,3.083 -3.081,3.083 C 1.541,2.262 0.36,1.302 0,0"
                   style="fill:#ffffff;fill-opacity:1;fill-rule:nonzero;stroke:none"
                   id="path846" /></g></g></g></g></g></g><g
       id="g874"
       transform="matrix(0.3460196,0,0,-0.35277779,-0.23202311,296.62033)"
       style="opacity:0.399994"
       clip-path="url(#clipPath28421)"><g
         id="g860" /><g
         id="g872"><g
           clip-path="url(#clipPath510)"
           opacity="0.350006"
           id="g870"><g
             id="g868"><g
               clip-path="url(#clipPath514)"
               id="g866"><g
                 transform="translate(176.9419,51.3994)"
                 id="g864"><path
                   d="m 0,0 h -80.968 l -19.618,-19.618 h -76.984 v 17.24 h -141.81 v -1.638 h 140.171 v -17.241 h 79.301 l 0.094,0.094 H 73.451 v -17.241 h 79.305 l 19.618,19.616 H 227.8 c 0.361,-1.304 1.539,-2.262 2.956,-2.262 1.702,0 3.084,1.379 3.084,3.08 0,1.702 -1.382,3.085 -3.084,3.085 -1.417,0 -2.595,-0.963 -2.956,-2.262 h -56.107 l -19.616,-19.62 H 75.093 v 17.24 H -98.178 l 5.044,5.045 H 80.078 v -17.241 h 69.315 l 19.616,19.619 h 45.06 c 0.36,-1.303 1.541,-2.261 2.956,-2.261 1.702,0 3.084,1.378 3.084,3.079 0,1.7 -1.382,3.081 -3.084,3.081 -1.415,0 -2.596,-0.96 -2.956,-2.263 H 168.333 L 148.712,-30.082 H 81.718 v 17.24 H -91.494 l 5.823,5.82 H 87.79 v -17.241 h 58.87 l 19.62,19.617 h 45.055 c 0.364,-1.301 1.542,-2.263 2.957,-2.263 1.703,0 3.081,1.383 3.081,3.083 0,1.702 -1.378,3.081 -3.081,3.081 -1.416,0 -2.596,-0.96 -2.957,-2.263 H 165.598 L 145.982,-22.625 H 89.432 V -5.384 H -84.032 l 3.741,3.743 H 0 c 0.363,-1.302 1.544,-2.262 2.96,-2.262 1.701,0 3.08,1.381 3.08,3.083 0,1.702 -1.379,3.078 -3.08,3.078 C 1.545,2.258 0.363,1.298 0,0"
                   style="fill:#ffffff;fill-opacity:1;fill-rule:nonzero;stroke:none"
                   id="path862" /></g></g></g></g></g></g><g
       id="g890"
       transform="matrix(0.3460196,0,0,-0.35277779,-0.23202311,296.62033)"
       style="opacity:0.399994"
       clip-path="url(#clipPath28405)"><g
         id="g876" /><g
         id="g888"><g
           clip-path="url(#clipPath518)"
           opacity="0.350006"
           id="g886"><g
             id="g884"><g
               clip-path="url(#clipPath522)"
               id="g882"><g
                 transform="translate(161.8657,54.1787)"
                 id="g880"><path
                   d="m 0,0 c 1.703,0 3.084,1.382 3.084,3.084 0,1.7 -1.381,3.082 -3.084,3.082 -1.415,0 -2.599,-0.963 -2.959,-2.265 H -69.255 L -88.873,-15.716 H -155.87 V 1.526 h -151.794 v -1.639 h 150.155 v -17.241 h 69.316 L -68.577,2.262 H -2.959 C -2.596,0.963 -1.414,0 0,0"
                   style="fill:#ffffff;fill-opacity:1;fill-rule:nonzero;stroke:none"
                   id="path878" /></g></g></g></g></g></g><g
       id="g906"
       transform="matrix(0.3460196,0,0,-0.35277779,-0.23202311,296.62033)"
       style="opacity:0.399994"
       clip-path="url(#clipPath28389)"><g
         id="g892" /><g
         id="g904"><g
           clip-path="url(#clipPath526)"
           opacity="0.350006"
           id="g902"><g
             id="g900"><g
               clip-path="url(#clipPath530)"
               id="g898"><g
                 transform="translate(70.939,44.2852)"
                 id="g896"><path
                   d="m 0,0 19.618,19.616 h 52.505 c 0.36,-1.301 1.541,-2.262 2.956,-2.262 1.703,0 3.084,1.381 3.084,3.08 0,1.702 -1.381,3.084 -3.084,3.084 -1.415,0 -2.595,-0.962 -2.956,-2.262 H 18.938 L -0.681,1.638 H -57.227 V 18.881 H -219.47 V 17.24 H -58.868 V 0 Z"
                   style="fill:#ffffff;fill-opacity:1;fill-rule:nonzero;stroke:none"
                   id="path894" /></g></g></g></g></g></g></g><g
     id="g28839"><g
       id="g682"
       transform="matrix(0.3460196,0,0,-0.35277779,-0.23202311,296.62033)"
       style="opacity:0.399994"
       clip-path="url(#clipPath28613)"><g
         id="g668" /><g
         id="g680"><g
           clip-path="url(#clipPath414)"
           opacity="0.699997"
           id="g678"><g
             id="g676"><g
               clip-path="url(#clipPath418)"
               id="g674"><g
                 transform="translate(233.9565,297.3408)"
                 id="g672"><path
                   d="M 0,0 H -56.107 L -75.722,-19.616 H -186.043 V -68.349 H -391.65 v -1.635 h 207.246 v 48.727 h 109.36 L -55.425,-1.64 H 0 c 0.361,-1.298 1.541,-2.261 2.958,-2.261 1.699,0 3.08,1.381 3.08,3.084 0,1.702 -1.381,3.079 -3.08,3.079 C 1.541,2.262 0.358,1.303 0,0"
                   style="fill:#ffffff;fill-opacity:1;fill-rule:nonzero;stroke:none"
                   id="path670" /></g></g></g></g></g></g><g
       id="g698"
       transform="matrix(0.3460196,0,0,-0.35277779,-0.23202311,296.62033)"
       style="opacity:0.399994"
       clip-path="url(#clipPath28597)"><g
         id="g684" /><g
         id="g696"><g
           clip-path="url(#clipPath422)"
           opacity="0.699997"
           id="g694"><g
             id="g692"><g
               clip-path="url(#clipPath426)"
               id="g690"><g
                 transform="translate(220.2236,304.0205)"
                 id="g688"><path
                   d="m 0,0 h -45.733 l -19.619,-19.614 h -114.474 v -48.73 h -198.091 v -1.64 h 199.73 v 48.73 h 113.514 l 19.617,19.618 H 0 c 0.361,-1.303 1.542,-2.261 2.958,-2.261 1.701,0 3.084,1.378 3.084,3.079 0,1.705 -1.383,3.081 -3.084,3.081 C 1.542,2.263 0.36,1.303 0,0"
                   style="fill:#ffffff;fill-opacity:1;fill-rule:nonzero;stroke:none"
                   id="path686" /></g></g></g></g></g></g><g
       id="g714"
       transform="matrix(0.3460196,0,0,-0.35277779,-0.23202311,296.62033)"
       style="opacity:0.399994"
       clip-path="url(#clipPath28581)"><g
         id="g700" /><g
         id="g712"><g
           clip-path="url(#clipPath430)"
           opacity="0.699997"
           id="g710"><g
             id="g708"><g
               clip-path="url(#clipPath434)"
               id="g706"><g
                 transform="translate(166.6084,313.7832)"
                 id="g704"><path
                   d="m 0,0 h -56.104 l -19.62,-19.621 h -76.985 V -2.38 h -141.807 v -1.636 h 140.166 v -17.242 h 79.303 l 19.619,19.616 H 0 c 0.36,-1.302 1.537,-2.262 2.956,-2.262 1.703,0 3.082,1.379 3.082,3.081 C 6.038,0.882 4.659,2.26 2.956,2.26 1.541,2.26 0.361,1.301 0,0"
                   style="fill:#ffffff;fill-opacity:1;fill-rule:nonzero;stroke:none"
                   id="path702" /></g></g></g></g></g></g><g
       id="g730"
       transform="matrix(0.3460196,0,0,-0.35277779,-0.23202311,296.62033)"
       style="opacity:0.399994"
       clip-path="url(#clipPath28565)"><g
         id="g716" /><g
         id="g728"><g
           clip-path="url(#clipPath438)"
           opacity="0.699997"
           id="g726"><g
             id="g724"><g
               clip-path="url(#clipPath442)"
               id="g722"><g
                 transform="translate(152.8735,320.4619)"
                 id="g720"><path
                   d="m 0,0 h -45.734 l -19.62,-19.614 h -66.995 v 17.241 h -151.794 v -1.643 h 150.155 v -17.239 h 69.314 l 19.62,19.619 H 0 c 0.362,-1.302 1.541,-2.262 2.961,-2.262 1.7,0 3.081,1.379 3.081,3.081 0,1.7 -1.381,3.08 -3.081,3.08 C 1.541,2.263 0.362,1.305 0,0"
                   style="fill:#ffffff;fill-opacity:1;fill-rule:nonzero;stroke:none"
                   id="path718" /></g></g></g></g></g></g><g
       id="g746"
       transform="matrix(0.3460196,0,0,-0.35277779,-0.23202311,296.62033)"
       style="opacity:0.399994"
       clip-path="url(#clipPath28549)"><g
         id="g732" /><g
         id="g744"><g
           clip-path="url(#clipPath446)"
           opacity="0.699997"
           id="g742"><g
             id="g740"><g
               clip-path="url(#clipPath450)"
               id="g738"><g
                 transform="translate(150.1436,327.9219)"
                 id="g736"><path
                   d="m 0,0 h -45.739 l -19.615,-19.616 h -56.55 v 17.243 h -162.242 v -1.642 h 160.603 v -17.24 h 58.867 L -45.06,-1.636 H 0 c 0.36,-1.302 1.542,-2.265 2.957,-2.265 1.702,0 3.082,1.382 3.082,3.084 0,1.7 -1.38,3.08 -3.082,3.08 C 1.542,2.263 0.362,1.304 0,0"
                   style="fill:#ffffff;fill-opacity:1;fill-rule:nonzero;stroke:none"
                   id="path734" /></g></g></g></g></g></g><g
       id="g762"
       transform="matrix(0.3460196,0,0,-0.35277779,-0.23202311,296.62033)"
       style="opacity:0.399994"
       clip-path="url(#clipPath28533)"><g
         id="g748" /><g
         id="g760"><g
           clip-path="url(#clipPath454)"
           opacity="0.699997"
           id="g758"><g
             id="g756"><g
               clip-path="url(#clipPath458)"
               id="g754"><g
                 transform="translate(14.1714,243.083)"
                 id="g752"><path
                   d="m 0,0 c 0,1.416 -0.961,2.595 -2.262,2.958 v 16.277 h -28.42 L -50.301,-0.383 h -76.984 v 17.242 h -141.808 v -1.638 h 140.169 V -2.021 h 79.302 l 19.619,19.618 H -3.901 V 2.958 C -5.202,2.598 -6.164,1.416 -6.164,0 c 0,-1.703 1.38,-3.084 3.081,-3.084 C -1.382,-3.084 0,-1.703 0,0"
                   style="fill:#ffffff;fill-opacity:1;fill-rule:nonzero;stroke:none"
                   id="path750" /></g></g></g></g></g></g><g
       id="g778"
       transform="matrix(0.3460196,0,0,-0.35277779,-0.23202311,296.62033)"
       style="opacity:0.399994"
       clip-path="url(#clipPath28517)"><g
         id="g764" /><g
         id="g776"><g
           clip-path="url(#clipPath462)"
           opacity="0.699997"
           id="g774"><g
             id="g772"><g
               clip-path="url(#clipPath466)"
               id="g770"><g
                 transform="translate(-38.811,247.7432)"
                 id="g768"><path
                   d="M 0,0 19.616,19.619 H 58.581 V 10.317 C 57.28,9.958 56.318,8.774 56.318,7.359 c 0,-1.7 1.38,-3.083 3.081,-3.083 1.701,0 3.083,1.383 3.083,3.083 0,1.415 -0.961,2.597 -2.262,2.958 V 21.258 H 18.937 L -0.68,1.641 h -66.997 v 17.241 h -151.795 v -1.64 H -69.315 V 0 Z"
                   style="fill:#ffffff;fill-opacity:1;fill-rule:nonzero;stroke:none"
                   id="path766" /></g></g></g></g></g></g><g
       id="g794"
       transform="matrix(0.3460196,0,0,-0.35277779,-0.23202311,296.62033)"
       style="opacity:0.399994"
       clip-path="url(#clipPath28501)"><g
         id="g780" /><g
         id="g792"><g
           clip-path="url(#clipPath470)"
           opacity="0.699997"
           id="g790"><g
             id="g788"><g
               clip-path="url(#clipPath474)"
               id="g786"><g
                 transform="translate(-41.5479,255.2051)"
                 id="g784"><path
                   d="m 0,0 19.62,19.615 h 51.459 c 0.36,-1.301 1.54,-2.262 2.954,-2.262 1.703,0 3.083,1.38 3.083,3.081 0,1.705 -1.38,3.085 -3.083,3.085 -1.415,0 -2.594,-0.962 -2.954,-2.263 H 18.941 L -0.675,1.637 h -56.55 V 18.876 H -219.469 V 17.241 H -58.866 V 0 Z"
                   style="fill:#ffffff;fill-opacity:1;fill-rule:nonzero;stroke:none"
                   id="path782" /></g></g></g></g></g></g><g
       id="g810"
       transform="matrix(0.3460196,0,0,-0.35277779,-0.23202311,296.62033)"
       style="opacity:0.399994"
       clip-path="url(#clipPath28485)"><g
         id="g796" /><g
         id="g808"><g
           clip-path="url(#clipPath478)"
           opacity="0.699997"
           id="g806"><g
             id="g804"><g
               clip-path="url(#clipPath482)"
               id="g802"><g
                 transform="translate(-44.167,305.9619)"
                 id="g800"><path
                   d="m 0,0 v -9.784 h 27.567 c 0.362,-1.3 1.543,-2.263 2.958,-2.263 1.702,0 3.081,1.381 3.081,3.081 0,1.701 -1.379,3.083 -3.081,3.083 -1.414,0 -2.594,-0.962 -2.958,-2.263 H 1.638 v 6.505 H 46.722 V -17.239 H -11.065 V 0 H -149.503 V -1.641 H -12.706 V -18.882 H 48.363 V 0 Z"
                   style="fill:#ffffff;fill-opacity:1;fill-rule:nonzero;stroke:none"
                   id="path798" /></g></g></g></g></g></g><g
       id="g970"
       transform="matrix(0.3460196,0,0,-0.35277779,-0.23202311,296.62033)"
       style="opacity:0.399994"
       clip-path="url(#clipPath28325)"><g
         id="g956" /><g
         id="g968"><g
           clip-path="url(#clipPath558)"
           opacity="0.699997"
           id="g966"><g
             id="g964"><g
               clip-path="url(#clipPath562)"
               id="g962"><g
                 transform="translate(58.6514,350.8633)"
                 id="g960"><path
                   d="m 0,0 v -29.739 c -1.301,-0.362 -2.262,-1.542 -2.262,-2.959 0,-1.703 1.379,-3.081 3.079,-3.081 1.705,0 3.084,1.378 3.084,3.081 0,1.414 -0.959,2.597 -2.262,2.959 v 31.38 h -28.42 l -19.618,-19.617 h -76.986 v 17.242 h -141.807 v -1.641 h 140.168 v -17.239 h 79.306 L -26.102,0 Z"
                   style="fill:#ffffff;fill-opacity:1;fill-rule:nonzero;stroke:none"
                   id="path958" /></g></g></g></g></g></g><g
       id="g986"
       transform="matrix(0.3460196,0,0,-0.35277779,-0.23202311,296.62033)"
       style="opacity:0.399994"
       clip-path="url(#clipPath28309)"><g
         id="g972" /><g
         id="g984"><g
           clip-path="url(#clipPath566)"
           opacity="0.699997"
           id="g982"><g
             id="g980"><g
               clip-path="url(#clipPath570)"
               id="g978"><g
                 transform="translate(-58.105,339.5693)"
                 id="g976"><path
                   d="m 0,0 v 17.241 h -151.796 v -1.64 H -1.641 v -17.24 h 69.316 l 19.617,19.617 h 38.964 V -6.425 c -1.301,-0.361 -2.26,-1.542 -2.26,-2.96 0,-1.7 1.377,-3.08 3.081,-3.08 1.7,0 3.081,1.38 3.081,3.08 0,1.418 -0.963,2.599 -2.262,2.96 V 19.618 H 86.614 L 66.996,0 Z"
                   style="fill:#ffffff;fill-opacity:1;fill-rule:nonzero;stroke:none"
                   id="path974" /></g></g></g></g></g></g><g
       id="g1002"
       transform="matrix(0.3460196,0,0,-0.35277779,-0.23202311,296.62033)"
       style="opacity:0.399994"
       clip-path="url(#clipPath28293)"><g
         id="g988" /><g
         id="g1000"><g
           clip-path="url(#clipPath574)"
           opacity="0.699997"
           id="g998"><g
             id="g996"><g
               clip-path="url(#clipPath578)"
               id="g994"><g
                 transform="translate(98.1504,366.6475)"
                 id="g992"><path
                   d="m 0,0 h -72.375 l -19.616,-19.618 h -56.551 v 17.239 h -162.244 v -1.636 h 160.603 v -17.241 h 58.868 l 19.616,19.613 H 0 c 0.36,-1.297 1.537,-2.262 2.954,-2.262 1.703,0 3.083,1.381 3.083,3.083 0,1.703 -1.38,3.083 -3.083,3.083 C 1.54,2.261 0.361,1.301 0,0"
                   style="fill:#ffffff;fill-opacity:1;fill-rule:nonzero;stroke:none"
                   id="path990" /></g></g></g></g></g></g><g
       id="g1018"
       transform="matrix(0.3460196,0,0,-0.35277779,-0.23202311,296.62033)"
       style="opacity:0.399994"
       clip-path="url(#clipPath28277)"><g
         id="g1004" /><g
         id="g1016"><g
           clip-path="url(#clipPath582)"
           opacity="0.699997"
           id="g1014"><g
             id="g1012"><g
               clip-path="url(#clipPath586)"
               id="g1010"><g
                 transform="translate(2.6836,361.8799)"
                 id="g1008"><path
                   d="m 0,0 c 0.36,-1.302 1.539,-2.262 2.957,-2.262 1.704,0 3.081,1.379 3.081,3.081 0,1.703 -1.377,3.084 -3.081,3.084 C 1.539,3.903 0.36,2.94 0,1.64 h -37.839 v 17.241 h -151.794 v -1.64 H -39.479 V 0 Z"
                   style="fill:#ffffff;fill-opacity:1;fill-rule:nonzero;stroke:none"
                   id="path1006" /></g></g></g></g></g></g><g
       id="g1034"
       transform="matrix(0.3460196,0,0,-0.35277779,-0.23202311,296.62033)"
       style="opacity:0.399994"
       clip-path="url(#clipPath28261)"><g
         id="g1020" /><g
         id="g1032"><g
           clip-path="url(#clipPath590)"
           opacity="0.699997"
           id="g1030"><g
             id="g1028"><g
               clip-path="url(#clipPath594)"
               id="g1026"><g
                 transform="translate(10.0601,370.9775)"
                 id="g1024"><path
                   d="M 0,0 H -37.501 V 17.244 H -199.743 V 15.605 H -39.14 V -1.636 H 0 c 0.36,-1.302 1.541,-2.262 2.959,-2.262 1.702,0 3.078,1.377 3.078,3.079 0,1.704 -1.376,3.084 -3.078,3.084 C 1.541,2.265 0.36,1.303 0,0"
                   style="fill:#ffffff;fill-opacity:1;fill-rule:nonzero;stroke:none"
                   id="path1022" /></g></g></g></g></g></g></g><g
     id="g28725"
     transform="translate(0.23202311,-18.049611)"><g
       id="g922"
       transform="matrix(0.3460196,0,0,-0.35277779,-0.23202311,296.62033)"
       style="opacity:0.399994"
       clip-path="url(#clipPath28373)"><g
         id="g908" /><g
         id="g920"><g
           clip-path="url(#clipPath534)"
           id="g918"><g
             id="g916"><g
               clip-path="url(#clipPath538)"
               id="g914"><g
                 transform="translate(281.3091,626.4287)"
                 id="g912"><path
                   d="m 0,0 h -56.105 l -19.618,-19.618 h -21.619 -55.368 v 17.241 h -141.808 v -1.639 h 140.166 v -17.241 h 57.01 22.293 30.546 c 0.36,-1.3 1.54,-2.263 2.957,-2.263 1.7,0 3.081,1.383 3.081,3.082 0,1.701 -1.381,3.083 -3.081,3.083 -1.417,0 -2.596,-0.962 -2.957,-2.263 h -28.906 l 5.044,5.044 h 49.685 c 0.36,-1.304 1.541,-2.262 2.957,-2.262 1.702,0 3.082,1.379 3.082,3.079 0,1.705 -1.38,3.085 -3.082,3.085 -1.415,0 -2.597,-0.963 -2.957,-2.263 h -48.046 l 11.297,11.294 H 0 c 0.357,-1.302 1.538,-2.262 2.953,-2.262 1.705,0 3.084,1.378 3.084,3.081 0,1.703 -1.379,3.081 -3.084,3.081 C 1.541,2.259 0.36,1.301 0,0"
                   style="fill:#ffffff;fill-opacity:1;fill-rule:nonzero;stroke:none"
                   id="path910" /></g></g></g></g></g></g><g
       id="g938"
       transform="matrix(0.3460196,0,0,-0.35277779,-0.23202311,296.62033)"
       style="opacity:0.399994"
       clip-path="url(#clipPath28357)"><g
         id="g924" /><g
         id="g936"><g
           clip-path="url(#clipPath542)"
           id="g934"><g
             id="g932"><g
               clip-path="url(#clipPath546)"
               id="g930"><g
                 transform="translate(267.5752,633.1104)"
                 id="g928"><path
                   d="m 0,0 h -45.736 l -19.619,-19.616 h -66.996 v 17.24 h -151.794 v -1.64 h 150.156 v -17.239 h 69.315 l 19.616,19.616 H 0 c 0.361,-1.301 1.542,-2.264 2.957,-2.264 1.704,0 3.081,1.382 3.081,3.081 0,1.702 -1.377,3.084 -3.081,3.084 C 1.542,2.262 0.361,1.299 0,0"
                   style="fill:#ffffff;fill-opacity:1;fill-rule:nonzero;stroke:none"
                   id="path926" /></g></g></g></g></g></g><g
       id="g954"
       transform="matrix(0.3460196,0,0,-0.35277779,-0.23202311,296.62033)"
       style="opacity:0.399994"
       clip-path="url(#clipPath28341)"><g
         id="g940" /><g
         id="g952"><g
           clip-path="url(#clipPath550)"
           id="g950"><g
             id="g948"><g
               clip-path="url(#clipPath554)"
               id="g946"><g
                 transform="translate(264.8413,640.5684)"
                 id="g944"><path
                   d="m 0,0 h -45.737 l -19.617,-19.615 h -56.548 v 17.242 h -162.244 v -1.642 h 160.604 v -17.24 h 58.868 l 19.618,19.618 H 0 c 0.363,-1.303 1.544,-2.264 2.959,-2.264 1.702,0 3.083,1.381 3.083,3.081 0,1.701 -1.381,3.084 -3.083,3.084 C 1.544,2.264 0.36,1.301 0,0"
                   style="fill:#ffffff;fill-opacity:1;fill-rule:nonzero;stroke:none"
                   id="path942" /></g></g></g></g></g></g><g
       id="g1050"
       transform="matrix(0.3460196,0,0,-0.35277779,-0.23202311,296.62033)"
       style="opacity:0.399994"
       clip-path="url(#clipPath28245)"><g
         id="g1036" /><g
         id="g1048"><g
           clip-path="url(#clipPath598)"
           id="g1046"><g
             id="g1044"><g
               clip-path="url(#clipPath602)"
               id="g1042"><g
                 transform="translate(70.5313,618.6089)"
                 id="g1040"><path
                   d="m 0,0 v -9.787 h 27.569 c 0.36,-1.299 1.54,-2.261 2.957,-2.261 1.702,0 3.083,1.38 3.083,3.08 0,1.7 -1.381,3.084 -3.083,3.084 -1.413,0 -2.595,-0.963 -2.957,-2.263 H 1.639 v 6.508 H 46.724 V -17.241 H -11.063 V 0 h -138.44 V -1.639 H -12.705 V -18.881 H 48.364 V 0 Z"
                   style="fill:#ffffff;fill-opacity:1;fill-rule:nonzero;stroke:none"
                   id="path1038" /></g></g></g></g></g></g></g><g
     inkscape:groupmode="layer"
     id="layer4"
     inkscape:label="Text"><text
       xml:space="preserve"
       style="font-style:italic;font-variant:normal;font-weight:bold;font-stretch:normal;font-size:14.1552px;font-family:Ubuntu;-inkscape-font-specification:'Ubuntu, Bold Italic';font-variant-ligatures:normal;font-variant-caps:normal;font-variant-numeric:normal;font-variant-east-asian:normal;fill:#ffffff;fill-opacity:1;stroke-width:0.688145;stroke-dasharray:none"
       x="18.87604"
       y="111.29703"
       id="text3571"
       transform="scale(1.0031257,0.99688405)"><tspan
         sodipodi:role="line"
         id="tspan3569"
         style="font-style:italic;font-variant:normal;font-weight:bold;font-stretch:normal;font-size:14.1552px;font-family:Ubuntu;-inkscape-font-specification:'Ubuntu, Bold Italic';font-variant-ligatures:normal;font-variant-caps:normal;font-variant-numeric:normal;font-variant-east-asian:normal;stroke-width:0.688144"
         x="18.87604"
         y="111.29703">Das Bitcoin-Diplom</tspan></text><text
       xml:space="preserve"
       style="font-style:italic;font-variant:normal;font-weight:normal;font-stretch:normal;font-size:5.89888px;font-family:Ubuntu;-inkscape-font-specification:'Ubuntu, Italic';font-variant-ligatures:normal;font-variant-caps:normal;font-variant-numeric:normal;font-variant-east-asian:normal;fill:#c0bdce;fill-opacity:1;stroke-width:0.674751;stroke-dasharray:none"
       x="20.316141"
       y="118.03226"
       id="text3577"
       transform="scale(0.9836022,1.0166712)"><tspan
         sodipodi:role="line"
         id="tspan3575"
         style="font-style:italic;font-variant:normal;font-weight:normal;font-stretch:normal;font-size:5.89888px;font-family:Ubuntu;-inkscape-font-specification:'Ubuntu, Italic';font-variant-ligatures:normal;font-variant-caps:normal;font-variant-numeric:normal;font-variant-east-asian:normal;fill:#c0bdce;fill-opacity:1;stroke-width:0.674751"
         x="20.316141"
         y="118.03226">FINANZIELLE BILDUNG  BASIEREND AUF BITCOIN</tspan></text><text
       xml:space="preserve"
       style="font-style:italic;font-variant:normal;font-weight:normal;font-stretch:normal;font-size:5.99723px;font-family:sans-serif;-inkscape-font-specification:'sans-serif, Italic';font-variant-ligatures:normal;font-variant-caps:normal;font-variant-numeric:normal;font-variant-east-asian:normal;fill:#c4bfd4;fill-opacity:1;stroke-width:0.686001;stroke-dasharray:none"
       x="97.073471"
       y="239.3476"
       id="text7143"><tspan
         sodipodi:role="line"
         id="tspan7141"
         style="stroke-width:0.686"
         x="97.073471"
         y="239.3476" /></text><text
       xml:space="preserve"
       transform="matrix(0.26458333,0,0,0.26458333,-0.0492016,-11.882397)"
       id="text1876"
       style="font-style:italic;font-size:14.6667px;line-height:normal;font-family:Ubuntu;-inkscape-font-specification:'Ubuntu Italic';text-align:justify;text-decoration-color:#000000;white-space:pre;shape-inside:url(#rect1878);display:inline;fill:#1a1a1a;stroke-width:1.33417;stop-color:#000000"
       x="0"
       y="0"><tspan
         x="75.589844"
         y="855.58259"
         id="tspan4633"><tspan
           style="font-size:21.3333px;text-align:start;fill:#ffffff"
           id="tspan4629">Arbeitsbuch fr Lernwillige</tspan><tspan
           style="fill:#ffffff"
           id="tspan4631">
</tspan></tspan><tspan
         x="75.589844"
         y="876.03266"
         id="tspan4637"><tspan
           style="fill:#ffffff"
           id="tspan4635">
</tspan></tspan><tspan
         x="75.589844"
         y="895.60933"
         id="tspan4643"><tspan
           style="fill:#ffffff"
           id="tspan4639">I</tspan><tspan
           style="font-size:16px;text-align:start;fill:#ffffff"
           id="tspan4641">n deutscher bersetzung vom </tspan></tspan><tspan
         x="75.589844"
         y="915.60933"
         id="tspan4647"><tspan
           style="font-size:16px;text-align:start;fill:#ffffff"
           id="tspan4645">spanischen Original (3. Edition, </tspan></tspan><tspan
         x="75.589844"
         y="935.60933"
         id="tspan4651"><tspan
           style="font-size:16px;text-align:start;fill:#ffffff"
           id="tspan4649">September 2022).</tspan></tspan></text><text
       xml:space="preserve"
       transform="matrix(0.26170293,0,0,0.26458333,-0.71601544,12.659914)"
       id="text1998"
       style="font-style:italic;font-size:21.3333px;line-height:normal;font-family:Ubuntu;-inkscape-font-specification:'Ubuntu Italic';text-align:start;text-decoration-color:#000000;white-space:pre;shape-inside:url(#rect2000);display:inline;fill:#ffffff;stroke-width:1.33417;stop-color:#000000"
       x="99.905182"
       y="0"><tspan
         x="75.617188"
         y="934.82868"
         id="tspan4653">VERSION 1.01| AUGUST 2023</tspan></text><text
       xml:space="preserve"
       style="font-style:italic;font-size:4.28625px;line-height:normal;font-family:Ubuntu;-inkscape-font-specification:'Ubuntu Italic';text-align:start;text-decoration-color:#000000;text-anchor:start;fill:#ffffff;stroke-width:0.352999;stop-color:#000000"
       x="53.402275"
       y="248.57123"
       id="text2006"><tspan
         sodipodi:role="line"
         id="tspan2004"
         style="stroke-width:0.353"
         x="53.402275"
         y="248.57123" /><tspan
         sodipodi:role="line"
         style="stroke-width:0.353"
         id="tspan2008"
         x="53.402275"
         y="253.92905" /></text></g></svg>
