<?xml version="1.0" encoding="UTF-8" standalone="no"?>
<!-- Created with Inkscape (http://www.inkscape.org/) -->

<svg
   width="210mm"
   height="297mm"
   viewBox="0 0 210 297"
   version="1.1"
   id="svg5"
   xml:space="preserve"
   sodipodi:docname="124_Bitcoin Diplom - Arbeitsbuch.svg"
   inkscape:version="1.2.2 (b0a8486, 2022-12-01)"
   inkscape:export-filename="124_Bitcoin Diplom - Arbeitsbuch.pdf"
   inkscape:export-xdpi="600"
   inkscape:export-ydpi="600"
   xmlns:inkscape="http://www.inkscape.org/namespaces/inkscape"
   xmlns:sodipodi="http://sodipodi.sourceforge.net/DTD/sodipodi-0.dtd"
   xmlns:xlink="http://www.w3.org/1999/xlink"
   xmlns="http://www.w3.org/2000/svg"
   xmlns:svg="http://www.w3.org/2000/svg"><sodipodi:namedview
     id="namedview7"
     pagecolor="#ffffff"
     bordercolor="#000000"
     borderopacity="0.25"
     inkscape:showpageshadow="2"
     inkscape:pageopacity="0.0"
     inkscape:pagecheckerboard="0"
     inkscape:deskcolor="#d1d1d1"
     inkscape:document-units="mm"
     showgrid="false"
     showguides="true"
     inkscape:zoom="0.46947952"
     inkscape:cx="397.24843"
     inkscape:cy="561.25984"
     inkscape:window-width="1280"
     inkscape:window-height="747"
     inkscape:window-x="0"
     inkscape:window-y="25"
     inkscape:window-maximized="0"
     inkscape:current-layer="svg5"><sodipodi:guide
       position="0,279.2"
       orientation="0,1"
       id="guide1641"
       inkscape:locked="false"
       inkscape:label=""
       inkscape:color="rgb(0,134,229)" /><sodipodi:guide
       position="13,297"
       orientation="-1,0"
       id="guide89132"
       inkscape:locked="false"
       inkscape:label=""
       inkscape:color="rgb(0,134,229)" /><sodipodi:guide
       position="190,297"
       orientation="-1,0"
       id="guide89134"
       inkscape:locked="false"
       inkscape:label=""
       inkscape:color="rgb(0,134,229)" /><sodipodi:guide
       position="0,17"
       orientation="0,1"
       id="guide89136"
       inkscape:locked="false"
       inkscape:label=""
       inkscape:color="rgb(0,134,229)" /><sodipodi:guide
       position="23,297"
       orientation="-1,0"
       id="guide89198"
       inkscape:locked="false"
       inkscape:label=""
       inkscape:color="rgb(0,134,229)" /></sodipodi:namedview><defs
     id="defs2"><linearGradient
       x1="0"
       y1="0"
       x2="1"
       y2="0"
       gradientUnits="userSpaceOnUse"
       gradientTransform="matrix(351.86044,609.44012,609.44012,-351.86044,436.06979,421.06186)"
       spreadMethod="pad"
       id="linearGradient3315"><stop
         style="stop-opacity:1;stop-color:#5e3197"
         offset="0"
         id="stop3309" /><stop
         style="stop-opacity:1;stop-color:#3c2973"
         offset="0.427928"
         id="stop3311" /><stop
         style="stop-opacity:1;stop-color:#171b3a"
         offset="1"
         id="stop3313" /></linearGradient><clipPath
       clipPathUnits="userSpaceOnUse"
       id="clipPath56670"><path
         d="M 509.811,687.982 H 612 v 75.6 H 509.811 Z"
         id="path56668" /></clipPath><clipPath
       clipPathUnits="userSpaceOnUse"
       id="clipPath56678"><path
         d="M 531.722,746.093 H 901.126 V 702.989 H 531.722 Z"
         id="path56676" /></clipPath><clipPath
       clipPathUnits="userSpaceOnUse"
       id="clipPath56682"><path
         d="m 531.722,702.989 h 369.404 v 43.104 H 531.722 Z"
         id="path56680" /></clipPath><clipPath
       clipPathUnits="userSpaceOnUse"
       id="clipPath56686"><path
         d="M 600.571,731.948 H 901.126 V 706.17 H 600.571 Z"
         id="path56684" /></clipPath><clipPath
       clipPathUnits="userSpaceOnUse"
       id="clipPath56690"><path
         d="m 600.571,706.17 h 300.555 v 25.778 H 600.571 Z"
         id="path56688" /></clipPath><clipPath
       clipPathUnits="userSpaceOnUse"
       id="clipPath56694"><path
         d="M 612,738.633 H 887.393 V 715.115 H 612 Z"
         id="path56692" /></clipPath><clipPath
       clipPathUnits="userSpaceOnUse"
       id="clipPath56698"><path
         d="m 612,715.115 h 275.393 v 23.518 H 612 Z"
         id="path56696" /></clipPath><clipPath
       clipPathUnits="userSpaceOnUse"
       id="clipPath56702"><path
         d="m 534.808,721.869 h 197.867 v -18.88 H 534.808 Z"
         id="path56700" /></clipPath><clipPath
       clipPathUnits="userSpaceOnUse"
       id="clipPath56706"><path
         d="m 534.808,702.989 h 197.867 v 18.88 H 534.808 Z"
         id="path56704" /></clipPath><clipPath
       clipPathUnits="userSpaceOnUse"
       id="clipPath56710"><path
         d="M 591.406,746.093 H 884.663 V 722.574 H 591.406 Z"
         id="path56708" /></clipPath><clipPath
       clipPathUnits="userSpaceOnUse"
       id="clipPath56714"><path
         d="m 591.406,722.574 h 293.257 v 23.519 H 591.406 Z"
         id="path56712" /></clipPath><clipPath
       clipPathUnits="userSpaceOnUse"
       id="clipPath56804"><path
         d="M 0,0 H 612 V 792 H 0 Z"
         id="path56802" /></clipPath><clipPath
       clipPathUnits="userSpaceOnUse"
       id="clipPath56812"><path
         d="M -243.45,763.582 H 387.086 V 664.793 H -243.45 Z"
         id="path56810" /></clipPath><clipPath
       clipPathUnits="userSpaceOnUse"
       id="clipPath56816"><path
         d="m -11.736,687.982 h 398.822 v 75.6 H -11.736 Z"
         id="path56814" /></clipPath><clipPath
       clipPathUnits="userSpaceOnUse"
       id="clipPath56820"><path
         d="M -243.45,757.852 H 315.864 V 664.793 H -243.45 Z"
         id="path56818" /></clipPath><clipPath
       clipPathUnits="userSpaceOnUse"
       id="clipPath56824"><path
         d="m -243.45,664.793 h 559.314 v 93.059 H -243.45 Z"
         id="path56822" /></clipPath><clipPath
       clipPathUnits="userSpaceOnUse"
       id="clipPath56828"><path
         d="M -88.7533,685.934 H 93.3112 V 664.793 H -88.7533 Z"
         id="path56826" /></clipPath><clipPath
       clipPathUnits="userSpaceOnUse"
       id="clipPath56832"><path
         d="M -88.753,664.793 H 93.312 v 21.141 H -88.753 Z"
         id="path56830" /></clipPath><clipPath
       clipPathUnits="userSpaceOnUse"
       id="clipPath56836"><path
         d="M -92.1164,692.617 H 103.559 V 671.474 H -92.1164 Z"
         id="path56834" /></clipPath><clipPath
       clipPathUnits="userSpaceOnUse"
       id="clipPath56840"><path
         d="m -92.116,671.474 h 195.675 v 21.143 H -92.116 Z"
         id="path56838" /></clipPath><clipPath
       clipPathUnits="userSpaceOnUse"
       id="clipPath56844"><path
         d="M -94.8465,700.078 H 110.935 V 678.933 H -94.8465 Z"
         id="path56842" /></clipPath><clipPath
       clipPathUnits="userSpaceOnUse"
       id="clipPath56848"><path
         d="m -94.846,678.933 h 205.781 v 21.145 H -94.846 Z"
         id="path56846" /></clipPath><clipPath
       clipPathUnits="userSpaceOnUse"
       id="clipPath56852"><path
         d="M -149.51,757.852 H 234.761 V 734.334 H -149.51 Z"
         id="path56850" /></clipPath><clipPath
       clipPathUnits="userSpaceOnUse"
       id="clipPath56856"><path
         d="m -149.51,734.334 h 384.271 v 23.518 H -149.51 Z"
         id="path56854" /></clipPath><clipPath
       clipPathUnits="userSpaceOnUse"
       id="clipPath56860"><path
         d="m -237.356,735.23 h 553.22 v -40.662 h -553.22 z"
         id="path56858" /></clipPath><clipPath
       clipPathUnits="userSpaceOnUse"
       id="clipPath56864"><path
         d="m -237.356,694.568 h 553.22 v 40.662 h -553.22 z"
         id="path56862" /></clipPath><clipPath
       clipPathUnits="userSpaceOnUse"
       id="clipPath56868"><path
         d="M -240.716,741.917 H 70.0318 v -23.52 H -240.716 Z"
         id="path56866" /></clipPath><clipPath
       clipPathUnits="userSpaceOnUse"
       id="clipPath56872"><path
         d="M -240.716,718.397 H 70.032 v 23.52 h -310.748 z"
         id="path56870" /></clipPath><clipPath
       clipPathUnits="userSpaceOnUse"
       id="clipPath56876"><path
         d="M -243.45,749.376 H 54.1837 V 725.858 H -243.45 Z"
         id="path56874" /></clipPath><clipPath
       clipPathUnits="userSpaceOnUse"
       id="clipPath56880"><path
         d="M -243.45,725.858 H 54.184 v 23.518 H -243.45 Z"
         id="path56878" /></clipPath><clipPath
       clipPathUnits="userSpaceOnUse"
       id="clipPath57020"><path
         d="m 499.874,763.582 h 135.305 v -75.6 H 499.874 Z"
         id="path57018" /></clipPath><clipPath
       clipPathUnits="userSpaceOnUse"
       id="clipPath57024"><path
         d="M 499.874,687.982 H 612 v 75.6 H 499.874 Z"
         id="path57022" /></clipPath><clipPath
       clipPathUnits="userSpaceOnUse"
       id="clipPath57028"><path
         d="m 538.188,711.501 h 96.991 v -23.519 h -96.991 z"
         id="path57026" /></clipPath><clipPath
       clipPathUnits="userSpaceOnUse"
       id="clipPath57032"><path
         d="m 538.188,687.982 h 96.991 v 23.519 h -96.991 z"
         id="path57030" /></clipPath><clipPath
       clipPathUnits="userSpaceOnUse"
       id="clipPath57064"><path
         d="M 72.4204,24.3195 H 569.703 v -1.639 H 72.4204 Z"
         id="path57062" /></clipPath><linearGradient
       inkscape:collect="always"
       xlink:href="#linearGradient3315"
       id="linearGradient67829"
       gradientUnits="userSpaceOnUse"
       gradientTransform="matrix(351.86044,609.44012,609.44012,-351.86044,436.06979,421.06186)"
       x1="0"
       y1="0"
       x2="1"
       y2="0"
       spreadMethod="pad" /><clipPath
       clipPathUnits="userSpaceOnUse"
       id="clipPath1350"><g
         id="g1358"
         transform="matrix(2.8346458,0,0,-2.8346457,1.4031064e-4,792.00002)"><g
           id="g1356"><g
             id="g1354"><path
               d="M -4.9498472e-5,8.24e-6 H 215.89994 V 279.40001 H -4.9498472e-5 Z"
               id="path1352"
               style="stroke-width:0.352778" /></g></g></g></clipPath><clipPath
       clipPathUnits="userSpaceOnUse"
       id="clipPath1411"><g
         id="g1419"
         transform="matrix(2.8346458,0,0,-2.8346457,1.4031064e-4,792.00002)"><g
           id="g1417"><g
             id="g1415"><path
               d="M -4.9498472e-5,8.24e-6 H 215.89994 V 279.40001 H -4.9498472e-5 Z"
               id="path1413"
               style="stroke-width:0.352778" /></g></g></g></clipPath><clipPath
       clipPathUnits="userSpaceOnUse"
       id="clipPath1522"><g
         id="g1530"
         transform="matrix(2.8346458,0,0,-2.8346457,-1223.9999,792.00002)"><g
           id="g1528"><g
             id="g1526"><path
               d="M -4.9498472e-5,8.24e-6 H 215.89994 V 279.40001 H -4.9498472e-5 Z"
               id="path1524"
               style="stroke-width:0.352778" /></g></g></g></clipPath><clipPath
       clipPathUnits="userSpaceOnUse"
       id="clipPath1532"><g
         id="g1540"
         transform="matrix(2.8346458,0,0,-2.8346457,-611.99986,792.00002)"><g
           id="g1538"><g
             id="g1536"><path
               d="M -4.9498472e-5,8.24e-6 H 215.89994 V 279.40001 H -4.9498472e-5 Z"
               id="path1534"
               style="stroke-width:0.352778" /></g></g></g></clipPath><clipPath
       clipPathUnits="userSpaceOnUse"
       id="clipPath1542"><g
         id="g1550"
         transform="matrix(2.8346458,0,0,-2.8346457,-575.49986,768.50002)"><g
           id="g1548"><g
             id="g1546"><path
               d="M -4.9498472e-5,8.24e-6 H 215.89994 V 279.40001 H -4.9498472e-5 Z"
               id="path1544"
               style="stroke-width:0.352778" /></g></g></g></clipPath><clipPath
       clipPathUnits="userSpaceOnUse"
       id="clipPath1552"><g
         id="g1560"
         transform="matrix(2.8346458,0,0,-2.8346457,1.4031064e-4,792.00002)"><g
           id="g1558"><g
             id="g1556"><path
               d="M -4.9498472e-5,8.24e-6 H 215.89994 V 279.40001 H -4.9498472e-5 Z"
               id="path1554"
               style="stroke-width:0.352778" /></g></g></g></clipPath><clipPath
       clipPathUnits="userSpaceOnUse"
       id="clipPath1562"><g
         id="g1570"
         transform="matrix(2.8346458,0,0,-2.8346457,1.4031064e-4,792.00002)"><g
           id="g1568"><g
             id="g1566"><path
               d="M -4.9498472e-5,8.24e-6 H 215.89994 V 279.40001 H -4.9498472e-5 Z"
               id="path1564"
               style="stroke-width:0.352778" /></g></g></g></clipPath><clipPath
       clipPathUnits="userSpaceOnUse"
       id="clipPath1572"><g
         id="g1580"
         transform="matrix(2.8346458,0,0,-2.8346457,1.4031064e-4,792.00002)"><g
           id="g1578"><g
             id="g1576"><path
               d="M -4.9498472e-5,8.24e-6 H 215.89994 V 279.40001 H -4.9498472e-5 Z"
               id="path1574"
               style="stroke-width:0.352778" /></g></g></g></clipPath></defs><g
     id="g56650"
     transform="matrix(0.34313734,0,0,-0.35277778,0,287.17476)"
     clip-path="url(#clipPath1350)"><g
       id="g56652"><path
         d="m 0,763.582 v 0 -75.6 0 h 612 v 0 75.6 0 z"
         style="fill:url(#linearGradient67829);stroke:none"
         id="path56662" /></g></g><g
     id="g56806"
     transform="matrix(0.35277776,0,0,-0.35277778,0,287.17476)"
     clip-path="url(#clipPath1572)"><g
       id="g56808" /><g
       id="g57012"><g
         clip-path="url(#clipPath56812)"
         opacity="0.699997"
         id="g57010"><g
           id="g57008"><g
             clip-path="url(#clipPath56816)"
             id="g57006"><g
               id="g57004"><g
                 id="g56882" /><g
                 id="g57002"><g
                   clip-path="url(#clipPath56820)"
                   opacity="0.300003"
                   id="g57000"><g
                     id="g56998"><g
                       clip-path="url(#clipPath56824)"
                       id="g56996"><g
                         id="g56898"><g
                           id="g56884" /><g
                           id="g56896"><g
                             clip-path="url(#clipPath56828)"
                             id="g56894"><g
                               id="g56892"><g
                                 clip-path="url(#clipPath56832)"
                                 id="g56890"><g
                                   transform="translate(87.2715,667.0532)"
                                   id="g56888"><path
                                   d="m 0,0 c 0.361,-1.301 1.542,-2.261 2.959,-2.261 1.702,0 3.081,1.378 3.081,3.081 0,1.701 -1.379,3.083 -3.081,3.083 C 1.542,3.903 0.361,2.942 0,1.641 H -34.218 V 18.88 H -176.025 V 17.243 H -35.856 V 0 Z"
                                   style="fill:#ffffff;fill-opacity:1;fill-rule:nonzero;stroke:none"
                                   id="path56886" /></g></g></g></g></g></g><g
                         id="g56914"><g
                           id="g56900" /><g
                           id="g56912"><g
                             clip-path="url(#clipPath56836)"
                             id="g56910"><g
                               id="g56908"><g
                                 clip-path="url(#clipPath56840)"
                                 id="g56906"><g
                                   transform="translate(97.5195,673.7368)"
                                   id="g56904"><path
                                   d="m 0,0 c 0.36,-1.301 1.539,-2.263 2.958,-2.263 1.701,0 3.082,1.382 3.082,3.082 C 6.04,2.52 4.659,3.901 2.958,3.901 1.539,3.901 0.361,2.94 0,1.641 H -37.841 V 18.88 H -189.636 V 17.241 H -39.479 V 0 Z"
                                   style="fill:#ffffff;fill-opacity:1;fill-rule:nonzero;stroke:none"
                                   id="path56902" /></g></g></g></g></g></g><g
                         id="g56930"><g
                           id="g56916" /><g
                           id="g56928"><g
                             clip-path="url(#clipPath56844)"
                             id="g56926"><g
                               id="g56924"><g
                                 clip-path="url(#clipPath56848)"
                                 id="g56922"><g
                                   transform="translate(104.8945,681.1968)"
                                   id="g56920"><path
                                   d="m 0,0 c 0.363,-1.301 1.544,-2.264 2.959,-2.264 1.702,0 3.081,1.382 3.081,3.084 0,1.702 -1.379,3.079 -3.081,3.079 C 1.542,3.899 0.36,2.938 0,1.637 h -37.501 v 17.245 h -162.24 V 17.239 H -39.14 V 0 Z"
                                   style="fill:#ffffff;fill-opacity:1;fill-rule:nonzero;stroke:none"
                                   id="path56918" /></g></g></g></g></g></g><g
                         id="g56946"><g
                           id="g56932" /><g
                           id="g56944"><g
                             clip-path="url(#clipPath56852)"
                             id="g56942"><g
                               id="g56940"><g
                                 clip-path="url(#clipPath56856)"
                                 id="g56938"><g
                                   transform="translate(228.7231,755.5898)"
                                   id="g56936"><path
                                   d="m 0,0 h -45.736 l -19.618,-19.617 h -56.55 v 17.242 h -256.329 v -1.641 h 254.688 v -17.239 h 58.871 L -45.058,-1.64 H 0 c 0.36,-1.302 1.541,-2.263 2.957,-2.263 1.703,0 3.081,1.381 3.081,3.082 0,1.705 -1.378,3.083 -3.081,3.083 C 1.541,2.262 0.36,1.302 0,0"
                                   style="fill:#ffffff;fill-opacity:1;fill-rule:nonzero;stroke:none"
                                   id="path56934" /></g></g></g></g></g></g><g
                         id="g56962"><g
                           id="g56948" /><g
                           id="g56960"><g
                             clip-path="url(#clipPath56860)"
                             id="g56958"><g
                               id="g56956"><g
                                 clip-path="url(#clipPath56864)"
                                 id="g56954"><g
                                   transform="translate(82.0239,732.9722)"
                                   id="g56952"><path
                                   d="m 0,0 h -80.968 l -19.618,-19.618 h -76.984 v 17.24 h -141.81 v -1.638 h 140.171 v -17.241 h 79.301 l 0.094,0.094 H 73.45 v -17.241 h 79.306 l 19.618,19.616 H 227.8 c 0.361,-1.304 1.539,-2.262 2.956,-2.262 1.702,0 3.084,1.379 3.084,3.081 0,1.701 -1.382,3.084 -3.084,3.084 -1.417,0 -2.595,-0.963 -2.956,-2.262 h -56.107 l -19.616,-19.62 H 75.093 v 17.24 H -98.179 l 5.045,5.044 H 80.077 v -17.24 h 69.316 l 19.617,19.62 h 45.059 c 0.36,-1.305 1.54,-2.263 2.956,-2.263 1.702,0 3.084,1.378 3.084,3.08 0,1.7 -1.382,3.081 -3.084,3.081 -1.416,0 -2.596,-0.96 -2.956,-2.262 H 168.333 L 148.712,-30.082 H 81.718 v 17.24 H -91.494 l 5.823,5.819 h 173.46 v -17.24 h 58.871 l 19.619,19.617 h 45.056 c 0.364,-1.302 1.542,-2.263 2.957,-2.263 1.703,0 3.081,1.383 3.081,3.083 0,1.701 -1.378,3.081 -3.081,3.081 -1.416,0 -2.596,-0.96 -2.957,-2.262 H 165.598 L 145.982,-22.625 H 89.432 V -5.384 H -84.032 l 3.741,3.743 H 0 c 0.363,-1.302 1.543,-2.262 2.96,-2.262 1.7,0 3.08,1.381 3.08,3.083 0,1.701 -1.38,3.077 -3.08,3.077 C 1.545,2.257 0.363,1.298 0,0"
                                   style="fill:#ffffff;fill-opacity:1;fill-rule:nonzero;stroke:none"
                                   id="path56950" /></g></g></g></g></g></g><g
                         id="g56978"><g
                           id="g56964" /><g
                           id="g56976"><g
                             clip-path="url(#clipPath56868)"
                             id="g56974"><g
                               id="g56972"><g
                                 clip-path="url(#clipPath56872)"
                                 id="g56970"><g
                                   transform="translate(66.9478,735.751)"
                                   id="g56968"><path
                                   d="m 0,0 c 1.703,0 3.084,1.382 3.084,3.084 0,1.7 -1.381,3.083 -3.084,3.083 -1.416,0 -2.599,-0.963 -2.959,-2.266 h -66.296 l -19.618,-19.616 h -66.998 V 1.526 h -151.793 v -1.639 h 150.155 v -17.241 h 69.316 L -68.577,2.262 H -2.959 C -2.596,0.963 -1.414,0 0,0"
                                   style="fill:#ffffff;fill-opacity:1;fill-rule:nonzero;stroke:none"
                                   id="path56966" /></g></g></g></g></g></g><g
                         id="g56994"><g
                           id="g56980" /><g
                           id="g56992"><g
                             clip-path="url(#clipPath56876)"
                             id="g56990"><g
                               id="g56988"><g
                                 clip-path="url(#clipPath56880)"
                                 id="g56986"><g
                                   transform="translate(-23.979,725.8579)"
                                   id="g56984"><path
                                   d="m 0,0 19.618,19.617 h 52.505 c 0.36,-1.302 1.541,-2.263 2.956,-2.263 1.703,0 3.084,1.381 3.084,3.08 0,1.701 -1.381,3.084 -3.084,3.084 -1.415,0 -2.595,-0.963 -2.956,-2.263 H 18.938 L -0.681,1.638 H -57.227 V 18.881 H -219.471 V 17.24 H -58.868 V 0 Z"
                                   style="fill:#ffffff;fill-opacity:1;fill-rule:nonzero;stroke:none"
                                   id="path56982" /></g></g></g></g></g></g></g></g></g></g></g></g></g></g></g></g><g
     id="g1639"
     transform="translate(-5.8207841,7.7747535)"><g
       id="g56672"
       transform="matrix(0.35277776,0,0,-0.35277778,-4.9498472e-5,279.40001)"
       clip-path="url(#clipPath1411)"><g
         id="g56674" /><g
         id="g56796"><g
           clip-path="url(#clipPath56678)"
           opacity="0.300003"
           id="g56794"><g
             id="g56792"><g
               clip-path="url(#clipPath56682)"
               id="g56790"><g
                 id="g56730"><g
                   id="g56716" /><g
                   id="g56728"><g
                     clip-path="url(#clipPath56686)"
                     id="g56726"><g
                       id="g56724"><g
                         clip-path="url(#clipPath56690)"
                         id="g56722"><g
                           transform="translate(895.0889,729.6895)"
                           id="g56720"><path
                             d="m 0,0 h -56.105 l -19.619,-19.618 h -21.618 -55.368 v 17.241 h -141.808 v -1.639 h 140.166 v -17.241 h 57.01 22.293 30.546 c 0.359,-1.3 1.54,-2.263 2.957,-2.263 1.7,0 3.081,1.383 3.081,3.082 0,1.701 -1.381,3.082 -3.081,3.082 -1.417,0 -2.596,-0.961 -2.957,-2.262 h -28.906 l 5.044,5.044 h 49.685 c 0.361,-1.304 1.54,-2.262 2.957,-2.262 1.702,0 3.081,1.379 3.081,3.079 0,1.705 -1.379,3.084 -3.081,3.084 -1.415,0 -2.596,-0.962 -2.957,-2.262 h -48.047 l 11.298,11.294 H 0 c 0.357,-1.302 1.537,-2.262 2.953,-2.262 1.705,0 3.084,1.378 3.084,3.081 0,1.703 -1.379,3.081 -3.084,3.081 C 1.541,2.259 0.36,1.301 0,0"
                             style="fill:#ffffff;fill-opacity:1;fill-rule:nonzero;stroke:none"
                             id="path56718" /></g></g></g></g></g></g><g
                 id="g56746"><g
                   id="g56732" /><g
                   id="g56744"><g
                     clip-path="url(#clipPath56694)"
                     id="g56742"><g
                       id="g56740"><g
                         clip-path="url(#clipPath56698)"
                         id="g56738"><g
                           transform="translate(881.3545,736.3706)"
                           id="g56736"><path
                             d="m 0,0 h -45.735 l -19.619,-19.616 h -66.997 v 17.24 h -137.003 v -1.639 h 135.366 v -17.24 h 69.314 l 19.616,19.616 H 0 c 0.362,-1.301 1.542,-2.263 2.957,-2.263 1.704,0 3.082,1.381 3.082,3.08 0,1.702 -1.378,3.084 -3.082,3.084 C 1.542,2.262 0.362,1.3 0,0"
                             style="fill:#ffffff;fill-opacity:1;fill-rule:nonzero;stroke:none"
                             id="path56734" /></g></g></g></g></g></g><g
                 id="g56762"><g
                   id="g56748" /><g
                   id="g56760"><g
                     clip-path="url(#clipPath56702)"
                     id="g56758"><g
                       id="g56756"><g
                         clip-path="url(#clipPath56706)"
                         id="g56754"><g
                           transform="translate(684.3105,721.8691)"
                           id="g56752"><path
                             d="m 0,0 v -9.786 h 27.569 c 0.361,-1.299 1.541,-2.262 2.957,-2.262 1.703,0 3.083,1.381 3.083,3.081 0,1.7 -1.38,3.084 -3.083,3.084 -1.413,0 -2.595,-0.963 -2.957,-2.264 H 1.64 v 6.508 H 46.724 V -17.241 H -11.062 V 0 H -149.503 V -1.639 H -12.704 V -18.88 H 48.364 V 0 Z"
                             style="fill:#ffffff;fill-opacity:1;fill-rule:nonzero;stroke:none"
                             id="path56750" /></g></g></g></g></g></g><g
                 id="g56778"><g
                   id="g56764" /><g
                   id="g56776"><g
                     clip-path="url(#clipPath56710)"
                     id="g56774"><g
                       id="g56772"><g
                         clip-path="url(#clipPath56714)"
                         id="g56770"><g
                           transform="translate(881.5801,746.0928)"
                           id="g56768"><path
                             d="m 0,0 c -1.415,0 -2.599,-0.963 -2.959,-2.264 h -45.737 l -19.617,-19.614 h -56.548 v 17.241 h -159.283 c -0.341,1.323 -1.532,2.304 -2.96,2.304 -1.696,0 -3.07,-1.374 -3.07,-3.069 0,-1.695 1.374,-3.069 3.07,-3.069 1.387,0 2.546,0.928 2.925,2.192 H -126.5 v -17.24 h 58.867 l 19.618,19.618 h 45.056 c 0.363,-1.303 1.544,-2.264 2.959,-2.264 1.702,0 3.083,1.381 3.083,3.081 C 3.083,-1.382 1.702,0 0,0"
                             style="fill:#ffffff;fill-opacity:1;fill-rule:nonzero;stroke:none"
                             id="path56766" /></g></g></g></g></g></g><g
                 transform="translate(537.8926,721.1709)"
                 id="g56782"><path
                   d="m 0,0 c 0,-1.704 -1.381,-3.085 -3.085,-3.085 -1.704,0 -3.085,1.381 -3.085,3.085 0,1.704 1.381,3.085 3.085,3.085 C -1.381,3.085 0,1.704 0,0"
                   style="fill:#ffffff;fill-opacity:1;fill-rule:nonzero;stroke:none"
                   id="path56780" /></g><g
                 transform="translate(555.917,726.874)"
                 id="g56786"><path
                   d="M 0,0 C 0,1.704 1.381,3.085 3.085,3.085 4.789,3.085 6.17,1.704 6.17,0 6.17,-1.704 4.789,-3.085 3.085,-3.085 1.381,-3.085 0,-1.704 0,0"
                   style="fill:#ffffff;fill-opacity:1;fill-rule:nonzero;stroke:none"
                   id="path56784" /></g><path
                 d="m 560.306,725.782 h 40.266 v 1.531 h -40.266 z"
                 style="fill:#ffffff;fill-opacity:1;fill-rule:nonzero;stroke:none"
                 id="path56788" /></g></g></g></g></g><g
       id="g57014"
       transform="matrix(0.35277776,0,0,-0.35277778,-4.9498472e-5,279.40001)"
       clip-path="url(#clipPath1562)"><g
         id="g57016" /><g
         id="g57056"><g
           clip-path="url(#clipPath57020)"
           opacity="0.300003"
           id="g57054"><g
             id="g57052"><g
               clip-path="url(#clipPath57024)"
               id="g57050"><g
                 id="g57048"><g
                   id="g57034" /><g
                   id="g57046"><g
                     clip-path="url(#clipPath57028)"
                     opacity="0.699997"
                     id="g57044"><g
                       id="g57042"><g
                         clip-path="url(#clipPath57032)"
                         id="g57040"><g
                           transform="translate(619.9512,689.6191)"
                           id="g57038"><path
                             d="m 0,0 -19.616,19.62 h -56.108 c -0.36,1.299 -1.539,2.262 -2.956,2.262 -1.701,0 -3.084,-1.382 -3.084,-3.084 0,-1.702 1.383,-3.081 3.084,-3.081 1.417,0 2.596,0.958 2.956,2.262 h 55.427 L -0.68,-1.637 H 15.229 V 0 Z"
                             style="fill:#ffffff;fill-opacity:1;fill-rule:nonzero;stroke:none"
                             id="path57036" /></g></g></g></g></g></g></g></g></g></g></g></g><g
     id="g89207"
     transform="matrix(0.94097605,0,0,1,-1.0403444,0)"><g
       id="g57058"
       transform="matrix(0.35277776,0,0,-0.35277778,0,287.17476)"
       clip-path="url(#clipPath1552)"><g
         id="g57060" /><g
         id="g57070"><g
           clip-path="url(#clipPath57064)"
           id="g57068"><path
             d="M 72.42,22.681 H 569.701 V 24.32 H 72.42 Z"
             style="fill:#131413;fill-opacity:1;fill-rule:nonzero;stroke:none"
             id="path57066" /></g></g></g><g
       id="g57072"
       transform="matrix(0.35277776,0,0,-0.35277778,203.0236,278.88448)"
       clip-path="url(#clipPath1542)"><path
         d="m 0,0 c 0,1.701 -1.38,3.081 -3.081,3.081 -1.702,0 -3.081,-1.38 -3.081,-3.081 0,-1.701 1.379,-3.081 3.081,-3.081 C -1.38,-3.081 0,-1.701 0,0"
         style="fill:#131413;fill-opacity:1;fill-rule:nonzero;stroke:none"
         id="path57074" /></g></g><text
     xml:space="preserve"
     style="font-variant:normal;font-weight:normal;font-stretch:normal;font-size:4.23333px;font-family:'Franklin Gothic Demi';-inkscape-font-specification:FranklinGothic-Demi;writing-mode:lr-tb;fill:#231f20;fill-opacity:1;fill-rule:nonzero;stroke:none;stroke-width:0.352778"
     id="text57086"
     x="12.6063"
     y="280"><tspan
       x="12.6063 14.913673 17.234718"
       y="280"
       sodipodi:role="line"
       id="tspan57084"
       style="font-style:normal;font-variant:normal;font-weight:normal;font-stretch:normal;font-family:Ubuntu;-inkscape-font-specification:Ubuntu;stroke-width:0.352778">118</tspan></text><g
     id="g89196"
     transform="matrix(0.99550061,0,0,1,0.35714221,0)"><g
       id="g57088"
       transform="matrix(0.35277776,0,0,-0.35277778,12.7,192.55097)"><path
         d="M 0,0 H 504"
         style="fill:none;stroke:#000000;stroke-width:0.25;stroke-linecap:butt;stroke-linejoin:miter;stroke-miterlimit:4;stroke-dasharray:none;stroke-opacity:1"
         id="path57090" /></g><g
       id="g57092"
       transform="matrix(0.35277776,0,0,-0.35277778,12.7,103.13948)"><path
         d="M 0,0 H 504"
         style="fill:none;stroke:#000000;stroke-width:0.25;stroke-linecap:butt;stroke-linejoin:miter;stroke-miterlimit:4;stroke-dasharray:none;stroke-opacity:1"
         id="path57094" /></g><g
       id="g57096"
       transform="matrix(0.35277776,0,0,-0.35277778,12.7,199.99455)"><path
         d="M 0,0 H 504"
         style="fill:none;stroke:#000000;stroke-width:0.25;stroke-linecap:butt;stroke-linejoin:miter;stroke-miterlimit:4;stroke-dasharray:none;stroke-opacity:1"
         id="path57098" /></g><g
       id="g57100"
       transform="matrix(0.35277776,0,0,-0.35277778,12.7,147.88927)"><path
         d="M 0,0 H 504"
         style="fill:none;stroke:#000000;stroke-width:0.25;stroke-linecap:butt;stroke-linejoin:miter;stroke-miterlimit:4;stroke-dasharray:none;stroke-opacity:1"
         id="path57102" /></g><g
       id="g57104"
       transform="matrix(0.35277776,0,0,-0.35277778,12.7,58.477783)"><path
         d="M 0,0 H 504"
         style="fill:none;stroke:#000000;stroke-width:0.25;stroke-linecap:butt;stroke-linejoin:miter;stroke-miterlimit:4;stroke-dasharray:none;stroke-opacity:1"
         id="path57106" /></g><g
       id="g57108"
       transform="matrix(0.35277776,0,0,-0.35277778,12.7,244.65625)"><path
         d="M 0,0 H 504"
         style="fill:none;stroke:#000000;stroke-width:0.25;stroke-linecap:butt;stroke-linejoin:miter;stroke-miterlimit:4;stroke-dasharray:none;stroke-opacity:1"
         id="path57110" /></g><g
       id="g57112"
       transform="matrix(0.35277776,0,0,-0.35277778,12.7,125.55844)"><path
         d="M 0,0 H 504"
         style="fill:none;stroke:#000000;stroke-width:0.25;stroke-linecap:butt;stroke-linejoin:miter;stroke-miterlimit:4;stroke-dasharray:none;stroke-opacity:1"
         id="path57114" /></g><g
       id="g57116"
       transform="matrix(0.35277776,0,0,-0.35277778,12.7,222.32538)"><path
         d="M 0,0 H 504"
         style="fill:none;stroke:#000000;stroke-width:0.25;stroke-linecap:butt;stroke-linejoin:miter;stroke-miterlimit:4;stroke-dasharray:none;stroke-opacity:1"
         id="path57118" /></g><g
       id="g57120"
       transform="matrix(0.35277776,0,0,-0.35277778,12.7,170.22014)"><path
         d="M 0,0 H 504"
         style="fill:none;stroke:#000000;stroke-width:0.25;stroke-linecap:butt;stroke-linejoin:miter;stroke-miterlimit:4;stroke-dasharray:none;stroke-opacity:1"
         id="path57122" /></g><g
       id="g57124"
       transform="matrix(0.35277776,0,0,-0.35277778,12.7,80.808616)"><path
         d="M 0,0 H 504"
         style="fill:none;stroke:#000000;stroke-width:0.25;stroke-linecap:butt;stroke-linejoin:miter;stroke-miterlimit:4;stroke-dasharray:none;stroke-opacity:1"
         id="path57126" /></g><g
       id="g57128"
       transform="matrix(0.35277776,0,0,-0.35277778,12.7,266.98708)"><path
         d="M 0,0 H 504"
         style="fill:none;stroke:#000000;stroke-width:0.25;stroke-linecap:butt;stroke-linejoin:miter;stroke-miterlimit:4;stroke-dasharray:none;stroke-opacity:1"
         id="path57130" /></g><g
       id="g57132"
       transform="matrix(0.35277776,0,0,-0.35277778,12.7,110.67122)"><path
         d="M 0,0 H 504"
         style="fill:none;stroke:#000000;stroke-width:0.25;stroke-linecap:butt;stroke-linejoin:miter;stroke-miterlimit:4;stroke-dasharray:none;stroke-opacity:1"
         id="path57134" /></g><g
       id="g57136"
       transform="matrix(0.35277776,0,0,-0.35277778,12.7,207.4382)"><path
         d="M 0,0 H 504"
         style="fill:none;stroke:#000000;stroke-width:0.25;stroke-linecap:butt;stroke-linejoin:miter;stroke-miterlimit:4;stroke-dasharray:none;stroke-opacity:1"
         id="path57138" /></g><g
       id="g57140"
       transform="matrix(0.35277776,0,0,-0.35277778,12.7,155.33292)"><path
         d="M 0,0 H 504"
         style="fill:none;stroke:#000000;stroke-width:0.25;stroke-linecap:butt;stroke-linejoin:miter;stroke-miterlimit:4;stroke-dasharray:none;stroke-opacity:1"
         id="path57142" /></g><g
       id="g57144"
       transform="matrix(0.35277776,0,0,-0.35277778,12.7,65.921429)"><path
         d="M 0,0 H 504"
         style="fill:none;stroke:#000000;stroke-width:0.25;stroke-linecap:butt;stroke-linejoin:miter;stroke-miterlimit:4;stroke-dasharray:none;stroke-opacity:1"
         id="path57146" /></g><g
       id="g57148"
       transform="matrix(0.35277776,0,0,-0.35277778,12.7,252.0999)"><path
         d="M 0,0 H 504"
         style="fill:none;stroke:#000000;stroke-width:0.25;stroke-linecap:butt;stroke-linejoin:miter;stroke-miterlimit:4;stroke-dasharray:none;stroke-opacity:1"
         id="path57150" /></g><g
       id="g57152"
       transform="matrix(0.35277776,0,0,-0.35277778,12.7,133.00208)"><path
         d="M 0,0 H 504"
         style="fill:none;stroke:#000000;stroke-width:0.25;stroke-linecap:butt;stroke-linejoin:miter;stroke-miterlimit:4;stroke-dasharray:none;stroke-opacity:1"
         id="path57154" /></g><g
       id="g57156"
       transform="matrix(0.35277776,0,0,-0.35277778,12.7,229.76903)"><path
         d="M 0,0 H 504"
         style="fill:none;stroke:#000000;stroke-width:0.25;stroke-linecap:butt;stroke-linejoin:miter;stroke-miterlimit:4;stroke-dasharray:none;stroke-opacity:1"
         id="path57158" /></g><g
       id="g57160"
       transform="matrix(0.35277776,0,0,-0.35277778,12.7,177.66379)"><path
         d="M 0,0 H 504"
         style="fill:none;stroke:#000000;stroke-width:0.25;stroke-linecap:butt;stroke-linejoin:miter;stroke-miterlimit:4;stroke-dasharray:none;stroke-opacity:1"
         id="path57162" /></g><g
       id="g57164"
       transform="matrix(0.35277776,0,0,-0.35277778,12.7,88.252192)"><path
         d="M 0,0 H 504"
         style="fill:none;stroke:#000000;stroke-width:0.25;stroke-linecap:butt;stroke-linejoin:miter;stroke-miterlimit:4;stroke-dasharray:none;stroke-opacity:1"
         id="path57166" /></g><g
       id="g57168"
       transform="matrix(0.35277776,0,0,-0.35277778,12.7,118.11486)"><path
         d="M 0,0 H 504"
         style="fill:none;stroke:#000000;stroke-width:0.25;stroke-linecap:butt;stroke-linejoin:miter;stroke-miterlimit:4;stroke-dasharray:none;stroke-opacity:1"
         id="path57170" /></g><g
       id="g57172"
       transform="matrix(0.35277776,0,0,-0.35277778,12.7,214.88184)"><path
         d="M 0,0 H 504"
         style="fill:none;stroke:#000000;stroke-width:0.25;stroke-linecap:butt;stroke-linejoin:miter;stroke-miterlimit:4;stroke-dasharray:none;stroke-opacity:1"
         id="path57174" /></g><g
       id="g57176"
       transform="matrix(0.35277776,0,0,-0.35277778,12.7,162.77649)"><path
         d="M 0,0 H 504"
         style="fill:none;stroke:#000000;stroke-width:0.25;stroke-linecap:butt;stroke-linejoin:miter;stroke-miterlimit:4;stroke-dasharray:none;stroke-opacity:1"
         id="path57178" /></g><g
       id="g57180"
       transform="matrix(0.35277776,0,0,-0.35277778,12.7,73.36497)"><path
         d="M 0,0 H 504"
         style="fill:none;stroke:#000000;stroke-width:0.25;stroke-linecap:butt;stroke-linejoin:miter;stroke-miterlimit:4;stroke-dasharray:none;stroke-opacity:1"
         id="path57182" /></g><g
       id="g57184"
       transform="matrix(0.35277776,0,0,-0.35277778,12.7,259.54344)"><path
         d="M 0,0 H 504"
         style="fill:none;stroke:#000000;stroke-width:0.25;stroke-linecap:butt;stroke-linejoin:miter;stroke-miterlimit:4;stroke-dasharray:none;stroke-opacity:1"
         id="path57186" /></g><g
       id="g57188"
       transform="matrix(0.35277776,0,0,-0.35277778,12.7,140.44573)"><path
         d="M 0,0 H 504"
         style="fill:none;stroke:#000000;stroke-width:0.25;stroke-linecap:butt;stroke-linejoin:miter;stroke-miterlimit:4;stroke-dasharray:none;stroke-opacity:1"
         id="path57190" /></g><g
       id="g57192"
       transform="matrix(0.35277776,0,0,-0.35277778,12.7,237.2126)"><path
         d="M 0,0 H 504"
         style="fill:none;stroke:#000000;stroke-width:0.25;stroke-linecap:butt;stroke-linejoin:miter;stroke-miterlimit:4;stroke-dasharray:none;stroke-opacity:1"
         id="path57194" /></g><g
       id="g57196"
       transform="matrix(0.35277776,0,0,-0.35277778,12.7,185.10733)"><path
         d="M 0,0 H 504"
         style="fill:none;stroke:#000000;stroke-width:0.25;stroke-linecap:butt;stroke-linejoin:miter;stroke-miterlimit:4;stroke-dasharray:none;stroke-opacity:1"
         id="path57198" /></g><g
       id="g57200"
       transform="matrix(0.35277776,0,0,-0.35277778,12.7,95.695838)"><path
         d="M 0,0 H 504"
         style="fill:none;stroke:#000000;stroke-width:0.25;stroke-linecap:butt;stroke-linejoin:miter;stroke-miterlimit:4;stroke-dasharray:none;stroke-opacity:1"
         id="path57202" /></g></g></svg>
