<?xml version="1.0" encoding="UTF-8" standalone="no"?>
<!-- Created with Inkscape (http://www.inkscape.org/) -->

<svg
   width="210mm"
   height="297mm"
   viewBox="0 0 210 297"
   version="1.1"
   id="svg5"
   xml:space="preserve"
   sodipodi:docname="130_Bitcoin Diplom - Arbeitsbuch.svg"
   inkscape:version="1.2.2 (b0a8486, 2022-12-01)"
   inkscape:export-filename="130_Bitcoin Diplom - Arbeitsbuch.pdf"
   inkscape:export-xdpi="600"
   inkscape:export-ydpi="600"
   xmlns:inkscape="http://www.inkscape.org/namespaces/inkscape"
   xmlns:sodipodi="http://sodipodi.sourceforge.net/DTD/sodipodi-0.dtd"
   xmlns="http://www.w3.org/2000/svg"
   xmlns:svg="http://www.w3.org/2000/svg"><sodipodi:namedview
     id="namedview7"
     pagecolor="#ffffff"
     bordercolor="#000000"
     borderopacity="0.25"
     inkscape:showpageshadow="2"
     inkscape:pageopacity="0.0"
     inkscape:pagecheckerboard="0"
     inkscape:deskcolor="#d1d1d1"
     inkscape:document-units="mm"
     showgrid="false"
     inkscape:zoom="0.46947952"
     inkscape:cx="367.42817"
     inkscape:cy="563.38986"
     inkscape:window-width="1280"
     inkscape:window-height="747"
     inkscape:window-x="0"
     inkscape:window-y="25"
     inkscape:window-maximized="0"
     inkscape:current-layer="svg5" /><defs
     id="defs2"><linearGradient
       x1="0"
       y1="0"
       x2="1"
       y2="0"
       gradientUnits="userSpaceOnUse"
       gradientTransform="matrix(-188.21363,-325.99559,-325.99557,188.21364,202.05679,302.6978)"
       spreadMethod="pad"
       id="linearGradient176"><stop
         style="stop-opacity:1;stop-color:#5e3197"
         offset="0"
         id="stop170" /><stop
         style="stop-opacity:1;stop-color:#3c2973"
         offset="0.175676"
         id="stop172" /><stop
         style="stop-opacity:1;stop-color:#171b3a"
         offset="1"
         id="stop174" /></linearGradient><clipPath
       clipPathUnits="userSpaceOnUse"
       id="clipPath186"><path
         d="M 0,0 H 612 V 792 H 0 Z"
         id="path184" /></clipPath><clipPath
       clipPathUnits="userSpaceOnUse"
       id="clipPath310"><path
         d="M 590.175,642.832 H 956.494 V 599.728 H 590.175 Z"
         id="path308" /></clipPath><clipPath
       clipPathUnits="userSpaceOnUse"
       id="clipPath314"><path
         d="m 590.175,599.728 h 366.319 v 43.104 H 590.175 Z"
         id="path312" /></clipPath><clipPath
       clipPathUnits="userSpaceOnUse"
       id="clipPath318"><path
         d="M 590.175,618.609 H 788.043 V 599.728 H 590.175 Z"
         id="path316" /></clipPath><clipPath
       clipPathUnits="userSpaceOnUse"
       id="clipPath322"><path
         d="m 590.175,599.728 h 197.868 v 18.881 H 590.175 Z"
         id="path320" /></clipPath><clipPath
       clipPathUnits="userSpaceOnUse"
       id="clipPath354"><path
         d="M 405.051,388.222 H 1079.93 V -16.7801 H 405.051 Z"
         id="path352" /></clipPath><clipPath
       clipPathUnits="userSpaceOnUse"
       id="clipPath358"><path
         d="M 405.051,-16.78 H 1079.93 V 388.222 H 405.051 Z"
         id="path356" /></clipPath><clipPath
       clipPathUnits="userSpaceOnUse"
       id="clipPath362"><path
         d="M 511.454,299.603 H 909.142 V 227.356 H 511.454 Z"
         id="path360" /></clipPath><clipPath
       clipPathUnits="userSpaceOnUse"
       id="clipPath366"><path
         d="m 511.454,227.356 h 397.688 v 72.247 H 511.454 Z"
         id="path364" /></clipPath><clipPath
       clipPathUnits="userSpaceOnUse"
       id="clipPath370"><path
         d="M 511.454,306.283 H 895.412 V 234.036 H 511.454 Z"
         id="path368" /></clipPath><clipPath
       clipPathUnits="userSpaceOnUse"
       id="clipPath374"><path
         d="m 511.454,234.036 h 383.958 v 72.247 H 511.454 Z"
         id="path372" /></clipPath><clipPath
       clipPathUnits="userSpaceOnUse"
       id="clipPath378"><path
         d="M 541.24,316.042 H 841.794 V 292.525 H 541.24 Z"
         id="path376" /></clipPath><clipPath
       clipPathUnits="userSpaceOnUse"
       id="clipPath382"><path
         d="m 541.24,292.525 h 300.554 v 23.517 H 541.24 Z"
         id="path380" /></clipPath><clipPath
       clipPathUnits="userSpaceOnUse"
       id="clipPath386"><path
         d="M 537.878,322.724 H 828.063 V 299.207 H 537.878 Z"
         id="path384" /></clipPath><clipPath
       clipPathUnits="userSpaceOnUse"
       id="clipPath390"><path
         d="m 537.878,299.207 h 290.185 v 23.517 H 537.878 Z"
         id="path388" /></clipPath><clipPath
       clipPathUnits="userSpaceOnUse"
       id="clipPath394"><path
         d="M 535.145,330.184 H 825.329 V 306.667 H 535.145 Z"
         id="path392" /></clipPath><clipPath
       clipPathUnits="userSpaceOnUse"
       id="clipPath398"><path
         d="m 535.145,306.667 h 290.184 v 23.517 H 535.145 Z"
         id="path396" /></clipPath><clipPath
       clipPathUnits="userSpaceOnUse"
       id="clipPath402"><path
         d="M 414.225,262.318 H 683.319 V 239.999 H 414.225 Z"
         id="path400" /></clipPath><clipPath
       clipPathUnits="userSpaceOnUse"
       id="clipPath406"><path
         d="m 414.225,239.999 h 269.094 v 22.319 H 414.225 Z"
         id="path404" /></clipPath><clipPath
       clipPathUnits="userSpaceOnUse"
       id="clipPath410"><path
         d="M 408.131,278.723 H 704.715 V 255.206 H 408.131 Z"
         id="path408" /></clipPath><clipPath
       clipPathUnits="userSpaceOnUse"
       id="clipPath414"><path
         d="m 408.131,255.206 h 296.584 v 23.517 H 408.131 Z"
         id="path412" /></clipPath><clipPath
       clipPathUnits="userSpaceOnUse"
       id="clipPath418"><path
         d="M 611.596,76.257 H 1015.2 V 54.092 H 611.596 Z"
         id="path416" /></clipPath><clipPath
       clipPathUnits="userSpaceOnUse"
       id="clipPath422"><path
         d="M 611.596,54.092 H 1015.2 V 76.257 H 611.596 Z"
         id="path420" /></clipPath><clipPath
       clipPathUnits="userSpaceOnUse"
       id="clipPath426"><path
         d="M 584.564,82.9388 H 1004.67 V 61.6834 H 584.564 Z"
         id="path424" /></clipPath><clipPath
       clipPathUnits="userSpaceOnUse"
       id="clipPath430"><path
         d="M 584.564,61.683 H 1004.67 V 82.938 H 584.564 Z"
         id="path428" /></clipPath><clipPath
       clipPathUnits="userSpaceOnUse"
       id="clipPath434"><path
         d="M 520.616,67.8032 H 818.249 V 44.2855 H 520.616 Z"
         id="path432" /></clipPath><clipPath
       clipPathUnits="userSpaceOnUse"
       id="clipPath438"><path
         d="M 520.616,44.286 H 818.249 V 67.804 H 520.616 Z"
         id="path436" /></clipPath><clipPath
       clipPathUnits="userSpaceOnUse"
       id="clipPath442"><path
         d="M 462.607,352.504 H 731.7 v -37.42 H 462.607 Z"
         id="path440" /></clipPath><clipPath
       clipPathUnits="userSpaceOnUse"
       id="clipPath446"><path
         d="M 462.607,315.084 H 731.7 v 37.42 H 462.607 Z"
         id="path444" /></clipPath><clipPath
       clipPathUnits="userSpaceOnUse"
       id="clipPath450"><path
         d="M 456.512,368.908 H 773.335 V 345.392 H 456.512 Z"
         id="path448" /></clipPath><clipPath
       clipPathUnits="userSpaceOnUse"
       id="clipPath454"><path
         d="m 456.512,345.392 h 316.823 v 23.516 H 456.512 Z"
         id="path452" /></clipPath><clipPath
       clipPathUnits="userSpaceOnUse"
       id="clipPath458"><path
         d="M 482.198,380.761 H 677.869 V 359.618 H 482.198 Z"
         id="path456" /></clipPath><clipPath
       clipPathUnits="userSpaceOnUse"
       id="clipPath462"><path
         d="m 482.198,359.618 h 195.671 v 21.143 H 482.198 Z"
         id="path460" /></clipPath><clipPath
       clipPathUnits="userSpaceOnUse"
       id="clipPath466"><path
         d="M 432.487,53.657 H 1079.93 V 12.9952 H 432.487 Z"
         id="path464" /></clipPath><clipPath
       clipPathUnits="userSpaceOnUse"
       id="clipPath470"><path
         d="M 432.487,12.995 H 1079.93 V 53.657 H 432.487 Z"
         id="path468" /></clipPath><clipPath
       clipPathUnits="userSpaceOnUse"
       id="clipPath474"><path
         d="M 520.269,60.3448 H 834.097 V 36.8243 H 520.269 Z"
         id="path472" /></clipPath><clipPath
       clipPathUnits="userSpaceOnUse"
       id="clipPath478"><path
         d="M 520.269,36.824 H 834.097 V 60.345 H 520.269 Z"
         id="path476" /></clipPath><clipPath
       clipPathUnits="userSpaceOnUse"
       id="clipPath482"><path
         d="m 508.373,231.436 h 6.161 v -6.16 h -6.161 z"
         id="path480" /></clipPath><clipPath
       clipPathUnits="userSpaceOnUse"
       id="clipPath486"><path
         d="m 508.373,225.276 h 6.161 v 6.16 h -6.161 z"
         id="path484" /></clipPath><clipPath
       clipPathUnits="userSpaceOnUse"
       id="clipPath490"><path
         d="M 456.166,359.187 H 741.2 V 327.105 H 456.166 Z"
         id="path488" /></clipPath><clipPath
       clipPathUnits="userSpaceOnUse"
       id="clipPath494"><path
         d="M 456.166,327.105 H 741.2 v 32.082 H 456.166 Z"
         id="path492" /></clipPath><clipPath
       clipPathUnits="userSpaceOnUse"
       id="clipPath498"><path
         d="m 476.385,388.222 h 208.86 v -21.143 h -208.86 z"
         id="path496" /></clipPath><clipPath
       clipPathUnits="userSpaceOnUse"
       id="clipPath502"><path
         d="m 476.385,367.079 h 208.86 v 21.143 h -208.86 z"
         id="path500" /></clipPath><clipPath
       clipPathUnits="userSpaceOnUse"
       id="clipPath506"><path
         d="M 482.479,376.35 H 667.624 V 352.939 H 482.479 Z"
         id="path504" /></clipPath><clipPath
       clipPathUnits="userSpaceOnUse"
       id="clipPath510"><path
         d="M 482.479,352.939 H 667.624 V 376.35 H 482.479 Z"
         id="path508" /></clipPath><clipPath
       clipPathUnits="userSpaceOnUse"
       id="clipPath514"><path
         d="M 472.397,309.042 H 673.343 V 287.08 H 472.397 Z"
         id="path512" /></clipPath><clipPath
       clipPathUnits="userSpaceOnUse"
       id="clipPath518"><path
         d="m 472.397,287.08 h 200.946 v 21.962 H 472.397 Z"
         id="path516" /></clipPath><clipPath
       clipPathUnits="userSpaceOnUse"
       id="clipPath522"><path
         d="M 405.051,269.001 H 692.819 V 247.743 H 405.051 Z"
         id="path520" /></clipPath><clipPath
       clipPathUnits="userSpaceOnUse"
       id="clipPath526"><path
         d="m 405.051,247.743 h 287.768 v 21.258 H 405.051 Z"
         id="path524" /></clipPath><clipPath
       clipPathUnits="userSpaceOnUse"
       id="clipPath810"><g
         id="g819"><g
           id="g817"><g
             id="g815"><path
               d="M 3.4771572e-4,8.24e-6 H -5.0620426e-6 V 279.40001 H 215.89998 V 8.24e-6 v 0 z"
               id="path812"
               style="stroke-width:0.352778" /></g></g></g></clipPath></defs><path
     d="M 3.4771572e-4,8.24e-6 H -5.0620426e-6 V 279.40001 H 215.89998 V 8.24e-6 v 0 z"
     style="fill:url(#linearGradient176);stroke:none;stroke-width:0.352778"
     id="path178"
     clip-path="url(#clipPath810)"
     transform="scale(0.97267265,1.0629921)" /><g
     id="g180"
     transform="matrix(0.35277776,0,0,-0.35277778,-5.8208387,279.40001)"><g
       id="g182"
       clip-path="url(#clipPath186)"><g
         id="g188"
         transform="translate(288.6152,80.1055)"><path
           d="m 0,0 c -0.509,-0.449 -1.285,-0.675 -2.322,-0.675 h -2.549 l 0.937,3.947 c 0.207,0.035 0.52,0.065 0.935,0.09 0.416,0.027 0.805,0.04 1.168,0.04 0.331,0 0.649,-0.029 0.962,-0.091 0.31,-0.06 0.588,-0.16 0.83,-0.297 C 0.206,2.874 0.399,2.688 0.545,2.454 0.694,2.221 0.767,1.939 0.767,1.61 0.767,0.987 0.512,0.449 0,0 m -0.583,-7.144 c -0.261,-0.364 -0.595,-0.65 -1,-0.857 -0.408,-0.207 -0.867,-0.35 -1.376,-0.429 -0.512,-0.078 -1.027,-0.116 -1.548,-0.116 -0.364,0 -0.756,0.013 -1.18,0.038 -0.424,0.029 -0.775,0.066 -1.051,0.118 l 1.115,4.676 h 2.806 c 0.467,0 0.87,-0.061 1.208,-0.182 0.337,-0.122 0.609,-0.278 0.818,-0.468 0.208,-0.19 0.36,-0.407 0.456,-0.649 0.094,-0.244 0.14,-0.485 0.14,-0.727 0,-0.571 -0.129,-1.039 -0.388,-1.404 M 4.416,4.143 C 4.184,4.637 3.828,5.064 3.352,5.428 2.875,5.791 2.26,6.083 1.507,6.299 1.475,6.309 1.435,6.311 1.403,6.319 l 0.95,3.425 H 0.288 L -0.586,6.59 c -0.202,0.009 -0.382,0.034 -0.596,0.034 -0.342,0 -0.711,-0.011 -1.081,-0.02 l 0.872,3.14 H -3.457 L -4.356,6.501 C -5.364,6.429 -6.333,6.309 -7.258,6.129 l -4.156,-17.402 c 0.622,-0.135 1.316,-0.234 2.042,-0.316 l -0.94,-3.386 h 2.064 l 0.9,3.242 c 0.558,-0.03 1.118,-0.061 1.662,-0.068 l -0.881,-3.174 h 2.064 l 0.897,3.231 c 0.961,0.081 1.829,0.228 2.581,0.459 1.16,0.352 2.104,0.83 2.83,1.428 0.73,0.596 1.257,1.282 1.585,2.051 0.331,0.772 0.492,1.574 0.492,2.404 0,0.726 -0.181,1.389 -0.545,1.987 -0.363,0.597 -0.934,1.068 -1.713,1.415 0.659,0.294 1.192,0.623 1.598,0.986 0.407,0.364 0.727,0.75 0.962,1.158 0.232,0.405 0.388,0.816 0.466,1.231 0.079,0.417 0.117,0.814 0.117,1.197 0,0.553 -0.117,1.076 -0.351,1.571"
           style="fill:#ffffff;fill-opacity:1;fill-rule:nonzero;stroke:#ffffff;stroke-width:1;stroke-linecap:butt;stroke-linejoin:miter;stroke-miterlimit:10;stroke-dasharray:none;stroke-opacity:1"
           id="path190" /></g><g
         id="g192"
         transform="translate(308.1582,97.1123)"><path
           d="m 0,0 c 0.063,-0.286 0.146,-0.691 0.246,-1.216 0.102,-0.524 0.207,-1.102 0.318,-1.732 0.112,-0.631 0.226,-1.278 0.342,-1.94 0.116,-0.663 0.223,-1.269 0.318,-1.82 0.36,0.551 0.753,1.145 1.176,1.78 0.424,0.636 0.843,1.261 1.256,1.876 0.413,0.614 0.805,1.19 1.177,1.725 C 5.204,-0.792 5.521,-0.35 5.787,0 H 7.98 C 7.906,-0.73 7.809,-1.553 7.687,-2.464 7.564,-3.375 7.427,-4.318 7.273,-5.293 7.119,-6.269 6.958,-7.249 6.788,-8.234 6.619,-9.22 6.449,-10.147 6.279,-11.017 H 3.862 c 0.223,1.081 0.459,2.25 0.709,3.506 0.248,1.256 0.479,2.525 0.692,3.807 C 4.986,-4.138 4.679,-4.623 4.341,-5.158 4,-5.693 3.661,-6.234 3.322,-6.78 2.983,-7.325 2.654,-7.848 2.337,-8.346 2.019,-8.844 1.743,-9.268 1.51,-9.617 h -1.812 c -0.052,0.317 -0.116,0.721 -0.19,1.208 -0.074,0.487 -0.156,1.004 -0.247,1.55 -0.09,0.546 -0.183,1.096 -0.278,1.653 -0.095,0.557 -0.186,1.058 -0.27,1.502 -0.414,-1.282 -0.787,-2.551 -1.121,-3.807 -0.334,-1.256 -0.645,-2.425 -0.931,-3.506 h -2.4 c 0.244,0.87 0.511,1.797 0.803,2.783 0.291,0.985 0.593,1.968 0.907,2.949 0.312,0.979 0.621,1.926 0.929,2.837 0.307,0.911 0.599,1.727 0.875,2.448 z"
           style="fill:#ffffff;fill-opacity:1;fill-rule:nonzero;stroke:none"
           id="path194" /></g><g
         id="g196"
         transform="translate(319.1602,95.4756)"><path
           d="m 0,0 c -0.329,0 -0.626,0.098 -0.89,0.294 -0.265,0.196 -0.398,0.495 -0.398,0.898 0,0.222 0.045,0.432 0.135,0.627 0.09,0.197 0.21,0.367 0.358,0.509 0.148,0.144 0.32,0.257 0.517,0.342 0.196,0.085 0.405,0.127 0.628,0.127 0.329,0 0.625,-0.098 0.89,-0.294 C 1.505,2.308 1.638,2.008 1.638,1.605 1.638,1.383 1.593,1.174 1.502,0.978 1.412,0.781 1.293,0.611 1.145,0.469 0.996,0.325 0.824,0.211 0.628,0.127 0.432,0.042 0.223,0 0,0 m -1.146,-9.38 h -2.352 l 1.987,8.362 h 2.369 z"
           style="fill:#ffffff;fill-opacity:1;fill-rule:nonzero;stroke:none"
           id="path198" /></g><g
         id="g200"
         transform="translate(304.3286,81.1211)"><path
           d="m 0,0 c -0.18,0 -0.334,-0.006 -0.461,-0.017 -0.127,-0.01 -0.255,-0.021 -0.382,-0.031 l -0.763,-3.243 h 0.62 c 0.445,0 0.85,0.034 1.215,0.103 0.366,0.069 0.679,0.183 0.938,0.342 0.26,0.159 0.461,0.364 0.604,0.613 0.144,0.249 0.216,0.552 0.216,0.913 0,0.477 -0.173,0.816 -0.518,1.017 C 1.125,-0.102 0.636,0 0,0 M 0.207,2.082 C 0.874,2.082 1.475,2.011 2.01,1.867 2.545,1.725 2.999,1.518 3.37,1.248 3.741,0.978 4.027,0.646 4.228,0.254 4.429,-0.139 4.53,-0.578 4.53,-1.065 4.53,-1.86 4.376,-2.533 4.069,-3.084 3.762,-3.636 3.338,-4.081 2.797,-4.42 2.257,-4.759 1.621,-5.003 0.89,-5.151 0.159,-5.3 -0.636,-5.374 -1.495,-5.374 h -0.62 l -0.89,-3.688 h -2.464 l 2.591,10.858 c 0.572,0.106 1.115,0.181 1.629,0.223 0.514,0.042 1,0.063 1.456,0.063"
           style="fill:#ffffff;fill-opacity:1;fill-rule:nonzero;stroke:none"
           id="path202" /></g><g
         id="g204"
         transform="translate(314.2148,78.3867)"><path
           d="M 0,0 C -0.212,0.053 -0.422,0.104 -0.628,0.15 -0.835,0.198 -1.14,0.223 -1.542,0.223 -1.69,0.223 -1.854,0.209 -2.035,0.183 -2.215,0.156 -2.363,0.127 -2.48,0.095 l -1.542,-6.422 h -2.37 l 1.909,7.916 c 0.455,0.148 0.966,0.289 1.534,0.422 0.567,0.132 1.206,0.198 1.916,0.198 0.264,0 0.558,-0.023 0.882,-0.071 C 0.172,2.09 0.455,2.013 0.699,1.907 Z"
           style="fill:#ffffff;fill-opacity:1;fill-rule:nonzero;stroke:none"
           id="path206" /></g><g
         id="g208"
         transform="translate(317.5371,81.4385)"><path
           d="m 0,0 c -0.329,0 -0.626,0.098 -0.89,0.294 -0.265,0.196 -0.398,0.495 -0.398,0.898 0,0.223 0.045,0.432 0.135,0.628 0.09,0.197 0.21,0.366 0.358,0.509 0.148,0.143 0.32,0.257 0.517,0.342 C -0.082,2.756 0.127,2.798 0.35,2.798 0.679,2.798 0.975,2.7 1.24,2.504 1.505,2.308 1.638,2.009 1.638,1.605 1.638,1.383 1.593,1.174 1.502,0.978 1.412,0.781 1.293,0.612 1.145,0.469 0.996,0.326 0.824,0.212 0.628,0.128 0.432,0.042 0.223,0 0,0 m -1.146,-9.379 h -2.352 l 1.987,8.361 h 2.369 z"
           style="fill:#ffffff;fill-opacity:1;fill-rule:nonzero;stroke:none"
           id="path210" /></g><g
         id="g212"
         transform="translate(319.8262,80.04)"><path
           d="m 0,0 c 0.18,0.053 0.374,0.113 0.581,0.183 0.207,0.068 0.439,0.131 0.699,0.19 0.26,0.059 0.551,0.106 0.874,0.144 0.324,0.037 0.698,0.055 1.121,0.055 0.509,0 0.93,-0.064 1.264,-0.191 0.334,-0.127 0.639,-0.318 0.914,-0.572 0.392,0.222 0.781,0.405 1.168,0.548 0.387,0.143 0.84,0.215 1.36,0.215 0.498,0 0.923,-0.066 1.28,-0.199 0.354,-0.133 0.648,-0.323 0.882,-0.572 0.233,-0.249 0.403,-0.546 0.508,-0.89 0.107,-0.345 0.16,-0.723 0.16,-1.137 0,-0.19 -0.014,-0.392 -0.04,-0.604 -0.027,-0.212 -0.067,-0.424 -0.12,-0.636 L 9.57,-7.98 H 7.201 l 1.05,4.418 c 0.032,0.149 0.065,0.316 0.103,0.501 0.037,0.186 0.056,0.369 0.056,0.549 0,0.296 -0.069,0.553 -0.207,0.771 -0.139,0.217 -0.408,0.326 -0.811,0.326 -0.222,0 -0.434,-0.04 -0.636,-0.119 C 6.555,-1.613 6.375,-1.696 6.216,-1.78 6.237,-1.866 6.248,-1.945 6.248,-2.02 v -0.206 c 0,-0.19 -0.014,-0.392 -0.04,-0.604 C 6.182,-3.042 6.142,-3.254 6.089,-3.466 L 5.008,-7.98 H 2.64 l 1.048,4.418 c 0.033,0.149 0.067,0.316 0.104,0.501 0.037,0.186 0.056,0.369 0.056,0.549 0,0.296 -0.07,0.553 -0.207,0.771 -0.138,0.217 -0.409,0.326 -0.811,0.326 -0.169,0 -0.312,-0.008 -0.429,-0.023 C 2.284,-1.455 2.146,-1.479 1.987,-1.511 L 0.445,-7.98 h -2.368 z"
           style="fill:#ffffff;fill-opacity:1;fill-rule:nonzero;stroke:none"
           id="path214" /></g><g
         id="g216"
         transform="translate(335.8193,78.7676)"><path
           d="m 0,0 c -0.541,0 -1.015,-0.193 -1.423,-0.58 -0.408,-0.387 -0.676,-0.899 -0.803,-1.534 0.658,0.021 1.187,0.077 1.59,0.167 0.403,0.09 0.715,0.199 0.938,0.326 0.222,0.127 0.371,0.265 0.445,0.413 0.074,0.148 0.111,0.297 0.111,0.445 C 0.858,-0.254 0.572,0 0,0 m -4.627,-3.434 c 0,0.679 0.12,1.336 0.358,1.972 0.239,0.636 0.575,1.2 1.009,1.692 0.435,0.494 0.963,0.891 1.583,1.193 0.619,0.302 1.306,0.453 2.058,0.453 0.371,0 0.716,-0.053 1.033,-0.159 C 1.732,1.611 2.011,1.457 2.249,1.256 2.487,1.055 2.673,0.809 2.806,0.517 2.938,0.226 3.004,-0.105 3.004,-0.477 3.004,-1.07 2.871,-1.573 2.606,-1.987 2.342,-2.4 1.974,-2.736 1.502,-2.996 1.03,-3.256 0.472,-3.444 -0.175,-3.561 c -0.646,-0.117 -1.351,-0.174 -2.114,-0.174 0.073,-0.446 0.235,-0.761 0.484,-0.946 0.249,-0.186 0.645,-0.279 1.185,-0.279 0.339,0 0.683,0.029 1.033,0.088 0.35,0.058 0.678,0.145 0.985,0.263 L 1.573,-6.47 C 1.276,-6.586 0.897,-6.692 0.437,-6.787 c -0.461,-0.096 -0.961,-0.144 -1.502,-0.144 -0.658,0 -1.211,0.093 -1.662,0.279 -0.451,0.185 -0.816,0.436 -1.097,0.755 -0.28,0.318 -0.485,0.688 -0.612,1.113 -0.126,0.423 -0.191,0.874 -0.191,1.35"
           style="fill:#ffffff;fill-opacity:1;fill-rule:nonzero;stroke:none"
           id="path218" /></g><g
         id="g220"
         transform="translate(344.5791,78.3867)"><path
           d="M 0,0 C -0.212,0.053 -0.421,0.104 -0.628,0.15 -0.835,0.198 -1.14,0.223 -1.542,0.223 -1.69,0.223 -1.854,0.209 -2.034,0.183 -2.215,0.156 -2.363,0.127 -2.479,0.095 l -1.543,-6.422 h -2.369 l 1.908,7.916 c 0.456,0.148 0.966,0.289 1.535,0.422 0.566,0.132 1.205,0.198 1.915,0.198 0.264,0 0.558,-0.023 0.882,-0.071 C 0.172,2.09 0.456,2.013 0.699,1.907 Z"
           style="fill:#ffffff;fill-opacity:1;fill-rule:nonzero;stroke:none"
           id="path222" /></g><g
         id="g224"
         transform="translate(299.0659,64.5879)"><path
           d="M 0,0 H 1.558 C 2.194,0 2.668,0.138 2.981,0.413 3.293,0.688 3.45,1.018 3.45,1.398 3.45,1.601 3.405,1.772 3.314,1.915 3.225,2.059 3.105,2.173 2.957,2.257 2.809,2.342 2.639,2.403 2.448,2.439 2.258,2.477 2.062,2.495 1.86,2.495 1.638,2.495 1.399,2.487 1.145,2.472 0.891,2.456 0.7,2.438 0.573,2.416 Z m -0.461,-1.859 -0.684,-2.863 c 0.17,-0.031 0.385,-0.055 0.645,-0.071 0.259,-0.016 0.5,-0.024 0.723,-0.024 0.318,0 0.633,0.024 0.946,0.072 0.312,0.047 0.593,0.135 0.842,0.262 0.249,0.127 0.453,0.301 0.612,0.524 0.159,0.223 0.239,0.509 0.239,0.858 0,0.149 -0.029,0.297 -0.088,0.447 -0.058,0.147 -0.151,0.28 -0.278,0.397 -0.127,0.116 -0.294,0.212 -0.5,0.286 -0.207,0.074 -0.454,0.112 -0.74,0.112 z m 0.223,-4.96 c -0.636,0 -1.288,0.026 -1.955,0.079 -0.668,0.053 -1.272,0.137 -1.813,0.254 l 2.544,10.65 C -0.858,4.281 -0.225,4.36 0.437,4.404 1.1,4.445 1.707,4.468 2.258,4.468 2.894,4.468 3.442,4.4 3.903,4.269 4.364,4.136 4.74,3.958 5.031,3.735 5.323,3.513 5.54,3.251 5.684,2.948 5.827,2.646 5.898,2.326 5.898,1.987 5.898,1.754 5.875,1.51 5.827,1.256 5.779,1.001 5.684,0.75 5.54,0.501 5.397,0.252 5.201,0.016 4.952,-0.207 4.703,-0.429 4.377,-0.631 3.975,-0.811 c 0.477,-0.211 0.826,-0.501 1.049,-0.866 0.223,-0.365 0.334,-0.771 0.334,-1.216 0,-0.509 -0.101,-1 -0.302,-1.471 C 4.854,-4.836 4.531,-5.254 4.086,-5.62 3.641,-5.985 3.063,-6.276 2.353,-6.494 1.643,-6.711 0.779,-6.819 -0.238,-6.819"
           style="fill:#ffffff;fill-opacity:1;fill-rule:nonzero;stroke:none"
           id="path226" /></g><g
         id="g228"
         transform="translate(308.3027,67.29)"><path
           d="M 0,0 C -0.331,0 -0.627,0.098 -0.891,0.294 -1.157,0.49 -1.29,0.789 -1.29,1.192 c 0,0.223 0.046,0.432 0.137,0.629 0.09,0.195 0.208,0.366 0.358,0.508 0.147,0.144 0.319,0.257 0.516,0.342 C -0.083,2.756 0.127,2.799 0.35,2.799 0.678,2.799 0.975,2.7 1.239,2.504 1.504,2.308 1.637,2.008 1.637,1.606 1.637,1.383 1.591,1.174 1.501,0.978 1.411,0.781 1.292,0.612 1.144,0.469 0.996,0.326 0.822,0.212 0.627,0.127 0.431,0.042 0.222,0 0,0 m -1.146,-9.379 h -2.353 l 1.987,8.361 h 2.37 z"
           style="fill:#ffffff;fill-opacity:1;fill-rule:nonzero;stroke:none"
           id="path230" /></g><g
         id="g232"
         transform="translate(311.2588,68.3555)"><path
           d="M 0,0 2.465,0.381 1.86,-2.083 H 4.499 L 4.022,-4.021 H 1.399 L 0.7,-6.947 C 0.637,-7.191 0.597,-7.419 0.581,-7.631 0.565,-7.843 0.591,-8.025 0.66,-8.18 c 0.069,-0.153 0.188,-0.272 0.359,-0.357 0.168,-0.085 0.402,-0.127 0.699,-0.127 0.254,0 0.5,0.023 0.739,0.071 0.238,0.048 0.48,0.114 0.723,0.199 l 0.174,-1.812 c -0.317,-0.116 -0.662,-0.217 -1.033,-0.302 -0.371,-0.085 -0.81,-0.127 -1.319,-0.127 -0.731,0 -1.299,0.109 -1.701,0.325 -0.403,0.218 -0.689,0.515 -0.859,0.891 -0.17,0.376 -0.244,0.808 -0.222,1.295 0.021,0.488 0.095,1.002 0.222,1.543 z"
           style="fill:#ffffff;fill-opacity:1;fill-rule:nonzero;stroke:none"
           id="path234" /></g><g
         id="g236"
         transform="translate(315.5195,61.249)"><path
           d="m 0,0 c 0,0.721 0.116,1.399 0.35,2.035 0.233,0.636 0.567,1.193 1.001,1.669 0.434,0.478 0.962,0.854 1.583,1.129 0.62,0.275 1.311,0.413 2.074,0.413 0.476,0 0.903,-0.045 1.279,-0.135 C 6.663,5.021 7.005,4.902 7.312,4.754 L 6.502,2.91 C 6.29,2.994 6.07,3.071 5.842,3.141 5.614,3.209 5.336,3.243 5.008,3.243 4.213,3.243 3.588,2.976 3.132,2.44 2.676,1.905 2.448,1.177 2.448,0.255 c 0,-0.541 0.116,-0.978 0.351,-1.312 0.231,-0.334 0.662,-0.501 1.287,-0.501 0.308,0 0.603,0.033 0.89,0.096 0.286,0.064 0.541,0.143 0.763,0.238 L 5.914,-3.115 C 5.617,-3.231 5.291,-3.335 4.937,-3.425 4.581,-3.516 4.149,-3.561 3.641,-3.561 c -0.658,0 -1.214,0.096 -1.67,0.287 -0.455,0.19 -0.832,0.448 -1.128,0.771 C 0.546,-2.18 0.331,-1.802 0.198,-1.367 0.066,-0.933 0,-0.477 0,0"
           style="fill:#ffffff;fill-opacity:1;fill-rule:nonzero;stroke:none"
           id="path238" /></g><g
         id="g240"
         transform="translate(326.918,64.4922)"><path
           d="m 0,0 c -0.35,0 -0.657,-0.101 -0.922,-0.302 -0.265,-0.201 -0.487,-0.455 -0.668,-0.762 -0.181,-0.308 -0.315,-0.644 -0.405,-1.01 -0.091,-0.365 -0.135,-0.713 -0.135,-1.042 0,-0.54 0.084,-0.956 0.254,-1.247 0.169,-0.292 0.478,-0.438 0.922,-0.438 0.35,0 0.657,0.101 0.922,0.302 0.265,0.201 0.488,0.456 0.668,0.764 0.18,0.306 0.315,0.643 0.405,1.009 0.09,0.366 0.135,0.713 0.135,1.041 0,0.54 -0.084,0.956 -0.254,1.248 C 0.752,-0.146 0.445,0 0,0 m -1.176,-6.804 c -0.562,0 -1.05,0.085 -1.464,0.255 -0.413,0.169 -0.755,0.407 -1.025,0.715 -0.27,0.308 -0.474,0.67 -0.611,1.089 -0.138,0.419 -0.207,0.882 -0.207,1.391 0,0.636 0.103,1.272 0.31,1.908 0.206,0.635 0.511,1.208 0.913,1.717 0.404,0.508 0.896,0.924 1.48,1.248 0.582,0.323 1.25,0.484 2.003,0.484 0.55,0 1.036,-0.085 1.454,-0.254 C 2.096,1.579 2.439,1.341 2.71,1.033 2.98,0.727 3.185,0.363 3.322,-0.056 3.46,-0.474 3.528,-0.937 3.528,-1.446 3.528,-2.082 3.428,-2.718 3.227,-3.354 3.025,-3.99 2.729,-4.562 2.337,-5.071 1.944,-5.58 1.454,-5.995 0.866,-6.318 0.278,-6.642 -0.402,-6.804 -1.176,-6.804"
           style="fill:#ffffff;fill-opacity:1;fill-rule:nonzero;stroke:none"
           id="path242" /></g><g
         id="g244"
         transform="translate(334.2617,67.29)"><path
           d="m 0,0 c -0.33,0 -0.626,0.098 -0.891,0.294 -0.265,0.196 -0.398,0.495 -0.398,0.898 0,0.223 0.046,0.432 0.136,0.629 0.09,0.195 0.209,0.366 0.358,0.508 0.148,0.144 0.319,0.257 0.517,0.342 C -0.082,2.756 0.127,2.799 0.35,2.799 0.678,2.799 0.975,2.7 1.239,2.504 1.505,2.308 1.637,2.008 1.637,1.606 1.637,1.383 1.592,1.174 1.502,0.978 1.412,0.781 1.293,0.612 1.145,0.469 0.996,0.326 0.823,0.212 0.628,0.127 0.432,0.042 0.223,0 0,0 m -1.146,-9.379 h -2.352 l 1.987,8.361 h 2.369 z"
           style="fill:#ffffff;fill-opacity:1;fill-rule:nonzero;stroke:none"
           id="path246" /></g><g
         id="g248"
         transform="translate(336.8672,65.8916)"><path
           d="m 0,0 c 0.181,0.053 0.379,0.113 0.597,0.183 0.216,0.068 0.461,0.132 0.731,0.19 0.271,0.059 0.572,0.106 0.906,0.144 0.334,0.037 0.713,0.055 1.137,0.055 1.25,0 2.108,-0.36 2.574,-1.081 0.467,-0.72 0.546,-1.706 0.24,-2.957 L 5.104,-7.98 H 2.735 l 1.049,4.419 c 0.064,0.276 0.114,0.542 0.151,0.803 0.037,0.26 0.035,0.487 -0.008,0.684 -0.042,0.195 -0.14,0.354 -0.294,0.476 -0.154,0.122 -0.39,0.183 -0.707,0.183 -0.308,0 -0.62,-0.031 -0.938,-0.096 L 0.445,-7.98 h -2.368 z"
           style="fill:#ffffff;fill-opacity:1;fill-rule:nonzero;stroke:none"
           id="path250" /></g><g
         id="g252"
         transform="translate(288.7158,83.0801)"><path
           d="M 0,0 C -0.243,0.139 -0.52,0.237 -0.829,0.297 -1.142,0.359 -1.46,0.389 -1.79,0.389 -2.153,0.389 -2.541,0.375 -2.957,0.349 -3.372,0.323 -3.684,0.293 -3.891,0.259 l -0.935,-3.943 h 2.545 c 1.036,0 1.811,0.226 2.32,0.674 0.511,0.449 0.765,0.987 0.765,1.609 0,0.329 -0.073,0.609 -0.221,0.842 C 0.437,-0.324 0.244,-0.139 0,0"
           style="fill:#f68713;fill-opacity:1;fill-rule:nonzero;stroke:none"
           id="path254" /></g><g
         id="g256"
         transform="translate(287.9648,75.7119)"><path
           d="m 0,0 c -0.209,0.189 -0.481,0.347 -0.817,0.467 -0.338,0.122 -0.741,0.182 -1.207,0.182 h -2.802 l -1.114,-4.67 c 0.275,-0.052 0.626,-0.089 1.049,-0.117 0.424,-0.025 0.816,-0.039 1.179,-0.039 0.521,0 1.034,0.039 1.546,0.117 0.509,0.079 0.967,0.221 1.374,0.428 0.405,0.206 0.739,0.492 0.999,0.856 0.259,0.364 0.388,0.832 0.388,1.401 0,0.243 -0.047,0.483 -0.141,0.728 C 0.359,-0.406 0.207,-0.189 0,0"
           style="fill:#f68713;fill-opacity:1;fill-rule:nonzero;stroke:none"
           id="path258" /></g><g
         id="g260"
         transform="translate(292.9326,80.2139)"><path
           d="m 0,0 c -0.235,-0.407 -0.554,-0.792 -0.96,-1.155 -0.406,-0.364 -0.938,-0.692 -1.597,-0.986 0.779,-0.345 1.349,-0.817 1.712,-1.414 0.363,-0.595 0.544,-1.257 0.544,-1.984 0,-0.829 -0.161,-1.629 -0.491,-2.4 -0.329,-0.769 -0.855,-1.454 -1.583,-2.049 -0.727,-0.597 -1.668,-1.074 -2.828,-1.426 -0.751,-0.231 -1.617,-0.378 -2.577,-0.458 L -8.676,-15.1 h -2.061 l 0.88,3.17 c -0.544,0.007 -1.103,0.039 -1.661,0.069 l -0.898,-3.239 h -2.061 l 0.938,3.382 c -0.725,0.082 -1.418,0.181 -2.039,0.316 l 4.151,17.381 c 0.923,0.178 1.891,0.299 2.898,0.371 l 0.898,3.239 h 2.063 l -0.87,-3.136 c 0.369,0.009 0.737,0.02 1.079,0.02 0.213,0 0.394,-0.026 0.595,-0.035 l 0.873,3.151 h 2.063 L -2.777,6.168 C -2.745,6.16 -2.706,6.157 -2.673,6.148 -1.921,5.933 -1.308,5.641 -0.831,5.277 -0.355,4.915 0,4.488 0.231,3.994 0.466,3.501 0.583,2.978 0.583,2.426 0.583,2.044 0.544,1.646 0.466,1.23 0.388,0.816 0.231,0.405 0,0 M -12.741,16.897 -23.617,-22.319 H -1.42 L 9.456,16.897 Z"
           style="fill:#f68713;fill-opacity:1;fill-rule:nonzero;stroke:none"
           id="path262" /></g><g
         id="g264"
         transform="translate(268.041,51.9775)"><path
           d="M 0,0 H 3.074 L 2.97,-0.47 H 0.42 L -0.043,-2.386 H 2.223 L 2.12,-2.847 H -0.138 L -0.685,-5.04 H 2.048 L 1.953,-5.509 h -3.272 z"
           style="fill:#ffffff;fill-opacity:1;fill-rule:nonzero;stroke:none"
           id="path266" /></g><g
         id="g268"
         transform="translate(274.9243,51.9775)"><path
           d="M 0,0 H 0.538 L -0.67,-5.048 H 1.771 L 1.667,-5.509 h -2.979 z"
           style="fill:#ffffff;fill-opacity:1;fill-rule:nonzero;stroke:none"
           id="path270" /></g><g
         id="g272"
         transform="translate(284.6743,47.208)"><path
           d="M 0,0 C 0.154,-0.117 0.341,-0.211 0.561,-0.282 0.78,-0.354 1.009,-0.39 1.249,-0.39 c 0.19,0 0.374,0.023 0.552,0.069 0.177,0.044 0.336,0.115 0.476,0.214 0.141,0.098 0.254,0.222 0.338,0.374 0.085,0.15 0.128,0.332 0.128,0.544 0,0.211 -0.051,0.383 -0.152,0.516 C 2.491,1.459 2.365,1.573 2.214,1.669 2.063,1.764 1.899,1.854 1.721,1.936 1.543,2.018 1.379,2.116 1.229,2.233 1.077,2.35 0.951,2.491 0.851,2.658 0.75,2.825 0.7,3.045 0.7,3.314 c 0,0.192 0.039,0.38 0.119,0.569 0.079,0.187 0.202,0.356 0.37,0.505 0.166,0.148 0.376,0.268 0.627,0.361 0.252,0.093 0.55,0.14 0.895,0.14 0.227,0 0.443,-0.024 0.647,-0.069 C 3.563,4.775 3.784,4.695 4.022,4.578 L 3.744,4.125 C 3.559,4.236 3.375,4.314 3.191,4.359 3.009,4.404 2.817,4.428 2.615,4.428 2.44,4.428 2.272,4.407 2.111,4.367 1.949,4.327 1.805,4.267 1.678,4.185 1.55,4.103 1.448,3.994 1.372,3.858 1.294,3.724 1.256,3.562 1.256,3.37 1.256,3.157 1.306,2.985 1.407,2.853 1.507,2.721 1.635,2.606 1.789,2.511 1.942,2.416 2.107,2.327 2.282,2.245 2.457,2.163 2.621,2.065 2.774,1.951 2.928,1.837 3.055,1.692 3.156,1.518 3.256,1.343 3.307,1.115 3.307,0.834 3.307,0.628 3.266,0.423 3.184,0.219 3.102,0.015 2.972,-0.167 2.794,-0.326 2.617,-0.485 2.392,-0.614 2.119,-0.711 1.846,-0.81 1.519,-0.858 1.137,-0.858 c -0.255,0 -0.502,0.034 -0.743,0.103 -0.242,0.068 -0.465,0.164 -0.672,0.286 z"
           style="fill:#ffffff;fill-opacity:1;fill-rule:nonzero;stroke:none"
           id="path274" /></g><g
         id="g276"
         transform="translate(294.312,51.3574)"><path
           d="M 0,0 C -0.328,-0.492 -0.645,-0.977 -0.951,-1.454 -1.258,-1.932 -1.56,-2.419 -1.855,-2.918 H 0.406 C 0.349,-2.441 0.288,-1.962 0.222,-1.482 0.156,-1.003 0.083,-0.509 0,0 M 0.64,-4.889 C 0.612,-4.635 0.584,-4.383 0.557,-4.134 0.53,-3.884 0.5,-3.633 0.466,-3.379 h -2.59 C -2.263,-3.622 -2.402,-3.868 -2.541,-4.117 -2.68,-4.365 -2.817,-4.623 -2.953,-4.889 h -0.588 c 0.547,0.986 1.11,1.945 1.688,2.877 0.579,0.933 1.146,1.811 1.705,2.632 H 0.428 C 0.56,-0.154 0.69,-0.99 0.82,-1.889 c 0.129,-0.897 0.255,-1.898 0.376,-3 z"
           style="fill:#ffffff;fill-opacity:1;fill-rule:nonzero;stroke:none"
           id="path278" /></g><g
         id="g280"
         transform="translate(300.2554,51.9775)"><path
           d="M 0,0 H 0.538 L -0.67,-5.048 H 1.771 L 1.667,-5.509 h -2.978 z"
           style="fill:#ffffff;fill-opacity:1;fill-rule:nonzero;stroke:none"
           id="path282" /></g><g
         id="g284"
         transform="translate(306.4736,46.4688)"><path
           d="m 0,0 h -0.502 c -0.076,0.371 -0.145,0.739 -0.212,1.104 -0.067,0.366 -0.13,0.761 -0.191,1.185 -0.061,0.424 -0.123,0.896 -0.184,1.415 -0.061,0.52 -0.123,1.121 -0.187,1.805 h 0.525 C -0.703,4.957 -0.655,4.451 -0.607,3.99 -0.559,3.528 -0.51,3.1 -0.459,2.702 -0.409,2.305 -0.357,1.934 -0.303,1.589 -0.25,1.245 -0.192,0.916 -0.127,0.604 0.38,1.298 0.877,2.059 1.36,2.885 1.846,3.712 2.314,4.586 2.771,5.509 H 3.374 C 3.04,4.889 2.726,4.317 2.429,3.795 2.133,3.273 1.848,2.788 1.571,2.341 1.296,1.894 1.03,1.478 0.773,1.093 0.518,0.709 0.26,0.344 0,0"
           style="fill:#ffffff;fill-opacity:1;fill-rule:nonzero;stroke:none"
           id="path286" /></g><g
         id="g288"
         transform="translate(314.6367,51.3574)"><path
           d="M 0,0 C -0.328,-0.492 -0.646,-0.977 -0.952,-1.454 -1.259,-1.932 -1.56,-2.419 -1.855,-2.918 H 0.406 C 0.349,-2.441 0.288,-1.962 0.222,-1.482 0.156,-1.003 0.082,-0.509 0,0 M 0.64,-4.889 C 0.611,-4.635 0.584,-4.383 0.557,-4.134 0.529,-3.884 0.5,-3.633 0.466,-3.379 H -2.125 C -2.264,-3.622 -2.402,-3.868 -2.541,-4.117 -2.68,-4.365 -2.817,-4.623 -2.953,-4.889 h -0.588 c 0.546,0.986 1.108,1.945 1.688,2.877 0.579,0.933 1.146,1.811 1.704,2.632 h 0.576 c 0.132,-0.774 0.263,-1.61 0.392,-2.509 0.13,-0.897 0.255,-1.898 0.377,-3 z"
           style="fill:#ffffff;fill-opacity:1;fill-rule:nonzero;stroke:none"
           id="path290" /></g><g
         id="g292"
         transform="translate(319.8965,46.9453)"><path
           d="m 0,0 c 0.133,-0.021 0.26,-0.035 0.382,-0.043 0.122,-0.008 0.244,-0.013 0.365,-0.013 0.497,0 0.937,0.073 1.315,0.219 0.378,0.147 0.695,0.346 0.949,0.6 0.254,0.255 0.446,0.555 0.575,0.903 0.13,0.347 0.195,0.724 0.195,1.132 0,0.609 -0.152,1.065 -0.456,1.367 C 3.021,4.468 2.545,4.618 1.899,4.618 1.768,4.618 1.633,4.613 1.498,4.603 1.364,4.592 1.227,4.576 1.089,4.555 Z m 0.636,4.929 c 0.26,0.057 0.496,0.097 0.707,0.119 0.212,0.02 0.421,0.031 0.628,0.031 0.81,0 1.411,-0.195 1.802,-0.588 C 4.166,4.1 4.361,3.542 4.361,2.821 4.361,2.334 4.282,1.886 4.123,1.475 3.965,1.064 3.729,0.71 3.42,0.413 3.11,0.116 2.725,-0.114 2.265,-0.278 1.804,-0.442 1.271,-0.524 0.667,-0.524 c -0.105,0 -0.218,0.003 -0.337,0.011 -0.119,0.008 -0.236,0.018 -0.35,0.029 -0.114,0.01 -0.224,0.024 -0.33,0.044 -0.105,0.017 -0.198,0.04 -0.278,0.067 z"
           style="fill:#ffffff;fill-opacity:1;fill-rule:nonzero;stroke:none"
           id="path294" /></g><g
         id="g296"
         transform="translate(328.3984,48.4316)"><path
           d="m 0,0 c 0,-0.271 0.037,-0.506 0.11,-0.707 0.075,-0.202 0.178,-0.367 0.311,-0.497 0.132,-0.13 0.285,-0.228 0.457,-0.294 0.173,-0.066 0.358,-0.1 0.56,-0.1 0.324,0 0.637,0.072 0.939,0.211 0.302,0.141 0.569,0.346 0.803,0.616 0.232,0.27 0.421,0.603 0.564,0.998 0.143,0.395 0.214,0.846 0.214,1.354 0,0.272 -0.037,0.507 -0.111,0.709 C 3.772,2.491 3.67,2.656 3.537,2.786 3.404,2.916 3.251,3.014 3.076,3.08 2.901,3.146 2.716,3.18 2.52,3.18 2.195,3.18 1.883,3.109 1.581,2.969 1.279,2.828 1.011,2.623 0.774,2.354 0.539,2.083 0.351,1.75 0.211,1.355 0.07,0.961 0,0.509 0,0 m -0.572,0.087 c 0,0.546 0.09,1.041 0.269,1.483 0.181,0.443 0.419,0.819 0.716,1.128 0.297,0.311 0.632,0.549 1.006,0.716 0.373,0.167 0.756,0.251 1.148,0.251 0.26,0 0.509,-0.045 0.747,-0.132 C 3.553,3.445 3.763,3.313 3.942,3.136 4.122,2.958 4.266,2.733 4.371,2.46 4.478,2.188 4.53,1.868 4.53,1.502 4.53,0.951 4.44,0.455 4.261,0.013 4.08,-0.43 3.842,-0.807 3.545,-1.116 3.248,-1.426 2.912,-1.665 2.536,-1.831 2.158,-1.999 1.777,-2.082 1.391,-2.082 c -0.266,0 -0.515,0.043 -0.751,0.131 -0.236,0.088 -0.445,0.22 -0.624,0.397 -0.181,0.178 -0.324,0.404 -0.43,0.676 -0.106,0.274 -0.158,0.595 -0.158,0.965"
           style="fill:#ffffff;fill-opacity:1;fill-rule:nonzero;stroke:none"
           id="path298" /></g><g
         id="g300"
         transform="translate(337.8984,49.1553)"><path
           d="M 0,0 C 0.662,0 1.17,0.126 1.525,0.378 1.88,0.629 2.058,0.982 2.058,1.438 2.058,1.772 1.946,2.017 1.724,2.17 1.502,2.324 1.149,2.4 0.667,2.4 0.529,2.4 0.396,2.394 0.266,2.38 0.137,2.367 0.018,2.355 -0.088,2.345 L -0.659,0 Z M 0.747,2.869 C 1.372,2.869 1.841,2.743 2.153,2.491 2.466,2.24 2.622,1.884 2.622,1.423 2.622,1.01 2.489,0.647 2.225,0.338 1.96,0.027 1.558,-0.196 1.016,-0.334 1.079,-0.451 1.156,-0.603 1.247,-0.791 1.336,-0.979 1.428,-1.182 1.521,-1.399 1.613,-1.616 1.704,-1.837 1.791,-2.063 1.879,-2.288 1.952,-2.496 2.01,-2.687 H 1.437 c -0.148,0.451 -0.311,0.871 -0.489,1.26 -0.177,0.39 -0.343,0.719 -0.497,0.99 -0.174,-0.016 -0.356,-0.024 -0.546,-0.024 h -0.667 l -0.534,-2.226 h -0.54 l 1.297,5.406 c 0.185,0.037 0.388,0.071 0.607,0.103 0.22,0.032 0.447,0.047 0.679,0.047"
           style="fill:#ffffff;fill-opacity:1;fill-rule:nonzero;stroke:none"
           id="path302" /></g><g
         id="g304"><g
           id="g306" /><g
           id="g346"><g
             clip-path="url(#clipPath310)"
             opacity="0.399994"
             id="g344"><g
               id="g342"><g
                 clip-path="url(#clipPath314)"
                 id="g340"><g
                   id="g338"><g
                     id="g324" /><g
                     id="g336"><g
                       clip-path="url(#clipPath318)"
                       id="g334"><g
                         id="g332"><g
                           clip-path="url(#clipPath322)"
                           id="g330"><g
                             transform="translate(739.6787,618.6089)"
                             id="g328"><path
                               d="m 0,0 v -9.787 h 27.568 c 0.361,-1.299 1.541,-2.261 2.958,-2.261 1.703,0 3.082,1.38 3.082,3.08 0,1.7 -1.379,3.084 -3.082,3.084 -1.414,0 -2.595,-0.963 -2.958,-2.263 H 1.639 v 6.508 H 46.724 V -17.241 H -11.063 V 0 h -138.44 V -1.639 H -12.705 V -18.881 H 48.364 V 0 Z"
                               style="fill:#ffffff;fill-opacity:1;fill-rule:nonzero;stroke:none"
                               id="path326" /></g></g></g></g></g></g></g></g></g></g></g><g
         id="g348"><g
           id="g350" /><g
           id="g870"><g
             clip-path="url(#clipPath354)"
             opacity="0.399994"
             id="g868"><g
               id="g866"><g
                 clip-path="url(#clipPath358)"
                 id="g864"><g
                   id="g542"><g
                     id="g528" /><g
                     id="g540"><g
                       clip-path="url(#clipPath362)"
                       opacity="0.699997"
                       id="g538"><g
                         id="g536"><g
                           clip-path="url(#clipPath366)"
                           id="g534"><g
                             transform="translate(903.1035,297.3408)"
                             id="g532"><path
                               d="m 0,0 h -56.107 l -19.615,-19.616 h -110.321 v -48.733 h -205.606 v -1.635 h 207.246 v 48.727 H -75.044 L -55.425,-1.64 H 0 c 0.362,-1.298 1.541,-2.261 2.958,-2.261 1.7,0 3.081,1.381 3.081,3.084 0,1.702 -1.381,3.079 -3.081,3.079 C 1.541,2.262 0.358,1.303 0,0"
                               style="fill:#ffffff;fill-opacity:1;fill-rule:nonzero;stroke:none"
                               id="path530" /></g></g></g></g></g></g><g
                   id="g558"><g
                     id="g544" /><g
                     id="g556"><g
                       clip-path="url(#clipPath370)"
                       opacity="0.699997"
                       id="g554"><g
                         id="g552"><g
                           clip-path="url(#clipPath374)"
                           id="g550"><g
                             transform="translate(889.3711,304.0205)"
                             id="g548"><path
                               d="m 0,0 h -45.732 l -19.621,-19.614 h -114.473 v -48.73 h -198.091 v -1.64 h 199.73 v 48.73 h 113.514 l 19.616,19.618 H 0 c 0.361,-1.303 1.542,-2.261 2.959,-2.261 1.7,0 3.082,1.378 3.082,3.079 0,1.705 -1.382,3.081 -3.082,3.081 C 1.542,2.263 0.36,1.303 0,0"
                               style="fill:#ffffff;fill-opacity:1;fill-rule:nonzero;stroke:none"
                               id="path546" /></g></g></g></g></g></g><g
                   id="g574"><g
                     id="g560" /><g
                     id="g572"><g
                       clip-path="url(#clipPath378)"
                       opacity="0.699997"
                       id="g570"><g
                         id="g568"><g
                           clip-path="url(#clipPath382)"
                           id="g566"><g
                             transform="translate(835.7559,313.7832)"
                             id="g564"><path
                               d="m 0,0 h -56.104 l -19.62,-19.621 h -76.985 V -2.38 h -141.808 v -1.636 h 140.167 v -17.242 h 79.302 l 19.619,19.616 H 0 c 0.36,-1.302 1.537,-2.262 2.956,-2.262 1.703,0 3.082,1.379 3.082,3.081 C 6.038,0.882 4.659,2.26 2.956,2.26 1.54,2.26 0.361,1.301 0,0"
                               style="fill:#ffffff;fill-opacity:1;fill-rule:nonzero;stroke:none"
                               id="path562" /></g></g></g></g></g></g><g
                   id="g590"><g
                     id="g576" /><g
                     id="g588"><g
                       clip-path="url(#clipPath386)"
                       opacity="0.699997"
                       id="g586"><g
                         id="g584"><g
                           clip-path="url(#clipPath390)"
                           id="g582"><g
                             transform="translate(822.0215,320.4619)"
                             id="g580"><path
                               d="m 0,0 h -45.734 l -19.62,-19.614 h -66.996 v 17.241 h -151.793 v -1.643 h 150.155 v -17.239 h 69.313 l 19.62,19.619 H 0 c 0.361,-1.302 1.54,-2.262 2.96,-2.262 1.7,0 3.081,1.379 3.081,3.081 0,1.7 -1.381,3.08 -3.081,3.08 C 1.54,2.263 0.361,1.305 0,0"
                               style="fill:#ffffff;fill-opacity:1;fill-rule:nonzero;stroke:none"
                               id="path578" /></g></g></g></g></g></g><g
                   id="g606"><g
                     id="g592" /><g
                     id="g604"><g
                       clip-path="url(#clipPath394)"
                       opacity="0.699997"
                       id="g602"><g
                         id="g600"><g
                           clip-path="url(#clipPath398)"
                           id="g598"><g
                             transform="translate(819.291,327.9219)"
                             id="g596"><path
                               d="m 0,0 h -45.739 l -19.615,-19.616 h -56.55 v 17.243 h -162.242 v -1.642 h 160.603 v -17.24 h 58.867 L -45.06,-1.636 H 0 c 0.36,-1.302 1.542,-2.265 2.957,-2.265 1.702,0 3.081,1.382 3.081,3.084 0,1.7 -1.379,3.08 -3.081,3.08 C 1.542,2.263 0.361,1.304 0,0"
                               style="fill:#ffffff;fill-opacity:1;fill-rule:nonzero;stroke:none"
                               id="path594" /></g></g></g></g></g></g><g
                   id="g622"><g
                     id="g608" /><g
                     id="g620"><g
                       clip-path="url(#clipPath402)"
                       opacity="0.699997"
                       id="g618"><g
                         id="g616"><g
                           clip-path="url(#clipPath406)"
                           id="g614"><g
                             transform="translate(683.3193,243.083)"
                             id="g612"><path
                               d="m 0,0 c 0,1.416 -0.962,2.595 -2.263,2.958 v 16.277 h -28.419 l -19.62,-19.618 h -76.983 v 17.242 h -141.809 v -1.638 h 140.169 V -2.021 h 79.303 l 19.618,19.618 H -3.901 V 2.958 C -5.203,2.598 -6.164,1.416 -6.164,0 c 0,-1.703 1.379,-3.084 3.081,-3.084 C -1.383,-3.084 0,-1.703 0,0"
                               style="fill:#ffffff;fill-opacity:1;fill-rule:nonzero;stroke:none"
                               id="path610" /></g></g></g></g></g></g><g
                   id="g638"><g
                     id="g624" /><g
                     id="g636"><g
                       clip-path="url(#clipPath410)"
                       opacity="0.699997"
                       id="g634"><g
                         id="g632"><g
                           clip-path="url(#clipPath414)"
                           id="g630"><g
                             transform="translate(627.5996,255.2051)"
                             id="g628"><path
                               d="m 0,0 19.619,19.615 h 51.46 c 0.359,-1.301 1.54,-2.262 2.954,-2.262 1.703,0 3.082,1.38 3.082,3.081 0,1.705 -1.379,3.085 -3.082,3.085 -1.415,0 -2.595,-0.962 -2.954,-2.263 H 18.941 L -0.675,1.637 H -57.226 V 18.876 H -219.469 V 17.241 H -58.866 V 0 Z"
                               style="fill:#ffffff;fill-opacity:1;fill-rule:nonzero;stroke:none"
                               id="path626" /></g></g></g></g></g></g><g
                   id="g654"><g
                     id="g640" /><g
                     id="g652"><g
                       clip-path="url(#clipPath418)"
                       opacity="0.350006"
                       id="g650"><g
                         id="g648"><g
                           clip-path="url(#clipPath422)"
                           id="g646"><g
                             transform="translate(858.6875,56.6406)"
                             id="g644"><path
                               d="m 0,0 v 14.972 h -106.519 l -14.756,-15.881 h -45.489 v 17.397 h -74.288 c -0.361,1.303 -1.544,2.263 -2.962,2.263 -1.7,0 -3.078,-1.38 -3.078,-3.081 0,-1.702 1.378,-3.081 3.078,-3.081 1.417,0 2.601,0.959 2.962,2.261 h 72.651 V -2.549 h 47.841 l 14.752,15.882 H -1.641 V -1.639 h 77.074 l 19.616,19.615 h 61.468 v 1.64 H 94.369 L 74.753,0 Z"
                               style="fill:#ffffff;fill-opacity:1;fill-rule:nonzero;stroke:none"
                               id="path642" /></g></g></g></g></g></g><g
                   id="g670"><g
                     id="g656" /><g
                     id="g668"><g
                       clip-path="url(#clipPath426)"
                       opacity="0.350006"
                       id="g666"><g
                         id="g664"><g
                           clip-path="url(#clipPath430)"
                           id="g662"><g
                             transform="translate(866.2822,63.3223)"
                             id="g660"><path
                               d="M 0,0 V 17.24 H -118.319 L -135.734,0 h -30.609 v 17.269 h -109.336 c -0.361,1.3 -1.542,2.263 -2.955,2.263 -1.704,0 -3.084,-1.383 -3.084,-3.084 0,-1.703 1.38,-3.081 3.084,-3.081 1.415,0 2.595,0.961 2.955,2.262 h 107.696 V -1.639 h 32.919 l 17.419,17.241 H -1.641 V -1.639 h 69.316 l 19.617,19.618 h 51.097 v 1.637 H 86.611 L 66.995,0 Z"
                               style="fill:#ffffff;fill-opacity:1;fill-rule:nonzero;stroke:none"
                               id="path658" /></g></g></g></g></g></g><g
                   id="g686"><g
                     id="g672" /><g
                     id="g684"><g
                       clip-path="url(#clipPath434)"
                       opacity="0.350006"
                       id="g682"><g
                         id="g680"><g
                           clip-path="url(#clipPath438)"
                           id="g678"><g
                             transform="translate(740.0859,44.2852)"
                             id="g676"><path
                               d="m 0,0 19.618,19.616 h 52.505 c 0.36,-1.301 1.541,-2.262 2.956,-2.262 1.703,0 3.084,1.381 3.084,3.08 0,1.702 -1.381,3.084 -3.084,3.084 -1.415,0 -2.594,-0.962 -2.956,-2.262 H 18.938 L -0.681,1.638 H -57.227 V 18.881 H -219.47 V 17.24 H -58.867 V 0 Z"
                               style="fill:#ffffff;fill-opacity:1;fill-rule:nonzero;stroke:none"
                               id="path674" /></g></g></g></g></g></g><g
                   id="g702"><g
                     id="g688" /><g
                     id="g700"><g
                       clip-path="url(#clipPath442)"
                       opacity="0.699997"
                       id="g698"><g
                         id="g696"><g
                           clip-path="url(#clipPath446)"
                           id="g694"><g
                             transform="translate(727.7988,350.8633)"
                             id="g692"><path
                               d="m 0,0 v -29.739 c -1.301,-0.362 -2.262,-1.542 -2.262,-2.959 0,-1.703 1.379,-3.081 3.079,-3.081 1.705,0 3.084,1.378 3.084,3.081 0,1.414 -0.96,2.597 -2.261,2.959 v 31.38 h -28.421 l -19.618,-19.617 h -76.986 v 17.242 h -141.806 v -1.641 h 140.167 v -17.239 h 79.305 L -26.103,0 Z"
                               style="fill:#ffffff;fill-opacity:1;fill-rule:nonzero;stroke:none"
                               id="path690" /></g></g></g></g></g></g><g
                   id="g718"><g
                     id="g704" /><g
                     id="g716"><g
                       clip-path="url(#clipPath450)"
                       opacity="0.699997"
                       id="g714"><g
                         id="g712"><g
                           clip-path="url(#clipPath454)"
                           id="g710"><g
                             transform="translate(767.2979,366.6475)"
                             id="g708"><path
                               d="m 0,0 h -72.375 l -19.616,-19.618 h -56.551 v 17.239 h -162.243 v -1.636 h 160.602 v -17.241 h 58.868 l 19.616,19.613 H 0 c 0.36,-1.297 1.537,-2.262 2.954,-2.262 1.703,0 3.083,1.381 3.083,3.083 0,1.703 -1.38,3.083 -3.083,3.083 C 1.54,2.261 0.361,1.301 0,0"
                               style="fill:#ffffff;fill-opacity:1;fill-rule:nonzero;stroke:none"
                               id="path706" /></g></g></g></g></g></g><g
                   id="g734"><g
                     id="g720" /><g
                     id="g732"><g
                       clip-path="url(#clipPath458)"
                       opacity="0.699997"
                       id="g730"><g
                         id="g728"><g
                           clip-path="url(#clipPath462)"
                           id="g726"><g
                             transform="translate(671.8311,361.8799)"
                             id="g724"><path
                               d="m 0,0 c 0.36,-1.302 1.539,-2.262 2.957,-2.262 1.703,0 3.081,1.379 3.081,3.081 0,1.703 -1.378,3.084 -3.081,3.084 C 1.539,3.903 0.36,2.94 0,1.64 h -37.839 v 17.241 h -151.794 v -1.64 H -39.479 V 0 Z"
                               style="fill:#ffffff;fill-opacity:1;fill-rule:nonzero;stroke:none"
                               id="path722" /></g></g></g></g></g></g><g
                   id="g750"><g
                     id="g736" /><g
                     id="g748"><g
                       clip-path="url(#clipPath466)"
                       opacity="0.699997"
                       id="g746"><g
                         id="g744"><g
                           clip-path="url(#clipPath470)"
                           id="g742"><g
                             transform="translate(1076.8457,36.5146)"
                             id="g740"><path
                               d="M 0,0 C -1.417,0 -2.596,-0.963 -2.956,-2.263 H -59.063 L -78.68,-21.882 h -76.984 v 17.24 h -173.271 l 5.044,5.044 h 173.212 v -17.24 h 69.316 l 19.616,19.619 h 45.06 c 0.36,-1.303 1.541,-2.261 2.956,-2.261 1.702,0 3.084,1.377 3.084,3.079 0,1.7 -1.382,3.081 -3.084,3.081 -1.415,0 -2.596,-0.96 -2.956,-2.263 h -45.736 l -19.621,-19.614 h -66.994 V 2.043 H -322.25 l 5.822,5.819 h 173.461 v -17.24 h 58.87 l 19.62,19.616 h 45.056 c 0.363,-1.3 1.542,-2.262 2.956,-2.262 1.703,0 3.081,1.382 3.081,3.083 0,1.702 -1.378,3.081 -3.081,3.081 -1.415,0 -2.596,-0.96 -2.956,-2.263 H -65.158 L -84.774,-7.74 h -56.551 V 9.501 h -173.463 l 3.741,3.743 h 80.29 c 0.363,-1.303 1.544,-2.263 2.961,-2.263 1.7,0 3.079,1.381 3.079,3.083 0,1.703 -1.379,3.079 -3.079,3.079 -1.415,0 -2.598,-0.96 -2.961,-2.258 h -80.968 l -19.618,-19.618 h -76.983 v 17.24 h -229.916 c -0.214,1.492 -1.485,2.643 -3.036,2.643 -1.701,0 -3.08,-1.379 -3.08,-3.08 0,-1.701 1.379,-3.081 3.08,-3.081 1.275,0 2.369,0.776 2.837,1.88 h 228.475 V -6.372 h 79.301 l 0.095,0.094 h 173.264 V -23.52 H -78 l 19.617,19.617 h 55.427 c 0.36,-1.304 1.539,-2.262 2.956,-2.262 1.702,0 3.084,1.379 3.084,3.08 C 3.084,-1.383 1.702,0 0,0"
                               style="fill:#ffffff;fill-opacity:1;fill-rule:nonzero;stroke:none"
                               id="path738" /></g></g></g></g></g></g><g
                   id="g766"><g
                     id="g752" /><g
                     id="g764"><g
                       clip-path="url(#clipPath474)"
                       opacity="0.699997"
                       id="g762"><g
                         id="g760"><g
                           clip-path="url(#clipPath478)"
                           id="g758"><g
                             transform="translate(831.0137,60.3447)"
                             id="g756"><path
                               d="m 0,0 c -1.416,0 -2.6,-0.963 -2.96,-2.265 h -66.296 l -19.617,-19.617 h -66.998 V -4.64 h -148.881 c -0.404,1.228 -1.548,2.12 -2.912,2.12 -1.701,0 -3.08,-1.378 -3.08,-3.08 0,-1.701 1.379,-3.08 3.08,-3.08 1.467,0 2.689,1.028 2.999,2.401 h 147.155 v -17.242 h 69.317 l 19.616,19.617 H -2.96 c 0.363,-1.3 1.546,-2.262 2.96,-2.262 1.703,0 3.084,1.382 3.084,3.084 C 3.084,-1.382 1.703,0 0,0"
                               style="fill:#ffffff;fill-opacity:1;fill-rule:nonzero;stroke:none"
                               id="path754" /></g></g></g></g></g></g><g
                   id="g782"><g
                     id="g768" /><g
                     id="g780"><g
                       clip-path="url(#clipPath482)"
                       opacity="0.149994"
                       id="g778"><g
                         id="g776"><g
                           clip-path="url(#clipPath486)"
                           id="g774"><g
                             transform="translate(514.5342,228.3564)"
                             id="g772"><path
                               d="m 0,0 c 0,1.701 -1.379,3.08 -3.08,3.08 -1.701,0 -3.081,-1.379 -3.081,-3.08 0,-1.701 1.38,-3.08 3.081,-3.08 C -1.379,-3.08 0,-1.701 0,0"
                               style="fill:#ffffff;fill-opacity:1;fill-rule:nonzero;stroke:none"
                               id="path770" /></g></g></g></g></g></g><g
                   id="g798"><g
                     id="g784" /><g
                     id="g796"><g
                       clip-path="url(#clipPath490)"
                       opacity="0.699997"
                       id="g794"><g
                         id="g792"><g
                           clip-path="url(#clipPath494)"
                           id="g790"><g
                             transform="translate(738.9375,333.1445)"
                             id="g788"><path
                               d="M 0,0 V 26.043 H -41.281 L -60.899,6.425 h -66.997 v 17.241 h -148.803 c -0.32,1.361 -1.534,2.377 -2.992,2.377 -1.702,0 -3.08,-1.379 -3.08,-3.08 0,-1.701 1.378,-3.08 3.08,-3.08 1.372,0 2.52,0.903 2.919,2.142 h 147.236 V 4.786 h 69.316 l 19.616,19.616 H -1.639 V 0 c -1.3,-0.361 -2.26,-1.542 -2.26,-2.96 0,-1.7 1.378,-3.08 3.081,-3.08 1.7,0 3.081,1.38 3.081,3.08 C 2.263,-1.542 1.3,-0.361 0,0"
                               style="fill:#ffffff;fill-opacity:1;fill-rule:nonzero;stroke:none"
                               id="path786" /></g></g></g></g></g></g><g
                   id="g814"><g
                     id="g800" /><g
                     id="g812"><g
                       clip-path="url(#clipPath498)"
                       opacity="0.699997"
                       id="g810"><g
                         id="g808"><g
                           clip-path="url(#clipPath502)"
                           id="g806"><g
                             transform="translate(682.167,372.6309)"
                             id="g804"><path
                               d="M 0,0 C -1.419,0 -2.6,-0.867 -2.959,-2.04 H -40.46 v 15.532 h -159.265 c -0.336,1.204 -1.536,2.099 -2.977,2.099 -1.701,0 -3.08,-1.242 -3.08,-2.775 0,-1.532 1.379,-2.774 3.08,-2.774 1.39,0 2.551,0.835 2.934,1.974 H -42.1 V -3.514 H -2.959 C -2.6,-4.687 -1.419,-5.552 0,-5.552 c 1.701,0 3.077,1.241 3.077,2.774 C 3.077,-1.243 1.701,0 0,0"
                               style="fill:#ffffff;fill-opacity:1;fill-rule:nonzero;stroke:none"
                               id="path802" /></g></g></g></g></g></g><g
                   id="g830"><g
                     id="g816" /><g
                     id="g828"><g
                       clip-path="url(#clipPath506)"
                       opacity="0.699997"
                       id="g826"><g
                         id="g824"><g
                           clip-path="url(#clipPath510)"
                           id="g822"><g
                             transform="translate(664.542,359.0996)"
                             id="g820"><path
                               d="m 0,0 c -1.419,0 -2.599,-0.96 -2.959,-2.262 h -34.217 v 17.241 h -138.847 c -0.358,1.306 -1.54,2.271 -2.959,2.271 -1.702,0 -3.08,-1.379 -3.08,-3.08 0,-1.701 1.378,-3.08 3.08,-3.08 1.411,0 2.587,0.954 2.952,2.249 H -38.813 V -3.901 H -2.959 C -2.596,-5.202 -1.419,-6.16 0,-6.16 c 1.7,0 3.082,1.376 3.082,3.081 C 3.082,-1.381 1.7,0 0,0"
                               style="fill:#ffffff;fill-opacity:1;fill-rule:nonzero;stroke:none"
                               id="path818" /></g></g></g></g></g></g><g
                   id="g846"><g
                     id="g832" /><g
                     id="g844"><g
                       clip-path="url(#clipPath514)"
                       opacity="0.699997"
                       id="g842"><g
                         id="g840"><g
                           clip-path="url(#clipPath518)"
                           id="g838"><g
                             transform="translate(624.9805,305.9619)"
                             id="g836"><path
                               d="m 0,0 v -9.784 h 27.567 c 0.363,-1.3 1.542,-2.263 2.958,-2.263 1.702,0 3.08,1.381 3.08,3.081 0,1.701 -1.378,3.083 -3.08,3.083 -1.414,0 -2.594,-0.962 -2.958,-2.263 H 1.638 v 6.505 H 46.722 V -17.239 H -11.065 V 0 h -135.358 c 0,1.701 -1.379,3.08 -3.08,3.08 -1.701,0 -3.08,-1.379 -3.08,-3.08 0,-1.701 1.379,-3.08 3.08,-3.08 1.097,0 2.053,0.577 2.599,1.439 H -12.706 V -18.882 H 48.362 V 0 Z"
                               style="fill:#ffffff;fill-opacity:1;fill-rule:nonzero;stroke:none"
                               id="path834" /></g></g></g></g></g></g><g
                   id="g862"><g
                     id="g848" /><g
                     id="g860"><g
                       clip-path="url(#clipPath522)"
                       opacity="0.699997"
                       id="g858"><g
                         id="g856"><g
                           clip-path="url(#clipPath526)"
                           id="g854"><g
                             transform="translate(690.5566,258.0605)"
                             id="g852"><path
                               d="M 0,0 V 10.94 H -41.283 L -60.9,-8.677 h -66.997 V 8.564 h -151.537 c -0.319,1.361 -1.534,2.376 -2.992,2.376 -1.701,0 -3.08,-1.378 -3.08,-3.08 0,-1.701 1.379,-3.08 3.08,-3.08 1.373,0 2.523,0.905 2.92,2.145 h 149.971 v -17.242 h 69.314 L -40.604,9.302 H -1.64 V 0 c -1.3,-0.359 -2.261,-1.543 -2.261,-2.958 0,-1.7 1.379,-3.083 3.081,-3.083 1.7,0 3.082,1.383 3.082,3.083 C 2.262,-1.543 1.301,-0.361 0,0"
                               style="fill:#ffffff;fill-opacity:1;fill-rule:nonzero;stroke:none"
                               id="path850" /></g></g></g></g></g></g></g></g></g></g></g></g></g></svg>
